G04 EAGLE Gerber RS-274X export*
G75*
%MOMM*%
%FSLAX34Y34*%
%LPD*%
%IN*%
%IPPOS*%
%AMOC8*
5,1,8,0,0,1.08239X$1,22.5*%
G01*
%ADD10C,0.254000*%


D10*
X0Y10000D02*
X38Y9128D01*
X152Y8264D01*
X341Y7412D01*
X603Y6580D01*
X937Y5774D01*
X1340Y5000D01*
X1808Y4264D01*
X2340Y3572D01*
X2929Y2929D01*
X3572Y2340D01*
X4264Y1808D01*
X5000Y1340D01*
X5774Y937D01*
X6580Y603D01*
X7412Y341D01*
X8264Y152D01*
X9128Y38D01*
X10000Y0D01*
X227500Y0D01*
X227500Y32500D01*
X227614Y35115D01*
X227956Y37709D01*
X228522Y40265D01*
X229309Y42761D01*
X230311Y45179D01*
X231519Y47500D01*
X232925Y49707D01*
X234519Y51784D01*
X236287Y53713D01*
X238216Y55481D01*
X240293Y57075D01*
X242500Y58481D01*
X244821Y59689D01*
X247239Y60691D01*
X249735Y61478D01*
X252291Y62044D01*
X254885Y62386D01*
X257500Y62500D01*
X290000Y62500D01*
X290000Y402000D01*
X62500Y402000D01*
X62270Y399740D01*
X61845Y397508D01*
X61226Y395322D01*
X60419Y393198D01*
X59430Y391152D01*
X58267Y389201D01*
X56938Y387358D01*
X55453Y385638D01*
X53824Y384055D01*
X52063Y382619D01*
X50184Y381342D01*
X48201Y380233D01*
X46129Y379302D01*
X43983Y378555D01*
X41780Y377998D01*
X39538Y377635D01*
X37272Y377468D01*
X35000Y377500D01*
X0Y377500D01*
X0Y10000D01*
X275000Y319509D02*
X274923Y318530D01*
X274769Y317560D01*
X274540Y316604D01*
X274236Y315670D01*
X273861Y314763D01*
X273415Y313888D01*
X272901Y313050D01*
X272324Y312255D01*
X271686Y311508D01*
X270992Y310814D01*
X270245Y310176D01*
X269450Y309599D01*
X268612Y309085D01*
X267737Y308639D01*
X266830Y308264D01*
X265896Y307960D01*
X264941Y307731D01*
X263970Y307577D01*
X262991Y307500D01*
X262009Y307500D01*
X261030Y307577D01*
X260060Y307731D01*
X259104Y307960D01*
X258170Y308264D01*
X257263Y308639D01*
X256388Y309085D01*
X255550Y309599D01*
X254755Y310176D01*
X254008Y310814D01*
X253314Y311508D01*
X252676Y312255D01*
X252099Y313050D01*
X251585Y313888D01*
X251139Y314763D01*
X250764Y315670D01*
X250460Y316604D01*
X250231Y317560D01*
X250077Y318530D01*
X250000Y319509D01*
X250000Y320491D01*
X250077Y321470D01*
X250231Y322441D01*
X250460Y323396D01*
X250764Y324330D01*
X251139Y325237D01*
X251585Y326112D01*
X252099Y326950D01*
X252676Y327745D01*
X253314Y328492D01*
X254008Y329186D01*
X254755Y329824D01*
X255550Y330401D01*
X256388Y330915D01*
X257263Y331361D01*
X258170Y331736D01*
X259104Y332040D01*
X260060Y332269D01*
X261030Y332423D01*
X262009Y332500D01*
X262991Y332500D01*
X263970Y332423D01*
X264941Y332269D01*
X265896Y332040D01*
X266830Y331736D01*
X267737Y331361D01*
X268612Y330915D01*
X269450Y330401D01*
X270245Y329824D01*
X270992Y329186D01*
X271686Y328492D01*
X272324Y327745D01*
X272901Y326950D01*
X273415Y326112D01*
X273861Y325237D01*
X274236Y324330D01*
X274540Y323396D01*
X274769Y322441D01*
X274923Y321470D01*
X275000Y320491D01*
X275000Y319509D01*
X40000Y119509D02*
X39923Y118530D01*
X39769Y117560D01*
X39540Y116604D01*
X39236Y115670D01*
X38861Y114763D01*
X38415Y113888D01*
X37901Y113050D01*
X37324Y112255D01*
X36686Y111508D01*
X35992Y110814D01*
X35245Y110176D01*
X34450Y109599D01*
X33612Y109085D01*
X32737Y108639D01*
X31830Y108264D01*
X30896Y107960D01*
X29941Y107731D01*
X28970Y107577D01*
X27991Y107500D01*
X27009Y107500D01*
X26030Y107577D01*
X25060Y107731D01*
X24104Y107960D01*
X23170Y108264D01*
X22263Y108639D01*
X21388Y109085D01*
X20550Y109599D01*
X19755Y110176D01*
X19008Y110814D01*
X18314Y111508D01*
X17676Y112255D01*
X17099Y113050D01*
X16585Y113888D01*
X16139Y114763D01*
X15764Y115670D01*
X15460Y116604D01*
X15231Y117560D01*
X15077Y118530D01*
X15000Y119509D01*
X15000Y120491D01*
X15077Y121470D01*
X15231Y122441D01*
X15460Y123396D01*
X15764Y124330D01*
X16139Y125237D01*
X16585Y126112D01*
X17099Y126950D01*
X17676Y127745D01*
X18314Y128492D01*
X19008Y129186D01*
X19755Y129824D01*
X20550Y130401D01*
X21388Y130915D01*
X22263Y131361D01*
X23170Y131736D01*
X24104Y132040D01*
X25060Y132269D01*
X26030Y132423D01*
X27009Y132500D01*
X27991Y132500D01*
X28970Y132423D01*
X29941Y132269D01*
X30896Y132040D01*
X31830Y131736D01*
X32737Y131361D01*
X33612Y130915D01*
X34450Y130401D01*
X35245Y129824D01*
X35992Y129186D01*
X36686Y128492D01*
X37324Y127745D01*
X37901Y126950D01*
X38415Y126112D01*
X38861Y125237D01*
X39236Y124330D01*
X39540Y123396D01*
X39769Y122441D01*
X39923Y121470D01*
X40000Y120491D01*
X40000Y119509D01*
M02*
