G04 EAGLE Gerber RS-274X export*
G75*
%MOMM*%
%FSLAX34Y34*%
%LPD*%
%INSilkscreen Bottom*%
%IPPOS*%
%AMOC8*
5,1,8,0,0,1.08239X$1,22.5*%
G01*
%ADD10C,0.101600*%
%ADD11C,0.250000*%
%ADD12C,0.076200*%
%ADD13C,0.500000*%
%ADD14C,0.120000*%
%ADD15C,0.127000*%


D10*
X109299Y345508D02*
X111896Y345508D01*
X111995Y345510D01*
X112095Y345516D01*
X112194Y345525D01*
X112292Y345538D01*
X112390Y345555D01*
X112488Y345576D01*
X112584Y345601D01*
X112679Y345629D01*
X112773Y345661D01*
X112866Y345696D01*
X112958Y345735D01*
X113048Y345778D01*
X113136Y345823D01*
X113223Y345873D01*
X113307Y345925D01*
X113390Y345981D01*
X113470Y346039D01*
X113548Y346101D01*
X113623Y346166D01*
X113696Y346234D01*
X113766Y346304D01*
X113834Y346377D01*
X113899Y346452D01*
X113961Y346530D01*
X114019Y346610D01*
X114075Y346693D01*
X114127Y346777D01*
X114177Y346864D01*
X114222Y346952D01*
X114265Y347042D01*
X114304Y347134D01*
X114339Y347227D01*
X114371Y347321D01*
X114399Y347416D01*
X114424Y347512D01*
X114445Y347610D01*
X114462Y347708D01*
X114475Y347806D01*
X114484Y347905D01*
X114490Y348005D01*
X114492Y348104D01*
X114492Y354596D01*
X114490Y354695D01*
X114484Y354795D01*
X114475Y354894D01*
X114462Y354992D01*
X114445Y355090D01*
X114424Y355188D01*
X114399Y355284D01*
X114371Y355379D01*
X114339Y355473D01*
X114304Y355566D01*
X114265Y355658D01*
X114222Y355748D01*
X114177Y355836D01*
X114127Y355923D01*
X114075Y356007D01*
X114019Y356090D01*
X113961Y356170D01*
X113899Y356248D01*
X113834Y356323D01*
X113766Y356396D01*
X113696Y356466D01*
X113623Y356534D01*
X113548Y356599D01*
X113470Y356661D01*
X113390Y356719D01*
X113307Y356775D01*
X113223Y356827D01*
X113136Y356877D01*
X113048Y356922D01*
X112958Y356965D01*
X112866Y357004D01*
X112773Y357039D01*
X112679Y357071D01*
X112584Y357099D01*
X112488Y357124D01*
X112390Y357145D01*
X112292Y357162D01*
X112194Y357175D01*
X112095Y357184D01*
X111995Y357190D01*
X111896Y357192D01*
X109299Y357192D01*
X101364Y357192D02*
X101257Y357190D01*
X101151Y357184D01*
X101045Y357174D01*
X100939Y357161D01*
X100833Y357143D01*
X100729Y357122D01*
X100625Y357097D01*
X100522Y357068D01*
X100421Y357036D01*
X100321Y356999D01*
X100222Y356959D01*
X100124Y356916D01*
X100028Y356869D01*
X99934Y356818D01*
X99842Y356764D01*
X99752Y356707D01*
X99664Y356647D01*
X99579Y356583D01*
X99496Y356516D01*
X99415Y356446D01*
X99337Y356374D01*
X99261Y356298D01*
X99189Y356220D01*
X99119Y356139D01*
X99052Y356056D01*
X98988Y355971D01*
X98928Y355883D01*
X98871Y355793D01*
X98817Y355701D01*
X98766Y355607D01*
X98719Y355511D01*
X98676Y355413D01*
X98636Y355314D01*
X98599Y355214D01*
X98567Y355113D01*
X98538Y355010D01*
X98513Y354906D01*
X98492Y354802D01*
X98474Y354696D01*
X98461Y354590D01*
X98451Y354484D01*
X98445Y354378D01*
X98443Y354271D01*
X101364Y357192D02*
X101485Y357190D01*
X101606Y357184D01*
X101726Y357174D01*
X101847Y357161D01*
X101966Y357143D01*
X102086Y357122D01*
X102204Y357097D01*
X102321Y357068D01*
X102438Y357035D01*
X102553Y356999D01*
X102667Y356958D01*
X102780Y356915D01*
X102892Y356867D01*
X103001Y356816D01*
X103109Y356761D01*
X103216Y356703D01*
X103320Y356642D01*
X103422Y356577D01*
X103522Y356509D01*
X103620Y356438D01*
X103716Y356364D01*
X103809Y356287D01*
X103899Y356206D01*
X103987Y356123D01*
X104072Y356037D01*
X104155Y355948D01*
X104234Y355857D01*
X104311Y355763D01*
X104384Y355667D01*
X104454Y355569D01*
X104521Y355468D01*
X104585Y355365D01*
X104646Y355260D01*
X104703Y355153D01*
X104756Y355045D01*
X104806Y354935D01*
X104852Y354823D01*
X104895Y354710D01*
X104934Y354595D01*
X99417Y351999D02*
X99338Y352077D01*
X99262Y352157D01*
X99189Y352240D01*
X99119Y352326D01*
X99052Y352413D01*
X98988Y352504D01*
X98928Y352596D01*
X98870Y352690D01*
X98816Y352787D01*
X98766Y352885D01*
X98719Y352985D01*
X98675Y353086D01*
X98635Y353189D01*
X98599Y353294D01*
X98567Y353399D01*
X98538Y353506D01*
X98513Y353613D01*
X98491Y353722D01*
X98474Y353831D01*
X98460Y353940D01*
X98451Y354050D01*
X98445Y354161D01*
X98443Y354271D01*
X99416Y351999D02*
X104934Y345508D01*
X98443Y345508D01*
X109299Y375508D02*
X111896Y375508D01*
X111995Y375510D01*
X112095Y375516D01*
X112194Y375525D01*
X112292Y375538D01*
X112390Y375555D01*
X112488Y375576D01*
X112584Y375601D01*
X112679Y375629D01*
X112773Y375661D01*
X112866Y375696D01*
X112958Y375735D01*
X113048Y375778D01*
X113136Y375823D01*
X113223Y375873D01*
X113307Y375925D01*
X113390Y375981D01*
X113470Y376039D01*
X113548Y376101D01*
X113623Y376166D01*
X113696Y376234D01*
X113766Y376304D01*
X113834Y376377D01*
X113899Y376452D01*
X113961Y376530D01*
X114019Y376610D01*
X114075Y376693D01*
X114127Y376777D01*
X114177Y376864D01*
X114222Y376952D01*
X114265Y377042D01*
X114304Y377134D01*
X114339Y377227D01*
X114371Y377321D01*
X114399Y377416D01*
X114424Y377512D01*
X114445Y377610D01*
X114462Y377708D01*
X114475Y377806D01*
X114484Y377905D01*
X114490Y378005D01*
X114492Y378104D01*
X114492Y384596D01*
X114490Y384695D01*
X114484Y384795D01*
X114475Y384894D01*
X114462Y384992D01*
X114445Y385090D01*
X114424Y385188D01*
X114399Y385284D01*
X114371Y385379D01*
X114339Y385473D01*
X114304Y385566D01*
X114265Y385658D01*
X114222Y385748D01*
X114177Y385836D01*
X114127Y385923D01*
X114075Y386007D01*
X114019Y386090D01*
X113961Y386170D01*
X113899Y386248D01*
X113834Y386323D01*
X113766Y386396D01*
X113696Y386466D01*
X113623Y386534D01*
X113548Y386599D01*
X113470Y386661D01*
X113390Y386719D01*
X113307Y386775D01*
X113223Y386827D01*
X113136Y386877D01*
X113048Y386922D01*
X112958Y386965D01*
X112866Y387004D01*
X112773Y387039D01*
X112679Y387071D01*
X112584Y387099D01*
X112488Y387124D01*
X112390Y387145D01*
X112292Y387162D01*
X112194Y387175D01*
X112095Y387184D01*
X111995Y387190D01*
X111896Y387192D01*
X109299Y387192D01*
X104934Y375508D02*
X101688Y375508D01*
X101575Y375510D01*
X101462Y375516D01*
X101349Y375526D01*
X101236Y375540D01*
X101124Y375557D01*
X101013Y375579D01*
X100903Y375604D01*
X100793Y375634D01*
X100685Y375667D01*
X100578Y375704D01*
X100472Y375744D01*
X100368Y375789D01*
X100265Y375837D01*
X100164Y375888D01*
X100065Y375943D01*
X99968Y376001D01*
X99873Y376063D01*
X99780Y376128D01*
X99690Y376196D01*
X99602Y376267D01*
X99516Y376342D01*
X99433Y376419D01*
X99353Y376499D01*
X99276Y376582D01*
X99201Y376668D01*
X99130Y376756D01*
X99062Y376846D01*
X98997Y376939D01*
X98935Y377034D01*
X98877Y377131D01*
X98822Y377230D01*
X98771Y377331D01*
X98723Y377434D01*
X98678Y377538D01*
X98638Y377644D01*
X98601Y377751D01*
X98568Y377859D01*
X98538Y377969D01*
X98513Y378079D01*
X98491Y378190D01*
X98474Y378302D01*
X98460Y378415D01*
X98450Y378528D01*
X98444Y378641D01*
X98442Y378754D01*
X98444Y378867D01*
X98450Y378980D01*
X98460Y379093D01*
X98474Y379206D01*
X98491Y379318D01*
X98513Y379429D01*
X98538Y379539D01*
X98568Y379649D01*
X98601Y379757D01*
X98638Y379864D01*
X98678Y379970D01*
X98723Y380074D01*
X98771Y380177D01*
X98822Y380278D01*
X98877Y380377D01*
X98935Y380474D01*
X98997Y380569D01*
X99062Y380662D01*
X99130Y380752D01*
X99201Y380840D01*
X99276Y380926D01*
X99353Y381009D01*
X99433Y381089D01*
X99516Y381166D01*
X99602Y381241D01*
X99690Y381312D01*
X99780Y381380D01*
X99873Y381445D01*
X99968Y381507D01*
X100065Y381565D01*
X100164Y381620D01*
X100265Y381671D01*
X100368Y381719D01*
X100472Y381764D01*
X100578Y381804D01*
X100685Y381841D01*
X100793Y381874D01*
X100903Y381904D01*
X101013Y381929D01*
X101124Y381951D01*
X101236Y381968D01*
X101349Y381982D01*
X101462Y381992D01*
X101575Y381998D01*
X101688Y382000D01*
X101039Y387192D02*
X104934Y387192D01*
X101039Y387192D02*
X100938Y387190D01*
X100838Y387184D01*
X100738Y387174D01*
X100638Y387161D01*
X100539Y387143D01*
X100440Y387122D01*
X100343Y387097D01*
X100246Y387068D01*
X100151Y387035D01*
X100057Y386999D01*
X99965Y386959D01*
X99874Y386916D01*
X99785Y386869D01*
X99698Y386819D01*
X99612Y386765D01*
X99529Y386708D01*
X99449Y386648D01*
X99370Y386585D01*
X99294Y386518D01*
X99221Y386449D01*
X99151Y386377D01*
X99083Y386303D01*
X99018Y386226D01*
X98957Y386146D01*
X98898Y386064D01*
X98843Y385980D01*
X98791Y385894D01*
X98742Y385806D01*
X98697Y385716D01*
X98655Y385624D01*
X98617Y385531D01*
X98583Y385436D01*
X98552Y385341D01*
X98525Y385244D01*
X98502Y385146D01*
X98482Y385047D01*
X98467Y384947D01*
X98455Y384847D01*
X98447Y384747D01*
X98443Y384646D01*
X98443Y384546D01*
X98447Y384445D01*
X98455Y384345D01*
X98467Y384245D01*
X98482Y384145D01*
X98502Y384046D01*
X98525Y383948D01*
X98552Y383851D01*
X98583Y383756D01*
X98617Y383661D01*
X98655Y383568D01*
X98697Y383476D01*
X98742Y383386D01*
X98791Y383298D01*
X98843Y383212D01*
X98898Y383128D01*
X98957Y383046D01*
X99018Y382966D01*
X99083Y382889D01*
X99151Y382815D01*
X99221Y382743D01*
X99294Y382674D01*
X99370Y382607D01*
X99449Y382544D01*
X99529Y382484D01*
X99612Y382427D01*
X99698Y382373D01*
X99785Y382323D01*
X99874Y382276D01*
X99965Y382233D01*
X100057Y382193D01*
X100151Y382157D01*
X100246Y382124D01*
X100343Y382095D01*
X100440Y382070D01*
X100539Y382049D01*
X100638Y382031D01*
X100738Y382018D01*
X100838Y382008D01*
X100938Y382002D01*
X101039Y382000D01*
X101039Y381999D02*
X103636Y381999D01*
X154299Y165508D02*
X156896Y165508D01*
X156995Y165510D01*
X157095Y165516D01*
X157194Y165525D01*
X157292Y165538D01*
X157390Y165555D01*
X157488Y165576D01*
X157584Y165601D01*
X157679Y165629D01*
X157773Y165661D01*
X157866Y165696D01*
X157958Y165735D01*
X158048Y165778D01*
X158136Y165823D01*
X158223Y165873D01*
X158307Y165925D01*
X158390Y165981D01*
X158470Y166039D01*
X158548Y166101D01*
X158623Y166166D01*
X158696Y166234D01*
X158766Y166304D01*
X158834Y166377D01*
X158899Y166452D01*
X158961Y166530D01*
X159019Y166610D01*
X159075Y166693D01*
X159127Y166777D01*
X159177Y166864D01*
X159222Y166952D01*
X159265Y167042D01*
X159304Y167134D01*
X159339Y167227D01*
X159371Y167321D01*
X159399Y167416D01*
X159424Y167512D01*
X159445Y167610D01*
X159462Y167708D01*
X159475Y167806D01*
X159484Y167905D01*
X159490Y168005D01*
X159492Y168104D01*
X159492Y174596D01*
X159490Y174695D01*
X159484Y174795D01*
X159475Y174894D01*
X159462Y174992D01*
X159445Y175090D01*
X159424Y175188D01*
X159399Y175284D01*
X159371Y175379D01*
X159339Y175473D01*
X159304Y175566D01*
X159265Y175658D01*
X159222Y175748D01*
X159177Y175836D01*
X159127Y175923D01*
X159075Y176007D01*
X159019Y176090D01*
X158961Y176170D01*
X158899Y176248D01*
X158834Y176323D01*
X158766Y176396D01*
X158696Y176466D01*
X158623Y176534D01*
X158548Y176599D01*
X158470Y176661D01*
X158390Y176719D01*
X158307Y176775D01*
X158223Y176827D01*
X158136Y176877D01*
X158048Y176922D01*
X157958Y176965D01*
X157866Y177004D01*
X157773Y177039D01*
X157679Y177071D01*
X157584Y177099D01*
X157488Y177124D01*
X157390Y177145D01*
X157292Y177162D01*
X157194Y177175D01*
X157095Y177184D01*
X156995Y177190D01*
X156896Y177192D01*
X154299Y177192D01*
X147337Y177192D02*
X149934Y168104D01*
X143443Y168104D01*
X145390Y170701D02*
X145390Y165508D01*
X101896Y160508D02*
X99299Y160508D01*
X101896Y160508D02*
X101995Y160510D01*
X102095Y160516D01*
X102194Y160525D01*
X102292Y160538D01*
X102390Y160555D01*
X102488Y160576D01*
X102584Y160601D01*
X102679Y160629D01*
X102773Y160661D01*
X102866Y160696D01*
X102958Y160735D01*
X103048Y160778D01*
X103136Y160823D01*
X103223Y160873D01*
X103307Y160925D01*
X103390Y160981D01*
X103470Y161039D01*
X103548Y161101D01*
X103623Y161166D01*
X103696Y161234D01*
X103766Y161304D01*
X103834Y161377D01*
X103899Y161452D01*
X103961Y161530D01*
X104019Y161610D01*
X104075Y161693D01*
X104127Y161777D01*
X104177Y161864D01*
X104222Y161952D01*
X104265Y162042D01*
X104304Y162134D01*
X104339Y162227D01*
X104371Y162321D01*
X104399Y162416D01*
X104424Y162512D01*
X104445Y162610D01*
X104462Y162708D01*
X104475Y162806D01*
X104484Y162905D01*
X104490Y163005D01*
X104492Y163104D01*
X104492Y169596D01*
X104490Y169695D01*
X104484Y169795D01*
X104475Y169894D01*
X104462Y169992D01*
X104445Y170090D01*
X104424Y170188D01*
X104399Y170284D01*
X104371Y170379D01*
X104339Y170473D01*
X104304Y170566D01*
X104265Y170658D01*
X104222Y170748D01*
X104177Y170836D01*
X104127Y170923D01*
X104075Y171007D01*
X104019Y171090D01*
X103961Y171170D01*
X103899Y171248D01*
X103834Y171323D01*
X103766Y171396D01*
X103696Y171466D01*
X103623Y171534D01*
X103548Y171599D01*
X103470Y171661D01*
X103390Y171719D01*
X103307Y171775D01*
X103223Y171827D01*
X103136Y171877D01*
X103048Y171922D01*
X102958Y171965D01*
X102866Y172004D01*
X102773Y172039D01*
X102679Y172071D01*
X102584Y172099D01*
X102488Y172124D01*
X102390Y172145D01*
X102292Y172162D01*
X102194Y172175D01*
X102095Y172184D01*
X101995Y172190D01*
X101896Y172192D01*
X99299Y172192D01*
X94934Y169596D02*
X91688Y172192D01*
X91688Y160508D01*
X88443Y160508D02*
X94934Y160508D01*
X104492Y190508D02*
X104492Y202192D01*
X101246Y202192D01*
X101133Y202190D01*
X101020Y202184D01*
X100907Y202174D01*
X100794Y202160D01*
X100682Y202143D01*
X100571Y202121D01*
X100461Y202096D01*
X100351Y202066D01*
X100243Y202033D01*
X100136Y201996D01*
X100030Y201956D01*
X99926Y201911D01*
X99823Y201863D01*
X99722Y201812D01*
X99623Y201757D01*
X99526Y201699D01*
X99431Y201637D01*
X99338Y201572D01*
X99248Y201504D01*
X99160Y201433D01*
X99074Y201358D01*
X98991Y201281D01*
X98911Y201201D01*
X98834Y201118D01*
X98759Y201032D01*
X98688Y200944D01*
X98620Y200854D01*
X98555Y200761D01*
X98493Y200666D01*
X98435Y200569D01*
X98380Y200470D01*
X98329Y200369D01*
X98281Y200266D01*
X98236Y200162D01*
X98196Y200056D01*
X98159Y199949D01*
X98126Y199841D01*
X98096Y199731D01*
X98071Y199621D01*
X98049Y199510D01*
X98032Y199398D01*
X98018Y199285D01*
X98008Y199172D01*
X98002Y199059D01*
X98000Y198946D01*
X98002Y198833D01*
X98008Y198720D01*
X98018Y198607D01*
X98032Y198494D01*
X98049Y198382D01*
X98071Y198271D01*
X98096Y198161D01*
X98126Y198051D01*
X98159Y197943D01*
X98196Y197836D01*
X98236Y197730D01*
X98281Y197626D01*
X98329Y197523D01*
X98380Y197422D01*
X98435Y197323D01*
X98493Y197226D01*
X98555Y197131D01*
X98620Y197038D01*
X98688Y196948D01*
X98759Y196860D01*
X98834Y196774D01*
X98911Y196691D01*
X98991Y196611D01*
X99074Y196534D01*
X99160Y196459D01*
X99248Y196388D01*
X99338Y196320D01*
X99431Y196255D01*
X99526Y196193D01*
X99623Y196135D01*
X99722Y196080D01*
X99823Y196029D01*
X99926Y195981D01*
X100030Y195936D01*
X100136Y195896D01*
X100243Y195859D01*
X100351Y195826D01*
X100461Y195796D01*
X100571Y195771D01*
X100682Y195749D01*
X100794Y195732D01*
X100907Y195718D01*
X101020Y195708D01*
X101133Y195702D01*
X101246Y195700D01*
X101246Y195701D02*
X104492Y195701D01*
X100597Y195701D02*
X98001Y190508D01*
X93136Y199596D02*
X89890Y202192D01*
X89890Y190508D01*
X86645Y190508D02*
X93136Y190508D01*
D11*
X207500Y37250D02*
X207502Y37320D01*
X207508Y37390D01*
X207518Y37459D01*
X207531Y37528D01*
X207549Y37596D01*
X207570Y37663D01*
X207595Y37728D01*
X207624Y37792D01*
X207656Y37855D01*
X207692Y37915D01*
X207731Y37973D01*
X207773Y38029D01*
X207818Y38083D01*
X207866Y38134D01*
X207917Y38182D01*
X207971Y38227D01*
X208027Y38269D01*
X208085Y38308D01*
X208145Y38344D01*
X208208Y38376D01*
X208272Y38405D01*
X208337Y38430D01*
X208404Y38451D01*
X208472Y38469D01*
X208541Y38482D01*
X208610Y38492D01*
X208680Y38498D01*
X208750Y38500D01*
X208820Y38498D01*
X208890Y38492D01*
X208959Y38482D01*
X209028Y38469D01*
X209096Y38451D01*
X209163Y38430D01*
X209228Y38405D01*
X209292Y38376D01*
X209355Y38344D01*
X209415Y38308D01*
X209473Y38269D01*
X209529Y38227D01*
X209583Y38182D01*
X209634Y38134D01*
X209682Y38083D01*
X209727Y38029D01*
X209769Y37973D01*
X209808Y37915D01*
X209844Y37855D01*
X209876Y37792D01*
X209905Y37728D01*
X209930Y37663D01*
X209951Y37596D01*
X209969Y37528D01*
X209982Y37459D01*
X209992Y37390D01*
X209998Y37320D01*
X210000Y37250D01*
X209998Y37180D01*
X209992Y37110D01*
X209982Y37041D01*
X209969Y36972D01*
X209951Y36904D01*
X209930Y36837D01*
X209905Y36772D01*
X209876Y36708D01*
X209844Y36645D01*
X209808Y36585D01*
X209769Y36527D01*
X209727Y36471D01*
X209682Y36417D01*
X209634Y36366D01*
X209583Y36318D01*
X209529Y36273D01*
X209473Y36231D01*
X209415Y36192D01*
X209355Y36156D01*
X209292Y36124D01*
X209228Y36095D01*
X209163Y36070D01*
X209096Y36049D01*
X209028Y36031D01*
X208959Y36018D01*
X208890Y36008D01*
X208820Y36002D01*
X208750Y36000D01*
X208680Y36002D01*
X208610Y36008D01*
X208541Y36018D01*
X208472Y36031D01*
X208404Y36049D01*
X208337Y36070D01*
X208272Y36095D01*
X208208Y36124D01*
X208145Y36156D01*
X208085Y36192D01*
X208027Y36231D01*
X207971Y36273D01*
X207917Y36318D01*
X207866Y36366D01*
X207818Y36417D01*
X207773Y36471D01*
X207731Y36527D01*
X207692Y36585D01*
X207656Y36645D01*
X207624Y36708D01*
X207595Y36772D01*
X207570Y36837D01*
X207549Y36904D01*
X207531Y36972D01*
X207518Y37041D01*
X207508Y37110D01*
X207502Y37180D01*
X207500Y37250D01*
D12*
X211381Y10425D02*
X220779Y10425D01*
X211381Y9381D02*
X211381Y11469D01*
X220779Y11469D02*
X220779Y9381D01*
X211381Y17193D02*
X211381Y19281D01*
X211381Y17193D02*
X211383Y17104D01*
X211389Y17016D01*
X211398Y16928D01*
X211411Y16840D01*
X211428Y16753D01*
X211448Y16667D01*
X211473Y16582D01*
X211500Y16497D01*
X211532Y16414D01*
X211566Y16333D01*
X211605Y16253D01*
X211646Y16175D01*
X211691Y16098D01*
X211739Y16024D01*
X211790Y15951D01*
X211844Y15881D01*
X211902Y15814D01*
X211962Y15748D01*
X212024Y15686D01*
X212090Y15626D01*
X212157Y15568D01*
X212227Y15514D01*
X212300Y15463D01*
X212374Y15415D01*
X212451Y15370D01*
X212529Y15329D01*
X212609Y15290D01*
X212690Y15256D01*
X212773Y15224D01*
X212858Y15197D01*
X212943Y15172D01*
X213029Y15152D01*
X213116Y15135D01*
X213204Y15122D01*
X213292Y15113D01*
X213380Y15107D01*
X213469Y15105D01*
X213469Y15104D02*
X218691Y15104D01*
X218691Y15105D02*
X218782Y15107D01*
X218873Y15113D01*
X218964Y15123D01*
X219054Y15137D01*
X219143Y15154D01*
X219231Y15176D01*
X219319Y15202D01*
X219405Y15231D01*
X219490Y15264D01*
X219573Y15301D01*
X219655Y15341D01*
X219735Y15385D01*
X219813Y15432D01*
X219889Y15483D01*
X219962Y15536D01*
X220033Y15593D01*
X220102Y15654D01*
X220167Y15717D01*
X220230Y15782D01*
X220290Y15851D01*
X220348Y15922D01*
X220401Y15995D01*
X220452Y16071D01*
X220499Y16149D01*
X220543Y16229D01*
X220583Y16311D01*
X220620Y16394D01*
X220653Y16479D01*
X220682Y16565D01*
X220708Y16653D01*
X220730Y16741D01*
X220747Y16830D01*
X220761Y16920D01*
X220771Y17011D01*
X220777Y17102D01*
X220779Y17193D01*
X220779Y19281D01*
X220780Y25621D02*
X220778Y25716D01*
X220772Y25810D01*
X220763Y25904D01*
X220750Y25998D01*
X220733Y26091D01*
X220712Y26183D01*
X220687Y26275D01*
X220659Y26365D01*
X220627Y26454D01*
X220592Y26542D01*
X220553Y26628D01*
X220511Y26713D01*
X220465Y26796D01*
X220416Y26877D01*
X220364Y26956D01*
X220309Y27033D01*
X220250Y27107D01*
X220189Y27179D01*
X220125Y27249D01*
X220058Y27316D01*
X219988Y27380D01*
X219916Y27441D01*
X219842Y27500D01*
X219765Y27555D01*
X219686Y27607D01*
X219605Y27656D01*
X219522Y27702D01*
X219437Y27744D01*
X219351Y27783D01*
X219263Y27818D01*
X219174Y27850D01*
X219084Y27878D01*
X218992Y27903D01*
X218900Y27924D01*
X218807Y27941D01*
X218713Y27954D01*
X218619Y27963D01*
X218525Y27969D01*
X218430Y27971D01*
X220779Y25621D02*
X220777Y25513D01*
X220771Y25404D01*
X220761Y25296D01*
X220748Y25189D01*
X220730Y25082D01*
X220709Y24975D01*
X220684Y24870D01*
X220655Y24765D01*
X220623Y24662D01*
X220586Y24560D01*
X220546Y24459D01*
X220503Y24360D01*
X220456Y24262D01*
X220405Y24166D01*
X220351Y24072D01*
X220294Y23980D01*
X220233Y23890D01*
X220169Y23802D01*
X220103Y23717D01*
X220033Y23634D01*
X219960Y23554D01*
X219884Y23476D01*
X219806Y23401D01*
X219725Y23329D01*
X219641Y23260D01*
X219555Y23194D01*
X219467Y23131D01*
X219376Y23072D01*
X219284Y23015D01*
X219189Y22962D01*
X219093Y22913D01*
X218994Y22867D01*
X218895Y22824D01*
X218793Y22785D01*
X218691Y22750D01*
X216602Y27188D02*
X216671Y27257D01*
X216742Y27323D01*
X216815Y27387D01*
X216891Y27448D01*
X216970Y27506D01*
X217050Y27560D01*
X217133Y27612D01*
X217217Y27660D01*
X217303Y27706D01*
X217391Y27747D01*
X217481Y27786D01*
X217572Y27821D01*
X217664Y27852D01*
X217757Y27880D01*
X217851Y27904D01*
X217946Y27924D01*
X218042Y27941D01*
X218139Y27954D01*
X218236Y27963D01*
X218333Y27969D01*
X218430Y27971D01*
X216602Y27188D02*
X211381Y22750D01*
X211381Y27971D01*
D10*
X206896Y65508D02*
X204299Y65508D01*
X206896Y65508D02*
X206995Y65510D01*
X207095Y65516D01*
X207194Y65525D01*
X207292Y65538D01*
X207390Y65555D01*
X207488Y65576D01*
X207584Y65601D01*
X207679Y65629D01*
X207773Y65661D01*
X207866Y65696D01*
X207958Y65735D01*
X208048Y65778D01*
X208136Y65823D01*
X208223Y65873D01*
X208307Y65925D01*
X208390Y65981D01*
X208470Y66039D01*
X208548Y66101D01*
X208623Y66166D01*
X208696Y66234D01*
X208766Y66304D01*
X208834Y66377D01*
X208899Y66452D01*
X208961Y66530D01*
X209019Y66610D01*
X209075Y66693D01*
X209127Y66777D01*
X209177Y66864D01*
X209222Y66952D01*
X209265Y67042D01*
X209304Y67134D01*
X209339Y67227D01*
X209371Y67321D01*
X209399Y67416D01*
X209424Y67512D01*
X209445Y67610D01*
X209462Y67708D01*
X209475Y67806D01*
X209484Y67905D01*
X209490Y68005D01*
X209492Y68104D01*
X209492Y74596D01*
X209490Y74695D01*
X209484Y74795D01*
X209475Y74894D01*
X209462Y74992D01*
X209445Y75090D01*
X209424Y75188D01*
X209399Y75284D01*
X209371Y75379D01*
X209339Y75473D01*
X209304Y75566D01*
X209265Y75658D01*
X209222Y75748D01*
X209177Y75836D01*
X209127Y75923D01*
X209075Y76007D01*
X209019Y76090D01*
X208961Y76170D01*
X208899Y76248D01*
X208834Y76323D01*
X208766Y76396D01*
X208696Y76466D01*
X208623Y76534D01*
X208548Y76599D01*
X208470Y76661D01*
X208390Y76719D01*
X208307Y76775D01*
X208223Y76827D01*
X208136Y76877D01*
X208048Y76922D01*
X207958Y76965D01*
X207866Y77004D01*
X207773Y77039D01*
X207679Y77071D01*
X207584Y77099D01*
X207488Y77124D01*
X207390Y77145D01*
X207292Y77162D01*
X207194Y77175D01*
X207095Y77184D01*
X206995Y77190D01*
X206896Y77192D01*
X204299Y77192D01*
X199934Y65508D02*
X196039Y65508D01*
X195940Y65510D01*
X195840Y65516D01*
X195741Y65525D01*
X195643Y65538D01*
X195545Y65555D01*
X195447Y65576D01*
X195351Y65601D01*
X195256Y65629D01*
X195162Y65661D01*
X195069Y65696D01*
X194977Y65735D01*
X194887Y65778D01*
X194799Y65823D01*
X194712Y65873D01*
X194628Y65925D01*
X194545Y65981D01*
X194465Y66039D01*
X194387Y66101D01*
X194312Y66166D01*
X194239Y66234D01*
X194169Y66304D01*
X194101Y66377D01*
X194036Y66452D01*
X193974Y66530D01*
X193916Y66610D01*
X193860Y66693D01*
X193808Y66777D01*
X193758Y66864D01*
X193713Y66952D01*
X193670Y67042D01*
X193631Y67134D01*
X193596Y67227D01*
X193564Y67321D01*
X193536Y67416D01*
X193511Y67512D01*
X193490Y67610D01*
X193473Y67708D01*
X193460Y67806D01*
X193451Y67905D01*
X193445Y68005D01*
X193443Y68104D01*
X193443Y69403D01*
X193445Y69502D01*
X193451Y69602D01*
X193460Y69701D01*
X193473Y69799D01*
X193490Y69897D01*
X193511Y69995D01*
X193536Y70091D01*
X193564Y70186D01*
X193596Y70280D01*
X193631Y70373D01*
X193670Y70465D01*
X193713Y70555D01*
X193758Y70643D01*
X193808Y70730D01*
X193860Y70814D01*
X193916Y70897D01*
X193974Y70977D01*
X194036Y71055D01*
X194101Y71130D01*
X194169Y71203D01*
X194239Y71273D01*
X194312Y71341D01*
X194387Y71406D01*
X194465Y71468D01*
X194545Y71526D01*
X194628Y71582D01*
X194712Y71634D01*
X194799Y71684D01*
X194887Y71729D01*
X194977Y71772D01*
X195069Y71811D01*
X195162Y71846D01*
X195256Y71878D01*
X195351Y71906D01*
X195447Y71931D01*
X195545Y71952D01*
X195643Y71969D01*
X195741Y71982D01*
X195840Y71991D01*
X195940Y71997D01*
X196039Y71999D01*
X199934Y71999D01*
X199934Y77192D01*
X193443Y77192D01*
X234492Y125508D02*
X234492Y137192D01*
X231246Y137192D01*
X231133Y137190D01*
X231020Y137184D01*
X230907Y137174D01*
X230794Y137160D01*
X230682Y137143D01*
X230571Y137121D01*
X230461Y137096D01*
X230351Y137066D01*
X230243Y137033D01*
X230136Y136996D01*
X230030Y136956D01*
X229926Y136911D01*
X229823Y136863D01*
X229722Y136812D01*
X229623Y136757D01*
X229526Y136699D01*
X229431Y136637D01*
X229338Y136572D01*
X229248Y136504D01*
X229160Y136433D01*
X229074Y136358D01*
X228991Y136281D01*
X228911Y136201D01*
X228834Y136118D01*
X228759Y136032D01*
X228688Y135944D01*
X228620Y135854D01*
X228555Y135761D01*
X228493Y135666D01*
X228435Y135569D01*
X228380Y135470D01*
X228329Y135369D01*
X228281Y135266D01*
X228236Y135162D01*
X228196Y135056D01*
X228159Y134949D01*
X228126Y134841D01*
X228096Y134731D01*
X228071Y134621D01*
X228049Y134510D01*
X228032Y134398D01*
X228018Y134285D01*
X228008Y134172D01*
X228002Y134059D01*
X228000Y133946D01*
X228002Y133833D01*
X228008Y133720D01*
X228018Y133607D01*
X228032Y133494D01*
X228049Y133382D01*
X228071Y133271D01*
X228096Y133161D01*
X228126Y133051D01*
X228159Y132943D01*
X228196Y132836D01*
X228236Y132730D01*
X228281Y132626D01*
X228329Y132523D01*
X228380Y132422D01*
X228435Y132323D01*
X228493Y132226D01*
X228555Y132131D01*
X228620Y132038D01*
X228688Y131948D01*
X228759Y131860D01*
X228834Y131774D01*
X228911Y131691D01*
X228991Y131611D01*
X229074Y131534D01*
X229160Y131459D01*
X229248Y131388D01*
X229338Y131320D01*
X229431Y131255D01*
X229526Y131193D01*
X229623Y131135D01*
X229722Y131080D01*
X229823Y131029D01*
X229926Y130981D01*
X230030Y130936D01*
X230136Y130896D01*
X230243Y130859D01*
X230351Y130826D01*
X230461Y130796D01*
X230571Y130771D01*
X230682Y130749D01*
X230794Y130732D01*
X230907Y130718D01*
X231020Y130708D01*
X231133Y130702D01*
X231246Y130700D01*
X231246Y130701D02*
X234492Y130701D01*
X230597Y130701D02*
X228001Y125508D01*
X216645Y134271D02*
X216647Y134378D01*
X216653Y134484D01*
X216663Y134590D01*
X216676Y134696D01*
X216694Y134802D01*
X216715Y134906D01*
X216740Y135010D01*
X216769Y135113D01*
X216801Y135214D01*
X216838Y135314D01*
X216878Y135413D01*
X216921Y135511D01*
X216968Y135607D01*
X217019Y135701D01*
X217073Y135793D01*
X217130Y135883D01*
X217190Y135971D01*
X217254Y136056D01*
X217321Y136139D01*
X217391Y136220D01*
X217463Y136298D01*
X217539Y136374D01*
X217617Y136446D01*
X217698Y136516D01*
X217781Y136583D01*
X217866Y136647D01*
X217954Y136707D01*
X218044Y136764D01*
X218136Y136818D01*
X218230Y136869D01*
X218326Y136916D01*
X218424Y136959D01*
X218523Y136999D01*
X218623Y137036D01*
X218724Y137068D01*
X218827Y137097D01*
X218931Y137122D01*
X219035Y137143D01*
X219141Y137161D01*
X219247Y137174D01*
X219353Y137184D01*
X219459Y137190D01*
X219566Y137192D01*
X219687Y137190D01*
X219808Y137184D01*
X219928Y137174D01*
X220049Y137161D01*
X220168Y137143D01*
X220288Y137122D01*
X220406Y137097D01*
X220523Y137068D01*
X220640Y137035D01*
X220755Y136999D01*
X220869Y136958D01*
X220982Y136915D01*
X221094Y136867D01*
X221203Y136816D01*
X221311Y136761D01*
X221418Y136703D01*
X221522Y136642D01*
X221624Y136577D01*
X221724Y136509D01*
X221822Y136438D01*
X221918Y136364D01*
X222011Y136287D01*
X222101Y136206D01*
X222189Y136123D01*
X222274Y136037D01*
X222357Y135948D01*
X222436Y135857D01*
X222513Y135763D01*
X222586Y135667D01*
X222656Y135569D01*
X222723Y135468D01*
X222787Y135365D01*
X222848Y135260D01*
X222905Y135153D01*
X222958Y135045D01*
X223008Y134935D01*
X223054Y134823D01*
X223097Y134710D01*
X223136Y134595D01*
X217619Y131999D02*
X217540Y132077D01*
X217464Y132157D01*
X217391Y132240D01*
X217321Y132326D01*
X217254Y132413D01*
X217190Y132504D01*
X217130Y132596D01*
X217072Y132690D01*
X217018Y132787D01*
X216968Y132885D01*
X216921Y132985D01*
X216877Y133086D01*
X216837Y133189D01*
X216801Y133294D01*
X216769Y133399D01*
X216740Y133506D01*
X216715Y133613D01*
X216693Y133722D01*
X216676Y133831D01*
X216662Y133940D01*
X216653Y134050D01*
X216647Y134161D01*
X216645Y134271D01*
X217618Y131999D02*
X223136Y125508D01*
X216645Y125508D01*
X234492Y165508D02*
X234492Y177192D01*
X231246Y177192D01*
X231133Y177190D01*
X231020Y177184D01*
X230907Y177174D01*
X230794Y177160D01*
X230682Y177143D01*
X230571Y177121D01*
X230461Y177096D01*
X230351Y177066D01*
X230243Y177033D01*
X230136Y176996D01*
X230030Y176956D01*
X229926Y176911D01*
X229823Y176863D01*
X229722Y176812D01*
X229623Y176757D01*
X229526Y176699D01*
X229431Y176637D01*
X229338Y176572D01*
X229248Y176504D01*
X229160Y176433D01*
X229074Y176358D01*
X228991Y176281D01*
X228911Y176201D01*
X228834Y176118D01*
X228759Y176032D01*
X228688Y175944D01*
X228620Y175854D01*
X228555Y175761D01*
X228493Y175666D01*
X228435Y175569D01*
X228380Y175470D01*
X228329Y175369D01*
X228281Y175266D01*
X228236Y175162D01*
X228196Y175056D01*
X228159Y174949D01*
X228126Y174841D01*
X228096Y174731D01*
X228071Y174621D01*
X228049Y174510D01*
X228032Y174398D01*
X228018Y174285D01*
X228008Y174172D01*
X228002Y174059D01*
X228000Y173946D01*
X228002Y173833D01*
X228008Y173720D01*
X228018Y173607D01*
X228032Y173494D01*
X228049Y173382D01*
X228071Y173271D01*
X228096Y173161D01*
X228126Y173051D01*
X228159Y172943D01*
X228196Y172836D01*
X228236Y172730D01*
X228281Y172626D01*
X228329Y172523D01*
X228380Y172422D01*
X228435Y172323D01*
X228493Y172226D01*
X228555Y172131D01*
X228620Y172038D01*
X228688Y171948D01*
X228759Y171860D01*
X228834Y171774D01*
X228911Y171691D01*
X228991Y171611D01*
X229074Y171534D01*
X229160Y171459D01*
X229248Y171388D01*
X229338Y171320D01*
X229431Y171255D01*
X229526Y171193D01*
X229623Y171135D01*
X229722Y171080D01*
X229823Y171029D01*
X229926Y170981D01*
X230030Y170936D01*
X230136Y170896D01*
X230243Y170859D01*
X230351Y170826D01*
X230461Y170796D01*
X230571Y170771D01*
X230682Y170749D01*
X230794Y170732D01*
X230907Y170718D01*
X231020Y170708D01*
X231133Y170702D01*
X231246Y170700D01*
X231246Y170701D02*
X234492Y170701D01*
X230597Y170701D02*
X228001Y165508D01*
X223136Y165508D02*
X219890Y165508D01*
X219777Y165510D01*
X219664Y165516D01*
X219551Y165526D01*
X219438Y165540D01*
X219326Y165557D01*
X219215Y165579D01*
X219105Y165604D01*
X218995Y165634D01*
X218887Y165667D01*
X218780Y165704D01*
X218674Y165744D01*
X218570Y165789D01*
X218467Y165837D01*
X218366Y165888D01*
X218267Y165943D01*
X218170Y166001D01*
X218075Y166063D01*
X217982Y166128D01*
X217892Y166196D01*
X217804Y166267D01*
X217718Y166342D01*
X217635Y166419D01*
X217555Y166499D01*
X217478Y166582D01*
X217403Y166668D01*
X217332Y166756D01*
X217264Y166846D01*
X217199Y166939D01*
X217137Y167034D01*
X217079Y167131D01*
X217024Y167230D01*
X216973Y167331D01*
X216925Y167434D01*
X216880Y167538D01*
X216840Y167644D01*
X216803Y167751D01*
X216770Y167859D01*
X216740Y167969D01*
X216715Y168079D01*
X216693Y168190D01*
X216676Y168302D01*
X216662Y168415D01*
X216652Y168528D01*
X216646Y168641D01*
X216644Y168754D01*
X216646Y168867D01*
X216652Y168980D01*
X216662Y169093D01*
X216676Y169206D01*
X216693Y169318D01*
X216715Y169429D01*
X216740Y169539D01*
X216770Y169649D01*
X216803Y169757D01*
X216840Y169864D01*
X216880Y169970D01*
X216925Y170074D01*
X216973Y170177D01*
X217024Y170278D01*
X217079Y170377D01*
X217137Y170474D01*
X217199Y170569D01*
X217264Y170662D01*
X217332Y170752D01*
X217403Y170840D01*
X217478Y170926D01*
X217555Y171009D01*
X217635Y171089D01*
X217718Y171166D01*
X217804Y171241D01*
X217892Y171312D01*
X217982Y171380D01*
X218075Y171445D01*
X218170Y171507D01*
X218267Y171565D01*
X218366Y171620D01*
X218467Y171671D01*
X218570Y171719D01*
X218674Y171764D01*
X218780Y171804D01*
X218887Y171841D01*
X218995Y171874D01*
X219105Y171904D01*
X219215Y171929D01*
X219326Y171951D01*
X219438Y171968D01*
X219551Y171982D01*
X219664Y171992D01*
X219777Y171998D01*
X219890Y172000D01*
X219241Y177192D02*
X223136Y177192D01*
X219241Y177192D02*
X219140Y177190D01*
X219040Y177184D01*
X218940Y177174D01*
X218840Y177161D01*
X218741Y177143D01*
X218642Y177122D01*
X218545Y177097D01*
X218448Y177068D01*
X218353Y177035D01*
X218259Y176999D01*
X218167Y176959D01*
X218076Y176916D01*
X217987Y176869D01*
X217900Y176819D01*
X217814Y176765D01*
X217731Y176708D01*
X217651Y176648D01*
X217572Y176585D01*
X217496Y176518D01*
X217423Y176449D01*
X217353Y176377D01*
X217285Y176303D01*
X217220Y176226D01*
X217159Y176146D01*
X217100Y176064D01*
X217045Y175980D01*
X216993Y175894D01*
X216944Y175806D01*
X216899Y175716D01*
X216857Y175624D01*
X216819Y175531D01*
X216785Y175436D01*
X216754Y175341D01*
X216727Y175244D01*
X216704Y175146D01*
X216684Y175047D01*
X216669Y174947D01*
X216657Y174847D01*
X216649Y174747D01*
X216645Y174646D01*
X216645Y174546D01*
X216649Y174445D01*
X216657Y174345D01*
X216669Y174245D01*
X216684Y174145D01*
X216704Y174046D01*
X216727Y173948D01*
X216754Y173851D01*
X216785Y173756D01*
X216819Y173661D01*
X216857Y173568D01*
X216899Y173476D01*
X216944Y173386D01*
X216993Y173298D01*
X217045Y173212D01*
X217100Y173128D01*
X217159Y173046D01*
X217220Y172966D01*
X217285Y172889D01*
X217353Y172815D01*
X217423Y172743D01*
X217496Y172674D01*
X217572Y172607D01*
X217651Y172544D01*
X217731Y172484D01*
X217814Y172427D01*
X217900Y172373D01*
X217987Y172323D01*
X218076Y172276D01*
X218167Y172233D01*
X218259Y172193D01*
X218353Y172157D01*
X218448Y172124D01*
X218545Y172095D01*
X218642Y172070D01*
X218741Y172049D01*
X218840Y172031D01*
X218940Y172018D01*
X219040Y172008D01*
X219140Y172002D01*
X219241Y172000D01*
X219241Y171999D02*
X221837Y171999D01*
D13*
X153731Y203334D03*
D14*
X162000Y202500D02*
X162000Y205834D01*
X162000Y202500D02*
X218000Y202500D01*
X218000Y205834D01*
X162000Y274166D02*
X162000Y277500D01*
X218000Y277500D01*
X218000Y274166D01*
D10*
X143772Y236627D02*
X132088Y236627D01*
X132088Y235329D02*
X132088Y237926D01*
X143772Y237926D02*
X143772Y235329D01*
X132088Y245089D02*
X132088Y247686D01*
X132088Y245089D02*
X132090Y244990D01*
X132096Y244890D01*
X132105Y244791D01*
X132118Y244693D01*
X132135Y244595D01*
X132156Y244497D01*
X132181Y244401D01*
X132209Y244306D01*
X132241Y244212D01*
X132276Y244119D01*
X132315Y244027D01*
X132358Y243937D01*
X132403Y243849D01*
X132453Y243762D01*
X132505Y243678D01*
X132561Y243595D01*
X132619Y243515D01*
X132681Y243437D01*
X132746Y243362D01*
X132814Y243289D01*
X132884Y243219D01*
X132957Y243151D01*
X133032Y243086D01*
X133110Y243024D01*
X133190Y242966D01*
X133273Y242910D01*
X133357Y242858D01*
X133444Y242808D01*
X133532Y242763D01*
X133622Y242720D01*
X133714Y242681D01*
X133807Y242646D01*
X133901Y242614D01*
X133996Y242586D01*
X134092Y242561D01*
X134190Y242540D01*
X134288Y242523D01*
X134386Y242510D01*
X134485Y242501D01*
X134585Y242495D01*
X134684Y242493D01*
X141176Y242493D01*
X141275Y242495D01*
X141375Y242501D01*
X141474Y242510D01*
X141572Y242523D01*
X141670Y242540D01*
X141768Y242561D01*
X141864Y242586D01*
X141959Y242614D01*
X142053Y242646D01*
X142146Y242681D01*
X142238Y242720D01*
X142328Y242763D01*
X142416Y242808D01*
X142503Y242858D01*
X142587Y242910D01*
X142670Y242966D01*
X142750Y243024D01*
X142828Y243086D01*
X142903Y243151D01*
X142976Y243219D01*
X143046Y243289D01*
X143114Y243362D01*
X143179Y243437D01*
X143241Y243515D01*
X143299Y243595D01*
X143355Y243678D01*
X143407Y243762D01*
X143457Y243849D01*
X143502Y243937D01*
X143545Y244027D01*
X143584Y244119D01*
X143619Y244211D01*
X143651Y244306D01*
X143679Y244401D01*
X143704Y244497D01*
X143725Y244595D01*
X143742Y244693D01*
X143755Y244791D01*
X143764Y244890D01*
X143770Y244990D01*
X143772Y245089D01*
X143772Y247686D01*
X141176Y252051D02*
X143772Y255296D01*
X132088Y255296D01*
X132088Y252051D02*
X132088Y258542D01*
D13*
X59540Y347525D03*
D14*
X54500Y345625D02*
X40500Y345625D01*
X40500Y335525D01*
X40500Y314375D02*
X54500Y314375D01*
X40500Y314375D02*
X40500Y324475D01*
D10*
X56317Y360129D02*
X56317Y365321D01*
X56318Y365321D02*
X56316Y365434D01*
X56310Y365547D01*
X56300Y365660D01*
X56286Y365773D01*
X56269Y365885D01*
X56247Y365996D01*
X56222Y366106D01*
X56192Y366216D01*
X56159Y366324D01*
X56122Y366431D01*
X56082Y366537D01*
X56037Y366641D01*
X55989Y366744D01*
X55938Y366845D01*
X55883Y366944D01*
X55825Y367041D01*
X55763Y367136D01*
X55698Y367229D01*
X55630Y367319D01*
X55559Y367407D01*
X55484Y367493D01*
X55407Y367576D01*
X55327Y367656D01*
X55244Y367733D01*
X55158Y367808D01*
X55070Y367879D01*
X54980Y367947D01*
X54887Y368012D01*
X54792Y368074D01*
X54695Y368132D01*
X54596Y368187D01*
X54495Y368238D01*
X54392Y368286D01*
X54288Y368331D01*
X54182Y368371D01*
X54075Y368408D01*
X53967Y368441D01*
X53857Y368471D01*
X53747Y368496D01*
X53636Y368518D01*
X53524Y368535D01*
X53411Y368549D01*
X53298Y368559D01*
X53185Y368565D01*
X53072Y368567D01*
X52959Y368565D01*
X52846Y368559D01*
X52733Y368549D01*
X52620Y368535D01*
X52508Y368518D01*
X52397Y368496D01*
X52287Y368471D01*
X52177Y368441D01*
X52069Y368408D01*
X51962Y368371D01*
X51856Y368331D01*
X51752Y368286D01*
X51649Y368238D01*
X51548Y368187D01*
X51449Y368132D01*
X51352Y368074D01*
X51257Y368012D01*
X51164Y367947D01*
X51074Y367879D01*
X50986Y367808D01*
X50900Y367733D01*
X50817Y367656D01*
X50737Y367576D01*
X50660Y367493D01*
X50585Y367407D01*
X50514Y367319D01*
X50446Y367229D01*
X50381Y367136D01*
X50319Y367041D01*
X50261Y366944D01*
X50206Y366845D01*
X50155Y366744D01*
X50107Y366641D01*
X50062Y366537D01*
X50022Y366431D01*
X49985Y366324D01*
X49952Y366216D01*
X49922Y366106D01*
X49897Y365996D01*
X49875Y365885D01*
X49858Y365773D01*
X49844Y365660D01*
X49834Y365547D01*
X49828Y365434D01*
X49826Y365321D01*
X49826Y360129D01*
X49828Y360016D01*
X49834Y359903D01*
X49844Y359790D01*
X49858Y359677D01*
X49875Y359565D01*
X49897Y359454D01*
X49922Y359344D01*
X49952Y359234D01*
X49985Y359126D01*
X50022Y359019D01*
X50062Y358913D01*
X50107Y358809D01*
X50155Y358706D01*
X50206Y358605D01*
X50261Y358506D01*
X50319Y358409D01*
X50381Y358314D01*
X50446Y358221D01*
X50514Y358131D01*
X50585Y358043D01*
X50660Y357957D01*
X50737Y357874D01*
X50817Y357794D01*
X50900Y357717D01*
X50986Y357642D01*
X51074Y357571D01*
X51164Y357503D01*
X51257Y357438D01*
X51352Y357376D01*
X51449Y357318D01*
X51548Y357263D01*
X51649Y357212D01*
X51752Y357164D01*
X51856Y357119D01*
X51962Y357079D01*
X52069Y357042D01*
X52177Y357009D01*
X52287Y356979D01*
X52397Y356954D01*
X52508Y356932D01*
X52620Y356915D01*
X52733Y356901D01*
X52846Y356891D01*
X52959Y356885D01*
X53072Y356883D01*
X53185Y356885D01*
X53298Y356891D01*
X53411Y356901D01*
X53524Y356915D01*
X53636Y356932D01*
X53747Y356954D01*
X53857Y356979D01*
X53967Y357009D01*
X54075Y357042D01*
X54182Y357079D01*
X54288Y357119D01*
X54392Y357164D01*
X54495Y357212D01*
X54596Y357263D01*
X54695Y357318D01*
X54792Y357376D01*
X54887Y357438D01*
X54980Y357503D01*
X55070Y357571D01*
X55158Y357642D01*
X55244Y357717D01*
X55327Y357794D01*
X55407Y357874D01*
X55484Y357957D01*
X55559Y358043D01*
X55630Y358131D01*
X55698Y358221D01*
X55763Y358314D01*
X55825Y358409D01*
X55883Y358506D01*
X55938Y358605D01*
X55989Y358706D01*
X56037Y358809D01*
X56082Y358913D01*
X56122Y359019D01*
X56159Y359126D01*
X56192Y359234D01*
X56222Y359344D01*
X56247Y359454D01*
X56269Y359565D01*
X56286Y359677D01*
X56300Y359790D01*
X56310Y359903D01*
X56316Y360016D01*
X56318Y360129D01*
X51125Y359479D02*
X48528Y356883D01*
X45174Y365971D02*
X41928Y368567D01*
X41928Y356883D01*
X38683Y356883D02*
X45174Y356883D01*
D13*
X155090Y37574D03*
D14*
X150050Y38400D02*
X150050Y35074D01*
X150050Y38400D02*
X122550Y38400D01*
X122550Y35074D01*
X150050Y5726D02*
X150050Y2400D01*
X122550Y2400D01*
X122550Y5726D01*
D12*
X113979Y8981D02*
X104581Y8981D01*
X108758Y12114D02*
X113979Y8981D01*
X108758Y12114D02*
X113979Y15246D01*
X104581Y15246D01*
X104581Y19998D02*
X113979Y19998D01*
X113979Y25219D02*
X108236Y19998D01*
X110324Y22086D02*
X104581Y25219D01*
X111891Y28705D02*
X113979Y31316D01*
X104581Y31316D01*
X104581Y28705D02*
X104581Y33927D01*
D10*
X104492Y255508D02*
X104492Y267192D01*
X101246Y267192D01*
X101133Y267190D01*
X101020Y267184D01*
X100907Y267174D01*
X100794Y267160D01*
X100682Y267143D01*
X100571Y267121D01*
X100461Y267096D01*
X100351Y267066D01*
X100243Y267033D01*
X100136Y266996D01*
X100030Y266956D01*
X99926Y266911D01*
X99823Y266863D01*
X99722Y266812D01*
X99623Y266757D01*
X99526Y266699D01*
X99431Y266637D01*
X99338Y266572D01*
X99248Y266504D01*
X99160Y266433D01*
X99074Y266358D01*
X98991Y266281D01*
X98911Y266201D01*
X98834Y266118D01*
X98759Y266032D01*
X98688Y265944D01*
X98620Y265854D01*
X98555Y265761D01*
X98493Y265666D01*
X98435Y265569D01*
X98380Y265470D01*
X98329Y265369D01*
X98281Y265266D01*
X98236Y265162D01*
X98196Y265056D01*
X98159Y264949D01*
X98126Y264841D01*
X98096Y264731D01*
X98071Y264621D01*
X98049Y264510D01*
X98032Y264398D01*
X98018Y264285D01*
X98008Y264172D01*
X98002Y264059D01*
X98000Y263946D01*
X98002Y263833D01*
X98008Y263720D01*
X98018Y263607D01*
X98032Y263494D01*
X98049Y263382D01*
X98071Y263271D01*
X98096Y263161D01*
X98126Y263051D01*
X98159Y262943D01*
X98196Y262836D01*
X98236Y262730D01*
X98281Y262626D01*
X98329Y262523D01*
X98380Y262422D01*
X98435Y262323D01*
X98493Y262226D01*
X98555Y262131D01*
X98620Y262038D01*
X98688Y261948D01*
X98759Y261860D01*
X98834Y261774D01*
X98911Y261691D01*
X98991Y261611D01*
X99074Y261534D01*
X99160Y261459D01*
X99248Y261388D01*
X99338Y261320D01*
X99431Y261255D01*
X99526Y261193D01*
X99623Y261135D01*
X99722Y261080D01*
X99823Y261029D01*
X99926Y260981D01*
X100030Y260936D01*
X100136Y260896D01*
X100243Y260859D01*
X100351Y260826D01*
X100461Y260796D01*
X100571Y260771D01*
X100682Y260749D01*
X100794Y260732D01*
X100907Y260718D01*
X101020Y260708D01*
X101133Y260702D01*
X101246Y260700D01*
X101246Y260701D02*
X104492Y260701D01*
X100597Y260701D02*
X98001Y255508D01*
X93136Y258104D02*
X90539Y267192D01*
X93136Y258104D02*
X86645Y258104D01*
X88592Y260701D02*
X88592Y255508D01*
X99299Y285508D02*
X101896Y285508D01*
X101995Y285510D01*
X102095Y285516D01*
X102194Y285525D01*
X102292Y285538D01*
X102390Y285555D01*
X102488Y285576D01*
X102584Y285601D01*
X102679Y285629D01*
X102773Y285661D01*
X102866Y285696D01*
X102958Y285735D01*
X103048Y285778D01*
X103136Y285823D01*
X103223Y285873D01*
X103307Y285925D01*
X103390Y285981D01*
X103470Y286039D01*
X103548Y286101D01*
X103623Y286166D01*
X103696Y286234D01*
X103766Y286304D01*
X103834Y286377D01*
X103899Y286452D01*
X103961Y286530D01*
X104019Y286610D01*
X104075Y286693D01*
X104127Y286777D01*
X104177Y286864D01*
X104222Y286952D01*
X104265Y287042D01*
X104304Y287134D01*
X104339Y287227D01*
X104371Y287321D01*
X104399Y287416D01*
X104424Y287512D01*
X104445Y287610D01*
X104462Y287708D01*
X104475Y287806D01*
X104484Y287905D01*
X104490Y288005D01*
X104492Y288104D01*
X104492Y294596D01*
X104490Y294695D01*
X104484Y294795D01*
X104475Y294894D01*
X104462Y294992D01*
X104445Y295090D01*
X104424Y295188D01*
X104399Y295284D01*
X104371Y295379D01*
X104339Y295473D01*
X104304Y295566D01*
X104265Y295658D01*
X104222Y295748D01*
X104177Y295836D01*
X104127Y295923D01*
X104075Y296007D01*
X104019Y296090D01*
X103961Y296170D01*
X103899Y296248D01*
X103834Y296323D01*
X103766Y296396D01*
X103696Y296466D01*
X103623Y296534D01*
X103548Y296599D01*
X103470Y296661D01*
X103390Y296719D01*
X103307Y296775D01*
X103223Y296827D01*
X103136Y296877D01*
X103048Y296922D01*
X102958Y296965D01*
X102866Y297004D01*
X102773Y297039D01*
X102679Y297071D01*
X102584Y297099D01*
X102488Y297124D01*
X102390Y297145D01*
X102292Y297162D01*
X102194Y297175D01*
X102095Y297184D01*
X101995Y297190D01*
X101896Y297192D01*
X99299Y297192D01*
X94934Y297192D02*
X94934Y295894D01*
X94934Y297192D02*
X88443Y297192D01*
X91688Y285508D01*
X149299Y65508D02*
X151896Y65508D01*
X151995Y65510D01*
X152095Y65516D01*
X152194Y65525D01*
X152292Y65538D01*
X152390Y65555D01*
X152488Y65576D01*
X152584Y65601D01*
X152679Y65629D01*
X152773Y65661D01*
X152866Y65696D01*
X152958Y65735D01*
X153048Y65778D01*
X153136Y65823D01*
X153223Y65873D01*
X153307Y65925D01*
X153390Y65981D01*
X153470Y66039D01*
X153548Y66101D01*
X153623Y66166D01*
X153696Y66234D01*
X153766Y66304D01*
X153834Y66377D01*
X153899Y66452D01*
X153961Y66530D01*
X154019Y66610D01*
X154075Y66693D01*
X154127Y66777D01*
X154177Y66864D01*
X154222Y66952D01*
X154265Y67042D01*
X154304Y67134D01*
X154339Y67227D01*
X154371Y67321D01*
X154399Y67416D01*
X154424Y67512D01*
X154445Y67610D01*
X154462Y67708D01*
X154475Y67806D01*
X154484Y67905D01*
X154490Y68005D01*
X154492Y68104D01*
X154492Y74596D01*
X154490Y74695D01*
X154484Y74795D01*
X154475Y74894D01*
X154462Y74992D01*
X154445Y75090D01*
X154424Y75188D01*
X154399Y75284D01*
X154371Y75379D01*
X154339Y75473D01*
X154304Y75566D01*
X154265Y75658D01*
X154222Y75748D01*
X154177Y75836D01*
X154127Y75923D01*
X154075Y76007D01*
X154019Y76090D01*
X153961Y76170D01*
X153899Y76248D01*
X153834Y76323D01*
X153766Y76396D01*
X153696Y76466D01*
X153623Y76534D01*
X153548Y76599D01*
X153470Y76661D01*
X153390Y76719D01*
X153307Y76775D01*
X153223Y76827D01*
X153136Y76877D01*
X153048Y76922D01*
X152958Y76965D01*
X152866Y77004D01*
X152773Y77039D01*
X152679Y77071D01*
X152584Y77099D01*
X152488Y77124D01*
X152390Y77145D01*
X152292Y77162D01*
X152194Y77175D01*
X152095Y77184D01*
X151995Y77190D01*
X151896Y77192D01*
X149299Y77192D01*
X144934Y71999D02*
X141039Y71999D01*
X140940Y71997D01*
X140840Y71991D01*
X140741Y71982D01*
X140643Y71969D01*
X140545Y71952D01*
X140447Y71931D01*
X140351Y71906D01*
X140256Y71878D01*
X140162Y71846D01*
X140069Y71811D01*
X139977Y71772D01*
X139887Y71729D01*
X139799Y71684D01*
X139712Y71634D01*
X139628Y71582D01*
X139545Y71526D01*
X139465Y71468D01*
X139387Y71406D01*
X139312Y71341D01*
X139239Y71273D01*
X139169Y71203D01*
X139101Y71130D01*
X139036Y71055D01*
X138974Y70977D01*
X138916Y70897D01*
X138860Y70814D01*
X138808Y70730D01*
X138758Y70643D01*
X138713Y70555D01*
X138670Y70465D01*
X138631Y70373D01*
X138596Y70280D01*
X138564Y70186D01*
X138536Y70091D01*
X138511Y69995D01*
X138490Y69897D01*
X138473Y69799D01*
X138460Y69701D01*
X138451Y69602D01*
X138445Y69502D01*
X138443Y69403D01*
X138443Y68754D01*
X138442Y68754D02*
X138444Y68641D01*
X138450Y68528D01*
X138460Y68415D01*
X138474Y68302D01*
X138491Y68190D01*
X138513Y68079D01*
X138538Y67969D01*
X138568Y67859D01*
X138601Y67751D01*
X138638Y67644D01*
X138678Y67538D01*
X138723Y67434D01*
X138771Y67331D01*
X138822Y67230D01*
X138877Y67131D01*
X138935Y67034D01*
X138997Y66939D01*
X139062Y66846D01*
X139130Y66756D01*
X139201Y66668D01*
X139276Y66582D01*
X139353Y66499D01*
X139433Y66419D01*
X139516Y66342D01*
X139602Y66267D01*
X139690Y66196D01*
X139780Y66128D01*
X139873Y66063D01*
X139968Y66001D01*
X140065Y65943D01*
X140164Y65888D01*
X140265Y65837D01*
X140368Y65789D01*
X140472Y65744D01*
X140578Y65704D01*
X140685Y65667D01*
X140793Y65634D01*
X140903Y65604D01*
X141013Y65579D01*
X141124Y65557D01*
X141236Y65540D01*
X141349Y65526D01*
X141462Y65516D01*
X141575Y65510D01*
X141688Y65508D01*
X141801Y65510D01*
X141914Y65516D01*
X142027Y65526D01*
X142140Y65540D01*
X142252Y65557D01*
X142363Y65579D01*
X142473Y65604D01*
X142583Y65634D01*
X142691Y65667D01*
X142798Y65704D01*
X142904Y65744D01*
X143008Y65789D01*
X143111Y65837D01*
X143212Y65888D01*
X143311Y65943D01*
X143408Y66001D01*
X143503Y66063D01*
X143596Y66128D01*
X143686Y66196D01*
X143774Y66267D01*
X143860Y66342D01*
X143943Y66419D01*
X144023Y66499D01*
X144100Y66582D01*
X144175Y66668D01*
X144246Y66756D01*
X144314Y66846D01*
X144379Y66939D01*
X144441Y67034D01*
X144499Y67131D01*
X144554Y67230D01*
X144605Y67331D01*
X144653Y67434D01*
X144698Y67538D01*
X144738Y67644D01*
X144775Y67751D01*
X144808Y67859D01*
X144838Y67969D01*
X144863Y68079D01*
X144885Y68190D01*
X144902Y68302D01*
X144916Y68415D01*
X144926Y68528D01*
X144932Y68641D01*
X144934Y68754D01*
X144934Y71999D01*
X144932Y72142D01*
X144926Y72285D01*
X144916Y72428D01*
X144902Y72570D01*
X144885Y72712D01*
X144863Y72854D01*
X144838Y72995D01*
X144808Y73135D01*
X144775Y73274D01*
X144738Y73412D01*
X144697Y73549D01*
X144653Y73685D01*
X144604Y73820D01*
X144552Y73953D01*
X144497Y74085D01*
X144437Y74215D01*
X144374Y74344D01*
X144308Y74471D01*
X144238Y74596D01*
X144165Y74718D01*
X144088Y74839D01*
X144008Y74958D01*
X143925Y75074D01*
X143839Y75189D01*
X143750Y75300D01*
X143657Y75410D01*
X143562Y75516D01*
X143463Y75620D01*
X143362Y75721D01*
X143258Y75820D01*
X143152Y75915D01*
X143042Y76008D01*
X142931Y76097D01*
X142816Y76183D01*
X142700Y76266D01*
X142581Y76346D01*
X142460Y76423D01*
X142338Y76496D01*
X142213Y76566D01*
X142086Y76632D01*
X141957Y76695D01*
X141827Y76755D01*
X141695Y76810D01*
X141562Y76862D01*
X141427Y76911D01*
X141291Y76955D01*
X141154Y76996D01*
X141016Y77033D01*
X140877Y77066D01*
X140737Y77096D01*
X140596Y77121D01*
X140454Y77143D01*
X140312Y77160D01*
X140170Y77174D01*
X140027Y77184D01*
X139884Y77190D01*
X139741Y77192D01*
D15*
X240000Y325000D02*
X240000Y400000D01*
X240000Y440000D01*
X150000Y440000D01*
X150000Y400000D01*
X150000Y325000D01*
X240000Y325000D01*
X240000Y400000D02*
X150000Y400000D01*
D10*
X269492Y387192D02*
X269492Y378754D01*
X269490Y378641D01*
X269484Y378528D01*
X269474Y378415D01*
X269460Y378302D01*
X269443Y378190D01*
X269421Y378079D01*
X269396Y377969D01*
X269366Y377859D01*
X269333Y377751D01*
X269296Y377644D01*
X269256Y377538D01*
X269211Y377434D01*
X269163Y377331D01*
X269112Y377230D01*
X269057Y377131D01*
X268999Y377034D01*
X268937Y376939D01*
X268872Y376846D01*
X268804Y376756D01*
X268733Y376668D01*
X268658Y376582D01*
X268581Y376499D01*
X268501Y376419D01*
X268418Y376342D01*
X268332Y376267D01*
X268244Y376196D01*
X268154Y376128D01*
X268061Y376063D01*
X267966Y376001D01*
X267869Y375943D01*
X267770Y375888D01*
X267669Y375837D01*
X267566Y375789D01*
X267462Y375744D01*
X267356Y375704D01*
X267249Y375667D01*
X267141Y375634D01*
X267031Y375604D01*
X266921Y375579D01*
X266810Y375557D01*
X266698Y375540D01*
X266585Y375526D01*
X266472Y375516D01*
X266359Y375510D01*
X266246Y375508D01*
X266133Y375510D01*
X266020Y375516D01*
X265907Y375526D01*
X265794Y375540D01*
X265682Y375557D01*
X265571Y375579D01*
X265461Y375604D01*
X265351Y375634D01*
X265243Y375667D01*
X265136Y375704D01*
X265030Y375744D01*
X264926Y375789D01*
X264823Y375837D01*
X264722Y375888D01*
X264623Y375943D01*
X264526Y376001D01*
X264431Y376063D01*
X264338Y376128D01*
X264248Y376196D01*
X264160Y376267D01*
X264074Y376342D01*
X263991Y376419D01*
X263911Y376499D01*
X263834Y376582D01*
X263759Y376668D01*
X263688Y376756D01*
X263620Y376846D01*
X263555Y376939D01*
X263493Y377034D01*
X263435Y377131D01*
X263380Y377230D01*
X263329Y377331D01*
X263281Y377434D01*
X263236Y377538D01*
X263196Y377644D01*
X263159Y377751D01*
X263126Y377859D01*
X263096Y377969D01*
X263071Y378079D01*
X263049Y378190D01*
X263032Y378302D01*
X263018Y378415D01*
X263008Y378528D01*
X263002Y378641D01*
X263000Y378754D01*
X263001Y378754D02*
X263001Y387192D01*
X257681Y384596D02*
X254436Y387192D01*
X254436Y375508D01*
X257681Y375508D02*
X251190Y375508D01*
M02*
