M48
;GenerationSoftware,Autodesk,EAGLE,9.2.2*%
;CreationDate,2018-11-27T17:32:10Z*%
FMAT,2
ICI,OFF
METRIC,TZ,000.000
T4C0.300
T3C0.350
T2C1.016
T1C2.500
%
G90
M71
T1
X26250Y32000
X2750Y12000
T2
X8540Y5270
X27700Y11650
X27700Y14190
X27700Y16730
X27700Y19270
X27700Y21810
X27700Y24350
X3460Y2730
X3460Y5270
X6000Y2730
X6000Y5270
X8540Y2730
T3
X21911Y7436
X17500Y4236
X11300Y4500
X15000Y4400
T4
X27500Y36500
X25500Y36500
X25500Y38000
X25500Y39250
X27500Y39250
X27500Y38000
X10500Y38000
X7500Y39250
X23500Y29000
X19500Y29000
X15000Y29000
X10000Y30000
X7500Y30000
X7500Y33500
X2000Y36000
X2000Y33000
X2000Y30000
X2000Y27000
X2000Y24000
X4500Y30000
X4500Y27000
X4500Y24000
X4500Y21000
X27500Y29000
X27500Y26500
X24500Y26500
X24500Y24000
X24500Y19500
X24500Y16500
X24500Y13500
X27500Y10000
X21000Y10000
X16000Y15000
X13000Y15000
X4500Y18500
X4500Y15000
X22000Y36500
X22000Y35000
X20500Y35000
X20500Y36500
X18500Y31250
X20500Y39250
X9000Y10500
X6000Y10500
X1500Y9500
X3500Y7500
X1500Y3500
X1500Y1000
X13000Y22500
X9500Y19500
X13000Y20000
X21500Y19500
X21000Y17000
X21000Y13500
X24500Y7500
X27500Y7500
X7500Y4000
X6000Y7500
X1500Y19000
X1500Y21000
X7000Y19500
X6000Y1000
X9900Y1000
X16500Y1000
X16000Y7000
X12000Y7000
X16000Y10000
X22500Y6000
X6750Y16500
X19750Y10500
X5750Y21000
X19500Y15500
X17250Y23500
X13500Y25000
X11300Y10200
X13500Y39250
X12000Y39250
X13500Y26000
X11250Y11500
X4500Y35500
X20500Y25500
X19500Y26000
X18500Y22000
X12800Y38600
X20500Y38000
X12000Y37700
X13500Y37700
X13500Y36000
X12000Y36000
X12000Y34500
X13500Y34500
X13500Y33000
X12000Y33000
X12000Y31500
X15000Y32000
X23500Y31500
X25500Y35000
X27500Y35000
X26000Y25000
M30