G04 EAGLE Gerber RS-274X export*
G75*
%MOMM*%
%FSLAX34Y34*%
%LPD*%
%INBottom Silkscreen*%
%IPPOS*%
%AMOC8*
5,1,8,0,0,1.08239X$1,22.5*%
G01*
%ADD10C,0.101600*%
%ADD11C,0.250000*%
%ADD12C,0.076200*%
%ADD13C,0.500000*%
%ADD14C,0.120000*%
%ADD15C,0.127000*%


D10*
X104299Y345508D02*
X106896Y345508D01*
X106995Y345510D01*
X107095Y345516D01*
X107194Y345525D01*
X107292Y345538D01*
X107390Y345555D01*
X107488Y345576D01*
X107584Y345601D01*
X107679Y345629D01*
X107773Y345661D01*
X107866Y345696D01*
X107958Y345735D01*
X108048Y345778D01*
X108136Y345823D01*
X108223Y345873D01*
X108307Y345925D01*
X108390Y345981D01*
X108470Y346039D01*
X108548Y346101D01*
X108623Y346166D01*
X108696Y346234D01*
X108766Y346304D01*
X108834Y346377D01*
X108899Y346452D01*
X108961Y346530D01*
X109019Y346610D01*
X109075Y346693D01*
X109127Y346777D01*
X109177Y346864D01*
X109222Y346952D01*
X109265Y347042D01*
X109304Y347134D01*
X109339Y347227D01*
X109371Y347321D01*
X109399Y347416D01*
X109424Y347512D01*
X109445Y347610D01*
X109462Y347708D01*
X109475Y347806D01*
X109484Y347905D01*
X109490Y348005D01*
X109492Y348104D01*
X109492Y354596D01*
X109490Y354695D01*
X109484Y354795D01*
X109475Y354894D01*
X109462Y354992D01*
X109445Y355090D01*
X109424Y355188D01*
X109399Y355284D01*
X109371Y355379D01*
X109339Y355473D01*
X109304Y355566D01*
X109265Y355658D01*
X109222Y355748D01*
X109177Y355836D01*
X109127Y355923D01*
X109075Y356007D01*
X109019Y356090D01*
X108961Y356170D01*
X108899Y356248D01*
X108834Y356323D01*
X108766Y356396D01*
X108696Y356466D01*
X108623Y356534D01*
X108548Y356599D01*
X108470Y356661D01*
X108390Y356719D01*
X108307Y356775D01*
X108223Y356827D01*
X108136Y356877D01*
X108048Y356922D01*
X107958Y356965D01*
X107866Y357004D01*
X107773Y357039D01*
X107679Y357071D01*
X107584Y357099D01*
X107488Y357124D01*
X107390Y357145D01*
X107292Y357162D01*
X107194Y357175D01*
X107095Y357184D01*
X106995Y357190D01*
X106896Y357192D01*
X104299Y357192D01*
X96364Y357192D02*
X96257Y357190D01*
X96151Y357184D01*
X96045Y357174D01*
X95939Y357161D01*
X95833Y357143D01*
X95729Y357122D01*
X95625Y357097D01*
X95522Y357068D01*
X95421Y357036D01*
X95321Y356999D01*
X95222Y356959D01*
X95124Y356916D01*
X95028Y356869D01*
X94934Y356818D01*
X94842Y356764D01*
X94752Y356707D01*
X94664Y356647D01*
X94579Y356583D01*
X94496Y356516D01*
X94415Y356446D01*
X94337Y356374D01*
X94261Y356298D01*
X94189Y356220D01*
X94119Y356139D01*
X94052Y356056D01*
X93988Y355971D01*
X93928Y355883D01*
X93871Y355793D01*
X93817Y355701D01*
X93766Y355607D01*
X93719Y355511D01*
X93676Y355413D01*
X93636Y355314D01*
X93599Y355214D01*
X93567Y355113D01*
X93538Y355010D01*
X93513Y354906D01*
X93492Y354802D01*
X93474Y354696D01*
X93461Y354590D01*
X93451Y354484D01*
X93445Y354378D01*
X93443Y354271D01*
X96364Y357192D02*
X96485Y357190D01*
X96606Y357184D01*
X96726Y357174D01*
X96847Y357161D01*
X96966Y357143D01*
X97086Y357122D01*
X97204Y357097D01*
X97321Y357068D01*
X97438Y357035D01*
X97553Y356999D01*
X97667Y356958D01*
X97780Y356915D01*
X97892Y356867D01*
X98001Y356816D01*
X98109Y356761D01*
X98216Y356703D01*
X98320Y356642D01*
X98422Y356577D01*
X98522Y356509D01*
X98620Y356438D01*
X98716Y356364D01*
X98809Y356287D01*
X98899Y356206D01*
X98987Y356123D01*
X99072Y356037D01*
X99155Y355948D01*
X99234Y355857D01*
X99311Y355763D01*
X99384Y355667D01*
X99454Y355569D01*
X99521Y355468D01*
X99585Y355365D01*
X99646Y355260D01*
X99703Y355153D01*
X99756Y355045D01*
X99806Y354935D01*
X99852Y354823D01*
X99895Y354710D01*
X99934Y354595D01*
X94417Y351999D02*
X94338Y352077D01*
X94262Y352157D01*
X94189Y352240D01*
X94119Y352326D01*
X94052Y352413D01*
X93988Y352504D01*
X93928Y352596D01*
X93870Y352690D01*
X93816Y352787D01*
X93766Y352885D01*
X93719Y352985D01*
X93675Y353086D01*
X93635Y353189D01*
X93599Y353294D01*
X93567Y353399D01*
X93538Y353506D01*
X93513Y353613D01*
X93491Y353722D01*
X93474Y353831D01*
X93460Y353940D01*
X93451Y354050D01*
X93445Y354161D01*
X93443Y354271D01*
X94416Y351999D02*
X99934Y345508D01*
X93443Y345508D01*
X104299Y380508D02*
X106896Y380508D01*
X106995Y380510D01*
X107095Y380516D01*
X107194Y380525D01*
X107292Y380538D01*
X107390Y380555D01*
X107488Y380576D01*
X107584Y380601D01*
X107679Y380629D01*
X107773Y380661D01*
X107866Y380696D01*
X107958Y380735D01*
X108048Y380778D01*
X108136Y380823D01*
X108223Y380873D01*
X108307Y380925D01*
X108390Y380981D01*
X108470Y381039D01*
X108548Y381101D01*
X108623Y381166D01*
X108696Y381234D01*
X108766Y381304D01*
X108834Y381377D01*
X108899Y381452D01*
X108961Y381530D01*
X109019Y381610D01*
X109075Y381693D01*
X109127Y381777D01*
X109177Y381864D01*
X109222Y381952D01*
X109265Y382042D01*
X109304Y382134D01*
X109339Y382227D01*
X109371Y382321D01*
X109399Y382416D01*
X109424Y382512D01*
X109445Y382610D01*
X109462Y382708D01*
X109475Y382806D01*
X109484Y382905D01*
X109490Y383005D01*
X109492Y383104D01*
X109492Y389596D01*
X109490Y389695D01*
X109484Y389795D01*
X109475Y389894D01*
X109462Y389992D01*
X109445Y390090D01*
X109424Y390188D01*
X109399Y390284D01*
X109371Y390379D01*
X109339Y390473D01*
X109304Y390566D01*
X109265Y390658D01*
X109222Y390748D01*
X109177Y390836D01*
X109127Y390923D01*
X109075Y391007D01*
X109019Y391090D01*
X108961Y391170D01*
X108899Y391248D01*
X108834Y391323D01*
X108766Y391396D01*
X108696Y391466D01*
X108623Y391534D01*
X108548Y391599D01*
X108470Y391661D01*
X108390Y391719D01*
X108307Y391775D01*
X108223Y391827D01*
X108136Y391877D01*
X108048Y391922D01*
X107958Y391965D01*
X107866Y392004D01*
X107773Y392039D01*
X107679Y392071D01*
X107584Y392099D01*
X107488Y392124D01*
X107390Y392145D01*
X107292Y392162D01*
X107194Y392175D01*
X107095Y392184D01*
X106995Y392190D01*
X106896Y392192D01*
X104299Y392192D01*
X99934Y380508D02*
X96688Y380508D01*
X96575Y380510D01*
X96462Y380516D01*
X96349Y380526D01*
X96236Y380540D01*
X96124Y380557D01*
X96013Y380579D01*
X95903Y380604D01*
X95793Y380634D01*
X95685Y380667D01*
X95578Y380704D01*
X95472Y380744D01*
X95368Y380789D01*
X95265Y380837D01*
X95164Y380888D01*
X95065Y380943D01*
X94968Y381001D01*
X94873Y381063D01*
X94780Y381128D01*
X94690Y381196D01*
X94602Y381267D01*
X94516Y381342D01*
X94433Y381419D01*
X94353Y381499D01*
X94276Y381582D01*
X94201Y381668D01*
X94130Y381756D01*
X94062Y381846D01*
X93997Y381939D01*
X93935Y382034D01*
X93877Y382131D01*
X93822Y382230D01*
X93771Y382331D01*
X93723Y382434D01*
X93678Y382538D01*
X93638Y382644D01*
X93601Y382751D01*
X93568Y382859D01*
X93538Y382969D01*
X93513Y383079D01*
X93491Y383190D01*
X93474Y383302D01*
X93460Y383415D01*
X93450Y383528D01*
X93444Y383641D01*
X93442Y383754D01*
X93444Y383867D01*
X93450Y383980D01*
X93460Y384093D01*
X93474Y384206D01*
X93491Y384318D01*
X93513Y384429D01*
X93538Y384539D01*
X93568Y384649D01*
X93601Y384757D01*
X93638Y384864D01*
X93678Y384970D01*
X93723Y385074D01*
X93771Y385177D01*
X93822Y385278D01*
X93877Y385377D01*
X93935Y385474D01*
X93997Y385569D01*
X94062Y385662D01*
X94130Y385752D01*
X94201Y385840D01*
X94276Y385926D01*
X94353Y386009D01*
X94433Y386089D01*
X94516Y386166D01*
X94602Y386241D01*
X94690Y386312D01*
X94780Y386380D01*
X94873Y386445D01*
X94968Y386507D01*
X95065Y386565D01*
X95164Y386620D01*
X95265Y386671D01*
X95368Y386719D01*
X95472Y386764D01*
X95578Y386804D01*
X95685Y386841D01*
X95793Y386874D01*
X95903Y386904D01*
X96013Y386929D01*
X96124Y386951D01*
X96236Y386968D01*
X96349Y386982D01*
X96462Y386992D01*
X96575Y386998D01*
X96688Y387000D01*
X96039Y392192D02*
X99934Y392192D01*
X96039Y392192D02*
X95938Y392190D01*
X95838Y392184D01*
X95738Y392174D01*
X95638Y392161D01*
X95539Y392143D01*
X95440Y392122D01*
X95343Y392097D01*
X95246Y392068D01*
X95151Y392035D01*
X95057Y391999D01*
X94965Y391959D01*
X94874Y391916D01*
X94785Y391869D01*
X94698Y391819D01*
X94612Y391765D01*
X94529Y391708D01*
X94449Y391648D01*
X94370Y391585D01*
X94294Y391518D01*
X94221Y391449D01*
X94151Y391377D01*
X94083Y391303D01*
X94018Y391226D01*
X93957Y391146D01*
X93898Y391064D01*
X93843Y390980D01*
X93791Y390894D01*
X93742Y390806D01*
X93697Y390716D01*
X93655Y390624D01*
X93617Y390531D01*
X93583Y390436D01*
X93552Y390341D01*
X93525Y390244D01*
X93502Y390146D01*
X93482Y390047D01*
X93467Y389947D01*
X93455Y389847D01*
X93447Y389747D01*
X93443Y389646D01*
X93443Y389546D01*
X93447Y389445D01*
X93455Y389345D01*
X93467Y389245D01*
X93482Y389145D01*
X93502Y389046D01*
X93525Y388948D01*
X93552Y388851D01*
X93583Y388756D01*
X93617Y388661D01*
X93655Y388568D01*
X93697Y388476D01*
X93742Y388386D01*
X93791Y388298D01*
X93843Y388212D01*
X93898Y388128D01*
X93957Y388046D01*
X94018Y387966D01*
X94083Y387889D01*
X94151Y387815D01*
X94221Y387743D01*
X94294Y387674D01*
X94370Y387607D01*
X94449Y387544D01*
X94529Y387484D01*
X94612Y387427D01*
X94698Y387373D01*
X94785Y387323D01*
X94874Y387276D01*
X94965Y387233D01*
X95057Y387193D01*
X95151Y387157D01*
X95246Y387124D01*
X95343Y387095D01*
X95440Y387070D01*
X95539Y387049D01*
X95638Y387031D01*
X95738Y387018D01*
X95838Y387008D01*
X95938Y387002D01*
X96039Y387000D01*
X96039Y386999D02*
X98636Y386999D01*
X154299Y160508D02*
X156896Y160508D01*
X156995Y160510D01*
X157095Y160516D01*
X157194Y160525D01*
X157292Y160538D01*
X157390Y160555D01*
X157488Y160576D01*
X157584Y160601D01*
X157679Y160629D01*
X157773Y160661D01*
X157866Y160696D01*
X157958Y160735D01*
X158048Y160778D01*
X158136Y160823D01*
X158223Y160873D01*
X158307Y160925D01*
X158390Y160981D01*
X158470Y161039D01*
X158548Y161101D01*
X158623Y161166D01*
X158696Y161234D01*
X158766Y161304D01*
X158834Y161377D01*
X158899Y161452D01*
X158961Y161530D01*
X159019Y161610D01*
X159075Y161693D01*
X159127Y161777D01*
X159177Y161864D01*
X159222Y161952D01*
X159265Y162042D01*
X159304Y162134D01*
X159339Y162227D01*
X159371Y162321D01*
X159399Y162416D01*
X159424Y162512D01*
X159445Y162610D01*
X159462Y162708D01*
X159475Y162806D01*
X159484Y162905D01*
X159490Y163005D01*
X159492Y163104D01*
X159492Y169596D01*
X159490Y169695D01*
X159484Y169795D01*
X159475Y169894D01*
X159462Y169992D01*
X159445Y170090D01*
X159424Y170188D01*
X159399Y170284D01*
X159371Y170379D01*
X159339Y170473D01*
X159304Y170566D01*
X159265Y170658D01*
X159222Y170748D01*
X159177Y170836D01*
X159127Y170923D01*
X159075Y171007D01*
X159019Y171090D01*
X158961Y171170D01*
X158899Y171248D01*
X158834Y171323D01*
X158766Y171396D01*
X158696Y171466D01*
X158623Y171534D01*
X158548Y171599D01*
X158470Y171661D01*
X158390Y171719D01*
X158307Y171775D01*
X158223Y171827D01*
X158136Y171877D01*
X158048Y171922D01*
X157958Y171965D01*
X157866Y172004D01*
X157773Y172039D01*
X157679Y172071D01*
X157584Y172099D01*
X157488Y172124D01*
X157390Y172145D01*
X157292Y172162D01*
X157194Y172175D01*
X157095Y172184D01*
X156995Y172190D01*
X156896Y172192D01*
X154299Y172192D01*
X147337Y172192D02*
X149934Y163104D01*
X143443Y163104D01*
X145390Y165701D02*
X145390Y160508D01*
X101896Y155508D02*
X99299Y155508D01*
X101896Y155508D02*
X101995Y155510D01*
X102095Y155516D01*
X102194Y155525D01*
X102292Y155538D01*
X102390Y155555D01*
X102488Y155576D01*
X102584Y155601D01*
X102679Y155629D01*
X102773Y155661D01*
X102866Y155696D01*
X102958Y155735D01*
X103048Y155778D01*
X103136Y155823D01*
X103223Y155873D01*
X103307Y155925D01*
X103390Y155981D01*
X103470Y156039D01*
X103548Y156101D01*
X103623Y156166D01*
X103696Y156234D01*
X103766Y156304D01*
X103834Y156377D01*
X103899Y156452D01*
X103961Y156530D01*
X104019Y156610D01*
X104075Y156693D01*
X104127Y156777D01*
X104177Y156864D01*
X104222Y156952D01*
X104265Y157042D01*
X104304Y157134D01*
X104339Y157227D01*
X104371Y157321D01*
X104399Y157416D01*
X104424Y157512D01*
X104445Y157610D01*
X104462Y157708D01*
X104475Y157806D01*
X104484Y157905D01*
X104490Y158005D01*
X104492Y158104D01*
X104492Y164596D01*
X104490Y164695D01*
X104484Y164795D01*
X104475Y164894D01*
X104462Y164992D01*
X104445Y165090D01*
X104424Y165188D01*
X104399Y165284D01*
X104371Y165379D01*
X104339Y165473D01*
X104304Y165566D01*
X104265Y165658D01*
X104222Y165748D01*
X104177Y165836D01*
X104127Y165923D01*
X104075Y166007D01*
X104019Y166090D01*
X103961Y166170D01*
X103899Y166248D01*
X103834Y166323D01*
X103766Y166396D01*
X103696Y166466D01*
X103623Y166534D01*
X103548Y166599D01*
X103470Y166661D01*
X103390Y166719D01*
X103307Y166775D01*
X103223Y166827D01*
X103136Y166877D01*
X103048Y166922D01*
X102958Y166965D01*
X102866Y167004D01*
X102773Y167039D01*
X102679Y167071D01*
X102584Y167099D01*
X102488Y167124D01*
X102390Y167145D01*
X102292Y167162D01*
X102194Y167175D01*
X102095Y167184D01*
X101995Y167190D01*
X101896Y167192D01*
X99299Y167192D01*
X94934Y164596D02*
X91688Y167192D01*
X91688Y155508D01*
X88443Y155508D02*
X94934Y155508D01*
X104492Y190508D02*
X104492Y202192D01*
X101246Y202192D01*
X101133Y202190D01*
X101020Y202184D01*
X100907Y202174D01*
X100794Y202160D01*
X100682Y202143D01*
X100571Y202121D01*
X100461Y202096D01*
X100351Y202066D01*
X100243Y202033D01*
X100136Y201996D01*
X100030Y201956D01*
X99926Y201911D01*
X99823Y201863D01*
X99722Y201812D01*
X99623Y201757D01*
X99526Y201699D01*
X99431Y201637D01*
X99338Y201572D01*
X99248Y201504D01*
X99160Y201433D01*
X99074Y201358D01*
X98991Y201281D01*
X98911Y201201D01*
X98834Y201118D01*
X98759Y201032D01*
X98688Y200944D01*
X98620Y200854D01*
X98555Y200761D01*
X98493Y200666D01*
X98435Y200569D01*
X98380Y200470D01*
X98329Y200369D01*
X98281Y200266D01*
X98236Y200162D01*
X98196Y200056D01*
X98159Y199949D01*
X98126Y199841D01*
X98096Y199731D01*
X98071Y199621D01*
X98049Y199510D01*
X98032Y199398D01*
X98018Y199285D01*
X98008Y199172D01*
X98002Y199059D01*
X98000Y198946D01*
X98002Y198833D01*
X98008Y198720D01*
X98018Y198607D01*
X98032Y198494D01*
X98049Y198382D01*
X98071Y198271D01*
X98096Y198161D01*
X98126Y198051D01*
X98159Y197943D01*
X98196Y197836D01*
X98236Y197730D01*
X98281Y197626D01*
X98329Y197523D01*
X98380Y197422D01*
X98435Y197323D01*
X98493Y197226D01*
X98555Y197131D01*
X98620Y197038D01*
X98688Y196948D01*
X98759Y196860D01*
X98834Y196774D01*
X98911Y196691D01*
X98991Y196611D01*
X99074Y196534D01*
X99160Y196459D01*
X99248Y196388D01*
X99338Y196320D01*
X99431Y196255D01*
X99526Y196193D01*
X99623Y196135D01*
X99722Y196080D01*
X99823Y196029D01*
X99926Y195981D01*
X100030Y195936D01*
X100136Y195896D01*
X100243Y195859D01*
X100351Y195826D01*
X100461Y195796D01*
X100571Y195771D01*
X100682Y195749D01*
X100794Y195732D01*
X100907Y195718D01*
X101020Y195708D01*
X101133Y195702D01*
X101246Y195700D01*
X101246Y195701D02*
X104492Y195701D01*
X100597Y195701D02*
X98001Y190508D01*
X93136Y199596D02*
X89890Y202192D01*
X89890Y190508D01*
X86645Y190508D02*
X93136Y190508D01*
D11*
X207500Y37250D02*
X207502Y37320D01*
X207508Y37390D01*
X207518Y37459D01*
X207531Y37528D01*
X207549Y37596D01*
X207570Y37663D01*
X207595Y37728D01*
X207624Y37792D01*
X207656Y37855D01*
X207692Y37915D01*
X207731Y37973D01*
X207773Y38029D01*
X207818Y38083D01*
X207866Y38134D01*
X207917Y38182D01*
X207971Y38227D01*
X208027Y38269D01*
X208085Y38308D01*
X208145Y38344D01*
X208208Y38376D01*
X208272Y38405D01*
X208337Y38430D01*
X208404Y38451D01*
X208472Y38469D01*
X208541Y38482D01*
X208610Y38492D01*
X208680Y38498D01*
X208750Y38500D01*
X208820Y38498D01*
X208890Y38492D01*
X208959Y38482D01*
X209028Y38469D01*
X209096Y38451D01*
X209163Y38430D01*
X209228Y38405D01*
X209292Y38376D01*
X209355Y38344D01*
X209415Y38308D01*
X209473Y38269D01*
X209529Y38227D01*
X209583Y38182D01*
X209634Y38134D01*
X209682Y38083D01*
X209727Y38029D01*
X209769Y37973D01*
X209808Y37915D01*
X209844Y37855D01*
X209876Y37792D01*
X209905Y37728D01*
X209930Y37663D01*
X209951Y37596D01*
X209969Y37528D01*
X209982Y37459D01*
X209992Y37390D01*
X209998Y37320D01*
X210000Y37250D01*
X209998Y37180D01*
X209992Y37110D01*
X209982Y37041D01*
X209969Y36972D01*
X209951Y36904D01*
X209930Y36837D01*
X209905Y36772D01*
X209876Y36708D01*
X209844Y36645D01*
X209808Y36585D01*
X209769Y36527D01*
X209727Y36471D01*
X209682Y36417D01*
X209634Y36366D01*
X209583Y36318D01*
X209529Y36273D01*
X209473Y36231D01*
X209415Y36192D01*
X209355Y36156D01*
X209292Y36124D01*
X209228Y36095D01*
X209163Y36070D01*
X209096Y36049D01*
X209028Y36031D01*
X208959Y36018D01*
X208890Y36008D01*
X208820Y36002D01*
X208750Y36000D01*
X208680Y36002D01*
X208610Y36008D01*
X208541Y36018D01*
X208472Y36031D01*
X208404Y36049D01*
X208337Y36070D01*
X208272Y36095D01*
X208208Y36124D01*
X208145Y36156D01*
X208085Y36192D01*
X208027Y36231D01*
X207971Y36273D01*
X207917Y36318D01*
X207866Y36366D01*
X207818Y36417D01*
X207773Y36471D01*
X207731Y36527D01*
X207692Y36585D01*
X207656Y36645D01*
X207624Y36708D01*
X207595Y36772D01*
X207570Y36837D01*
X207549Y36904D01*
X207531Y36972D01*
X207518Y37041D01*
X207508Y37110D01*
X207502Y37180D01*
X207500Y37250D01*
D12*
X211381Y10425D02*
X220779Y10425D01*
X211381Y9381D02*
X211381Y11469D01*
X220779Y11469D02*
X220779Y9381D01*
X211381Y17193D02*
X211381Y19281D01*
X211381Y17193D02*
X211383Y17104D01*
X211389Y17016D01*
X211398Y16928D01*
X211411Y16840D01*
X211428Y16753D01*
X211448Y16667D01*
X211473Y16582D01*
X211500Y16497D01*
X211532Y16414D01*
X211566Y16333D01*
X211605Y16253D01*
X211646Y16175D01*
X211691Y16098D01*
X211739Y16024D01*
X211790Y15951D01*
X211844Y15881D01*
X211902Y15814D01*
X211962Y15748D01*
X212024Y15686D01*
X212090Y15626D01*
X212157Y15568D01*
X212227Y15514D01*
X212300Y15463D01*
X212374Y15415D01*
X212451Y15370D01*
X212529Y15329D01*
X212609Y15290D01*
X212690Y15256D01*
X212773Y15224D01*
X212858Y15197D01*
X212943Y15172D01*
X213029Y15152D01*
X213116Y15135D01*
X213204Y15122D01*
X213292Y15113D01*
X213380Y15107D01*
X213469Y15105D01*
X213469Y15104D02*
X218691Y15104D01*
X218691Y15105D02*
X218782Y15107D01*
X218873Y15113D01*
X218964Y15123D01*
X219054Y15137D01*
X219143Y15154D01*
X219231Y15176D01*
X219319Y15202D01*
X219405Y15231D01*
X219490Y15264D01*
X219573Y15301D01*
X219655Y15341D01*
X219735Y15385D01*
X219813Y15432D01*
X219889Y15483D01*
X219962Y15536D01*
X220033Y15593D01*
X220102Y15654D01*
X220167Y15717D01*
X220230Y15782D01*
X220290Y15851D01*
X220348Y15922D01*
X220401Y15995D01*
X220452Y16071D01*
X220499Y16149D01*
X220543Y16229D01*
X220583Y16311D01*
X220620Y16394D01*
X220653Y16479D01*
X220682Y16565D01*
X220708Y16653D01*
X220730Y16741D01*
X220747Y16830D01*
X220761Y16920D01*
X220771Y17011D01*
X220777Y17102D01*
X220779Y17193D01*
X220779Y19281D01*
X220780Y25621D02*
X220778Y25716D01*
X220772Y25810D01*
X220763Y25904D01*
X220750Y25998D01*
X220733Y26091D01*
X220712Y26183D01*
X220687Y26275D01*
X220659Y26365D01*
X220627Y26454D01*
X220592Y26542D01*
X220553Y26628D01*
X220511Y26713D01*
X220465Y26796D01*
X220416Y26877D01*
X220364Y26956D01*
X220309Y27033D01*
X220250Y27107D01*
X220189Y27179D01*
X220125Y27249D01*
X220058Y27316D01*
X219988Y27380D01*
X219916Y27441D01*
X219842Y27500D01*
X219765Y27555D01*
X219686Y27607D01*
X219605Y27656D01*
X219522Y27702D01*
X219437Y27744D01*
X219351Y27783D01*
X219263Y27818D01*
X219174Y27850D01*
X219084Y27878D01*
X218992Y27903D01*
X218900Y27924D01*
X218807Y27941D01*
X218713Y27954D01*
X218619Y27963D01*
X218525Y27969D01*
X218430Y27971D01*
X220779Y25621D02*
X220777Y25513D01*
X220771Y25404D01*
X220761Y25296D01*
X220748Y25189D01*
X220730Y25082D01*
X220709Y24975D01*
X220684Y24870D01*
X220655Y24765D01*
X220623Y24662D01*
X220586Y24560D01*
X220546Y24459D01*
X220503Y24360D01*
X220456Y24262D01*
X220405Y24166D01*
X220351Y24072D01*
X220294Y23980D01*
X220233Y23890D01*
X220169Y23802D01*
X220103Y23717D01*
X220033Y23634D01*
X219960Y23554D01*
X219884Y23476D01*
X219806Y23401D01*
X219725Y23329D01*
X219641Y23260D01*
X219555Y23194D01*
X219467Y23131D01*
X219376Y23072D01*
X219284Y23015D01*
X219189Y22962D01*
X219093Y22913D01*
X218994Y22867D01*
X218895Y22824D01*
X218793Y22785D01*
X218691Y22750D01*
X216602Y27188D02*
X216671Y27257D01*
X216742Y27323D01*
X216815Y27387D01*
X216891Y27448D01*
X216970Y27506D01*
X217050Y27560D01*
X217133Y27612D01*
X217217Y27660D01*
X217303Y27706D01*
X217391Y27747D01*
X217481Y27786D01*
X217572Y27821D01*
X217664Y27852D01*
X217757Y27880D01*
X217851Y27904D01*
X217946Y27924D01*
X218042Y27941D01*
X218139Y27954D01*
X218236Y27963D01*
X218333Y27969D01*
X218430Y27971D01*
X216602Y27188D02*
X211381Y22750D01*
X211381Y27971D01*
D10*
X206896Y65508D02*
X204299Y65508D01*
X206896Y65508D02*
X206995Y65510D01*
X207095Y65516D01*
X207194Y65525D01*
X207292Y65538D01*
X207390Y65555D01*
X207488Y65576D01*
X207584Y65601D01*
X207679Y65629D01*
X207773Y65661D01*
X207866Y65696D01*
X207958Y65735D01*
X208048Y65778D01*
X208136Y65823D01*
X208223Y65873D01*
X208307Y65925D01*
X208390Y65981D01*
X208470Y66039D01*
X208548Y66101D01*
X208623Y66166D01*
X208696Y66234D01*
X208766Y66304D01*
X208834Y66377D01*
X208899Y66452D01*
X208961Y66530D01*
X209019Y66610D01*
X209075Y66693D01*
X209127Y66777D01*
X209177Y66864D01*
X209222Y66952D01*
X209265Y67042D01*
X209304Y67134D01*
X209339Y67227D01*
X209371Y67321D01*
X209399Y67416D01*
X209424Y67512D01*
X209445Y67610D01*
X209462Y67708D01*
X209475Y67806D01*
X209484Y67905D01*
X209490Y68005D01*
X209492Y68104D01*
X209492Y74596D01*
X209490Y74695D01*
X209484Y74795D01*
X209475Y74894D01*
X209462Y74992D01*
X209445Y75090D01*
X209424Y75188D01*
X209399Y75284D01*
X209371Y75379D01*
X209339Y75473D01*
X209304Y75566D01*
X209265Y75658D01*
X209222Y75748D01*
X209177Y75836D01*
X209127Y75923D01*
X209075Y76007D01*
X209019Y76090D01*
X208961Y76170D01*
X208899Y76248D01*
X208834Y76323D01*
X208766Y76396D01*
X208696Y76466D01*
X208623Y76534D01*
X208548Y76599D01*
X208470Y76661D01*
X208390Y76719D01*
X208307Y76775D01*
X208223Y76827D01*
X208136Y76877D01*
X208048Y76922D01*
X207958Y76965D01*
X207866Y77004D01*
X207773Y77039D01*
X207679Y77071D01*
X207584Y77099D01*
X207488Y77124D01*
X207390Y77145D01*
X207292Y77162D01*
X207194Y77175D01*
X207095Y77184D01*
X206995Y77190D01*
X206896Y77192D01*
X204299Y77192D01*
X199934Y65508D02*
X196039Y65508D01*
X195940Y65510D01*
X195840Y65516D01*
X195741Y65525D01*
X195643Y65538D01*
X195545Y65555D01*
X195447Y65576D01*
X195351Y65601D01*
X195256Y65629D01*
X195162Y65661D01*
X195069Y65696D01*
X194977Y65735D01*
X194887Y65778D01*
X194799Y65823D01*
X194712Y65873D01*
X194628Y65925D01*
X194545Y65981D01*
X194465Y66039D01*
X194387Y66101D01*
X194312Y66166D01*
X194239Y66234D01*
X194169Y66304D01*
X194101Y66377D01*
X194036Y66452D01*
X193974Y66530D01*
X193916Y66610D01*
X193860Y66693D01*
X193808Y66777D01*
X193758Y66864D01*
X193713Y66952D01*
X193670Y67042D01*
X193631Y67134D01*
X193596Y67227D01*
X193564Y67321D01*
X193536Y67416D01*
X193511Y67512D01*
X193490Y67610D01*
X193473Y67708D01*
X193460Y67806D01*
X193451Y67905D01*
X193445Y68005D01*
X193443Y68104D01*
X193443Y69403D01*
X193445Y69502D01*
X193451Y69602D01*
X193460Y69701D01*
X193473Y69799D01*
X193490Y69897D01*
X193511Y69995D01*
X193536Y70091D01*
X193564Y70186D01*
X193596Y70280D01*
X193631Y70373D01*
X193670Y70465D01*
X193713Y70555D01*
X193758Y70643D01*
X193808Y70730D01*
X193860Y70814D01*
X193916Y70897D01*
X193974Y70977D01*
X194036Y71055D01*
X194101Y71130D01*
X194169Y71203D01*
X194239Y71273D01*
X194312Y71341D01*
X194387Y71406D01*
X194465Y71468D01*
X194545Y71526D01*
X194628Y71582D01*
X194712Y71634D01*
X194799Y71684D01*
X194887Y71729D01*
X194977Y71772D01*
X195069Y71811D01*
X195162Y71846D01*
X195256Y71878D01*
X195351Y71906D01*
X195447Y71931D01*
X195545Y71952D01*
X195643Y71969D01*
X195741Y71982D01*
X195840Y71991D01*
X195940Y71997D01*
X196039Y71999D01*
X199934Y71999D01*
X199934Y77192D01*
X193443Y77192D01*
X234492Y125508D02*
X234492Y137192D01*
X231246Y137192D01*
X231133Y137190D01*
X231020Y137184D01*
X230907Y137174D01*
X230794Y137160D01*
X230682Y137143D01*
X230571Y137121D01*
X230461Y137096D01*
X230351Y137066D01*
X230243Y137033D01*
X230136Y136996D01*
X230030Y136956D01*
X229926Y136911D01*
X229823Y136863D01*
X229722Y136812D01*
X229623Y136757D01*
X229526Y136699D01*
X229431Y136637D01*
X229338Y136572D01*
X229248Y136504D01*
X229160Y136433D01*
X229074Y136358D01*
X228991Y136281D01*
X228911Y136201D01*
X228834Y136118D01*
X228759Y136032D01*
X228688Y135944D01*
X228620Y135854D01*
X228555Y135761D01*
X228493Y135666D01*
X228435Y135569D01*
X228380Y135470D01*
X228329Y135369D01*
X228281Y135266D01*
X228236Y135162D01*
X228196Y135056D01*
X228159Y134949D01*
X228126Y134841D01*
X228096Y134731D01*
X228071Y134621D01*
X228049Y134510D01*
X228032Y134398D01*
X228018Y134285D01*
X228008Y134172D01*
X228002Y134059D01*
X228000Y133946D01*
X228002Y133833D01*
X228008Y133720D01*
X228018Y133607D01*
X228032Y133494D01*
X228049Y133382D01*
X228071Y133271D01*
X228096Y133161D01*
X228126Y133051D01*
X228159Y132943D01*
X228196Y132836D01*
X228236Y132730D01*
X228281Y132626D01*
X228329Y132523D01*
X228380Y132422D01*
X228435Y132323D01*
X228493Y132226D01*
X228555Y132131D01*
X228620Y132038D01*
X228688Y131948D01*
X228759Y131860D01*
X228834Y131774D01*
X228911Y131691D01*
X228991Y131611D01*
X229074Y131534D01*
X229160Y131459D01*
X229248Y131388D01*
X229338Y131320D01*
X229431Y131255D01*
X229526Y131193D01*
X229623Y131135D01*
X229722Y131080D01*
X229823Y131029D01*
X229926Y130981D01*
X230030Y130936D01*
X230136Y130896D01*
X230243Y130859D01*
X230351Y130826D01*
X230461Y130796D01*
X230571Y130771D01*
X230682Y130749D01*
X230794Y130732D01*
X230907Y130718D01*
X231020Y130708D01*
X231133Y130702D01*
X231246Y130700D01*
X231246Y130701D02*
X234492Y130701D01*
X230597Y130701D02*
X228001Y125508D01*
X216645Y134271D02*
X216647Y134378D01*
X216653Y134484D01*
X216663Y134590D01*
X216676Y134696D01*
X216694Y134802D01*
X216715Y134906D01*
X216740Y135010D01*
X216769Y135113D01*
X216801Y135214D01*
X216838Y135314D01*
X216878Y135413D01*
X216921Y135511D01*
X216968Y135607D01*
X217019Y135701D01*
X217073Y135793D01*
X217130Y135883D01*
X217190Y135971D01*
X217254Y136056D01*
X217321Y136139D01*
X217391Y136220D01*
X217463Y136298D01*
X217539Y136374D01*
X217617Y136446D01*
X217698Y136516D01*
X217781Y136583D01*
X217866Y136647D01*
X217954Y136707D01*
X218044Y136764D01*
X218136Y136818D01*
X218230Y136869D01*
X218326Y136916D01*
X218424Y136959D01*
X218523Y136999D01*
X218623Y137036D01*
X218724Y137068D01*
X218827Y137097D01*
X218931Y137122D01*
X219035Y137143D01*
X219141Y137161D01*
X219247Y137174D01*
X219353Y137184D01*
X219459Y137190D01*
X219566Y137192D01*
X219687Y137190D01*
X219808Y137184D01*
X219928Y137174D01*
X220049Y137161D01*
X220168Y137143D01*
X220288Y137122D01*
X220406Y137097D01*
X220523Y137068D01*
X220640Y137035D01*
X220755Y136999D01*
X220869Y136958D01*
X220982Y136915D01*
X221094Y136867D01*
X221203Y136816D01*
X221311Y136761D01*
X221418Y136703D01*
X221522Y136642D01*
X221624Y136577D01*
X221724Y136509D01*
X221822Y136438D01*
X221918Y136364D01*
X222011Y136287D01*
X222101Y136206D01*
X222189Y136123D01*
X222274Y136037D01*
X222357Y135948D01*
X222436Y135857D01*
X222513Y135763D01*
X222586Y135667D01*
X222656Y135569D01*
X222723Y135468D01*
X222787Y135365D01*
X222848Y135260D01*
X222905Y135153D01*
X222958Y135045D01*
X223008Y134935D01*
X223054Y134823D01*
X223097Y134710D01*
X223136Y134595D01*
X217619Y131999D02*
X217540Y132077D01*
X217464Y132157D01*
X217391Y132240D01*
X217321Y132326D01*
X217254Y132413D01*
X217190Y132504D01*
X217130Y132596D01*
X217072Y132690D01*
X217018Y132787D01*
X216968Y132885D01*
X216921Y132985D01*
X216877Y133086D01*
X216837Y133189D01*
X216801Y133294D01*
X216769Y133399D01*
X216740Y133506D01*
X216715Y133613D01*
X216693Y133722D01*
X216676Y133831D01*
X216662Y133940D01*
X216653Y134050D01*
X216647Y134161D01*
X216645Y134271D01*
X217618Y131999D02*
X223136Y125508D01*
X216645Y125508D01*
X234492Y165508D02*
X234492Y177192D01*
X231246Y177192D01*
X231133Y177190D01*
X231020Y177184D01*
X230907Y177174D01*
X230794Y177160D01*
X230682Y177143D01*
X230571Y177121D01*
X230461Y177096D01*
X230351Y177066D01*
X230243Y177033D01*
X230136Y176996D01*
X230030Y176956D01*
X229926Y176911D01*
X229823Y176863D01*
X229722Y176812D01*
X229623Y176757D01*
X229526Y176699D01*
X229431Y176637D01*
X229338Y176572D01*
X229248Y176504D01*
X229160Y176433D01*
X229074Y176358D01*
X228991Y176281D01*
X228911Y176201D01*
X228834Y176118D01*
X228759Y176032D01*
X228688Y175944D01*
X228620Y175854D01*
X228555Y175761D01*
X228493Y175666D01*
X228435Y175569D01*
X228380Y175470D01*
X228329Y175369D01*
X228281Y175266D01*
X228236Y175162D01*
X228196Y175056D01*
X228159Y174949D01*
X228126Y174841D01*
X228096Y174731D01*
X228071Y174621D01*
X228049Y174510D01*
X228032Y174398D01*
X228018Y174285D01*
X228008Y174172D01*
X228002Y174059D01*
X228000Y173946D01*
X228002Y173833D01*
X228008Y173720D01*
X228018Y173607D01*
X228032Y173494D01*
X228049Y173382D01*
X228071Y173271D01*
X228096Y173161D01*
X228126Y173051D01*
X228159Y172943D01*
X228196Y172836D01*
X228236Y172730D01*
X228281Y172626D01*
X228329Y172523D01*
X228380Y172422D01*
X228435Y172323D01*
X228493Y172226D01*
X228555Y172131D01*
X228620Y172038D01*
X228688Y171948D01*
X228759Y171860D01*
X228834Y171774D01*
X228911Y171691D01*
X228991Y171611D01*
X229074Y171534D01*
X229160Y171459D01*
X229248Y171388D01*
X229338Y171320D01*
X229431Y171255D01*
X229526Y171193D01*
X229623Y171135D01*
X229722Y171080D01*
X229823Y171029D01*
X229926Y170981D01*
X230030Y170936D01*
X230136Y170896D01*
X230243Y170859D01*
X230351Y170826D01*
X230461Y170796D01*
X230571Y170771D01*
X230682Y170749D01*
X230794Y170732D01*
X230907Y170718D01*
X231020Y170708D01*
X231133Y170702D01*
X231246Y170700D01*
X231246Y170701D02*
X234492Y170701D01*
X230597Y170701D02*
X228001Y165508D01*
X223136Y165508D02*
X219890Y165508D01*
X219777Y165510D01*
X219664Y165516D01*
X219551Y165526D01*
X219438Y165540D01*
X219326Y165557D01*
X219215Y165579D01*
X219105Y165604D01*
X218995Y165634D01*
X218887Y165667D01*
X218780Y165704D01*
X218674Y165744D01*
X218570Y165789D01*
X218467Y165837D01*
X218366Y165888D01*
X218267Y165943D01*
X218170Y166001D01*
X218075Y166063D01*
X217982Y166128D01*
X217892Y166196D01*
X217804Y166267D01*
X217718Y166342D01*
X217635Y166419D01*
X217555Y166499D01*
X217478Y166582D01*
X217403Y166668D01*
X217332Y166756D01*
X217264Y166846D01*
X217199Y166939D01*
X217137Y167034D01*
X217079Y167131D01*
X217024Y167230D01*
X216973Y167331D01*
X216925Y167434D01*
X216880Y167538D01*
X216840Y167644D01*
X216803Y167751D01*
X216770Y167859D01*
X216740Y167969D01*
X216715Y168079D01*
X216693Y168190D01*
X216676Y168302D01*
X216662Y168415D01*
X216652Y168528D01*
X216646Y168641D01*
X216644Y168754D01*
X216646Y168867D01*
X216652Y168980D01*
X216662Y169093D01*
X216676Y169206D01*
X216693Y169318D01*
X216715Y169429D01*
X216740Y169539D01*
X216770Y169649D01*
X216803Y169757D01*
X216840Y169864D01*
X216880Y169970D01*
X216925Y170074D01*
X216973Y170177D01*
X217024Y170278D01*
X217079Y170377D01*
X217137Y170474D01*
X217199Y170569D01*
X217264Y170662D01*
X217332Y170752D01*
X217403Y170840D01*
X217478Y170926D01*
X217555Y171009D01*
X217635Y171089D01*
X217718Y171166D01*
X217804Y171241D01*
X217892Y171312D01*
X217982Y171380D01*
X218075Y171445D01*
X218170Y171507D01*
X218267Y171565D01*
X218366Y171620D01*
X218467Y171671D01*
X218570Y171719D01*
X218674Y171764D01*
X218780Y171804D01*
X218887Y171841D01*
X218995Y171874D01*
X219105Y171904D01*
X219215Y171929D01*
X219326Y171951D01*
X219438Y171968D01*
X219551Y171982D01*
X219664Y171992D01*
X219777Y171998D01*
X219890Y172000D01*
X219241Y177192D02*
X223136Y177192D01*
X219241Y177192D02*
X219140Y177190D01*
X219040Y177184D01*
X218940Y177174D01*
X218840Y177161D01*
X218741Y177143D01*
X218642Y177122D01*
X218545Y177097D01*
X218448Y177068D01*
X218353Y177035D01*
X218259Y176999D01*
X218167Y176959D01*
X218076Y176916D01*
X217987Y176869D01*
X217900Y176819D01*
X217814Y176765D01*
X217731Y176708D01*
X217651Y176648D01*
X217572Y176585D01*
X217496Y176518D01*
X217423Y176449D01*
X217353Y176377D01*
X217285Y176303D01*
X217220Y176226D01*
X217159Y176146D01*
X217100Y176064D01*
X217045Y175980D01*
X216993Y175894D01*
X216944Y175806D01*
X216899Y175716D01*
X216857Y175624D01*
X216819Y175531D01*
X216785Y175436D01*
X216754Y175341D01*
X216727Y175244D01*
X216704Y175146D01*
X216684Y175047D01*
X216669Y174947D01*
X216657Y174847D01*
X216649Y174747D01*
X216645Y174646D01*
X216645Y174546D01*
X216649Y174445D01*
X216657Y174345D01*
X216669Y174245D01*
X216684Y174145D01*
X216704Y174046D01*
X216727Y173948D01*
X216754Y173851D01*
X216785Y173756D01*
X216819Y173661D01*
X216857Y173568D01*
X216899Y173476D01*
X216944Y173386D01*
X216993Y173298D01*
X217045Y173212D01*
X217100Y173128D01*
X217159Y173046D01*
X217220Y172966D01*
X217285Y172889D01*
X217353Y172815D01*
X217423Y172743D01*
X217496Y172674D01*
X217572Y172607D01*
X217651Y172544D01*
X217731Y172484D01*
X217814Y172427D01*
X217900Y172373D01*
X217987Y172323D01*
X218076Y172276D01*
X218167Y172233D01*
X218259Y172193D01*
X218353Y172157D01*
X218448Y172124D01*
X218545Y172095D01*
X218642Y172070D01*
X218741Y172049D01*
X218840Y172031D01*
X218940Y172018D01*
X219040Y172008D01*
X219140Y172002D01*
X219241Y172000D01*
X219241Y171999D02*
X221837Y171999D01*
D13*
X153731Y203334D03*
D14*
X162000Y202500D02*
X162000Y205834D01*
X162000Y202500D02*
X218000Y202500D01*
X218000Y205834D01*
X162000Y274166D02*
X162000Y277500D01*
X218000Y277500D01*
X218000Y274166D01*
D10*
X143772Y236627D02*
X132088Y236627D01*
X132088Y235329D02*
X132088Y237926D01*
X143772Y237926D02*
X143772Y235329D01*
X132088Y245089D02*
X132088Y247686D01*
X132088Y245089D02*
X132090Y244990D01*
X132096Y244890D01*
X132105Y244791D01*
X132118Y244693D01*
X132135Y244595D01*
X132156Y244497D01*
X132181Y244401D01*
X132209Y244306D01*
X132241Y244212D01*
X132276Y244119D01*
X132315Y244027D01*
X132358Y243937D01*
X132403Y243849D01*
X132453Y243762D01*
X132505Y243678D01*
X132561Y243595D01*
X132619Y243515D01*
X132681Y243437D01*
X132746Y243362D01*
X132814Y243289D01*
X132884Y243219D01*
X132957Y243151D01*
X133032Y243086D01*
X133110Y243024D01*
X133190Y242966D01*
X133273Y242910D01*
X133357Y242858D01*
X133444Y242808D01*
X133532Y242763D01*
X133622Y242720D01*
X133714Y242681D01*
X133807Y242646D01*
X133901Y242614D01*
X133996Y242586D01*
X134092Y242561D01*
X134190Y242540D01*
X134288Y242523D01*
X134386Y242510D01*
X134485Y242501D01*
X134585Y242495D01*
X134684Y242493D01*
X141176Y242493D01*
X141275Y242495D01*
X141375Y242501D01*
X141474Y242510D01*
X141572Y242523D01*
X141670Y242540D01*
X141768Y242561D01*
X141864Y242586D01*
X141959Y242614D01*
X142053Y242646D01*
X142146Y242681D01*
X142238Y242720D01*
X142328Y242763D01*
X142416Y242808D01*
X142503Y242858D01*
X142587Y242910D01*
X142670Y242966D01*
X142750Y243024D01*
X142828Y243086D01*
X142903Y243151D01*
X142976Y243219D01*
X143046Y243289D01*
X143114Y243362D01*
X143179Y243437D01*
X143241Y243515D01*
X143299Y243595D01*
X143355Y243678D01*
X143407Y243762D01*
X143457Y243849D01*
X143502Y243937D01*
X143545Y244027D01*
X143584Y244119D01*
X143619Y244211D01*
X143651Y244306D01*
X143679Y244401D01*
X143704Y244497D01*
X143725Y244595D01*
X143742Y244693D01*
X143755Y244791D01*
X143764Y244890D01*
X143770Y244990D01*
X143772Y245089D01*
X143772Y247686D01*
X141176Y252051D02*
X143772Y255296D01*
X132088Y255296D01*
X132088Y252051D02*
X132088Y258542D01*
D13*
X59540Y347525D03*
D14*
X54500Y345625D02*
X40500Y345625D01*
X40500Y335525D01*
X40500Y314375D02*
X54500Y314375D01*
X40500Y314375D02*
X40500Y324475D01*
D10*
X56317Y360129D02*
X56317Y365321D01*
X56318Y365321D02*
X56316Y365434D01*
X56310Y365547D01*
X56300Y365660D01*
X56286Y365773D01*
X56269Y365885D01*
X56247Y365996D01*
X56222Y366106D01*
X56192Y366216D01*
X56159Y366324D01*
X56122Y366431D01*
X56082Y366537D01*
X56037Y366641D01*
X55989Y366744D01*
X55938Y366845D01*
X55883Y366944D01*
X55825Y367041D01*
X55763Y367136D01*
X55698Y367229D01*
X55630Y367319D01*
X55559Y367407D01*
X55484Y367493D01*
X55407Y367576D01*
X55327Y367656D01*
X55244Y367733D01*
X55158Y367808D01*
X55070Y367879D01*
X54980Y367947D01*
X54887Y368012D01*
X54792Y368074D01*
X54695Y368132D01*
X54596Y368187D01*
X54495Y368238D01*
X54392Y368286D01*
X54288Y368331D01*
X54182Y368371D01*
X54075Y368408D01*
X53967Y368441D01*
X53857Y368471D01*
X53747Y368496D01*
X53636Y368518D01*
X53524Y368535D01*
X53411Y368549D01*
X53298Y368559D01*
X53185Y368565D01*
X53072Y368567D01*
X52959Y368565D01*
X52846Y368559D01*
X52733Y368549D01*
X52620Y368535D01*
X52508Y368518D01*
X52397Y368496D01*
X52287Y368471D01*
X52177Y368441D01*
X52069Y368408D01*
X51962Y368371D01*
X51856Y368331D01*
X51752Y368286D01*
X51649Y368238D01*
X51548Y368187D01*
X51449Y368132D01*
X51352Y368074D01*
X51257Y368012D01*
X51164Y367947D01*
X51074Y367879D01*
X50986Y367808D01*
X50900Y367733D01*
X50817Y367656D01*
X50737Y367576D01*
X50660Y367493D01*
X50585Y367407D01*
X50514Y367319D01*
X50446Y367229D01*
X50381Y367136D01*
X50319Y367041D01*
X50261Y366944D01*
X50206Y366845D01*
X50155Y366744D01*
X50107Y366641D01*
X50062Y366537D01*
X50022Y366431D01*
X49985Y366324D01*
X49952Y366216D01*
X49922Y366106D01*
X49897Y365996D01*
X49875Y365885D01*
X49858Y365773D01*
X49844Y365660D01*
X49834Y365547D01*
X49828Y365434D01*
X49826Y365321D01*
X49826Y360129D01*
X49828Y360016D01*
X49834Y359903D01*
X49844Y359790D01*
X49858Y359677D01*
X49875Y359565D01*
X49897Y359454D01*
X49922Y359344D01*
X49952Y359234D01*
X49985Y359126D01*
X50022Y359019D01*
X50062Y358913D01*
X50107Y358809D01*
X50155Y358706D01*
X50206Y358605D01*
X50261Y358506D01*
X50319Y358409D01*
X50381Y358314D01*
X50446Y358221D01*
X50514Y358131D01*
X50585Y358043D01*
X50660Y357957D01*
X50737Y357874D01*
X50817Y357794D01*
X50900Y357717D01*
X50986Y357642D01*
X51074Y357571D01*
X51164Y357503D01*
X51257Y357438D01*
X51352Y357376D01*
X51449Y357318D01*
X51548Y357263D01*
X51649Y357212D01*
X51752Y357164D01*
X51856Y357119D01*
X51962Y357079D01*
X52069Y357042D01*
X52177Y357009D01*
X52287Y356979D01*
X52397Y356954D01*
X52508Y356932D01*
X52620Y356915D01*
X52733Y356901D01*
X52846Y356891D01*
X52959Y356885D01*
X53072Y356883D01*
X53185Y356885D01*
X53298Y356891D01*
X53411Y356901D01*
X53524Y356915D01*
X53636Y356932D01*
X53747Y356954D01*
X53857Y356979D01*
X53967Y357009D01*
X54075Y357042D01*
X54182Y357079D01*
X54288Y357119D01*
X54392Y357164D01*
X54495Y357212D01*
X54596Y357263D01*
X54695Y357318D01*
X54792Y357376D01*
X54887Y357438D01*
X54980Y357503D01*
X55070Y357571D01*
X55158Y357642D01*
X55244Y357717D01*
X55327Y357794D01*
X55407Y357874D01*
X55484Y357957D01*
X55559Y358043D01*
X55630Y358131D01*
X55698Y358221D01*
X55763Y358314D01*
X55825Y358409D01*
X55883Y358506D01*
X55938Y358605D01*
X55989Y358706D01*
X56037Y358809D01*
X56082Y358913D01*
X56122Y359019D01*
X56159Y359126D01*
X56192Y359234D01*
X56222Y359344D01*
X56247Y359454D01*
X56269Y359565D01*
X56286Y359677D01*
X56300Y359790D01*
X56310Y359903D01*
X56316Y360016D01*
X56318Y360129D01*
X51125Y359479D02*
X48528Y356883D01*
X45174Y365971D02*
X41928Y368567D01*
X41928Y356883D01*
X38683Y356883D02*
X45174Y356883D01*
D13*
X155090Y37574D03*
D14*
X150050Y38400D02*
X150050Y35074D01*
X150050Y38400D02*
X122550Y38400D01*
X122550Y35074D01*
X150050Y5726D02*
X150050Y2400D01*
X122550Y2400D01*
X122550Y5726D01*
D12*
X113979Y8981D02*
X104581Y8981D01*
X108758Y12114D02*
X113979Y8981D01*
X108758Y12114D02*
X113979Y15246D01*
X104581Y15246D01*
X104581Y19998D02*
X113979Y19998D01*
X113979Y25219D02*
X108236Y19998D01*
X110324Y22086D02*
X104581Y25219D01*
X111891Y28705D02*
X113979Y31316D01*
X104581Y31316D01*
X104581Y28705D02*
X104581Y33927D01*
D10*
X104492Y250508D02*
X104492Y262192D01*
X101246Y262192D01*
X101133Y262190D01*
X101020Y262184D01*
X100907Y262174D01*
X100794Y262160D01*
X100682Y262143D01*
X100571Y262121D01*
X100461Y262096D01*
X100351Y262066D01*
X100243Y262033D01*
X100136Y261996D01*
X100030Y261956D01*
X99926Y261911D01*
X99823Y261863D01*
X99722Y261812D01*
X99623Y261757D01*
X99526Y261699D01*
X99431Y261637D01*
X99338Y261572D01*
X99248Y261504D01*
X99160Y261433D01*
X99074Y261358D01*
X98991Y261281D01*
X98911Y261201D01*
X98834Y261118D01*
X98759Y261032D01*
X98688Y260944D01*
X98620Y260854D01*
X98555Y260761D01*
X98493Y260666D01*
X98435Y260569D01*
X98380Y260470D01*
X98329Y260369D01*
X98281Y260266D01*
X98236Y260162D01*
X98196Y260056D01*
X98159Y259949D01*
X98126Y259841D01*
X98096Y259731D01*
X98071Y259621D01*
X98049Y259510D01*
X98032Y259398D01*
X98018Y259285D01*
X98008Y259172D01*
X98002Y259059D01*
X98000Y258946D01*
X98002Y258833D01*
X98008Y258720D01*
X98018Y258607D01*
X98032Y258494D01*
X98049Y258382D01*
X98071Y258271D01*
X98096Y258161D01*
X98126Y258051D01*
X98159Y257943D01*
X98196Y257836D01*
X98236Y257730D01*
X98281Y257626D01*
X98329Y257523D01*
X98380Y257422D01*
X98435Y257323D01*
X98493Y257226D01*
X98555Y257131D01*
X98620Y257038D01*
X98688Y256948D01*
X98759Y256860D01*
X98834Y256774D01*
X98911Y256691D01*
X98991Y256611D01*
X99074Y256534D01*
X99160Y256459D01*
X99248Y256388D01*
X99338Y256320D01*
X99431Y256255D01*
X99526Y256193D01*
X99623Y256135D01*
X99722Y256080D01*
X99823Y256029D01*
X99926Y255981D01*
X100030Y255936D01*
X100136Y255896D01*
X100243Y255859D01*
X100351Y255826D01*
X100461Y255796D01*
X100571Y255771D01*
X100682Y255749D01*
X100794Y255732D01*
X100907Y255718D01*
X101020Y255708D01*
X101133Y255702D01*
X101246Y255700D01*
X101246Y255701D02*
X104492Y255701D01*
X100597Y255701D02*
X98001Y250508D01*
X93136Y253104D02*
X90539Y262192D01*
X93136Y253104D02*
X86645Y253104D01*
X88592Y255701D02*
X88592Y250508D01*
X99299Y285508D02*
X101896Y285508D01*
X101995Y285510D01*
X102095Y285516D01*
X102194Y285525D01*
X102292Y285538D01*
X102390Y285555D01*
X102488Y285576D01*
X102584Y285601D01*
X102679Y285629D01*
X102773Y285661D01*
X102866Y285696D01*
X102958Y285735D01*
X103048Y285778D01*
X103136Y285823D01*
X103223Y285873D01*
X103307Y285925D01*
X103390Y285981D01*
X103470Y286039D01*
X103548Y286101D01*
X103623Y286166D01*
X103696Y286234D01*
X103766Y286304D01*
X103834Y286377D01*
X103899Y286452D01*
X103961Y286530D01*
X104019Y286610D01*
X104075Y286693D01*
X104127Y286777D01*
X104177Y286864D01*
X104222Y286952D01*
X104265Y287042D01*
X104304Y287134D01*
X104339Y287227D01*
X104371Y287321D01*
X104399Y287416D01*
X104424Y287512D01*
X104445Y287610D01*
X104462Y287708D01*
X104475Y287806D01*
X104484Y287905D01*
X104490Y288005D01*
X104492Y288104D01*
X104492Y294596D01*
X104490Y294695D01*
X104484Y294795D01*
X104475Y294894D01*
X104462Y294992D01*
X104445Y295090D01*
X104424Y295188D01*
X104399Y295284D01*
X104371Y295379D01*
X104339Y295473D01*
X104304Y295566D01*
X104265Y295658D01*
X104222Y295748D01*
X104177Y295836D01*
X104127Y295923D01*
X104075Y296007D01*
X104019Y296090D01*
X103961Y296170D01*
X103899Y296248D01*
X103834Y296323D01*
X103766Y296396D01*
X103696Y296466D01*
X103623Y296534D01*
X103548Y296599D01*
X103470Y296661D01*
X103390Y296719D01*
X103307Y296775D01*
X103223Y296827D01*
X103136Y296877D01*
X103048Y296922D01*
X102958Y296965D01*
X102866Y297004D01*
X102773Y297039D01*
X102679Y297071D01*
X102584Y297099D01*
X102488Y297124D01*
X102390Y297145D01*
X102292Y297162D01*
X102194Y297175D01*
X102095Y297184D01*
X101995Y297190D01*
X101896Y297192D01*
X99299Y297192D01*
X94934Y297192D02*
X94934Y295894D01*
X94934Y297192D02*
X88443Y297192D01*
X91688Y285508D01*
X151799Y65508D02*
X154396Y65508D01*
X154495Y65510D01*
X154595Y65516D01*
X154694Y65525D01*
X154792Y65538D01*
X154890Y65555D01*
X154988Y65576D01*
X155084Y65601D01*
X155179Y65629D01*
X155273Y65661D01*
X155366Y65696D01*
X155458Y65735D01*
X155548Y65778D01*
X155636Y65823D01*
X155723Y65873D01*
X155807Y65925D01*
X155890Y65981D01*
X155970Y66039D01*
X156048Y66101D01*
X156123Y66166D01*
X156196Y66234D01*
X156266Y66304D01*
X156334Y66377D01*
X156399Y66452D01*
X156461Y66530D01*
X156519Y66610D01*
X156575Y66693D01*
X156627Y66777D01*
X156677Y66864D01*
X156722Y66952D01*
X156765Y67042D01*
X156804Y67134D01*
X156839Y67227D01*
X156871Y67321D01*
X156899Y67416D01*
X156924Y67512D01*
X156945Y67610D01*
X156962Y67708D01*
X156975Y67806D01*
X156984Y67905D01*
X156990Y68005D01*
X156992Y68104D01*
X156992Y74596D01*
X156990Y74695D01*
X156984Y74795D01*
X156975Y74894D01*
X156962Y74992D01*
X156945Y75090D01*
X156924Y75188D01*
X156899Y75284D01*
X156871Y75379D01*
X156839Y75473D01*
X156804Y75566D01*
X156765Y75658D01*
X156722Y75748D01*
X156677Y75836D01*
X156627Y75923D01*
X156575Y76007D01*
X156519Y76090D01*
X156461Y76170D01*
X156399Y76248D01*
X156334Y76323D01*
X156266Y76396D01*
X156196Y76466D01*
X156123Y76534D01*
X156048Y76599D01*
X155970Y76661D01*
X155890Y76719D01*
X155807Y76775D01*
X155723Y76827D01*
X155636Y76877D01*
X155548Y76922D01*
X155458Y76965D01*
X155366Y77004D01*
X155273Y77039D01*
X155179Y77071D01*
X155084Y77099D01*
X154988Y77124D01*
X154890Y77145D01*
X154792Y77162D01*
X154694Y77175D01*
X154595Y77184D01*
X154495Y77190D01*
X154396Y77192D01*
X151799Y77192D01*
X147434Y71999D02*
X143539Y71999D01*
X143440Y71997D01*
X143340Y71991D01*
X143241Y71982D01*
X143143Y71969D01*
X143045Y71952D01*
X142947Y71931D01*
X142851Y71906D01*
X142756Y71878D01*
X142662Y71846D01*
X142569Y71811D01*
X142477Y71772D01*
X142387Y71729D01*
X142299Y71684D01*
X142212Y71634D01*
X142128Y71582D01*
X142045Y71526D01*
X141965Y71468D01*
X141887Y71406D01*
X141812Y71341D01*
X141739Y71273D01*
X141669Y71203D01*
X141601Y71130D01*
X141536Y71055D01*
X141474Y70977D01*
X141416Y70897D01*
X141360Y70814D01*
X141308Y70730D01*
X141258Y70643D01*
X141213Y70555D01*
X141170Y70465D01*
X141131Y70373D01*
X141096Y70280D01*
X141064Y70186D01*
X141036Y70091D01*
X141011Y69995D01*
X140990Y69897D01*
X140973Y69799D01*
X140960Y69701D01*
X140951Y69602D01*
X140945Y69502D01*
X140943Y69403D01*
X140943Y68754D01*
X140942Y68754D02*
X140944Y68641D01*
X140950Y68528D01*
X140960Y68415D01*
X140974Y68302D01*
X140991Y68190D01*
X141013Y68079D01*
X141038Y67969D01*
X141068Y67859D01*
X141101Y67751D01*
X141138Y67644D01*
X141178Y67538D01*
X141223Y67434D01*
X141271Y67331D01*
X141322Y67230D01*
X141377Y67131D01*
X141435Y67034D01*
X141497Y66939D01*
X141562Y66846D01*
X141630Y66756D01*
X141701Y66668D01*
X141776Y66582D01*
X141853Y66499D01*
X141933Y66419D01*
X142016Y66342D01*
X142102Y66267D01*
X142190Y66196D01*
X142280Y66128D01*
X142373Y66063D01*
X142468Y66001D01*
X142565Y65943D01*
X142664Y65888D01*
X142765Y65837D01*
X142868Y65789D01*
X142972Y65744D01*
X143078Y65704D01*
X143185Y65667D01*
X143293Y65634D01*
X143403Y65604D01*
X143513Y65579D01*
X143624Y65557D01*
X143736Y65540D01*
X143849Y65526D01*
X143962Y65516D01*
X144075Y65510D01*
X144188Y65508D01*
X144301Y65510D01*
X144414Y65516D01*
X144527Y65526D01*
X144640Y65540D01*
X144752Y65557D01*
X144863Y65579D01*
X144973Y65604D01*
X145083Y65634D01*
X145191Y65667D01*
X145298Y65704D01*
X145404Y65744D01*
X145508Y65789D01*
X145611Y65837D01*
X145712Y65888D01*
X145811Y65943D01*
X145908Y66001D01*
X146003Y66063D01*
X146096Y66128D01*
X146186Y66196D01*
X146274Y66267D01*
X146360Y66342D01*
X146443Y66419D01*
X146523Y66499D01*
X146600Y66582D01*
X146675Y66668D01*
X146746Y66756D01*
X146814Y66846D01*
X146879Y66939D01*
X146941Y67034D01*
X146999Y67131D01*
X147054Y67230D01*
X147105Y67331D01*
X147153Y67434D01*
X147198Y67538D01*
X147238Y67644D01*
X147275Y67751D01*
X147308Y67859D01*
X147338Y67969D01*
X147363Y68079D01*
X147385Y68190D01*
X147402Y68302D01*
X147416Y68415D01*
X147426Y68528D01*
X147432Y68641D01*
X147434Y68754D01*
X147434Y71999D01*
X147432Y72142D01*
X147426Y72285D01*
X147416Y72428D01*
X147402Y72570D01*
X147385Y72712D01*
X147363Y72854D01*
X147338Y72995D01*
X147308Y73135D01*
X147275Y73274D01*
X147238Y73412D01*
X147197Y73549D01*
X147153Y73685D01*
X147104Y73820D01*
X147052Y73953D01*
X146997Y74085D01*
X146937Y74215D01*
X146874Y74344D01*
X146808Y74471D01*
X146738Y74596D01*
X146665Y74718D01*
X146588Y74839D01*
X146508Y74958D01*
X146425Y75074D01*
X146339Y75189D01*
X146250Y75300D01*
X146157Y75410D01*
X146062Y75516D01*
X145963Y75620D01*
X145862Y75721D01*
X145758Y75820D01*
X145652Y75915D01*
X145542Y76008D01*
X145431Y76097D01*
X145316Y76183D01*
X145200Y76266D01*
X145081Y76346D01*
X144960Y76423D01*
X144838Y76496D01*
X144713Y76566D01*
X144586Y76632D01*
X144457Y76695D01*
X144327Y76755D01*
X144195Y76810D01*
X144062Y76862D01*
X143927Y76911D01*
X143791Y76955D01*
X143654Y76996D01*
X143516Y77033D01*
X143377Y77066D01*
X143237Y77096D01*
X143096Y77121D01*
X142954Y77143D01*
X142812Y77160D01*
X142670Y77174D01*
X142527Y77184D01*
X142384Y77190D01*
X142241Y77192D01*
D15*
X240000Y325000D02*
X240000Y400000D01*
X240000Y440000D01*
X150000Y440000D01*
X150000Y400000D01*
X150000Y325000D01*
X240000Y325000D01*
X240000Y400000D02*
X150000Y400000D01*
D10*
X269492Y387192D02*
X269492Y378754D01*
X269490Y378641D01*
X269484Y378528D01*
X269474Y378415D01*
X269460Y378302D01*
X269443Y378190D01*
X269421Y378079D01*
X269396Y377969D01*
X269366Y377859D01*
X269333Y377751D01*
X269296Y377644D01*
X269256Y377538D01*
X269211Y377434D01*
X269163Y377331D01*
X269112Y377230D01*
X269057Y377131D01*
X268999Y377034D01*
X268937Y376939D01*
X268872Y376846D01*
X268804Y376756D01*
X268733Y376668D01*
X268658Y376582D01*
X268581Y376499D01*
X268501Y376419D01*
X268418Y376342D01*
X268332Y376267D01*
X268244Y376196D01*
X268154Y376128D01*
X268061Y376063D01*
X267966Y376001D01*
X267869Y375943D01*
X267770Y375888D01*
X267669Y375837D01*
X267566Y375789D01*
X267462Y375744D01*
X267356Y375704D01*
X267249Y375667D01*
X267141Y375634D01*
X267031Y375604D01*
X266921Y375579D01*
X266810Y375557D01*
X266698Y375540D01*
X266585Y375526D01*
X266472Y375516D01*
X266359Y375510D01*
X266246Y375508D01*
X266133Y375510D01*
X266020Y375516D01*
X265907Y375526D01*
X265794Y375540D01*
X265682Y375557D01*
X265571Y375579D01*
X265461Y375604D01*
X265351Y375634D01*
X265243Y375667D01*
X265136Y375704D01*
X265030Y375744D01*
X264926Y375789D01*
X264823Y375837D01*
X264722Y375888D01*
X264623Y375943D01*
X264526Y376001D01*
X264431Y376063D01*
X264338Y376128D01*
X264248Y376196D01*
X264160Y376267D01*
X264074Y376342D01*
X263991Y376419D01*
X263911Y376499D01*
X263834Y376582D01*
X263759Y376668D01*
X263688Y376756D01*
X263620Y376846D01*
X263555Y376939D01*
X263493Y377034D01*
X263435Y377131D01*
X263380Y377230D01*
X263329Y377331D01*
X263281Y377434D01*
X263236Y377538D01*
X263196Y377644D01*
X263159Y377751D01*
X263126Y377859D01*
X263096Y377969D01*
X263071Y378079D01*
X263049Y378190D01*
X263032Y378302D01*
X263018Y378415D01*
X263008Y378528D01*
X263002Y378641D01*
X263000Y378754D01*
X263001Y378754D02*
X263001Y387192D01*
X257681Y384596D02*
X254436Y387192D01*
X254436Y375508D01*
X257681Y375508D02*
X251190Y375508D01*
M02*
