G04 EAGLE Gerber RS-274X export*
G75*
%MOMM*%
%FSLAX34Y34*%
%LPD*%
%INTop Silkscreen*%
%IPPOS*%
%AMOC8*
5,1,8,0,0,1.08239X$1,22.5*%
G01*
%ADD10C,0.152400*%
%ADD11C,0.101600*%
%ADD12C,0.076200*%
%ADD13C,0.127000*%


D10*
X7500Y120000D02*
X7506Y120491D01*
X7524Y120981D01*
X7554Y121471D01*
X7596Y121960D01*
X7650Y122448D01*
X7716Y122935D01*
X7794Y123419D01*
X7884Y123902D01*
X7986Y124382D01*
X8099Y124860D01*
X8224Y125334D01*
X8361Y125806D01*
X8509Y126274D01*
X8669Y126738D01*
X8840Y127198D01*
X9022Y127654D01*
X9216Y128105D01*
X9420Y128551D01*
X9636Y128992D01*
X9862Y129428D01*
X10098Y129858D01*
X10345Y130282D01*
X10603Y130700D01*
X10871Y131111D01*
X11148Y131516D01*
X11436Y131914D01*
X11733Y132305D01*
X12040Y132688D01*
X12356Y133063D01*
X12681Y133431D01*
X13015Y133791D01*
X13358Y134142D01*
X13709Y134485D01*
X14069Y134819D01*
X14437Y135144D01*
X14812Y135460D01*
X15195Y135767D01*
X15586Y136064D01*
X15984Y136352D01*
X16389Y136629D01*
X16800Y136897D01*
X17218Y137155D01*
X17642Y137402D01*
X18072Y137638D01*
X18508Y137864D01*
X18949Y138080D01*
X19395Y138284D01*
X19846Y138478D01*
X20302Y138660D01*
X20762Y138831D01*
X21226Y138991D01*
X21694Y139139D01*
X22166Y139276D01*
X22640Y139401D01*
X23118Y139514D01*
X23598Y139616D01*
X24081Y139706D01*
X24565Y139784D01*
X25052Y139850D01*
X25540Y139904D01*
X26029Y139946D01*
X26519Y139976D01*
X27009Y139994D01*
X27500Y140000D01*
X27991Y139994D01*
X28481Y139976D01*
X28971Y139946D01*
X29460Y139904D01*
X29948Y139850D01*
X30435Y139784D01*
X30919Y139706D01*
X31402Y139616D01*
X31882Y139514D01*
X32360Y139401D01*
X32834Y139276D01*
X33306Y139139D01*
X33774Y138991D01*
X34238Y138831D01*
X34698Y138660D01*
X35154Y138478D01*
X35605Y138284D01*
X36051Y138080D01*
X36492Y137864D01*
X36928Y137638D01*
X37358Y137402D01*
X37782Y137155D01*
X38200Y136897D01*
X38611Y136629D01*
X39016Y136352D01*
X39414Y136064D01*
X39805Y135767D01*
X40188Y135460D01*
X40563Y135144D01*
X40931Y134819D01*
X41291Y134485D01*
X41642Y134142D01*
X41985Y133791D01*
X42319Y133431D01*
X42644Y133063D01*
X42960Y132688D01*
X43267Y132305D01*
X43564Y131914D01*
X43852Y131516D01*
X44129Y131111D01*
X44397Y130700D01*
X44655Y130282D01*
X44902Y129858D01*
X45138Y129428D01*
X45364Y128992D01*
X45580Y128551D01*
X45784Y128105D01*
X45978Y127654D01*
X46160Y127198D01*
X46331Y126738D01*
X46491Y126274D01*
X46639Y125806D01*
X46776Y125334D01*
X46901Y124860D01*
X47014Y124382D01*
X47116Y123902D01*
X47206Y123419D01*
X47284Y122935D01*
X47350Y122448D01*
X47404Y121960D01*
X47446Y121471D01*
X47476Y120981D01*
X47494Y120491D01*
X47500Y120000D01*
X47494Y119509D01*
X47476Y119019D01*
X47446Y118529D01*
X47404Y118040D01*
X47350Y117552D01*
X47284Y117065D01*
X47206Y116581D01*
X47116Y116098D01*
X47014Y115618D01*
X46901Y115140D01*
X46776Y114666D01*
X46639Y114194D01*
X46491Y113726D01*
X46331Y113262D01*
X46160Y112802D01*
X45978Y112346D01*
X45784Y111895D01*
X45580Y111449D01*
X45364Y111008D01*
X45138Y110572D01*
X44902Y110142D01*
X44655Y109718D01*
X44397Y109300D01*
X44129Y108889D01*
X43852Y108484D01*
X43564Y108086D01*
X43267Y107695D01*
X42960Y107312D01*
X42644Y106937D01*
X42319Y106569D01*
X41985Y106209D01*
X41642Y105858D01*
X41291Y105515D01*
X40931Y105181D01*
X40563Y104856D01*
X40188Y104540D01*
X39805Y104233D01*
X39414Y103936D01*
X39016Y103648D01*
X38611Y103371D01*
X38200Y103103D01*
X37782Y102845D01*
X37358Y102598D01*
X36928Y102362D01*
X36492Y102136D01*
X36051Y101920D01*
X35605Y101716D01*
X35154Y101522D01*
X34698Y101340D01*
X34238Y101169D01*
X33774Y101009D01*
X33306Y100861D01*
X32834Y100724D01*
X32360Y100599D01*
X31882Y100486D01*
X31402Y100384D01*
X30919Y100294D01*
X30435Y100216D01*
X29948Y100150D01*
X29460Y100096D01*
X28971Y100054D01*
X28481Y100024D01*
X27991Y100006D01*
X27500Y100000D01*
X27009Y100006D01*
X26519Y100024D01*
X26029Y100054D01*
X25540Y100096D01*
X25052Y100150D01*
X24565Y100216D01*
X24081Y100294D01*
X23598Y100384D01*
X23118Y100486D01*
X22640Y100599D01*
X22166Y100724D01*
X21694Y100861D01*
X21226Y101009D01*
X20762Y101169D01*
X20302Y101340D01*
X19846Y101522D01*
X19395Y101716D01*
X18949Y101920D01*
X18508Y102136D01*
X18072Y102362D01*
X17642Y102598D01*
X17218Y102845D01*
X16800Y103103D01*
X16389Y103371D01*
X15984Y103648D01*
X15586Y103936D01*
X15195Y104233D01*
X14812Y104540D01*
X14437Y104856D01*
X14069Y105181D01*
X13709Y105515D01*
X13358Y105858D01*
X13015Y106209D01*
X12681Y106569D01*
X12356Y106937D01*
X12040Y107312D01*
X11733Y107695D01*
X11436Y108086D01*
X11148Y108484D01*
X10871Y108889D01*
X10603Y109300D01*
X10345Y109718D01*
X10098Y110142D01*
X9862Y110572D01*
X9636Y111008D01*
X9420Y111449D01*
X9216Y111895D01*
X9022Y112346D01*
X8840Y112802D01*
X8669Y113262D01*
X8509Y113726D01*
X8361Y114194D01*
X8224Y114666D01*
X8099Y115140D01*
X7986Y115618D01*
X7884Y116098D01*
X7794Y116581D01*
X7716Y117065D01*
X7650Y117552D01*
X7596Y118040D01*
X7554Y118529D01*
X7524Y119019D01*
X7506Y119509D01*
X7500Y120000D01*
X242500Y320000D02*
X242506Y320491D01*
X242524Y320981D01*
X242554Y321471D01*
X242596Y321960D01*
X242650Y322448D01*
X242716Y322935D01*
X242794Y323419D01*
X242884Y323902D01*
X242986Y324382D01*
X243099Y324860D01*
X243224Y325334D01*
X243361Y325806D01*
X243509Y326274D01*
X243669Y326738D01*
X243840Y327198D01*
X244022Y327654D01*
X244216Y328105D01*
X244420Y328551D01*
X244636Y328992D01*
X244862Y329428D01*
X245098Y329858D01*
X245345Y330282D01*
X245603Y330700D01*
X245871Y331111D01*
X246148Y331516D01*
X246436Y331914D01*
X246733Y332305D01*
X247040Y332688D01*
X247356Y333063D01*
X247681Y333431D01*
X248015Y333791D01*
X248358Y334142D01*
X248709Y334485D01*
X249069Y334819D01*
X249437Y335144D01*
X249812Y335460D01*
X250195Y335767D01*
X250586Y336064D01*
X250984Y336352D01*
X251389Y336629D01*
X251800Y336897D01*
X252218Y337155D01*
X252642Y337402D01*
X253072Y337638D01*
X253508Y337864D01*
X253949Y338080D01*
X254395Y338284D01*
X254846Y338478D01*
X255302Y338660D01*
X255762Y338831D01*
X256226Y338991D01*
X256694Y339139D01*
X257166Y339276D01*
X257640Y339401D01*
X258118Y339514D01*
X258598Y339616D01*
X259081Y339706D01*
X259565Y339784D01*
X260052Y339850D01*
X260540Y339904D01*
X261029Y339946D01*
X261519Y339976D01*
X262009Y339994D01*
X262500Y340000D01*
X262991Y339994D01*
X263481Y339976D01*
X263971Y339946D01*
X264460Y339904D01*
X264948Y339850D01*
X265435Y339784D01*
X265919Y339706D01*
X266402Y339616D01*
X266882Y339514D01*
X267360Y339401D01*
X267834Y339276D01*
X268306Y339139D01*
X268774Y338991D01*
X269238Y338831D01*
X269698Y338660D01*
X270154Y338478D01*
X270605Y338284D01*
X271051Y338080D01*
X271492Y337864D01*
X271928Y337638D01*
X272358Y337402D01*
X272782Y337155D01*
X273200Y336897D01*
X273611Y336629D01*
X274016Y336352D01*
X274414Y336064D01*
X274805Y335767D01*
X275188Y335460D01*
X275563Y335144D01*
X275931Y334819D01*
X276291Y334485D01*
X276642Y334142D01*
X276985Y333791D01*
X277319Y333431D01*
X277644Y333063D01*
X277960Y332688D01*
X278267Y332305D01*
X278564Y331914D01*
X278852Y331516D01*
X279129Y331111D01*
X279397Y330700D01*
X279655Y330282D01*
X279902Y329858D01*
X280138Y329428D01*
X280364Y328992D01*
X280580Y328551D01*
X280784Y328105D01*
X280978Y327654D01*
X281160Y327198D01*
X281331Y326738D01*
X281491Y326274D01*
X281639Y325806D01*
X281776Y325334D01*
X281901Y324860D01*
X282014Y324382D01*
X282116Y323902D01*
X282206Y323419D01*
X282284Y322935D01*
X282350Y322448D01*
X282404Y321960D01*
X282446Y321471D01*
X282476Y320981D01*
X282494Y320491D01*
X282500Y320000D01*
X282494Y319509D01*
X282476Y319019D01*
X282446Y318529D01*
X282404Y318040D01*
X282350Y317552D01*
X282284Y317065D01*
X282206Y316581D01*
X282116Y316098D01*
X282014Y315618D01*
X281901Y315140D01*
X281776Y314666D01*
X281639Y314194D01*
X281491Y313726D01*
X281331Y313262D01*
X281160Y312802D01*
X280978Y312346D01*
X280784Y311895D01*
X280580Y311449D01*
X280364Y311008D01*
X280138Y310572D01*
X279902Y310142D01*
X279655Y309718D01*
X279397Y309300D01*
X279129Y308889D01*
X278852Y308484D01*
X278564Y308086D01*
X278267Y307695D01*
X277960Y307312D01*
X277644Y306937D01*
X277319Y306569D01*
X276985Y306209D01*
X276642Y305858D01*
X276291Y305515D01*
X275931Y305181D01*
X275563Y304856D01*
X275188Y304540D01*
X274805Y304233D01*
X274414Y303936D01*
X274016Y303648D01*
X273611Y303371D01*
X273200Y303103D01*
X272782Y302845D01*
X272358Y302598D01*
X271928Y302362D01*
X271492Y302136D01*
X271051Y301920D01*
X270605Y301716D01*
X270154Y301522D01*
X269698Y301340D01*
X269238Y301169D01*
X268774Y301009D01*
X268306Y300861D01*
X267834Y300724D01*
X267360Y300599D01*
X266882Y300486D01*
X266402Y300384D01*
X265919Y300294D01*
X265435Y300216D01*
X264948Y300150D01*
X264460Y300096D01*
X263971Y300054D01*
X263481Y300024D01*
X262991Y300006D01*
X262500Y300000D01*
X262009Y300006D01*
X261519Y300024D01*
X261029Y300054D01*
X260540Y300096D01*
X260052Y300150D01*
X259565Y300216D01*
X259081Y300294D01*
X258598Y300384D01*
X258118Y300486D01*
X257640Y300599D01*
X257166Y300724D01*
X256694Y300861D01*
X256226Y301009D01*
X255762Y301169D01*
X255302Y301340D01*
X254846Y301522D01*
X254395Y301716D01*
X253949Y301920D01*
X253508Y302136D01*
X253072Y302362D01*
X252642Y302598D01*
X252218Y302845D01*
X251800Y303103D01*
X251389Y303371D01*
X250984Y303648D01*
X250586Y303936D01*
X250195Y304233D01*
X249812Y304540D01*
X249437Y304856D01*
X249069Y305181D01*
X248709Y305515D01*
X248358Y305858D01*
X248015Y306209D01*
X247681Y306569D01*
X247356Y306937D01*
X247040Y307312D01*
X246733Y307695D01*
X246436Y308086D01*
X246148Y308484D01*
X245871Y308889D01*
X245603Y309300D01*
X245345Y309718D01*
X245098Y310142D01*
X244862Y310572D01*
X244636Y311008D01*
X244420Y311449D01*
X244216Y311895D01*
X244022Y312346D01*
X243840Y312802D01*
X243669Y313262D01*
X243509Y313726D01*
X243361Y314194D01*
X243224Y314666D01*
X243099Y315140D01*
X242986Y315618D01*
X242884Y316098D01*
X242794Y316581D01*
X242716Y317065D01*
X242650Y317552D01*
X242596Y318040D01*
X242554Y318529D01*
X242524Y319019D01*
X242506Y319509D01*
X242500Y320000D01*
D11*
X267808Y93754D02*
X270404Y90508D01*
X267808Y93754D02*
X279492Y93754D01*
X279492Y96999D02*
X279492Y90508D01*
X273001Y260508D02*
X273001Y264403D01*
X273003Y264502D01*
X273009Y264602D01*
X273018Y264701D01*
X273031Y264799D01*
X273048Y264897D01*
X273069Y264995D01*
X273094Y265091D01*
X273122Y265186D01*
X273154Y265280D01*
X273189Y265373D01*
X273228Y265465D01*
X273271Y265555D01*
X273316Y265643D01*
X273366Y265730D01*
X273418Y265814D01*
X273474Y265897D01*
X273532Y265977D01*
X273594Y266055D01*
X273659Y266130D01*
X273727Y266203D01*
X273797Y266273D01*
X273870Y266341D01*
X273945Y266406D01*
X274023Y266468D01*
X274103Y266526D01*
X274186Y266582D01*
X274270Y266634D01*
X274357Y266684D01*
X274445Y266729D01*
X274535Y266772D01*
X274627Y266811D01*
X274720Y266846D01*
X274814Y266878D01*
X274909Y266906D01*
X275005Y266931D01*
X275103Y266952D01*
X275201Y266969D01*
X275299Y266982D01*
X275398Y266991D01*
X275498Y266997D01*
X275597Y266999D01*
X276246Y266999D01*
X276246Y267000D02*
X276359Y266998D01*
X276472Y266992D01*
X276585Y266982D01*
X276698Y266968D01*
X276810Y266951D01*
X276921Y266929D01*
X277031Y266904D01*
X277141Y266874D01*
X277249Y266841D01*
X277356Y266804D01*
X277462Y266764D01*
X277566Y266719D01*
X277669Y266671D01*
X277770Y266620D01*
X277869Y266565D01*
X277966Y266507D01*
X278061Y266445D01*
X278154Y266380D01*
X278244Y266312D01*
X278332Y266241D01*
X278418Y266166D01*
X278501Y266089D01*
X278581Y266009D01*
X278658Y265926D01*
X278733Y265840D01*
X278804Y265752D01*
X278872Y265662D01*
X278937Y265569D01*
X278999Y265474D01*
X279057Y265377D01*
X279112Y265278D01*
X279163Y265177D01*
X279211Y265074D01*
X279256Y264970D01*
X279296Y264864D01*
X279333Y264757D01*
X279366Y264649D01*
X279396Y264539D01*
X279421Y264429D01*
X279443Y264318D01*
X279460Y264206D01*
X279474Y264093D01*
X279484Y263980D01*
X279490Y263867D01*
X279492Y263754D01*
X279490Y263641D01*
X279484Y263528D01*
X279474Y263415D01*
X279460Y263302D01*
X279443Y263190D01*
X279421Y263079D01*
X279396Y262969D01*
X279366Y262859D01*
X279333Y262751D01*
X279296Y262644D01*
X279256Y262538D01*
X279211Y262434D01*
X279163Y262331D01*
X279112Y262230D01*
X279057Y262131D01*
X278999Y262034D01*
X278937Y261939D01*
X278872Y261846D01*
X278804Y261756D01*
X278733Y261668D01*
X278658Y261582D01*
X278581Y261499D01*
X278501Y261419D01*
X278418Y261342D01*
X278332Y261267D01*
X278244Y261196D01*
X278154Y261128D01*
X278061Y261063D01*
X277966Y261001D01*
X277869Y260943D01*
X277770Y260888D01*
X277669Y260837D01*
X277566Y260789D01*
X277462Y260744D01*
X277356Y260704D01*
X277249Y260667D01*
X277141Y260634D01*
X277031Y260604D01*
X276921Y260579D01*
X276810Y260557D01*
X276698Y260540D01*
X276585Y260526D01*
X276472Y260516D01*
X276359Y260510D01*
X276246Y260508D01*
X273001Y260508D01*
X272858Y260510D01*
X272715Y260516D01*
X272572Y260526D01*
X272430Y260540D01*
X272288Y260557D01*
X272146Y260579D01*
X272005Y260604D01*
X271865Y260634D01*
X271726Y260667D01*
X271588Y260704D01*
X271451Y260745D01*
X271315Y260789D01*
X271180Y260838D01*
X271047Y260890D01*
X270915Y260945D01*
X270785Y261005D01*
X270656Y261068D01*
X270529Y261134D01*
X270405Y261204D01*
X270282Y261277D01*
X270161Y261354D01*
X270042Y261433D01*
X269926Y261517D01*
X269811Y261603D01*
X269700Y261692D01*
X269591Y261785D01*
X269484Y261880D01*
X269380Y261979D01*
X269279Y262080D01*
X269180Y262184D01*
X269085Y262290D01*
X268992Y262400D01*
X268903Y262511D01*
X268817Y262625D01*
X268734Y262742D01*
X268654Y262861D01*
X268577Y262982D01*
X268504Y263104D01*
X268434Y263229D01*
X268368Y263356D01*
X268305Y263485D01*
X268245Y263615D01*
X268190Y263747D01*
X268138Y263880D01*
X268089Y264015D01*
X268045Y264151D01*
X268004Y264288D01*
X267967Y264426D01*
X267934Y264565D01*
X267904Y264705D01*
X267879Y264846D01*
X267857Y264988D01*
X267840Y265130D01*
X267826Y265272D01*
X267816Y265415D01*
X267810Y265558D01*
X267808Y265701D01*
D12*
X30381Y7008D02*
X32469Y4398D01*
X30381Y7008D02*
X39779Y7008D01*
X39779Y4398D02*
X39779Y9619D01*
D11*
X30508Y76571D02*
X30510Y76678D01*
X30516Y76784D01*
X30526Y76890D01*
X30539Y76996D01*
X30557Y77102D01*
X30578Y77206D01*
X30603Y77310D01*
X30632Y77413D01*
X30664Y77514D01*
X30701Y77614D01*
X30741Y77713D01*
X30784Y77811D01*
X30831Y77907D01*
X30882Y78001D01*
X30936Y78093D01*
X30993Y78183D01*
X31053Y78271D01*
X31117Y78356D01*
X31184Y78439D01*
X31254Y78520D01*
X31326Y78598D01*
X31402Y78674D01*
X31480Y78746D01*
X31561Y78816D01*
X31644Y78883D01*
X31729Y78947D01*
X31817Y79007D01*
X31907Y79064D01*
X31999Y79118D01*
X32093Y79169D01*
X32189Y79216D01*
X32287Y79259D01*
X32386Y79299D01*
X32486Y79336D01*
X32587Y79368D01*
X32690Y79397D01*
X32794Y79422D01*
X32898Y79443D01*
X33004Y79461D01*
X33110Y79474D01*
X33216Y79484D01*
X33322Y79490D01*
X33429Y79492D01*
X30508Y76571D02*
X30510Y76450D01*
X30516Y76329D01*
X30526Y76209D01*
X30539Y76088D01*
X30557Y75969D01*
X30578Y75849D01*
X30603Y75731D01*
X30632Y75614D01*
X30665Y75497D01*
X30701Y75382D01*
X30742Y75268D01*
X30785Y75155D01*
X30833Y75043D01*
X30884Y74934D01*
X30939Y74826D01*
X30997Y74719D01*
X31058Y74615D01*
X31123Y74513D01*
X31191Y74413D01*
X31262Y74315D01*
X31336Y74219D01*
X31413Y74126D01*
X31494Y74036D01*
X31577Y73948D01*
X31663Y73863D01*
X31752Y73780D01*
X31843Y73701D01*
X31937Y73624D01*
X32033Y73551D01*
X32131Y73481D01*
X32232Y73414D01*
X32335Y73350D01*
X32440Y73290D01*
X32547Y73232D01*
X32655Y73179D01*
X32765Y73129D01*
X32877Y73083D01*
X32990Y73040D01*
X33105Y73001D01*
X35701Y78518D02*
X35623Y78597D01*
X35543Y78673D01*
X35460Y78746D01*
X35374Y78816D01*
X35287Y78883D01*
X35196Y78947D01*
X35104Y79007D01*
X35010Y79065D01*
X34913Y79119D01*
X34815Y79169D01*
X34715Y79216D01*
X34614Y79260D01*
X34511Y79300D01*
X34406Y79336D01*
X34301Y79368D01*
X34194Y79397D01*
X34087Y79422D01*
X33978Y79444D01*
X33869Y79461D01*
X33760Y79475D01*
X33650Y79484D01*
X33539Y79490D01*
X33429Y79492D01*
X35701Y78518D02*
X42192Y73001D01*
X42192Y79492D01*
X85701Y76896D02*
X85701Y73001D01*
X85701Y76896D02*
X85703Y76995D01*
X85709Y77095D01*
X85718Y77194D01*
X85731Y77292D01*
X85748Y77390D01*
X85769Y77488D01*
X85794Y77584D01*
X85822Y77679D01*
X85854Y77773D01*
X85889Y77866D01*
X85928Y77958D01*
X85971Y78048D01*
X86016Y78136D01*
X86066Y78223D01*
X86118Y78307D01*
X86174Y78390D01*
X86232Y78470D01*
X86294Y78548D01*
X86359Y78623D01*
X86427Y78696D01*
X86497Y78766D01*
X86570Y78834D01*
X86645Y78899D01*
X86723Y78961D01*
X86803Y79019D01*
X86886Y79075D01*
X86970Y79127D01*
X87057Y79177D01*
X87145Y79222D01*
X87235Y79265D01*
X87327Y79304D01*
X87420Y79339D01*
X87514Y79371D01*
X87609Y79399D01*
X87705Y79424D01*
X87803Y79445D01*
X87901Y79462D01*
X87999Y79475D01*
X88098Y79484D01*
X88198Y79490D01*
X88297Y79492D01*
X88946Y79492D01*
X89059Y79490D01*
X89172Y79484D01*
X89285Y79474D01*
X89398Y79460D01*
X89510Y79443D01*
X89621Y79421D01*
X89731Y79396D01*
X89841Y79366D01*
X89949Y79333D01*
X90056Y79296D01*
X90162Y79256D01*
X90266Y79211D01*
X90369Y79163D01*
X90470Y79112D01*
X90569Y79057D01*
X90666Y78999D01*
X90761Y78937D01*
X90854Y78872D01*
X90944Y78804D01*
X91032Y78733D01*
X91118Y78658D01*
X91201Y78581D01*
X91281Y78501D01*
X91358Y78418D01*
X91433Y78332D01*
X91504Y78244D01*
X91572Y78154D01*
X91637Y78061D01*
X91699Y77966D01*
X91757Y77869D01*
X91812Y77770D01*
X91863Y77669D01*
X91911Y77566D01*
X91956Y77462D01*
X91996Y77356D01*
X92033Y77249D01*
X92066Y77141D01*
X92096Y77031D01*
X92121Y76921D01*
X92143Y76810D01*
X92160Y76698D01*
X92174Y76585D01*
X92184Y76472D01*
X92190Y76359D01*
X92192Y76246D01*
X92190Y76133D01*
X92184Y76020D01*
X92174Y75907D01*
X92160Y75794D01*
X92143Y75682D01*
X92121Y75571D01*
X92096Y75461D01*
X92066Y75351D01*
X92033Y75243D01*
X91996Y75136D01*
X91956Y75030D01*
X91911Y74926D01*
X91863Y74823D01*
X91812Y74722D01*
X91757Y74623D01*
X91699Y74526D01*
X91637Y74431D01*
X91572Y74338D01*
X91504Y74248D01*
X91433Y74160D01*
X91358Y74074D01*
X91281Y73991D01*
X91201Y73911D01*
X91118Y73834D01*
X91032Y73759D01*
X90944Y73688D01*
X90854Y73620D01*
X90761Y73555D01*
X90666Y73493D01*
X90569Y73435D01*
X90470Y73380D01*
X90369Y73329D01*
X90266Y73281D01*
X90162Y73236D01*
X90056Y73196D01*
X89949Y73159D01*
X89841Y73126D01*
X89731Y73096D01*
X89621Y73071D01*
X89510Y73049D01*
X89398Y73032D01*
X89285Y73018D01*
X89172Y73008D01*
X89059Y73002D01*
X88946Y73000D01*
X88946Y73001D02*
X85701Y73001D01*
X85558Y73003D01*
X85415Y73009D01*
X85272Y73019D01*
X85130Y73033D01*
X84988Y73050D01*
X84846Y73072D01*
X84705Y73097D01*
X84565Y73127D01*
X84426Y73160D01*
X84288Y73197D01*
X84151Y73238D01*
X84015Y73282D01*
X83880Y73331D01*
X83747Y73383D01*
X83615Y73438D01*
X83485Y73498D01*
X83356Y73561D01*
X83229Y73627D01*
X83105Y73697D01*
X82982Y73770D01*
X82861Y73847D01*
X82742Y73926D01*
X82626Y74010D01*
X82511Y74096D01*
X82400Y74185D01*
X82291Y74278D01*
X82184Y74373D01*
X82080Y74472D01*
X81979Y74573D01*
X81880Y74677D01*
X81785Y74783D01*
X81692Y74893D01*
X81603Y75004D01*
X81517Y75118D01*
X81434Y75235D01*
X81354Y75354D01*
X81277Y75475D01*
X81204Y75597D01*
X81134Y75722D01*
X81068Y75849D01*
X81005Y75978D01*
X80945Y76108D01*
X80890Y76240D01*
X80838Y76373D01*
X80789Y76508D01*
X80745Y76644D01*
X80704Y76781D01*
X80667Y76919D01*
X80634Y77058D01*
X80604Y77198D01*
X80579Y77339D01*
X80557Y77481D01*
X80540Y77623D01*
X80526Y77765D01*
X80516Y77908D01*
X80510Y78051D01*
X80508Y78194D01*
X92192Y6896D02*
X92192Y3001D01*
X92192Y6896D02*
X92190Y6995D01*
X92184Y7095D01*
X92175Y7194D01*
X92162Y7292D01*
X92145Y7390D01*
X92124Y7488D01*
X92099Y7584D01*
X92071Y7679D01*
X92039Y7773D01*
X92004Y7866D01*
X91965Y7958D01*
X91922Y8048D01*
X91877Y8136D01*
X91827Y8223D01*
X91775Y8307D01*
X91719Y8390D01*
X91661Y8470D01*
X91599Y8548D01*
X91534Y8623D01*
X91466Y8696D01*
X91396Y8766D01*
X91323Y8834D01*
X91248Y8899D01*
X91170Y8961D01*
X91090Y9019D01*
X91007Y9075D01*
X90923Y9127D01*
X90836Y9177D01*
X90748Y9222D01*
X90658Y9265D01*
X90566Y9304D01*
X90473Y9339D01*
X90379Y9371D01*
X90284Y9399D01*
X90188Y9424D01*
X90090Y9445D01*
X89992Y9462D01*
X89894Y9475D01*
X89795Y9484D01*
X89695Y9490D01*
X89596Y9492D01*
X88297Y9492D01*
X88198Y9490D01*
X88098Y9484D01*
X87999Y9475D01*
X87901Y9462D01*
X87803Y9445D01*
X87705Y9424D01*
X87609Y9399D01*
X87514Y9371D01*
X87420Y9339D01*
X87327Y9304D01*
X87235Y9265D01*
X87145Y9222D01*
X87057Y9177D01*
X86970Y9127D01*
X86886Y9075D01*
X86803Y9019D01*
X86723Y8961D01*
X86645Y8899D01*
X86570Y8834D01*
X86497Y8766D01*
X86427Y8696D01*
X86359Y8623D01*
X86294Y8548D01*
X86232Y8470D01*
X86174Y8390D01*
X86118Y8307D01*
X86066Y8223D01*
X86016Y8136D01*
X85971Y8048D01*
X85928Y7958D01*
X85889Y7866D01*
X85854Y7773D01*
X85822Y7679D01*
X85794Y7584D01*
X85769Y7488D01*
X85748Y7390D01*
X85731Y7292D01*
X85718Y7194D01*
X85709Y7095D01*
X85703Y6995D01*
X85701Y6896D01*
X85701Y3001D01*
X80508Y3001D01*
X80508Y9492D01*
D12*
X15381Y85992D02*
X15381Y90168D01*
X15383Y90269D01*
X15389Y90370D01*
X15399Y90471D01*
X15412Y90571D01*
X15430Y90671D01*
X15451Y90770D01*
X15477Y90868D01*
X15506Y90965D01*
X15538Y91061D01*
X15575Y91155D01*
X15615Y91248D01*
X15659Y91340D01*
X15706Y91429D01*
X15757Y91517D01*
X15811Y91603D01*
X15868Y91686D01*
X15928Y91768D01*
X15992Y91846D01*
X16058Y91923D01*
X16128Y91996D01*
X16200Y92067D01*
X16275Y92135D01*
X16353Y92200D01*
X16433Y92262D01*
X16515Y92321D01*
X16600Y92377D01*
X16687Y92429D01*
X16775Y92478D01*
X16866Y92524D01*
X16958Y92565D01*
X17052Y92604D01*
X17147Y92638D01*
X17243Y92669D01*
X17341Y92696D01*
X17439Y92720D01*
X17539Y92739D01*
X17639Y92755D01*
X17739Y92767D01*
X17840Y92775D01*
X17941Y92779D01*
X18043Y92779D01*
X18144Y92775D01*
X18245Y92767D01*
X18345Y92755D01*
X18445Y92739D01*
X18545Y92720D01*
X18643Y92696D01*
X18741Y92669D01*
X18837Y92638D01*
X18932Y92604D01*
X19026Y92565D01*
X19118Y92524D01*
X19209Y92478D01*
X19298Y92429D01*
X19384Y92377D01*
X19469Y92321D01*
X19551Y92262D01*
X19631Y92200D01*
X19709Y92135D01*
X19784Y92067D01*
X19856Y91996D01*
X19926Y91923D01*
X19992Y91846D01*
X20056Y91768D01*
X20116Y91686D01*
X20173Y91603D01*
X20227Y91517D01*
X20278Y91429D01*
X20325Y91340D01*
X20369Y91248D01*
X20409Y91155D01*
X20446Y91061D01*
X20478Y90965D01*
X20507Y90868D01*
X20533Y90770D01*
X20554Y90671D01*
X20572Y90571D01*
X20585Y90471D01*
X20595Y90370D01*
X20601Y90269D01*
X20603Y90168D01*
X20602Y90168D02*
X20602Y85992D01*
X20603Y85992D02*
X20601Y85891D01*
X20595Y85790D01*
X20585Y85689D01*
X20572Y85589D01*
X20554Y85489D01*
X20533Y85390D01*
X20507Y85292D01*
X20478Y85195D01*
X20446Y85099D01*
X20409Y85005D01*
X20369Y84912D01*
X20325Y84820D01*
X20278Y84731D01*
X20227Y84643D01*
X20173Y84557D01*
X20116Y84474D01*
X20056Y84392D01*
X19992Y84314D01*
X19926Y84237D01*
X19856Y84164D01*
X19784Y84093D01*
X19709Y84025D01*
X19631Y83960D01*
X19551Y83898D01*
X19469Y83839D01*
X19384Y83783D01*
X19297Y83731D01*
X19209Y83682D01*
X19118Y83636D01*
X19026Y83595D01*
X18932Y83556D01*
X18837Y83522D01*
X18741Y83491D01*
X18643Y83464D01*
X18545Y83440D01*
X18445Y83421D01*
X18345Y83405D01*
X18245Y83393D01*
X18144Y83385D01*
X18043Y83381D01*
X17941Y83381D01*
X17840Y83385D01*
X17739Y83393D01*
X17639Y83405D01*
X17539Y83421D01*
X17439Y83440D01*
X17341Y83464D01*
X17243Y83491D01*
X17147Y83522D01*
X17052Y83556D01*
X16958Y83595D01*
X16866Y83636D01*
X16775Y83682D01*
X16686Y83731D01*
X16600Y83783D01*
X16515Y83839D01*
X16433Y83898D01*
X16353Y83960D01*
X16275Y84025D01*
X16200Y84093D01*
X16128Y84164D01*
X16058Y84237D01*
X15992Y84314D01*
X15928Y84392D01*
X15868Y84474D01*
X15811Y84557D01*
X15757Y84643D01*
X15706Y84731D01*
X15659Y84820D01*
X15615Y84912D01*
X15575Y85005D01*
X15538Y85099D01*
X15506Y85195D01*
X15477Y85292D01*
X15451Y85390D01*
X15430Y85489D01*
X15412Y85589D01*
X15399Y85689D01*
X15389Y85790D01*
X15383Y85891D01*
X15381Y85992D01*
X24961Y83381D02*
X24961Y92779D01*
X27572Y92779D01*
X27673Y92777D01*
X27774Y92771D01*
X27875Y92761D01*
X27975Y92748D01*
X28075Y92730D01*
X28174Y92709D01*
X28272Y92683D01*
X28369Y92654D01*
X28465Y92622D01*
X28559Y92585D01*
X28652Y92545D01*
X28744Y92501D01*
X28833Y92454D01*
X28921Y92403D01*
X29007Y92349D01*
X29090Y92292D01*
X29172Y92232D01*
X29250Y92168D01*
X29327Y92102D01*
X29400Y92032D01*
X29471Y91960D01*
X29539Y91885D01*
X29604Y91807D01*
X29666Y91727D01*
X29725Y91645D01*
X29781Y91560D01*
X29833Y91473D01*
X29882Y91385D01*
X29928Y91294D01*
X29969Y91202D01*
X30008Y91108D01*
X30042Y91013D01*
X30073Y90917D01*
X30100Y90819D01*
X30124Y90721D01*
X30143Y90621D01*
X30159Y90521D01*
X30171Y90421D01*
X30179Y90320D01*
X30183Y90219D01*
X30183Y90117D01*
X30179Y90016D01*
X30171Y89915D01*
X30159Y89815D01*
X30143Y89715D01*
X30124Y89615D01*
X30100Y89517D01*
X30073Y89419D01*
X30042Y89323D01*
X30008Y89228D01*
X29969Y89134D01*
X29928Y89042D01*
X29882Y88951D01*
X29833Y88862D01*
X29781Y88776D01*
X29725Y88691D01*
X29666Y88609D01*
X29604Y88529D01*
X29539Y88451D01*
X29471Y88376D01*
X29400Y88304D01*
X29327Y88234D01*
X29250Y88168D01*
X29172Y88104D01*
X29090Y88044D01*
X29007Y87987D01*
X28921Y87933D01*
X28833Y87882D01*
X28744Y87835D01*
X28652Y87791D01*
X28559Y87751D01*
X28465Y87714D01*
X28369Y87682D01*
X28272Y87653D01*
X28174Y87627D01*
X28075Y87606D01*
X27975Y87588D01*
X27875Y87575D01*
X27774Y87565D01*
X27673Y87559D01*
X27572Y87557D01*
X27572Y87558D02*
X24961Y87558D01*
X35670Y83381D02*
X35670Y92779D01*
X38280Y92779D02*
X33059Y92779D01*
X42375Y92779D02*
X42375Y83381D01*
X41331Y83381D02*
X43420Y83381D01*
X43420Y92779D02*
X41331Y92779D01*
X47080Y90168D02*
X47080Y85992D01*
X47080Y90168D02*
X47082Y90269D01*
X47088Y90370D01*
X47098Y90471D01*
X47111Y90571D01*
X47129Y90671D01*
X47150Y90770D01*
X47176Y90868D01*
X47205Y90965D01*
X47237Y91061D01*
X47274Y91155D01*
X47314Y91248D01*
X47358Y91340D01*
X47405Y91429D01*
X47456Y91517D01*
X47510Y91603D01*
X47567Y91686D01*
X47627Y91768D01*
X47691Y91846D01*
X47757Y91923D01*
X47827Y91996D01*
X47899Y92067D01*
X47974Y92135D01*
X48052Y92200D01*
X48132Y92262D01*
X48214Y92321D01*
X48299Y92377D01*
X48386Y92429D01*
X48474Y92478D01*
X48565Y92524D01*
X48657Y92565D01*
X48751Y92604D01*
X48846Y92638D01*
X48942Y92669D01*
X49040Y92696D01*
X49138Y92720D01*
X49238Y92739D01*
X49338Y92755D01*
X49438Y92767D01*
X49539Y92775D01*
X49640Y92779D01*
X49742Y92779D01*
X49843Y92775D01*
X49944Y92767D01*
X50044Y92755D01*
X50144Y92739D01*
X50244Y92720D01*
X50342Y92696D01*
X50440Y92669D01*
X50536Y92638D01*
X50631Y92604D01*
X50725Y92565D01*
X50817Y92524D01*
X50908Y92478D01*
X50997Y92429D01*
X51083Y92377D01*
X51168Y92321D01*
X51250Y92262D01*
X51330Y92200D01*
X51408Y92135D01*
X51483Y92067D01*
X51555Y91996D01*
X51625Y91923D01*
X51691Y91846D01*
X51755Y91768D01*
X51815Y91686D01*
X51872Y91603D01*
X51926Y91517D01*
X51977Y91429D01*
X52024Y91340D01*
X52068Y91248D01*
X52108Y91155D01*
X52145Y91061D01*
X52177Y90965D01*
X52206Y90868D01*
X52232Y90770D01*
X52253Y90671D01*
X52271Y90571D01*
X52284Y90471D01*
X52294Y90370D01*
X52300Y90269D01*
X52302Y90168D01*
X52301Y90168D02*
X52301Y85992D01*
X52302Y85992D02*
X52300Y85891D01*
X52294Y85790D01*
X52284Y85689D01*
X52271Y85589D01*
X52253Y85489D01*
X52232Y85390D01*
X52206Y85292D01*
X52177Y85195D01*
X52145Y85099D01*
X52108Y85005D01*
X52068Y84912D01*
X52024Y84820D01*
X51977Y84731D01*
X51926Y84643D01*
X51872Y84557D01*
X51815Y84474D01*
X51755Y84392D01*
X51691Y84314D01*
X51625Y84237D01*
X51555Y84164D01*
X51483Y84093D01*
X51408Y84025D01*
X51330Y83960D01*
X51250Y83898D01*
X51168Y83839D01*
X51083Y83783D01*
X50996Y83731D01*
X50908Y83682D01*
X50817Y83636D01*
X50725Y83595D01*
X50631Y83556D01*
X50536Y83522D01*
X50440Y83491D01*
X50342Y83464D01*
X50244Y83440D01*
X50144Y83421D01*
X50044Y83405D01*
X49944Y83393D01*
X49843Y83385D01*
X49742Y83381D01*
X49640Y83381D01*
X49539Y83385D01*
X49438Y83393D01*
X49338Y83405D01*
X49238Y83421D01*
X49138Y83440D01*
X49040Y83464D01*
X48942Y83491D01*
X48846Y83522D01*
X48751Y83556D01*
X48657Y83595D01*
X48565Y83636D01*
X48474Y83682D01*
X48385Y83731D01*
X48299Y83783D01*
X48214Y83839D01*
X48132Y83898D01*
X48052Y83960D01*
X47974Y84025D01*
X47899Y84093D01*
X47827Y84164D01*
X47757Y84237D01*
X47691Y84314D01*
X47627Y84392D01*
X47567Y84474D01*
X47510Y84557D01*
X47456Y84643D01*
X47405Y84731D01*
X47358Y84820D01*
X47314Y84912D01*
X47274Y85005D01*
X47237Y85099D01*
X47205Y85195D01*
X47176Y85292D01*
X47150Y85390D01*
X47129Y85489D01*
X47111Y85589D01*
X47098Y85689D01*
X47088Y85790D01*
X47082Y85891D01*
X47080Y85992D01*
X56529Y83381D02*
X56529Y92779D01*
X61750Y83381D01*
X61750Y92779D01*
X68588Y92779D02*
X65456Y83381D01*
X71721Y83381D02*
X68588Y92779D01*
X70938Y85731D02*
X66239Y85731D01*
X75444Y83381D02*
X75444Y92779D01*
X75444Y83381D02*
X79621Y83381D01*
X88705Y83381D02*
X88705Y92779D01*
X87661Y83381D02*
X89749Y83381D01*
X89749Y92779D02*
X87661Y92779D01*
X93409Y90168D02*
X93409Y85992D01*
X93409Y90168D02*
X93411Y90269D01*
X93417Y90370D01*
X93427Y90471D01*
X93440Y90571D01*
X93458Y90671D01*
X93479Y90770D01*
X93505Y90868D01*
X93534Y90965D01*
X93566Y91061D01*
X93603Y91155D01*
X93643Y91248D01*
X93687Y91340D01*
X93734Y91429D01*
X93785Y91517D01*
X93839Y91603D01*
X93896Y91686D01*
X93956Y91768D01*
X94020Y91846D01*
X94086Y91923D01*
X94156Y91996D01*
X94228Y92067D01*
X94303Y92135D01*
X94381Y92200D01*
X94461Y92262D01*
X94543Y92321D01*
X94628Y92377D01*
X94715Y92429D01*
X94803Y92478D01*
X94894Y92524D01*
X94986Y92565D01*
X95080Y92604D01*
X95175Y92638D01*
X95271Y92669D01*
X95369Y92696D01*
X95467Y92720D01*
X95567Y92739D01*
X95667Y92755D01*
X95767Y92767D01*
X95868Y92775D01*
X95969Y92779D01*
X96071Y92779D01*
X96172Y92775D01*
X96273Y92767D01*
X96373Y92755D01*
X96473Y92739D01*
X96573Y92720D01*
X96671Y92696D01*
X96769Y92669D01*
X96865Y92638D01*
X96960Y92604D01*
X97054Y92565D01*
X97146Y92524D01*
X97237Y92478D01*
X97326Y92429D01*
X97412Y92377D01*
X97497Y92321D01*
X97579Y92262D01*
X97659Y92200D01*
X97737Y92135D01*
X97812Y92067D01*
X97884Y91996D01*
X97954Y91923D01*
X98020Y91846D01*
X98084Y91768D01*
X98144Y91686D01*
X98201Y91603D01*
X98255Y91517D01*
X98306Y91429D01*
X98353Y91340D01*
X98397Y91248D01*
X98437Y91155D01*
X98474Y91061D01*
X98506Y90965D01*
X98535Y90868D01*
X98561Y90770D01*
X98582Y90671D01*
X98600Y90571D01*
X98613Y90471D01*
X98623Y90370D01*
X98629Y90269D01*
X98631Y90168D01*
X98631Y85992D01*
X98629Y85891D01*
X98623Y85790D01*
X98613Y85689D01*
X98600Y85589D01*
X98582Y85489D01*
X98561Y85390D01*
X98535Y85292D01*
X98506Y85195D01*
X98474Y85099D01*
X98437Y85005D01*
X98397Y84912D01*
X98353Y84820D01*
X98306Y84731D01*
X98255Y84643D01*
X98201Y84557D01*
X98144Y84474D01*
X98084Y84392D01*
X98020Y84314D01*
X97954Y84237D01*
X97884Y84164D01*
X97812Y84093D01*
X97737Y84025D01*
X97659Y83960D01*
X97579Y83898D01*
X97497Y83839D01*
X97412Y83783D01*
X97325Y83731D01*
X97237Y83682D01*
X97146Y83636D01*
X97054Y83595D01*
X96960Y83556D01*
X96865Y83522D01*
X96769Y83491D01*
X96671Y83464D01*
X96573Y83440D01*
X96473Y83421D01*
X96373Y83405D01*
X96273Y83393D01*
X96172Y83385D01*
X96071Y83381D01*
X95969Y83381D01*
X95868Y83385D01*
X95767Y83393D01*
X95667Y83405D01*
X95567Y83421D01*
X95467Y83440D01*
X95369Y83464D01*
X95271Y83491D01*
X95175Y83522D01*
X95080Y83556D01*
X94986Y83595D01*
X94894Y83636D01*
X94803Y83682D01*
X94715Y83731D01*
X94628Y83783D01*
X94543Y83839D01*
X94461Y83898D01*
X94381Y83960D01*
X94303Y84025D01*
X94228Y84093D01*
X94156Y84164D01*
X94086Y84237D01*
X94020Y84314D01*
X93956Y84392D01*
X93896Y84474D01*
X93839Y84557D01*
X93785Y84643D01*
X93734Y84731D01*
X93687Y84820D01*
X93643Y84912D01*
X93603Y85005D01*
X93566Y85099D01*
X93534Y85195D01*
X93505Y85292D01*
X93479Y85390D01*
X93458Y85489D01*
X93440Y85589D01*
X93427Y85689D01*
X93417Y85790D01*
X93411Y85891D01*
X93409Y85992D01*
D11*
X10701Y221058D02*
X10701Y224303D01*
X10700Y224303D02*
X10702Y224416D01*
X10708Y224529D01*
X10718Y224642D01*
X10732Y224755D01*
X10749Y224867D01*
X10771Y224978D01*
X10796Y225088D01*
X10826Y225198D01*
X10859Y225306D01*
X10896Y225413D01*
X10936Y225519D01*
X10981Y225623D01*
X11029Y225726D01*
X11080Y225827D01*
X11135Y225926D01*
X11193Y226023D01*
X11255Y226118D01*
X11320Y226211D01*
X11388Y226301D01*
X11459Y226389D01*
X11534Y226475D01*
X11611Y226558D01*
X11691Y226638D01*
X11774Y226715D01*
X11860Y226790D01*
X11948Y226861D01*
X12038Y226929D01*
X12131Y226994D01*
X12226Y227056D01*
X12323Y227114D01*
X12422Y227169D01*
X12523Y227220D01*
X12626Y227268D01*
X12730Y227313D01*
X12836Y227353D01*
X12943Y227390D01*
X13051Y227423D01*
X13161Y227453D01*
X13271Y227478D01*
X13382Y227500D01*
X13494Y227517D01*
X13607Y227531D01*
X13720Y227541D01*
X13833Y227547D01*
X13946Y227549D01*
X14059Y227547D01*
X14172Y227541D01*
X14285Y227531D01*
X14398Y227517D01*
X14510Y227500D01*
X14621Y227478D01*
X14731Y227453D01*
X14841Y227423D01*
X14949Y227390D01*
X15056Y227353D01*
X15162Y227313D01*
X15266Y227268D01*
X15369Y227220D01*
X15470Y227169D01*
X15569Y227114D01*
X15666Y227056D01*
X15761Y226994D01*
X15854Y226929D01*
X15944Y226861D01*
X16032Y226790D01*
X16118Y226715D01*
X16201Y226638D01*
X16281Y226558D01*
X16358Y226475D01*
X16433Y226389D01*
X16504Y226301D01*
X16572Y226211D01*
X16637Y226118D01*
X16699Y226023D01*
X16757Y225926D01*
X16812Y225827D01*
X16863Y225726D01*
X16911Y225623D01*
X16956Y225519D01*
X16996Y225413D01*
X17033Y225306D01*
X17066Y225198D01*
X17096Y225088D01*
X17121Y224978D01*
X17143Y224867D01*
X17160Y224755D01*
X17174Y224642D01*
X17184Y224529D01*
X17190Y224416D01*
X17192Y224303D01*
X17192Y221058D01*
X5508Y221058D01*
X5508Y224303D01*
X5510Y224404D01*
X5516Y224504D01*
X5526Y224604D01*
X5539Y224704D01*
X5557Y224803D01*
X5578Y224902D01*
X5603Y224999D01*
X5632Y225096D01*
X5665Y225191D01*
X5701Y225285D01*
X5741Y225377D01*
X5784Y225468D01*
X5831Y225557D01*
X5881Y225644D01*
X5935Y225730D01*
X5992Y225813D01*
X6052Y225893D01*
X6115Y225972D01*
X6182Y226048D01*
X6251Y226121D01*
X6323Y226191D01*
X6397Y226259D01*
X6474Y226324D01*
X6554Y226385D01*
X6636Y226444D01*
X6720Y226499D01*
X6806Y226551D01*
X6894Y226600D01*
X6984Y226645D01*
X7076Y226687D01*
X7169Y226725D01*
X7264Y226759D01*
X7359Y226790D01*
X7456Y226817D01*
X7554Y226840D01*
X7653Y226860D01*
X7753Y226875D01*
X7853Y226887D01*
X7953Y226895D01*
X8054Y226899D01*
X8154Y226899D01*
X8255Y226895D01*
X8355Y226887D01*
X8455Y226875D01*
X8555Y226860D01*
X8654Y226840D01*
X8752Y226817D01*
X8849Y226790D01*
X8944Y226759D01*
X9039Y226725D01*
X9132Y226687D01*
X9224Y226645D01*
X9314Y226600D01*
X9402Y226551D01*
X9488Y226499D01*
X9572Y226444D01*
X9654Y226385D01*
X9734Y226324D01*
X9811Y226259D01*
X9885Y226191D01*
X9957Y226121D01*
X10026Y226048D01*
X10093Y225972D01*
X10156Y225893D01*
X10216Y225813D01*
X10273Y225730D01*
X10327Y225644D01*
X10377Y225557D01*
X10424Y225468D01*
X10467Y225377D01*
X10507Y225285D01*
X10543Y225191D01*
X10576Y225096D01*
X10605Y224999D01*
X10630Y224902D01*
X10651Y224803D01*
X10669Y224704D01*
X10682Y224604D01*
X10692Y224504D01*
X10698Y224404D01*
X10700Y224303D01*
X5508Y232341D02*
X17192Y232341D01*
X17192Y237534D01*
X17192Y242247D02*
X17192Y247440D01*
X17192Y242247D02*
X5508Y242247D01*
X5508Y247440D01*
X10701Y246142D02*
X10701Y242247D01*
X12648Y251862D02*
X12648Y259652D01*
X17192Y268217D02*
X17190Y268316D01*
X17184Y268416D01*
X17175Y268515D01*
X17162Y268613D01*
X17145Y268711D01*
X17124Y268809D01*
X17099Y268905D01*
X17071Y269000D01*
X17039Y269094D01*
X17004Y269187D01*
X16965Y269279D01*
X16922Y269369D01*
X16877Y269457D01*
X16827Y269544D01*
X16775Y269628D01*
X16719Y269711D01*
X16661Y269791D01*
X16599Y269869D01*
X16534Y269944D01*
X16466Y270017D01*
X16396Y270087D01*
X16323Y270155D01*
X16248Y270220D01*
X16170Y270282D01*
X16090Y270340D01*
X16007Y270396D01*
X15923Y270448D01*
X15836Y270498D01*
X15748Y270543D01*
X15658Y270586D01*
X15566Y270625D01*
X15473Y270660D01*
X15379Y270692D01*
X15284Y270720D01*
X15188Y270745D01*
X15090Y270766D01*
X14992Y270783D01*
X14894Y270796D01*
X14795Y270805D01*
X14695Y270811D01*
X14596Y270813D01*
X17192Y268217D02*
X17190Y268073D01*
X17184Y267928D01*
X17175Y267784D01*
X17162Y267641D01*
X17145Y267497D01*
X17124Y267354D01*
X17099Y267212D01*
X17071Y267071D01*
X17039Y266930D01*
X17003Y266790D01*
X16964Y266651D01*
X16921Y266513D01*
X16874Y266377D01*
X16824Y266241D01*
X16770Y266107D01*
X16713Y265975D01*
X16652Y265844D01*
X16588Y265715D01*
X16520Y265587D01*
X16450Y265461D01*
X16375Y265337D01*
X16298Y265216D01*
X16217Y265096D01*
X16134Y264978D01*
X16047Y264863D01*
X15957Y264750D01*
X15864Y264639D01*
X15769Y264531D01*
X15670Y264425D01*
X15569Y264322D01*
X8104Y264647D02*
X8005Y264649D01*
X7905Y264655D01*
X7806Y264664D01*
X7708Y264677D01*
X7610Y264694D01*
X7512Y264715D01*
X7416Y264740D01*
X7321Y264768D01*
X7227Y264800D01*
X7134Y264835D01*
X7042Y264874D01*
X6952Y264917D01*
X6864Y264962D01*
X6777Y265012D01*
X6693Y265064D01*
X6610Y265120D01*
X6530Y265178D01*
X6452Y265240D01*
X6377Y265305D01*
X6304Y265373D01*
X6234Y265443D01*
X6166Y265516D01*
X6101Y265591D01*
X6039Y265669D01*
X5981Y265749D01*
X5925Y265832D01*
X5873Y265916D01*
X5823Y266003D01*
X5778Y266091D01*
X5735Y266181D01*
X5696Y266273D01*
X5661Y266366D01*
X5629Y266460D01*
X5601Y266555D01*
X5576Y266651D01*
X5555Y266749D01*
X5538Y266847D01*
X5525Y266945D01*
X5516Y267044D01*
X5510Y267144D01*
X5508Y267243D01*
X5510Y267379D01*
X5516Y267515D01*
X5525Y267651D01*
X5538Y267787D01*
X5556Y267922D01*
X5576Y268056D01*
X5601Y268190D01*
X5629Y268324D01*
X5662Y268456D01*
X5697Y268587D01*
X5737Y268718D01*
X5780Y268847D01*
X5826Y268975D01*
X5877Y269101D01*
X5930Y269227D01*
X5988Y269350D01*
X6048Y269472D01*
X6112Y269592D01*
X6180Y269711D01*
X6250Y269827D01*
X6324Y269941D01*
X6401Y270054D01*
X6482Y270164D01*
X10376Y265945D02*
X10323Y265859D01*
X10266Y265775D01*
X10207Y265693D01*
X10144Y265613D01*
X10078Y265536D01*
X10010Y265461D01*
X9938Y265389D01*
X9864Y265320D01*
X9787Y265254D01*
X9708Y265191D01*
X9626Y265131D01*
X9542Y265074D01*
X9456Y265020D01*
X9368Y264970D01*
X9278Y264923D01*
X9187Y264879D01*
X9093Y264840D01*
X8999Y264803D01*
X8903Y264771D01*
X8805Y264742D01*
X8707Y264717D01*
X8608Y264696D01*
X8508Y264678D01*
X8408Y264665D01*
X8307Y264655D01*
X8205Y264649D01*
X8104Y264647D01*
X12324Y269516D02*
X12377Y269602D01*
X12434Y269686D01*
X12493Y269768D01*
X12556Y269848D01*
X12622Y269925D01*
X12690Y270000D01*
X12762Y270072D01*
X12836Y270141D01*
X12913Y270207D01*
X12992Y270270D01*
X13074Y270330D01*
X13158Y270387D01*
X13244Y270441D01*
X13332Y270491D01*
X13422Y270538D01*
X13513Y270582D01*
X13607Y270621D01*
X13701Y270658D01*
X13797Y270690D01*
X13895Y270719D01*
X13993Y270744D01*
X14092Y270765D01*
X14192Y270783D01*
X14292Y270796D01*
X14393Y270806D01*
X14495Y270812D01*
X14596Y270814D01*
X12324Y269515D02*
X10376Y265945D01*
X17192Y275775D02*
X17192Y280968D01*
X17192Y275775D02*
X5508Y275775D01*
X5508Y280968D01*
X10701Y279670D02*
X10701Y275775D01*
X5508Y285658D02*
X17192Y285658D01*
X17192Y292150D02*
X5508Y285658D01*
X5508Y292150D02*
X17192Y292150D01*
X17192Y300983D02*
X17190Y301082D01*
X17184Y301182D01*
X17175Y301281D01*
X17162Y301379D01*
X17145Y301477D01*
X17124Y301575D01*
X17099Y301671D01*
X17071Y301766D01*
X17039Y301860D01*
X17004Y301953D01*
X16965Y302045D01*
X16922Y302135D01*
X16877Y302223D01*
X16827Y302310D01*
X16775Y302394D01*
X16719Y302477D01*
X16661Y302557D01*
X16599Y302635D01*
X16534Y302710D01*
X16466Y302783D01*
X16396Y302853D01*
X16323Y302921D01*
X16248Y302986D01*
X16170Y303048D01*
X16090Y303106D01*
X16007Y303162D01*
X15923Y303214D01*
X15836Y303264D01*
X15748Y303309D01*
X15658Y303352D01*
X15566Y303391D01*
X15473Y303426D01*
X15379Y303458D01*
X15284Y303486D01*
X15188Y303511D01*
X15090Y303532D01*
X14992Y303549D01*
X14894Y303562D01*
X14795Y303571D01*
X14695Y303577D01*
X14596Y303579D01*
X17192Y300983D02*
X17190Y300839D01*
X17184Y300694D01*
X17175Y300550D01*
X17162Y300407D01*
X17145Y300263D01*
X17124Y300120D01*
X17099Y299978D01*
X17071Y299837D01*
X17039Y299696D01*
X17003Y299556D01*
X16964Y299417D01*
X16921Y299279D01*
X16874Y299143D01*
X16824Y299007D01*
X16770Y298873D01*
X16713Y298741D01*
X16652Y298610D01*
X16588Y298481D01*
X16520Y298353D01*
X16450Y298227D01*
X16375Y298103D01*
X16298Y297982D01*
X16217Y297862D01*
X16134Y297744D01*
X16047Y297629D01*
X15957Y297516D01*
X15864Y297405D01*
X15769Y297297D01*
X15670Y297191D01*
X15569Y297088D01*
X8104Y297413D02*
X8005Y297415D01*
X7905Y297421D01*
X7806Y297430D01*
X7708Y297443D01*
X7610Y297460D01*
X7512Y297481D01*
X7416Y297506D01*
X7321Y297534D01*
X7227Y297566D01*
X7134Y297601D01*
X7042Y297640D01*
X6952Y297683D01*
X6864Y297728D01*
X6777Y297778D01*
X6693Y297830D01*
X6610Y297886D01*
X6530Y297944D01*
X6452Y298006D01*
X6377Y298071D01*
X6304Y298139D01*
X6234Y298209D01*
X6166Y298282D01*
X6101Y298357D01*
X6039Y298435D01*
X5981Y298515D01*
X5925Y298598D01*
X5873Y298682D01*
X5823Y298769D01*
X5778Y298857D01*
X5735Y298947D01*
X5696Y299039D01*
X5661Y299132D01*
X5629Y299226D01*
X5601Y299321D01*
X5576Y299417D01*
X5555Y299515D01*
X5538Y299613D01*
X5525Y299711D01*
X5516Y299810D01*
X5510Y299910D01*
X5508Y300009D01*
X5510Y300145D01*
X5516Y300281D01*
X5525Y300417D01*
X5538Y300553D01*
X5556Y300688D01*
X5576Y300822D01*
X5601Y300956D01*
X5629Y301090D01*
X5662Y301222D01*
X5697Y301353D01*
X5737Y301484D01*
X5780Y301613D01*
X5826Y301741D01*
X5877Y301867D01*
X5930Y301993D01*
X5988Y302116D01*
X6048Y302238D01*
X6112Y302358D01*
X6180Y302477D01*
X6250Y302593D01*
X6324Y302707D01*
X6401Y302820D01*
X6482Y302930D01*
X10376Y298711D02*
X10323Y298625D01*
X10266Y298541D01*
X10207Y298459D01*
X10144Y298379D01*
X10078Y298302D01*
X10010Y298227D01*
X9938Y298155D01*
X9864Y298086D01*
X9787Y298020D01*
X9708Y297957D01*
X9626Y297897D01*
X9542Y297840D01*
X9456Y297786D01*
X9368Y297736D01*
X9278Y297689D01*
X9187Y297645D01*
X9093Y297606D01*
X8999Y297569D01*
X8903Y297537D01*
X8805Y297508D01*
X8707Y297483D01*
X8608Y297462D01*
X8508Y297444D01*
X8408Y297431D01*
X8307Y297421D01*
X8205Y297415D01*
X8104Y297413D01*
X12324Y302282D02*
X12377Y302368D01*
X12434Y302452D01*
X12493Y302534D01*
X12556Y302614D01*
X12622Y302691D01*
X12690Y302766D01*
X12762Y302838D01*
X12836Y302907D01*
X12913Y302973D01*
X12992Y303036D01*
X13074Y303096D01*
X13158Y303153D01*
X13244Y303207D01*
X13332Y303257D01*
X13422Y303304D01*
X13513Y303348D01*
X13607Y303387D01*
X13701Y303424D01*
X13797Y303456D01*
X13895Y303485D01*
X13993Y303510D01*
X14092Y303531D01*
X14192Y303549D01*
X14292Y303562D01*
X14393Y303572D01*
X14495Y303578D01*
X14596Y303580D01*
X12324Y302281D02*
X10376Y298711D01*
X8754Y308137D02*
X13946Y308137D01*
X8754Y308137D02*
X8641Y308139D01*
X8528Y308145D01*
X8415Y308155D01*
X8302Y308169D01*
X8190Y308186D01*
X8079Y308208D01*
X7969Y308233D01*
X7859Y308263D01*
X7751Y308296D01*
X7644Y308333D01*
X7538Y308373D01*
X7434Y308418D01*
X7331Y308466D01*
X7230Y308517D01*
X7131Y308572D01*
X7034Y308630D01*
X6939Y308692D01*
X6846Y308757D01*
X6756Y308825D01*
X6668Y308896D01*
X6582Y308971D01*
X6499Y309048D01*
X6419Y309128D01*
X6342Y309211D01*
X6267Y309297D01*
X6196Y309385D01*
X6128Y309475D01*
X6063Y309568D01*
X6001Y309663D01*
X5943Y309760D01*
X5888Y309859D01*
X5837Y309960D01*
X5789Y310063D01*
X5744Y310167D01*
X5704Y310273D01*
X5667Y310380D01*
X5634Y310488D01*
X5604Y310598D01*
X5579Y310708D01*
X5557Y310819D01*
X5540Y310931D01*
X5526Y311044D01*
X5516Y311157D01*
X5510Y311270D01*
X5508Y311383D01*
X5510Y311496D01*
X5516Y311609D01*
X5526Y311722D01*
X5540Y311835D01*
X5557Y311947D01*
X5579Y312058D01*
X5604Y312168D01*
X5634Y312278D01*
X5667Y312386D01*
X5704Y312493D01*
X5744Y312599D01*
X5789Y312703D01*
X5837Y312806D01*
X5888Y312907D01*
X5943Y313006D01*
X6001Y313103D01*
X6063Y313198D01*
X6128Y313291D01*
X6196Y313381D01*
X6267Y313469D01*
X6342Y313555D01*
X6419Y313638D01*
X6499Y313718D01*
X6582Y313795D01*
X6668Y313870D01*
X6756Y313941D01*
X6846Y314009D01*
X6939Y314074D01*
X7034Y314136D01*
X7131Y314194D01*
X7230Y314249D01*
X7331Y314300D01*
X7434Y314348D01*
X7538Y314393D01*
X7644Y314433D01*
X7751Y314470D01*
X7859Y314503D01*
X7969Y314533D01*
X8079Y314558D01*
X8190Y314580D01*
X8302Y314597D01*
X8415Y314611D01*
X8528Y314621D01*
X8641Y314627D01*
X8754Y314629D01*
X8754Y314628D02*
X13946Y314628D01*
X13946Y314629D02*
X14059Y314627D01*
X14172Y314621D01*
X14285Y314611D01*
X14398Y314597D01*
X14510Y314580D01*
X14621Y314558D01*
X14731Y314533D01*
X14841Y314503D01*
X14949Y314470D01*
X15056Y314433D01*
X15162Y314393D01*
X15266Y314348D01*
X15369Y314300D01*
X15470Y314249D01*
X15569Y314194D01*
X15666Y314136D01*
X15761Y314074D01*
X15854Y314009D01*
X15944Y313941D01*
X16032Y313870D01*
X16118Y313795D01*
X16201Y313718D01*
X16281Y313638D01*
X16358Y313555D01*
X16433Y313469D01*
X16504Y313381D01*
X16572Y313291D01*
X16637Y313198D01*
X16699Y313103D01*
X16757Y313006D01*
X16812Y312907D01*
X16863Y312806D01*
X16911Y312703D01*
X16956Y312599D01*
X16996Y312493D01*
X17033Y312386D01*
X17066Y312278D01*
X17096Y312168D01*
X17121Y312058D01*
X17143Y311947D01*
X17160Y311835D01*
X17174Y311722D01*
X17184Y311609D01*
X17190Y311496D01*
X17192Y311383D01*
X17190Y311270D01*
X17184Y311157D01*
X17174Y311044D01*
X17160Y310931D01*
X17143Y310819D01*
X17121Y310708D01*
X17096Y310598D01*
X17066Y310488D01*
X17033Y310380D01*
X16996Y310273D01*
X16956Y310167D01*
X16911Y310063D01*
X16863Y309960D01*
X16812Y309859D01*
X16757Y309760D01*
X16699Y309663D01*
X16637Y309568D01*
X16572Y309475D01*
X16504Y309385D01*
X16433Y309297D01*
X16358Y309211D01*
X16281Y309128D01*
X16201Y309048D01*
X16118Y308971D01*
X16032Y308896D01*
X15944Y308825D01*
X15854Y308757D01*
X15761Y308692D01*
X15666Y308630D01*
X15569Y308572D01*
X15470Y308517D01*
X15369Y308466D01*
X15266Y308418D01*
X15162Y308373D01*
X15056Y308333D01*
X14949Y308296D01*
X14841Y308263D01*
X14731Y308233D01*
X14621Y308208D01*
X14510Y308186D01*
X14398Y308169D01*
X14285Y308155D01*
X14172Y308145D01*
X14059Y308139D01*
X13946Y308137D01*
X17192Y320022D02*
X5508Y320022D01*
X5508Y323268D01*
X5510Y323381D01*
X5516Y323494D01*
X5526Y323607D01*
X5540Y323720D01*
X5557Y323832D01*
X5579Y323943D01*
X5604Y324053D01*
X5634Y324163D01*
X5667Y324271D01*
X5704Y324378D01*
X5744Y324484D01*
X5789Y324588D01*
X5837Y324691D01*
X5888Y324792D01*
X5943Y324891D01*
X6001Y324988D01*
X6063Y325083D01*
X6128Y325176D01*
X6196Y325266D01*
X6267Y325354D01*
X6342Y325440D01*
X6419Y325523D01*
X6499Y325603D01*
X6582Y325680D01*
X6668Y325755D01*
X6756Y325826D01*
X6846Y325894D01*
X6939Y325959D01*
X7034Y326021D01*
X7131Y326079D01*
X7230Y326134D01*
X7331Y326185D01*
X7434Y326233D01*
X7538Y326278D01*
X7644Y326318D01*
X7751Y326355D01*
X7859Y326388D01*
X7969Y326418D01*
X8079Y326443D01*
X8190Y326465D01*
X8302Y326482D01*
X8415Y326496D01*
X8528Y326506D01*
X8641Y326512D01*
X8754Y326514D01*
X8867Y326512D01*
X8980Y326506D01*
X9093Y326496D01*
X9206Y326482D01*
X9318Y326465D01*
X9429Y326443D01*
X9539Y326418D01*
X9649Y326388D01*
X9757Y326355D01*
X9864Y326318D01*
X9970Y326278D01*
X10074Y326233D01*
X10177Y326185D01*
X10278Y326134D01*
X10377Y326079D01*
X10474Y326021D01*
X10569Y325959D01*
X10662Y325894D01*
X10752Y325826D01*
X10840Y325755D01*
X10926Y325680D01*
X11009Y325603D01*
X11089Y325523D01*
X11166Y325440D01*
X11241Y325354D01*
X11312Y325266D01*
X11380Y325176D01*
X11445Y325083D01*
X11507Y324988D01*
X11565Y324891D01*
X11620Y324792D01*
X11671Y324691D01*
X11719Y324588D01*
X11764Y324484D01*
X11804Y324378D01*
X11841Y324271D01*
X11874Y324163D01*
X11904Y324053D01*
X11929Y323943D01*
X11951Y323832D01*
X11968Y323720D01*
X11982Y323607D01*
X11992Y323494D01*
X11998Y323381D01*
X12000Y323268D01*
X11999Y323268D02*
X11999Y320022D01*
X11999Y323917D02*
X17192Y326513D01*
X12648Y331491D02*
X12648Y339281D01*
X17192Y346896D02*
X17192Y349492D01*
X17192Y346896D02*
X17190Y346797D01*
X17184Y346697D01*
X17175Y346598D01*
X17162Y346500D01*
X17145Y346402D01*
X17124Y346304D01*
X17099Y346208D01*
X17071Y346113D01*
X17039Y346019D01*
X17004Y345926D01*
X16965Y345834D01*
X16922Y345744D01*
X16877Y345656D01*
X16827Y345569D01*
X16775Y345485D01*
X16719Y345402D01*
X16661Y345322D01*
X16599Y345244D01*
X16534Y345169D01*
X16466Y345096D01*
X16396Y345026D01*
X16323Y344958D01*
X16248Y344893D01*
X16170Y344831D01*
X16090Y344773D01*
X16007Y344717D01*
X15923Y344665D01*
X15836Y344615D01*
X15748Y344570D01*
X15658Y344527D01*
X15566Y344488D01*
X15473Y344453D01*
X15379Y344421D01*
X15284Y344393D01*
X15188Y344368D01*
X15090Y344347D01*
X14992Y344330D01*
X14894Y344317D01*
X14795Y344308D01*
X14695Y344302D01*
X14596Y344300D01*
X14596Y344299D02*
X8104Y344299D01*
X8005Y344301D01*
X7905Y344307D01*
X7806Y344316D01*
X7708Y344329D01*
X7610Y344347D01*
X7512Y344367D01*
X7416Y344392D01*
X7320Y344420D01*
X7226Y344452D01*
X7133Y344487D01*
X7042Y344526D01*
X6952Y344569D01*
X6863Y344614D01*
X6777Y344664D01*
X6692Y344716D01*
X6610Y344772D01*
X6530Y344831D01*
X6452Y344892D01*
X6376Y344957D01*
X6303Y345025D01*
X6233Y345095D01*
X6165Y345168D01*
X6100Y345244D01*
X6039Y345322D01*
X5980Y345402D01*
X5924Y345484D01*
X5872Y345569D01*
X5823Y345655D01*
X5777Y345744D01*
X5734Y345834D01*
X5695Y345925D01*
X5660Y346018D01*
X5628Y346112D01*
X5600Y346208D01*
X5575Y346304D01*
X5555Y346402D01*
X5537Y346500D01*
X5524Y346598D01*
X5515Y346697D01*
X5509Y346796D01*
X5507Y346896D01*
X5508Y346896D02*
X5508Y349492D01*
X28453Y305931D02*
X36242Y308528D01*
X28453Y311124D01*
X27154Y315569D02*
X24558Y318815D01*
X36242Y318815D01*
X36242Y322060D02*
X36242Y315569D01*
X36242Y326491D02*
X35593Y326491D01*
X35593Y327140D01*
X36242Y327140D01*
X36242Y326491D01*
X30400Y331571D02*
X30170Y331574D01*
X29940Y331582D01*
X29711Y331596D01*
X29482Y331615D01*
X29253Y331640D01*
X29025Y331670D01*
X28798Y331705D01*
X28572Y331746D01*
X28347Y331792D01*
X28123Y331844D01*
X27900Y331901D01*
X27679Y331963D01*
X27459Y332031D01*
X27241Y332104D01*
X27025Y332182D01*
X26811Y332265D01*
X26599Y332353D01*
X26388Y332446D01*
X26181Y332545D01*
X26181Y332544D02*
X26091Y332577D01*
X26002Y332613D01*
X25914Y332653D01*
X25829Y332697D01*
X25745Y332744D01*
X25663Y332794D01*
X25583Y332848D01*
X25506Y332904D01*
X25430Y332964D01*
X25357Y333027D01*
X25287Y333092D01*
X25219Y333161D01*
X25155Y333232D01*
X25093Y333305D01*
X25034Y333381D01*
X24978Y333459D01*
X24925Y333540D01*
X24876Y333622D01*
X24830Y333706D01*
X24787Y333793D01*
X24748Y333880D01*
X24712Y333970D01*
X24680Y334060D01*
X24652Y334152D01*
X24627Y334245D01*
X24606Y334339D01*
X24589Y334433D01*
X24575Y334528D01*
X24566Y334624D01*
X24560Y334720D01*
X24558Y334816D01*
X24560Y334912D01*
X24566Y335008D01*
X24575Y335104D01*
X24589Y335199D01*
X24606Y335293D01*
X24627Y335387D01*
X24652Y335480D01*
X24680Y335572D01*
X24712Y335662D01*
X24748Y335752D01*
X24787Y335840D01*
X24830Y335926D01*
X24876Y336010D01*
X24925Y336092D01*
X24978Y336173D01*
X25034Y336251D01*
X25093Y336327D01*
X25155Y336400D01*
X25219Y336471D01*
X25287Y336540D01*
X25357Y336605D01*
X25430Y336668D01*
X25506Y336728D01*
X25583Y336784D01*
X25663Y336838D01*
X25745Y336888D01*
X25829Y336935D01*
X25914Y336979D01*
X26002Y337019D01*
X26091Y337055D01*
X26181Y337088D01*
X26388Y337187D01*
X26599Y337280D01*
X26811Y337368D01*
X27025Y337451D01*
X27241Y337529D01*
X27459Y337602D01*
X27679Y337670D01*
X27900Y337732D01*
X28123Y337789D01*
X28347Y337841D01*
X28572Y337887D01*
X28798Y337928D01*
X29025Y337963D01*
X29253Y337993D01*
X29482Y338018D01*
X29711Y338037D01*
X29940Y338051D01*
X30170Y338059D01*
X30400Y338062D01*
X30400Y331571D02*
X30630Y331574D01*
X30860Y331582D01*
X31089Y331596D01*
X31318Y331615D01*
X31547Y331640D01*
X31775Y331670D01*
X32002Y331705D01*
X32228Y331746D01*
X32453Y331792D01*
X32677Y331844D01*
X32900Y331901D01*
X33121Y331963D01*
X33341Y332031D01*
X33559Y332104D01*
X33775Y332182D01*
X33989Y332265D01*
X34201Y332353D01*
X34412Y332446D01*
X34619Y332545D01*
X34619Y332544D02*
X34709Y332577D01*
X34798Y332613D01*
X34886Y332654D01*
X34971Y332697D01*
X35055Y332744D01*
X35137Y332794D01*
X35217Y332848D01*
X35294Y332904D01*
X35370Y332964D01*
X35443Y333027D01*
X35513Y333092D01*
X35581Y333161D01*
X35645Y333232D01*
X35707Y333305D01*
X35766Y333381D01*
X35822Y333459D01*
X35875Y333540D01*
X35924Y333622D01*
X35970Y333706D01*
X36013Y333793D01*
X36052Y333880D01*
X36088Y333970D01*
X36120Y334060D01*
X36148Y334152D01*
X36173Y334245D01*
X36194Y334339D01*
X36211Y334433D01*
X36225Y334528D01*
X36234Y334624D01*
X36240Y334720D01*
X36242Y334816D01*
X34619Y337088D02*
X34412Y337187D01*
X34201Y337280D01*
X33989Y337368D01*
X33775Y337451D01*
X33559Y337529D01*
X33341Y337602D01*
X33121Y337670D01*
X32900Y337732D01*
X32677Y337789D01*
X32453Y337841D01*
X32228Y337887D01*
X32002Y337928D01*
X31775Y337963D01*
X31547Y337993D01*
X31318Y338018D01*
X31089Y338037D01*
X30860Y338051D01*
X30630Y338059D01*
X30400Y338062D01*
X34619Y337088D02*
X34709Y337055D01*
X34798Y337019D01*
X34886Y336979D01*
X34971Y336935D01*
X35055Y336888D01*
X35137Y336838D01*
X35217Y336784D01*
X35294Y336728D01*
X35370Y336668D01*
X35443Y336605D01*
X35513Y336540D01*
X35581Y336471D01*
X35645Y336400D01*
X35707Y336327D01*
X35766Y336251D01*
X35822Y336173D01*
X35875Y336092D01*
X35924Y336010D01*
X35970Y335926D01*
X36013Y335839D01*
X36052Y335752D01*
X36088Y335662D01*
X36120Y335572D01*
X36148Y335480D01*
X36173Y335387D01*
X36194Y335293D01*
X36211Y335199D01*
X36225Y335104D01*
X36234Y335008D01*
X36240Y334912D01*
X36242Y334816D01*
X33646Y332220D02*
X27154Y337413D01*
X30400Y343001D02*
X30170Y343004D01*
X29940Y343012D01*
X29711Y343026D01*
X29482Y343045D01*
X29253Y343070D01*
X29025Y343100D01*
X28798Y343135D01*
X28572Y343176D01*
X28347Y343222D01*
X28123Y343274D01*
X27900Y343331D01*
X27679Y343393D01*
X27459Y343461D01*
X27241Y343534D01*
X27025Y343612D01*
X26811Y343695D01*
X26599Y343783D01*
X26388Y343876D01*
X26181Y343975D01*
X26181Y343974D02*
X26091Y344007D01*
X26002Y344043D01*
X25914Y344083D01*
X25829Y344127D01*
X25745Y344174D01*
X25663Y344224D01*
X25583Y344278D01*
X25506Y344334D01*
X25430Y344394D01*
X25357Y344457D01*
X25287Y344522D01*
X25219Y344591D01*
X25155Y344662D01*
X25093Y344735D01*
X25034Y344811D01*
X24978Y344889D01*
X24925Y344970D01*
X24876Y345052D01*
X24830Y345136D01*
X24787Y345223D01*
X24748Y345310D01*
X24712Y345400D01*
X24680Y345490D01*
X24652Y345582D01*
X24627Y345675D01*
X24606Y345769D01*
X24589Y345863D01*
X24575Y345958D01*
X24566Y346054D01*
X24560Y346150D01*
X24558Y346246D01*
X24560Y346342D01*
X24566Y346438D01*
X24575Y346534D01*
X24589Y346629D01*
X24606Y346723D01*
X24627Y346817D01*
X24652Y346910D01*
X24680Y347002D01*
X24712Y347092D01*
X24748Y347182D01*
X24787Y347270D01*
X24830Y347356D01*
X24876Y347440D01*
X24925Y347522D01*
X24978Y347603D01*
X25034Y347681D01*
X25093Y347757D01*
X25155Y347830D01*
X25219Y347901D01*
X25287Y347970D01*
X25357Y348035D01*
X25430Y348098D01*
X25506Y348158D01*
X25583Y348214D01*
X25663Y348268D01*
X25745Y348318D01*
X25829Y348365D01*
X25914Y348409D01*
X26002Y348449D01*
X26091Y348485D01*
X26181Y348518D01*
X26388Y348617D01*
X26599Y348710D01*
X26811Y348798D01*
X27025Y348881D01*
X27241Y348959D01*
X27459Y349032D01*
X27679Y349100D01*
X27900Y349162D01*
X28123Y349219D01*
X28347Y349271D01*
X28572Y349317D01*
X28798Y349358D01*
X29025Y349393D01*
X29253Y349423D01*
X29482Y349448D01*
X29711Y349467D01*
X29940Y349481D01*
X30170Y349489D01*
X30400Y349492D01*
X30400Y343001D02*
X30630Y343004D01*
X30860Y343012D01*
X31089Y343026D01*
X31318Y343045D01*
X31547Y343070D01*
X31775Y343100D01*
X32002Y343135D01*
X32228Y343176D01*
X32453Y343222D01*
X32677Y343274D01*
X32900Y343331D01*
X33121Y343393D01*
X33341Y343461D01*
X33559Y343534D01*
X33775Y343612D01*
X33989Y343695D01*
X34201Y343783D01*
X34412Y343876D01*
X34619Y343975D01*
X34619Y343974D02*
X34709Y344007D01*
X34798Y344043D01*
X34886Y344084D01*
X34971Y344127D01*
X35055Y344174D01*
X35137Y344224D01*
X35217Y344278D01*
X35294Y344334D01*
X35370Y344394D01*
X35443Y344457D01*
X35513Y344522D01*
X35581Y344591D01*
X35645Y344662D01*
X35707Y344735D01*
X35766Y344811D01*
X35822Y344889D01*
X35875Y344970D01*
X35924Y345052D01*
X35970Y345136D01*
X36013Y345223D01*
X36052Y345310D01*
X36088Y345400D01*
X36120Y345490D01*
X36148Y345582D01*
X36173Y345675D01*
X36194Y345769D01*
X36211Y345863D01*
X36225Y345958D01*
X36234Y346054D01*
X36240Y346150D01*
X36242Y346246D01*
X34619Y348518D02*
X34412Y348617D01*
X34201Y348710D01*
X33989Y348798D01*
X33775Y348881D01*
X33559Y348959D01*
X33341Y349032D01*
X33121Y349100D01*
X32900Y349162D01*
X32677Y349219D01*
X32453Y349271D01*
X32228Y349317D01*
X32002Y349358D01*
X31775Y349393D01*
X31547Y349423D01*
X31318Y349448D01*
X31089Y349467D01*
X30860Y349481D01*
X30630Y349489D01*
X30400Y349492D01*
X34619Y348518D02*
X34709Y348485D01*
X34798Y348449D01*
X34886Y348409D01*
X34971Y348365D01*
X35055Y348318D01*
X35137Y348268D01*
X35217Y348214D01*
X35294Y348158D01*
X35370Y348098D01*
X35443Y348035D01*
X35513Y347970D01*
X35581Y347901D01*
X35645Y347830D01*
X35707Y347757D01*
X35766Y347681D01*
X35822Y347603D01*
X35875Y347522D01*
X35924Y347440D01*
X35970Y347356D01*
X36013Y347269D01*
X36052Y347182D01*
X36088Y347092D01*
X36120Y347002D01*
X36148Y346910D01*
X36173Y346817D01*
X36194Y346723D01*
X36211Y346629D01*
X36225Y346534D01*
X36234Y346438D01*
X36240Y346342D01*
X36242Y346246D01*
X33646Y343650D02*
X27154Y348843D01*
D13*
X17842Y213060D02*
X17879Y216066D01*
X17990Y219071D01*
X18174Y222072D01*
X18432Y225067D01*
X18763Y228055D01*
X19168Y231034D01*
X19645Y234003D01*
X20196Y236959D01*
X20818Y239900D01*
X21513Y242825D01*
X22279Y245732D01*
X23117Y248620D01*
X24025Y251486D01*
X25003Y254329D01*
X26050Y257147D01*
X27167Y259939D01*
X28351Y262702D01*
X29603Y265435D01*
X30922Y268137D01*
X32307Y270806D01*
X33756Y273440D01*
X35270Y276038D01*
X36847Y278597D01*
X38487Y281117D01*
X40188Y283597D01*
X41949Y286033D01*
X43770Y288426D01*
X45648Y290773D01*
X47584Y293074D01*
X49575Y295326D01*
X51622Y297529D01*
X53721Y299681D01*
X55873Y301780D01*
X58076Y303827D01*
X60328Y305818D01*
X62629Y307754D01*
X64976Y309632D01*
X67369Y311453D01*
X69805Y313214D01*
X72285Y314915D01*
X74805Y316555D01*
X77364Y318132D01*
X79962Y319646D01*
X82596Y321095D01*
X85265Y322480D01*
X87967Y323799D01*
X90700Y325051D01*
X93463Y326235D01*
X96255Y327352D01*
X99073Y328399D01*
X101916Y329377D01*
X104782Y330285D01*
X107670Y331123D01*
X110577Y331889D01*
X113502Y332584D01*
X116443Y333206D01*
X119399Y333757D01*
X122368Y334234D01*
X125347Y334639D01*
X128335Y334970D01*
X131330Y335228D01*
X134331Y335412D01*
X137336Y335523D01*
X140342Y335560D01*
X143348Y335523D01*
X146353Y335412D01*
X149354Y335228D01*
X152349Y334970D01*
X155337Y334639D01*
X158316Y334234D01*
X161285Y333757D01*
X164241Y333206D01*
X167182Y332584D01*
X170107Y331889D01*
X173014Y331123D01*
X175902Y330285D01*
X178768Y329377D01*
X181611Y328399D01*
X184429Y327352D01*
X187221Y326235D01*
X189984Y325051D01*
X192717Y323799D01*
X195419Y322480D01*
X198088Y321095D01*
X200722Y319646D01*
X203320Y318132D01*
X205879Y316555D01*
X208399Y314915D01*
X210879Y313214D01*
X213315Y311453D01*
X215708Y309632D01*
X218055Y307754D01*
X220356Y305818D01*
X222608Y303827D01*
X224811Y301780D01*
X226963Y299681D01*
X229062Y297529D01*
X231109Y295326D01*
X233100Y293074D01*
X235036Y290773D01*
X236914Y288426D01*
X238735Y286033D01*
X240496Y283597D01*
X242197Y281117D01*
X243837Y278597D01*
X245414Y276038D01*
X246928Y273440D01*
X248377Y270806D01*
X249762Y268137D01*
X251081Y265435D01*
X252333Y262702D01*
X253517Y259939D01*
X254634Y257147D01*
X255681Y254329D01*
X256659Y251486D01*
X257567Y248620D01*
X258405Y245732D01*
X259171Y242825D01*
X259866Y239900D01*
X260488Y236959D01*
X261039Y234003D01*
X261516Y231034D01*
X261921Y228055D01*
X262252Y225067D01*
X262510Y222072D01*
X262694Y219071D01*
X262805Y216066D01*
X262842Y213060D01*
X262805Y210054D01*
X262694Y207049D01*
X262510Y204048D01*
X262252Y201053D01*
X261921Y198065D01*
X261516Y195086D01*
X261039Y192117D01*
X260488Y189161D01*
X259866Y186220D01*
X259171Y183295D01*
X258405Y180388D01*
X257567Y177500D01*
X256659Y174634D01*
X255681Y171791D01*
X254634Y168973D01*
X253517Y166181D01*
X252333Y163418D01*
X251081Y160685D01*
X249762Y157983D01*
X248377Y155314D01*
X246928Y152680D01*
X245414Y150082D01*
X243837Y147523D01*
X242197Y145003D01*
X240496Y142523D01*
X238735Y140087D01*
X236914Y137694D01*
X235036Y135347D01*
X233100Y133046D01*
X231109Y130794D01*
X229062Y128591D01*
X226963Y126439D01*
X224811Y124340D01*
X222608Y122293D01*
X220356Y120302D01*
X218055Y118366D01*
X215708Y116488D01*
X213315Y114667D01*
X210879Y112906D01*
X208399Y111205D01*
X205879Y109565D01*
X203320Y107988D01*
X200722Y106474D01*
X198088Y105025D01*
X195419Y103640D01*
X192717Y102321D01*
X189984Y101069D01*
X187221Y99885D01*
X184429Y98768D01*
X181611Y97721D01*
X178768Y96743D01*
X175902Y95835D01*
X173014Y94997D01*
X170107Y94231D01*
X167182Y93536D01*
X164241Y92914D01*
X161285Y92363D01*
X158316Y91886D01*
X155337Y91481D01*
X152349Y91150D01*
X149354Y90892D01*
X146353Y90708D01*
X143348Y90597D01*
X140342Y90560D01*
X137336Y90597D01*
X134331Y90708D01*
X131330Y90892D01*
X128335Y91150D01*
X125347Y91481D01*
X122368Y91886D01*
X119399Y92363D01*
X116443Y92914D01*
X113502Y93536D01*
X110577Y94231D01*
X107670Y94997D01*
X104782Y95835D01*
X101916Y96743D01*
X99073Y97721D01*
X96255Y98768D01*
X93463Y99885D01*
X90700Y101069D01*
X87967Y102321D01*
X85265Y103640D01*
X82596Y105025D01*
X79962Y106474D01*
X77364Y107988D01*
X74805Y109565D01*
X72285Y111205D01*
X69805Y112906D01*
X67369Y114667D01*
X64976Y116488D01*
X62629Y118366D01*
X60328Y120302D01*
X58076Y122293D01*
X55873Y124340D01*
X53721Y126439D01*
X51622Y128591D01*
X49575Y130794D01*
X47584Y133046D01*
X45648Y135347D01*
X43770Y137694D01*
X41949Y140087D01*
X40188Y142523D01*
X38487Y145003D01*
X36847Y147523D01*
X35270Y150082D01*
X33756Y152680D01*
X32307Y155314D01*
X30922Y157983D01*
X29603Y160685D01*
X28351Y163418D01*
X27167Y166181D01*
X26050Y168973D01*
X25003Y171791D01*
X24025Y174634D01*
X23117Y177500D01*
X22279Y180388D01*
X21513Y183295D01*
X20818Y186220D01*
X20196Y189161D01*
X19645Y192117D01*
X19168Y195086D01*
X18763Y198065D01*
X18432Y201053D01*
X18174Y204048D01*
X17990Y207049D01*
X17879Y210054D01*
X17842Y213060D01*
X161834Y51678D02*
X227612Y75620D01*
X161834Y51678D02*
X153283Y75171D01*
X102447Y83272D01*
X27202Y290005D02*
X60938Y328888D01*
X52388Y352380D01*
X118166Y376322D01*
X126717Y352829D01*
X177553Y344728D01*
X252798Y137995D01*
X219062Y99112D01*
X227612Y75620D01*
X37463Y261814D02*
X27202Y290005D01*
X54979Y257547D02*
X102861Y125990D01*
X92186Y111463D02*
X102447Y83272D01*
X54979Y257547D02*
X37463Y261814D01*
X102861Y125990D02*
X92186Y111463D01*
D11*
X34129Y358163D02*
X37179Y359273D01*
X37286Y359310D01*
X37394Y359343D01*
X37504Y359373D01*
X37614Y359398D01*
X37725Y359420D01*
X37837Y359437D01*
X37950Y359451D01*
X38063Y359461D01*
X38176Y359467D01*
X38289Y359469D01*
X38402Y359467D01*
X38515Y359461D01*
X38628Y359451D01*
X38741Y359437D01*
X38853Y359420D01*
X38964Y359398D01*
X39074Y359373D01*
X39184Y359343D01*
X39292Y359310D01*
X39399Y359273D01*
X39505Y359233D01*
X39609Y359188D01*
X39712Y359140D01*
X39813Y359089D01*
X39912Y359034D01*
X40009Y358976D01*
X40104Y358914D01*
X40197Y358849D01*
X40287Y358781D01*
X40375Y358710D01*
X40461Y358635D01*
X40544Y358558D01*
X40624Y358478D01*
X40701Y358395D01*
X40776Y358309D01*
X40847Y358221D01*
X40915Y358131D01*
X40980Y358038D01*
X41042Y357943D01*
X41100Y357846D01*
X41155Y357747D01*
X41206Y357646D01*
X41254Y357543D01*
X41299Y357439D01*
X41339Y357333D01*
X41376Y357226D01*
X41409Y357118D01*
X41439Y357008D01*
X41464Y356898D01*
X41486Y356787D01*
X41503Y356675D01*
X41517Y356562D01*
X41527Y356449D01*
X41533Y356336D01*
X41535Y356223D01*
X41533Y356110D01*
X41527Y355997D01*
X41517Y355884D01*
X41503Y355771D01*
X41486Y355659D01*
X41464Y355548D01*
X41439Y355438D01*
X41409Y355328D01*
X41376Y355220D01*
X41339Y355113D01*
X41299Y355007D01*
X41254Y354903D01*
X41206Y354800D01*
X41155Y354699D01*
X41100Y354600D01*
X41042Y354503D01*
X40980Y354408D01*
X40915Y354315D01*
X40847Y354225D01*
X40776Y354137D01*
X40701Y354051D01*
X40624Y353968D01*
X40544Y353888D01*
X40461Y353811D01*
X40376Y353736D01*
X40287Y353665D01*
X40197Y353597D01*
X40104Y353532D01*
X40009Y353470D01*
X39912Y353412D01*
X39813Y353357D01*
X39712Y353306D01*
X39609Y353258D01*
X39505Y353213D01*
X39399Y353173D01*
X36349Y352063D01*
X32353Y363042D01*
X35403Y364152D01*
X35403Y364151D02*
X35498Y364184D01*
X35595Y364213D01*
X35692Y364238D01*
X35791Y364259D01*
X35890Y364277D01*
X35990Y364290D01*
X36090Y364300D01*
X36190Y364306D01*
X36291Y364308D01*
X36392Y364306D01*
X36492Y364300D01*
X36592Y364290D01*
X36692Y364277D01*
X36791Y364259D01*
X36890Y364238D01*
X36987Y364213D01*
X37084Y364184D01*
X37179Y364151D01*
X37273Y364115D01*
X37365Y364075D01*
X37456Y364032D01*
X37545Y363985D01*
X37632Y363935D01*
X37718Y363881D01*
X37801Y363824D01*
X37881Y363764D01*
X37960Y363701D01*
X38036Y363634D01*
X38109Y363565D01*
X38179Y363493D01*
X38247Y363419D01*
X38312Y363342D01*
X38373Y363262D01*
X38432Y363180D01*
X38487Y363096D01*
X38539Y363010D01*
X38588Y362922D01*
X38633Y362832D01*
X38675Y362740D01*
X38713Y362647D01*
X38747Y362552D01*
X38778Y362457D01*
X38805Y362360D01*
X38828Y362262D01*
X38848Y362163D01*
X38863Y362063D01*
X38875Y361963D01*
X38883Y361863D01*
X38887Y361762D01*
X38887Y361662D01*
X38883Y361561D01*
X38875Y361461D01*
X38863Y361361D01*
X38848Y361261D01*
X38828Y361162D01*
X38805Y361064D01*
X38778Y360967D01*
X38747Y360872D01*
X38713Y360777D01*
X38675Y360684D01*
X38633Y360592D01*
X38588Y360502D01*
X38539Y360414D01*
X38487Y360328D01*
X38432Y360244D01*
X38373Y360162D01*
X38312Y360082D01*
X38247Y360005D01*
X38179Y359931D01*
X38109Y359859D01*
X38036Y359790D01*
X37960Y359723D01*
X37881Y359660D01*
X37801Y359600D01*
X37718Y359543D01*
X37632Y359489D01*
X37545Y359439D01*
X37456Y359392D01*
X37365Y359349D01*
X37273Y359309D01*
X37179Y359273D01*
X43464Y364323D02*
X45626Y367873D01*
X49622Y356894D01*
X46573Y355784D02*
X52672Y358004D01*
D10*
X289700Y110150D02*
X283350Y103800D01*
X289700Y122850D02*
X283350Y129200D01*
X289700Y135550D01*
X289700Y148250D02*
X283350Y154600D01*
X289700Y160950D01*
X289700Y173650D02*
X283350Y180000D01*
X289700Y186350D01*
X289700Y199050D02*
X283350Y205400D01*
X289700Y211750D01*
X289700Y224450D02*
X283350Y230800D01*
X289700Y237150D01*
X289700Y249850D02*
X283350Y256200D01*
X283350Y103800D02*
X270650Y103800D01*
X264300Y110150D01*
X264300Y122850D01*
X270650Y129200D01*
X264300Y135550D01*
X264300Y148250D01*
X270650Y154600D01*
X264300Y160950D01*
X264300Y173650D01*
X270650Y180000D01*
X264300Y186350D01*
X264300Y199050D01*
X270650Y205400D01*
X264300Y211750D01*
X264300Y224450D01*
X270650Y230800D01*
X264300Y237150D01*
X264300Y249850D01*
X270650Y256200D01*
X270650Y129200D02*
X283350Y129200D01*
X283350Y154600D02*
X270650Y154600D01*
X270650Y180000D02*
X283350Y180000D01*
X283350Y205400D02*
X270650Y205400D01*
X270650Y230800D02*
X283350Y230800D01*
X283350Y256200D02*
X270650Y256200D01*
X289700Y249850D02*
X289700Y237150D01*
X289700Y224450D02*
X289700Y211750D01*
X289700Y199050D02*
X289700Y186350D01*
X289700Y173650D02*
X289700Y160950D01*
X289700Y148250D02*
X289700Y135550D01*
X289700Y122850D02*
X289700Y110150D01*
D13*
X256825Y99445D02*
X247935Y99445D01*
X256825Y99445D02*
X256925Y99443D01*
X257024Y99437D01*
X257124Y99427D01*
X257222Y99414D01*
X257321Y99396D01*
X257418Y99375D01*
X257514Y99350D01*
X257610Y99321D01*
X257704Y99288D01*
X257797Y99252D01*
X257888Y99212D01*
X257978Y99168D01*
X258066Y99121D01*
X258152Y99071D01*
X258236Y99017D01*
X258318Y98960D01*
X258397Y98900D01*
X258475Y98836D01*
X258549Y98770D01*
X258621Y98701D01*
X258690Y98629D01*
X258756Y98555D01*
X258820Y98477D01*
X258880Y98398D01*
X258937Y98316D01*
X258991Y98232D01*
X259041Y98146D01*
X259088Y98058D01*
X259132Y97968D01*
X259172Y97877D01*
X259208Y97784D01*
X259241Y97690D01*
X259270Y97594D01*
X259295Y97498D01*
X259316Y97401D01*
X259334Y97302D01*
X259347Y97204D01*
X259357Y97104D01*
X259363Y97005D01*
X259365Y96905D01*
X259365Y95635D01*
X259365Y105425D02*
X247935Y105425D01*
X247935Y108600D01*
X247937Y108711D01*
X247943Y108821D01*
X247952Y108932D01*
X247966Y109042D01*
X247983Y109151D01*
X248004Y109260D01*
X248029Y109368D01*
X248058Y109475D01*
X248090Y109581D01*
X248126Y109686D01*
X248166Y109789D01*
X248209Y109891D01*
X248256Y109992D01*
X248307Y110091D01*
X248360Y110187D01*
X248417Y110282D01*
X248478Y110375D01*
X248541Y110466D01*
X248608Y110555D01*
X248678Y110641D01*
X248751Y110724D01*
X248826Y110806D01*
X248904Y110884D01*
X248986Y110959D01*
X249069Y111032D01*
X249155Y111102D01*
X249244Y111169D01*
X249335Y111232D01*
X249428Y111293D01*
X249523Y111350D01*
X249619Y111403D01*
X249718Y111454D01*
X249819Y111501D01*
X249921Y111544D01*
X250024Y111584D01*
X250129Y111620D01*
X250235Y111652D01*
X250342Y111681D01*
X250450Y111706D01*
X250559Y111727D01*
X250668Y111744D01*
X250778Y111758D01*
X250889Y111767D01*
X250999Y111773D01*
X251110Y111775D01*
X251221Y111773D01*
X251331Y111767D01*
X251442Y111758D01*
X251552Y111744D01*
X251661Y111727D01*
X251770Y111706D01*
X251878Y111681D01*
X251985Y111652D01*
X252091Y111620D01*
X252196Y111584D01*
X252299Y111544D01*
X252401Y111501D01*
X252502Y111454D01*
X252601Y111403D01*
X252698Y111350D01*
X252792Y111293D01*
X252885Y111232D01*
X252976Y111169D01*
X253065Y111102D01*
X253151Y111032D01*
X253234Y110959D01*
X253316Y110884D01*
X253394Y110806D01*
X253469Y110724D01*
X253542Y110641D01*
X253612Y110555D01*
X253679Y110466D01*
X253742Y110375D01*
X253803Y110282D01*
X253860Y110188D01*
X253913Y110091D01*
X253964Y109992D01*
X254011Y109891D01*
X254054Y109789D01*
X254094Y109686D01*
X254130Y109581D01*
X254162Y109475D01*
X254191Y109368D01*
X254216Y109260D01*
X254237Y109151D01*
X254254Y109042D01*
X254268Y108932D01*
X254277Y108821D01*
X254283Y108711D01*
X254285Y108600D01*
X254285Y105425D01*
X250475Y116284D02*
X247935Y119459D01*
X259365Y119459D01*
X259365Y116284D02*
X259365Y122634D01*
D10*
X28250Y14600D02*
X21900Y20950D01*
X40950Y14600D02*
X47300Y20950D01*
X53650Y14600D01*
X66350Y14600D02*
X72700Y20950D01*
X21900Y20950D02*
X21900Y59050D01*
X28250Y65400D01*
X40950Y65400D01*
X47300Y59050D01*
X53650Y65400D01*
X66350Y65400D01*
X72700Y59050D01*
X47300Y59050D02*
X47300Y20950D01*
X72700Y20950D02*
X72700Y59050D01*
X66350Y14600D02*
X53650Y14600D01*
X40950Y14600D02*
X28250Y14600D01*
X72700Y20950D02*
X79050Y14600D01*
X91750Y14600D02*
X98100Y20950D01*
X72700Y59050D02*
X79050Y65400D01*
X91750Y65400D01*
X98100Y59050D01*
X98100Y20950D01*
X91750Y14600D02*
X79050Y14600D01*
D13*
X16825Y24445D02*
X7935Y24445D01*
X16825Y24445D02*
X16925Y24443D01*
X17024Y24437D01*
X17124Y24427D01*
X17222Y24414D01*
X17321Y24396D01*
X17418Y24375D01*
X17514Y24350D01*
X17610Y24321D01*
X17704Y24288D01*
X17797Y24252D01*
X17888Y24212D01*
X17978Y24168D01*
X18066Y24121D01*
X18152Y24071D01*
X18236Y24017D01*
X18318Y23960D01*
X18397Y23900D01*
X18475Y23836D01*
X18549Y23770D01*
X18621Y23701D01*
X18690Y23629D01*
X18756Y23555D01*
X18820Y23477D01*
X18880Y23398D01*
X18937Y23316D01*
X18991Y23232D01*
X19041Y23146D01*
X19088Y23058D01*
X19132Y22968D01*
X19172Y22877D01*
X19208Y22784D01*
X19241Y22690D01*
X19270Y22594D01*
X19295Y22498D01*
X19316Y22401D01*
X19334Y22302D01*
X19347Y22204D01*
X19357Y22104D01*
X19363Y22005D01*
X19365Y21905D01*
X19365Y20635D01*
X19365Y30425D02*
X7935Y30425D01*
X7935Y33600D01*
X7937Y33711D01*
X7943Y33821D01*
X7952Y33932D01*
X7966Y34042D01*
X7983Y34151D01*
X8004Y34260D01*
X8029Y34368D01*
X8058Y34475D01*
X8090Y34581D01*
X8126Y34686D01*
X8166Y34789D01*
X8209Y34891D01*
X8256Y34992D01*
X8307Y35091D01*
X8360Y35187D01*
X8417Y35282D01*
X8478Y35375D01*
X8541Y35466D01*
X8608Y35555D01*
X8678Y35641D01*
X8751Y35724D01*
X8826Y35806D01*
X8904Y35884D01*
X8986Y35959D01*
X9069Y36032D01*
X9155Y36102D01*
X9244Y36169D01*
X9335Y36232D01*
X9428Y36293D01*
X9522Y36350D01*
X9619Y36403D01*
X9718Y36454D01*
X9819Y36501D01*
X9921Y36544D01*
X10024Y36584D01*
X10129Y36620D01*
X10235Y36652D01*
X10342Y36681D01*
X10450Y36706D01*
X10559Y36727D01*
X10668Y36744D01*
X10778Y36758D01*
X10889Y36767D01*
X10999Y36773D01*
X11110Y36775D01*
X11221Y36773D01*
X11331Y36767D01*
X11442Y36758D01*
X11552Y36744D01*
X11661Y36727D01*
X11770Y36706D01*
X11878Y36681D01*
X11985Y36652D01*
X12091Y36620D01*
X12196Y36584D01*
X12299Y36544D01*
X12401Y36501D01*
X12502Y36454D01*
X12601Y36403D01*
X12697Y36350D01*
X12792Y36293D01*
X12885Y36232D01*
X12976Y36169D01*
X13065Y36102D01*
X13151Y36032D01*
X13234Y35959D01*
X13316Y35884D01*
X13394Y35806D01*
X13469Y35724D01*
X13542Y35641D01*
X13612Y35555D01*
X13679Y35466D01*
X13742Y35375D01*
X13803Y35282D01*
X13860Y35188D01*
X13913Y35091D01*
X13964Y34992D01*
X14011Y34891D01*
X14054Y34789D01*
X14094Y34686D01*
X14130Y34581D01*
X14162Y34475D01*
X14191Y34368D01*
X14216Y34260D01*
X14237Y34151D01*
X14254Y34042D01*
X14268Y33932D01*
X14277Y33821D01*
X14283Y33711D01*
X14285Y33600D01*
X14285Y30425D01*
X7935Y44776D02*
X7937Y44880D01*
X7943Y44985D01*
X7952Y45089D01*
X7965Y45192D01*
X7983Y45295D01*
X8003Y45397D01*
X8028Y45499D01*
X8056Y45599D01*
X8088Y45699D01*
X8124Y45797D01*
X8163Y45894D01*
X8205Y45989D01*
X8251Y46083D01*
X8301Y46175D01*
X8353Y46265D01*
X8409Y46353D01*
X8469Y46439D01*
X8531Y46523D01*
X8596Y46604D01*
X8664Y46683D01*
X8736Y46760D01*
X8809Y46833D01*
X8886Y46905D01*
X8965Y46973D01*
X9046Y47038D01*
X9130Y47100D01*
X9216Y47160D01*
X9304Y47216D01*
X9394Y47268D01*
X9486Y47318D01*
X9580Y47364D01*
X9675Y47406D01*
X9772Y47445D01*
X9870Y47481D01*
X9970Y47513D01*
X10070Y47541D01*
X10172Y47566D01*
X10274Y47586D01*
X10377Y47604D01*
X10480Y47617D01*
X10584Y47626D01*
X10689Y47632D01*
X10793Y47634D01*
X7935Y44776D02*
X7937Y44658D01*
X7943Y44539D01*
X7952Y44421D01*
X7965Y44304D01*
X7983Y44187D01*
X8003Y44070D01*
X8028Y43954D01*
X8056Y43839D01*
X8089Y43726D01*
X8124Y43613D01*
X8164Y43501D01*
X8206Y43391D01*
X8253Y43282D01*
X8303Y43174D01*
X8356Y43069D01*
X8413Y42965D01*
X8473Y42863D01*
X8536Y42763D01*
X8603Y42665D01*
X8672Y42569D01*
X8745Y42476D01*
X8821Y42385D01*
X8899Y42296D01*
X8981Y42210D01*
X9065Y42127D01*
X9151Y42046D01*
X9241Y41969D01*
X9332Y41894D01*
X9426Y41822D01*
X9523Y41753D01*
X9621Y41688D01*
X9722Y41625D01*
X9825Y41566D01*
X9929Y41510D01*
X10035Y41458D01*
X10143Y41409D01*
X10252Y41364D01*
X10363Y41322D01*
X10475Y41284D01*
X13015Y46682D02*
X12940Y46758D01*
X12861Y46833D01*
X12780Y46904D01*
X12696Y46973D01*
X12610Y47038D01*
X12522Y47100D01*
X12432Y47160D01*
X12340Y47216D01*
X12245Y47269D01*
X12149Y47318D01*
X12051Y47364D01*
X11952Y47407D01*
X11851Y47446D01*
X11749Y47481D01*
X11646Y47513D01*
X11542Y47541D01*
X11437Y47566D01*
X11330Y47587D01*
X11224Y47604D01*
X11117Y47617D01*
X11009Y47626D01*
X10901Y47632D01*
X10793Y47634D01*
X13015Y46681D02*
X19365Y41284D01*
X19365Y47634D01*
D11*
X5000Y169000D02*
X16000Y170000D01*
X5000Y169000D02*
X5000Y151000D01*
X16000Y150000D01*
X16000Y170000D01*
X25000Y169000D01*
X25000Y151000D01*
X16000Y150000D01*
X5000Y168000D02*
X4000Y168000D01*
X3807Y167998D01*
X3613Y167991D01*
X3421Y167979D01*
X3228Y167963D01*
X3036Y167942D01*
X2844Y167916D01*
X2653Y167886D01*
X2463Y167851D01*
X2274Y167812D01*
X2085Y167768D01*
X1898Y167719D01*
X1712Y167666D01*
X1528Y167608D01*
X1345Y167546D01*
X1163Y167480D01*
X983Y167409D01*
X805Y167334D01*
X629Y167255D01*
X454Y167171D01*
X282Y167084D01*
X112Y166992D01*
X-56Y166896D01*
X-221Y166796D01*
X-384Y166692D01*
X-545Y166584D01*
X-702Y166472D01*
X-857Y166357D01*
X-1009Y166237D01*
X-1159Y166115D01*
X-1305Y165988D01*
X-1448Y165858D01*
X-1588Y165725D01*
X-1725Y165588D01*
X-1858Y165448D01*
X-1988Y165305D01*
X-2115Y165159D01*
X-2237Y165009D01*
X-2357Y164857D01*
X-2472Y164702D01*
X-2584Y164545D01*
X-2692Y164384D01*
X-2796Y164221D01*
X-2896Y164056D01*
X-2992Y163888D01*
X-3084Y163718D01*
X-3171Y163546D01*
X-3255Y163371D01*
X-3334Y163195D01*
X-3409Y163017D01*
X-3480Y162837D01*
X-3546Y162655D01*
X-3608Y162472D01*
X-3666Y162288D01*
X-3719Y162102D01*
X-3768Y161915D01*
X-3812Y161726D01*
X-3851Y161537D01*
X-3886Y161347D01*
X-3916Y161156D01*
X-3942Y160964D01*
X-3963Y160772D01*
X-3979Y160579D01*
X-3991Y160387D01*
X-3998Y160193D01*
X-4000Y160000D01*
X-3998Y159807D01*
X-3991Y159613D01*
X-3979Y159421D01*
X-3963Y159228D01*
X-3942Y159036D01*
X-3916Y158844D01*
X-3886Y158653D01*
X-3851Y158463D01*
X-3812Y158274D01*
X-3768Y158085D01*
X-3719Y157898D01*
X-3666Y157712D01*
X-3608Y157528D01*
X-3546Y157345D01*
X-3480Y157163D01*
X-3409Y156983D01*
X-3334Y156805D01*
X-3255Y156629D01*
X-3171Y156454D01*
X-3084Y156282D01*
X-2992Y156112D01*
X-2896Y155944D01*
X-2796Y155779D01*
X-2692Y155616D01*
X-2584Y155455D01*
X-2472Y155298D01*
X-2357Y155143D01*
X-2237Y154991D01*
X-2115Y154841D01*
X-1988Y154695D01*
X-1858Y154552D01*
X-1725Y154412D01*
X-1588Y154275D01*
X-1448Y154142D01*
X-1305Y154012D01*
X-1159Y153885D01*
X-1009Y153763D01*
X-857Y153643D01*
X-702Y153528D01*
X-545Y153416D01*
X-384Y153308D01*
X-221Y153204D01*
X-56Y153104D01*
X112Y153008D01*
X282Y152916D01*
X454Y152829D01*
X629Y152745D01*
X805Y152666D01*
X983Y152591D01*
X1163Y152520D01*
X1345Y152454D01*
X1528Y152392D01*
X1712Y152334D01*
X1898Y152281D01*
X2085Y152232D01*
X2274Y152188D01*
X2463Y152149D01*
X2653Y152114D01*
X2844Y152084D01*
X3036Y152058D01*
X3228Y152037D01*
X3421Y152021D01*
X3613Y152009D01*
X3807Y152002D01*
X4000Y152000D01*
X5000Y152000D01*
D12*
X16969Y187869D02*
X16969Y189958D01*
X16969Y187869D02*
X16967Y187780D01*
X16961Y187692D01*
X16952Y187604D01*
X16939Y187516D01*
X16922Y187429D01*
X16902Y187343D01*
X16877Y187258D01*
X16850Y187173D01*
X16818Y187090D01*
X16784Y187009D01*
X16745Y186929D01*
X16704Y186851D01*
X16659Y186774D01*
X16611Y186700D01*
X16560Y186627D01*
X16506Y186557D01*
X16448Y186490D01*
X16388Y186424D01*
X16326Y186362D01*
X16260Y186302D01*
X16193Y186244D01*
X16123Y186190D01*
X16050Y186139D01*
X15976Y186091D01*
X15899Y186046D01*
X15821Y186005D01*
X15741Y185966D01*
X15660Y185932D01*
X15577Y185900D01*
X15492Y185873D01*
X15407Y185848D01*
X15321Y185828D01*
X15234Y185811D01*
X15146Y185798D01*
X15058Y185789D01*
X14970Y185783D01*
X14881Y185781D01*
X9659Y185781D01*
X9568Y185783D01*
X9477Y185789D01*
X9386Y185799D01*
X9296Y185813D01*
X9207Y185831D01*
X9118Y185852D01*
X9031Y185878D01*
X8945Y185907D01*
X8860Y185940D01*
X8776Y185977D01*
X8694Y186017D01*
X8615Y186061D01*
X8537Y186108D01*
X8461Y186159D01*
X8387Y186213D01*
X8316Y186270D01*
X8248Y186330D01*
X8182Y186393D01*
X8119Y186459D01*
X8059Y186527D01*
X8002Y186598D01*
X7948Y186672D01*
X7897Y186748D01*
X7850Y186825D01*
X7806Y186905D01*
X7766Y186987D01*
X7729Y187071D01*
X7696Y187155D01*
X7667Y187242D01*
X7641Y187329D01*
X7620Y187418D01*
X7602Y187507D01*
X7588Y187597D01*
X7578Y187688D01*
X7572Y187779D01*
X7570Y187870D01*
X7571Y187869D02*
X7571Y189958D01*
X7571Y131086D02*
X16969Y127954D01*
X16969Y134219D02*
X7571Y131086D01*
X14620Y133436D02*
X14620Y128737D01*
D11*
X31508Y155578D02*
X43192Y155578D01*
X31508Y152333D02*
X31508Y158824D01*
X34104Y163001D02*
X31508Y166246D01*
X43192Y166246D01*
X43192Y163001D02*
X43192Y169492D01*
X125000Y16000D02*
X126000Y5000D01*
X144000Y5000D01*
X145000Y16000D01*
X125000Y16000D01*
X126000Y25000D01*
X144000Y25000D01*
X145000Y16000D01*
X127000Y5000D02*
X127000Y4000D01*
X127002Y3807D01*
X127009Y3613D01*
X127021Y3421D01*
X127037Y3228D01*
X127058Y3036D01*
X127084Y2844D01*
X127114Y2653D01*
X127149Y2463D01*
X127188Y2274D01*
X127232Y2085D01*
X127281Y1898D01*
X127334Y1712D01*
X127392Y1528D01*
X127454Y1345D01*
X127520Y1163D01*
X127591Y983D01*
X127666Y805D01*
X127745Y629D01*
X127829Y454D01*
X127916Y282D01*
X128008Y112D01*
X128104Y-56D01*
X128204Y-221D01*
X128308Y-384D01*
X128416Y-545D01*
X128528Y-702D01*
X128643Y-857D01*
X128763Y-1009D01*
X128885Y-1159D01*
X129012Y-1305D01*
X129142Y-1448D01*
X129275Y-1588D01*
X129412Y-1725D01*
X129552Y-1858D01*
X129695Y-1988D01*
X129841Y-2115D01*
X129991Y-2237D01*
X130143Y-2357D01*
X130298Y-2472D01*
X130455Y-2584D01*
X130616Y-2692D01*
X130779Y-2796D01*
X130944Y-2896D01*
X131112Y-2992D01*
X131282Y-3084D01*
X131454Y-3171D01*
X131629Y-3255D01*
X131805Y-3334D01*
X131983Y-3409D01*
X132163Y-3480D01*
X132345Y-3546D01*
X132528Y-3608D01*
X132712Y-3666D01*
X132898Y-3719D01*
X133085Y-3768D01*
X133274Y-3812D01*
X133463Y-3851D01*
X133653Y-3886D01*
X133844Y-3916D01*
X134036Y-3942D01*
X134228Y-3963D01*
X134421Y-3979D01*
X134613Y-3991D01*
X134807Y-3998D01*
X135000Y-4000D01*
X135193Y-3998D01*
X135387Y-3991D01*
X135579Y-3979D01*
X135772Y-3963D01*
X135964Y-3942D01*
X136156Y-3916D01*
X136347Y-3886D01*
X136537Y-3851D01*
X136726Y-3812D01*
X136915Y-3768D01*
X137102Y-3719D01*
X137288Y-3666D01*
X137472Y-3608D01*
X137655Y-3546D01*
X137837Y-3480D01*
X138017Y-3409D01*
X138195Y-3334D01*
X138371Y-3255D01*
X138546Y-3171D01*
X138718Y-3084D01*
X138888Y-2992D01*
X139056Y-2896D01*
X139221Y-2796D01*
X139384Y-2692D01*
X139545Y-2584D01*
X139702Y-2472D01*
X139857Y-2357D01*
X140009Y-2237D01*
X140159Y-2115D01*
X140305Y-1988D01*
X140448Y-1858D01*
X140588Y-1725D01*
X140725Y-1588D01*
X140858Y-1448D01*
X140988Y-1305D01*
X141115Y-1159D01*
X141237Y-1009D01*
X141357Y-857D01*
X141472Y-702D01*
X141584Y-545D01*
X141692Y-384D01*
X141796Y-221D01*
X141896Y-56D01*
X141992Y112D01*
X142084Y282D01*
X142171Y454D01*
X142255Y629D01*
X142334Y805D01*
X142409Y983D01*
X142480Y1163D01*
X142546Y1345D01*
X142608Y1528D01*
X142666Y1712D01*
X142719Y1898D01*
X142768Y2085D01*
X142812Y2274D01*
X142851Y2463D01*
X142886Y2653D01*
X142916Y2844D01*
X142942Y3036D01*
X142963Y3228D01*
X142979Y3421D01*
X142991Y3613D01*
X142998Y3807D01*
X143000Y4000D01*
X143000Y5000D01*
D12*
X109219Y7571D02*
X107131Y7571D01*
X107042Y7573D01*
X106954Y7579D01*
X106866Y7588D01*
X106778Y7601D01*
X106691Y7618D01*
X106605Y7638D01*
X106520Y7663D01*
X106435Y7690D01*
X106352Y7722D01*
X106271Y7756D01*
X106191Y7795D01*
X106113Y7836D01*
X106036Y7881D01*
X105962Y7929D01*
X105889Y7980D01*
X105819Y8034D01*
X105752Y8092D01*
X105686Y8152D01*
X105624Y8214D01*
X105564Y8280D01*
X105506Y8347D01*
X105452Y8417D01*
X105401Y8490D01*
X105353Y8564D01*
X105308Y8641D01*
X105267Y8719D01*
X105228Y8799D01*
X105194Y8880D01*
X105162Y8963D01*
X105135Y9048D01*
X105110Y9133D01*
X105090Y9219D01*
X105073Y9306D01*
X105060Y9394D01*
X105051Y9482D01*
X105045Y9570D01*
X105043Y9659D01*
X105042Y9659D02*
X105042Y14881D01*
X105043Y14881D02*
X105045Y14972D01*
X105051Y15063D01*
X105061Y15154D01*
X105075Y15244D01*
X105092Y15333D01*
X105114Y15421D01*
X105140Y15509D01*
X105169Y15595D01*
X105202Y15680D01*
X105239Y15763D01*
X105279Y15845D01*
X105323Y15925D01*
X105370Y16003D01*
X105421Y16079D01*
X105474Y16152D01*
X105531Y16223D01*
X105592Y16292D01*
X105655Y16357D01*
X105720Y16420D01*
X105789Y16480D01*
X105860Y16538D01*
X105933Y16591D01*
X106009Y16642D01*
X106087Y16689D01*
X106167Y16733D01*
X106249Y16773D01*
X106332Y16810D01*
X106417Y16843D01*
X106503Y16872D01*
X106591Y16898D01*
X106679Y16920D01*
X106768Y16937D01*
X106858Y16951D01*
X106949Y16961D01*
X107040Y16967D01*
X107131Y16969D01*
X109219Y16969D01*
X160781Y7571D02*
X163914Y16969D01*
X167046Y7571D01*
X166263Y9921D02*
X161564Y9921D01*
D11*
X116354Y27558D02*
X116354Y39242D01*
X119599Y39242D02*
X113108Y39242D01*
X127346Y39242D02*
X127453Y39240D01*
X127559Y39234D01*
X127665Y39224D01*
X127771Y39211D01*
X127877Y39193D01*
X127981Y39172D01*
X128085Y39147D01*
X128188Y39118D01*
X128289Y39086D01*
X128389Y39049D01*
X128488Y39009D01*
X128586Y38966D01*
X128682Y38919D01*
X128776Y38868D01*
X128868Y38814D01*
X128958Y38757D01*
X129046Y38697D01*
X129131Y38633D01*
X129214Y38566D01*
X129295Y38496D01*
X129373Y38424D01*
X129449Y38348D01*
X129521Y38270D01*
X129591Y38189D01*
X129658Y38106D01*
X129722Y38021D01*
X129782Y37933D01*
X129839Y37843D01*
X129893Y37751D01*
X129944Y37657D01*
X129991Y37561D01*
X130034Y37463D01*
X130074Y37364D01*
X130111Y37264D01*
X130143Y37163D01*
X130172Y37060D01*
X130197Y36956D01*
X130218Y36852D01*
X130236Y36746D01*
X130249Y36640D01*
X130259Y36534D01*
X130265Y36428D01*
X130267Y36321D01*
X127346Y39242D02*
X127225Y39240D01*
X127104Y39234D01*
X126984Y39224D01*
X126863Y39211D01*
X126744Y39193D01*
X126624Y39172D01*
X126506Y39147D01*
X126389Y39118D01*
X126272Y39085D01*
X126157Y39049D01*
X126043Y39008D01*
X125930Y38965D01*
X125818Y38917D01*
X125709Y38866D01*
X125601Y38811D01*
X125494Y38753D01*
X125390Y38692D01*
X125288Y38627D01*
X125188Y38559D01*
X125090Y38488D01*
X124994Y38414D01*
X124901Y38337D01*
X124811Y38256D01*
X124723Y38173D01*
X124638Y38087D01*
X124555Y37998D01*
X124476Y37907D01*
X124399Y37813D01*
X124326Y37717D01*
X124256Y37619D01*
X124189Y37518D01*
X124125Y37415D01*
X124065Y37310D01*
X124008Y37203D01*
X123954Y37095D01*
X123904Y36985D01*
X123858Y36873D01*
X123815Y36760D01*
X123776Y36645D01*
X129294Y34049D02*
X129373Y34126D01*
X129449Y34207D01*
X129522Y34290D01*
X129592Y34375D01*
X129659Y34463D01*
X129723Y34553D01*
X129783Y34645D01*
X129840Y34740D01*
X129894Y34836D01*
X129945Y34934D01*
X129992Y35034D01*
X130036Y35136D01*
X130076Y35239D01*
X130112Y35343D01*
X130144Y35449D01*
X130173Y35555D01*
X130198Y35663D01*
X130220Y35771D01*
X130237Y35881D01*
X130251Y35990D01*
X130260Y36100D01*
X130266Y36211D01*
X130268Y36321D01*
X129293Y34049D02*
X123776Y27558D01*
X130267Y27558D01*
M02*
