G04 EAGLE Gerber RS-274X export*
G75*
%MOMM*%
%FSLAX34Y34*%
%LPD*%
%INBottom Copper*%
%IPPOS*%
%AMOC8*
5,1,8,0,0,1.08239X$1,22.5*%
G01*
%ADD10R,1.300000X1.500000*%
%ADD11R,0.850000X0.450000*%
%ADD12R,1.600000X2.500000*%
%ADD13R,1.702000X0.475200*%
%ADD14R,1.298200X0.597100*%
%ADD15R,1.542000X0.658700*%
%ADD16P,1.649562X8X112.500000*%
%ADD17P,1.649562X8X22.500000*%
%ADD18R,1.500000X0.700000*%
%ADD19R,0.700000X1.500000*%
%ADD20C,0.706400*%
%ADD21C,0.254000*%
%ADD22C,0.508000*%
%ADD23C,0.304800*%
%ADD24C,0.152400*%
%ADD25C,0.756400*%

G36*
X107760Y4822D02*
X107760Y4822D01*
X107832Y4824D01*
X107881Y4842D01*
X107932Y4850D01*
X107996Y4884D01*
X108063Y4909D01*
X108104Y4941D01*
X108150Y4966D01*
X108199Y5018D01*
X108255Y5062D01*
X108283Y5106D01*
X108319Y5144D01*
X108349Y5209D01*
X108388Y5269D01*
X108401Y5320D01*
X108423Y5367D01*
X108431Y5438D01*
X108448Y5508D01*
X108444Y5560D01*
X108450Y5611D01*
X108435Y5682D01*
X108429Y5753D01*
X108409Y5801D01*
X108398Y5852D01*
X108361Y5913D01*
X108333Y5979D01*
X108288Y6035D01*
X108271Y6063D01*
X108254Y6078D01*
X108228Y6110D01*
X104276Y10062D01*
X102713Y11625D01*
X102713Y108447D01*
X107220Y112954D01*
X107273Y113028D01*
X107333Y113098D01*
X107345Y113128D01*
X107364Y113154D01*
X107391Y113241D01*
X107425Y113326D01*
X107429Y113367D01*
X107436Y113389D01*
X107435Y113421D01*
X107443Y113493D01*
X107443Y117095D01*
X109984Y119636D01*
X110026Y119694D01*
X110076Y119746D01*
X110098Y119793D01*
X110128Y119835D01*
X110149Y119904D01*
X110179Y119969D01*
X110185Y120021D01*
X110200Y120071D01*
X110198Y120142D01*
X110206Y120213D01*
X110195Y120264D01*
X110194Y120316D01*
X110169Y120384D01*
X110154Y120454D01*
X110127Y120499D01*
X110110Y120547D01*
X110065Y120603D01*
X110028Y120665D01*
X109988Y120699D01*
X109956Y120739D01*
X109896Y120778D01*
X109841Y120825D01*
X109793Y120844D01*
X109749Y120872D01*
X109679Y120890D01*
X109613Y120917D01*
X109542Y120925D01*
X109510Y120933D01*
X109487Y120931D01*
X109446Y120935D01*
X68999Y120935D01*
X68909Y120921D01*
X68818Y120913D01*
X68788Y120901D01*
X68756Y120896D01*
X68676Y120853D01*
X68592Y120817D01*
X68560Y120791D01*
X68539Y120780D01*
X68517Y120757D01*
X68461Y120712D01*
X21288Y73539D01*
X21235Y73465D01*
X21175Y73396D01*
X21163Y73366D01*
X21144Y73340D01*
X21117Y73253D01*
X21083Y73168D01*
X21079Y73127D01*
X21072Y73104D01*
X21073Y73072D01*
X21065Y73001D01*
X21065Y46899D01*
X21079Y46809D01*
X21087Y46718D01*
X21099Y46688D01*
X21104Y46656D01*
X21147Y46576D01*
X21183Y46492D01*
X21209Y46460D01*
X21220Y46439D01*
X21243Y46417D01*
X21288Y46361D01*
X30981Y36668D01*
X31055Y36615D01*
X31124Y36555D01*
X31154Y36543D01*
X31180Y36524D01*
X31267Y36497D01*
X31352Y36463D01*
X31393Y36459D01*
X31415Y36452D01*
X31448Y36453D01*
X31519Y36445D01*
X38388Y36445D01*
X43745Y31088D01*
X43745Y23512D01*
X38388Y18155D01*
X30812Y18155D01*
X25455Y23512D01*
X25455Y30381D01*
X25441Y30471D01*
X25433Y30562D01*
X25421Y30592D01*
X25416Y30624D01*
X25373Y30704D01*
X25337Y30788D01*
X25311Y30820D01*
X25300Y30841D01*
X25277Y30863D01*
X25232Y30919D01*
X15539Y40612D01*
X12935Y43216D01*
X12935Y76684D01*
X36699Y100447D01*
X36713Y100467D01*
X36731Y100482D01*
X36784Y100566D01*
X36842Y100647D01*
X36849Y100670D01*
X36862Y100690D01*
X36885Y100787D01*
X36915Y100882D01*
X36914Y100906D01*
X36920Y100929D01*
X36911Y101028D01*
X36908Y101128D01*
X36900Y101150D01*
X36898Y101174D01*
X36858Y101265D01*
X36824Y101359D01*
X36809Y101378D01*
X36799Y101400D01*
X36732Y101473D01*
X36670Y101551D01*
X36650Y101564D01*
X36634Y101582D01*
X36547Y101630D01*
X36463Y101684D01*
X36440Y101690D01*
X36419Y101701D01*
X36321Y101720D01*
X36225Y101744D01*
X36201Y101742D01*
X36177Y101746D01*
X36078Y101733D01*
X35979Y101725D01*
X35957Y101715D01*
X35933Y101712D01*
X35780Y101645D01*
X33830Y100519D01*
X25359Y99628D01*
X17258Y102261D01*
X10928Y107960D01*
X7464Y115741D01*
X7464Y124259D01*
X10928Y132040D01*
X17258Y137739D01*
X25359Y140372D01*
X33830Y139481D01*
X41206Y135222D01*
X46213Y128331D01*
X47984Y120000D01*
X46286Y112014D01*
X46285Y111986D01*
X46277Y111959D01*
X46279Y111864D01*
X46275Y111768D01*
X46282Y111741D01*
X46283Y111713D01*
X46316Y111624D01*
X46342Y111532D01*
X46358Y111509D01*
X46368Y111482D01*
X46427Y111408D01*
X46481Y111329D01*
X46504Y111312D01*
X46521Y111290D01*
X46602Y111239D01*
X46678Y111181D01*
X46704Y111173D01*
X46728Y111157D01*
X46821Y111134D01*
X46911Y111104D01*
X46939Y111104D01*
X46967Y111097D01*
X47062Y111105D01*
X47157Y111105D01*
X47184Y111114D01*
X47212Y111116D01*
X47300Y111154D01*
X47390Y111185D01*
X47412Y111202D01*
X47438Y111213D01*
X47569Y111318D01*
X60963Y124712D01*
X60975Y124728D01*
X60991Y124740D01*
X61047Y124828D01*
X61107Y124911D01*
X61113Y124930D01*
X61124Y124947D01*
X61149Y125048D01*
X61179Y125147D01*
X61179Y125166D01*
X61184Y125186D01*
X61176Y125289D01*
X61173Y125392D01*
X61166Y125411D01*
X61164Y125431D01*
X61124Y125525D01*
X61088Y125623D01*
X61076Y125639D01*
X61068Y125657D01*
X60963Y125788D01*
X53435Y133316D01*
X53435Y206598D01*
X53421Y206688D01*
X53413Y206779D01*
X53401Y206809D01*
X53396Y206841D01*
X53353Y206922D01*
X53317Y207005D01*
X53291Y207038D01*
X53280Y207058D01*
X53257Y207080D01*
X53212Y207136D01*
X52443Y207905D01*
X52443Y212095D01*
X53978Y213630D01*
X54022Y213691D01*
X54056Y213726D01*
X54062Y213739D01*
X54091Y213773D01*
X54103Y213803D01*
X54122Y213829D01*
X54149Y213916D01*
X54183Y214001D01*
X54187Y214042D01*
X54194Y214064D01*
X54193Y214097D01*
X54201Y214168D01*
X54201Y306684D01*
X55248Y307731D01*
X55301Y307805D01*
X55361Y307874D01*
X55373Y307904D01*
X55392Y307930D01*
X55419Y308017D01*
X55453Y308102D01*
X55457Y308143D01*
X55464Y308166D01*
X55463Y308198D01*
X55471Y308269D01*
X55471Y315229D01*
X55468Y315248D01*
X55470Y315268D01*
X55448Y315369D01*
X55432Y315471D01*
X55422Y315489D01*
X55418Y315508D01*
X55365Y315597D01*
X55316Y315689D01*
X55302Y315702D01*
X55292Y315719D01*
X55213Y315787D01*
X55138Y315858D01*
X55120Y315866D01*
X55105Y315879D01*
X55009Y315918D01*
X54915Y315962D01*
X54895Y315964D01*
X54877Y315971D01*
X54710Y315990D01*
X50643Y315990D01*
X49750Y316883D01*
X49750Y324117D01*
X50643Y325010D01*
X64889Y325010D01*
X65782Y324117D01*
X65782Y324056D01*
X65785Y324036D01*
X65783Y324017D01*
X65805Y323915D01*
X65821Y323813D01*
X65831Y323796D01*
X65835Y323776D01*
X65888Y323687D01*
X65937Y323596D01*
X65951Y323582D01*
X65961Y323565D01*
X66040Y323498D01*
X66115Y323426D01*
X66133Y323418D01*
X66148Y323405D01*
X66244Y323366D01*
X66338Y323323D01*
X66358Y323321D01*
X66376Y323313D01*
X66543Y323295D01*
X100944Y323295D01*
X100964Y323298D01*
X100983Y323296D01*
X101085Y323318D01*
X101187Y323334D01*
X101204Y323344D01*
X101224Y323348D01*
X101313Y323401D01*
X101404Y323450D01*
X101418Y323464D01*
X101435Y323474D01*
X101502Y323553D01*
X101574Y323628D01*
X101582Y323646D01*
X101595Y323661D01*
X101634Y323757D01*
X101677Y323851D01*
X101679Y323871D01*
X101687Y323889D01*
X101705Y324056D01*
X101705Y325214D01*
X101702Y325234D01*
X101704Y325253D01*
X101682Y325355D01*
X101666Y325457D01*
X101656Y325474D01*
X101652Y325494D01*
X101599Y325583D01*
X101550Y325674D01*
X101536Y325688D01*
X101526Y325705D01*
X101447Y325772D01*
X101372Y325844D01*
X101354Y325852D01*
X101339Y325865D01*
X101243Y325904D01*
X101149Y325947D01*
X101129Y325949D01*
X101111Y325957D01*
X100944Y325975D01*
X97368Y325975D01*
X96475Y326868D01*
X96475Y343132D01*
X97368Y344025D01*
X100944Y344025D01*
X100964Y344028D01*
X100983Y344026D01*
X101085Y344048D01*
X101187Y344064D01*
X101204Y344074D01*
X101224Y344078D01*
X101313Y344131D01*
X101404Y344180D01*
X101418Y344194D01*
X101435Y344204D01*
X101502Y344283D01*
X101574Y344358D01*
X101582Y344376D01*
X101595Y344391D01*
X101634Y344487D01*
X101677Y344581D01*
X101679Y344601D01*
X101687Y344619D01*
X101705Y344786D01*
X101705Y360214D01*
X101702Y360234D01*
X101704Y360253D01*
X101682Y360355D01*
X101666Y360457D01*
X101656Y360474D01*
X101652Y360494D01*
X101599Y360583D01*
X101550Y360674D01*
X101536Y360688D01*
X101526Y360705D01*
X101447Y360772D01*
X101372Y360844D01*
X101354Y360852D01*
X101339Y360865D01*
X101243Y360904D01*
X101149Y360947D01*
X101129Y360949D01*
X101111Y360957D01*
X100944Y360975D01*
X97368Y360975D01*
X96475Y361868D01*
X96475Y378132D01*
X97368Y379025D01*
X111632Y379025D01*
X112525Y378132D01*
X112525Y372556D01*
X112528Y372536D01*
X112526Y372517D01*
X112548Y372415D01*
X112564Y372313D01*
X112574Y372296D01*
X112578Y372276D01*
X112631Y372187D01*
X112680Y372096D01*
X112694Y372082D01*
X112704Y372065D01*
X112783Y371998D01*
X112858Y371926D01*
X112876Y371918D01*
X112891Y371905D01*
X112987Y371866D01*
X113081Y371823D01*
X113101Y371821D01*
X113119Y371813D01*
X113286Y371795D01*
X143023Y371795D01*
X143113Y371809D01*
X143204Y371817D01*
X143234Y371829D01*
X143266Y371834D01*
X143347Y371877D01*
X143430Y371913D01*
X143463Y371939D01*
X143483Y371950D01*
X143505Y371973D01*
X143561Y372018D01*
X144468Y372925D01*
X159338Y372925D01*
X159358Y372928D01*
X159377Y372926D01*
X159479Y372948D01*
X159581Y372964D01*
X159598Y372974D01*
X159618Y372978D01*
X159707Y373031D01*
X159798Y373080D01*
X159812Y373094D01*
X159829Y373104D01*
X159896Y373183D01*
X159968Y373258D01*
X159976Y373276D01*
X159989Y373291D01*
X160028Y373387D01*
X160071Y373481D01*
X160073Y373501D01*
X160081Y373519D01*
X160099Y373686D01*
X160099Y374114D01*
X160096Y374134D01*
X160098Y374153D01*
X160076Y374255D01*
X160060Y374357D01*
X160050Y374374D01*
X160046Y374394D01*
X159993Y374483D01*
X159944Y374574D01*
X159930Y374588D01*
X159920Y374605D01*
X159841Y374672D01*
X159766Y374744D01*
X159748Y374752D01*
X159733Y374765D01*
X159637Y374804D01*
X159543Y374847D01*
X159523Y374849D01*
X159505Y374857D01*
X159338Y374875D01*
X144468Y374875D01*
X143575Y375768D01*
X143575Y384032D01*
X144468Y384925D01*
X159338Y384925D01*
X159358Y384928D01*
X159377Y384926D01*
X159479Y384948D01*
X159581Y384964D01*
X159598Y384974D01*
X159618Y384978D01*
X159707Y385031D01*
X159798Y385080D01*
X159812Y385094D01*
X159829Y385104D01*
X159896Y385183D01*
X159968Y385258D01*
X159976Y385276D01*
X159989Y385291D01*
X160028Y385387D01*
X160071Y385481D01*
X160073Y385501D01*
X160081Y385519D01*
X160099Y385686D01*
X160099Y386114D01*
X160096Y386134D01*
X160098Y386153D01*
X160076Y386255D01*
X160060Y386357D01*
X160050Y386374D01*
X160046Y386394D01*
X159993Y386483D01*
X159944Y386574D01*
X159930Y386588D01*
X159920Y386605D01*
X159841Y386672D01*
X159766Y386744D01*
X159748Y386752D01*
X159733Y386765D01*
X159637Y386804D01*
X159543Y386847D01*
X159523Y386849D01*
X159505Y386857D01*
X159338Y386875D01*
X144468Y386875D01*
X143827Y387517D01*
X143811Y387528D01*
X143798Y387544D01*
X143724Y387591D01*
X143704Y387609D01*
X143692Y387614D01*
X143627Y387660D01*
X143608Y387666D01*
X143592Y387677D01*
X143491Y387702D01*
X143392Y387733D01*
X143372Y387732D01*
X143353Y387737D01*
X143250Y387729D01*
X143146Y387726D01*
X143128Y387719D01*
X143108Y387718D01*
X143013Y387677D01*
X142915Y387642D01*
X142900Y387629D01*
X142882Y387621D01*
X142814Y387568D01*
X142809Y387565D01*
X142802Y387558D01*
X142751Y387517D01*
X138947Y383713D01*
X133180Y383713D01*
X133090Y383699D01*
X132999Y383691D01*
X132969Y383679D01*
X132937Y383674D01*
X132856Y383631D01*
X132773Y383595D01*
X132740Y383569D01*
X132720Y383558D01*
X132698Y383535D01*
X132642Y383490D01*
X130095Y380943D01*
X125905Y380943D01*
X122943Y383905D01*
X122943Y388095D01*
X125905Y391057D01*
X130095Y391057D01*
X132642Y388510D01*
X132716Y388457D01*
X132785Y388397D01*
X132815Y388385D01*
X132841Y388366D01*
X132928Y388339D01*
X133013Y388305D01*
X133054Y388301D01*
X133076Y388294D01*
X133109Y388295D01*
X133180Y388287D01*
X136737Y388287D01*
X136828Y388301D01*
X136918Y388309D01*
X136948Y388321D01*
X136980Y388326D01*
X137061Y388369D01*
X137145Y388405D01*
X137177Y388431D01*
X137198Y388442D01*
X137220Y388465D01*
X137276Y388510D01*
X142053Y393287D01*
X142814Y393287D01*
X142834Y393290D01*
X142853Y393288D01*
X142955Y393310D01*
X143057Y393326D01*
X143074Y393336D01*
X143094Y393340D01*
X143183Y393393D01*
X143274Y393442D01*
X143288Y393456D01*
X143305Y393466D01*
X143372Y393545D01*
X143444Y393620D01*
X143452Y393638D01*
X143465Y393653D01*
X143504Y393749D01*
X143547Y393843D01*
X143549Y393863D01*
X143557Y393881D01*
X143575Y394048D01*
X143575Y396087D01*
X143577Y396089D01*
X143598Y396158D01*
X143628Y396223D01*
X143634Y396275D01*
X143649Y396324D01*
X143647Y396396D01*
X143655Y396467D01*
X143644Y396518D01*
X143643Y396570D01*
X143618Y396638D01*
X143603Y396708D01*
X143576Y396752D01*
X143559Y396801D01*
X143514Y396857D01*
X143477Y396919D01*
X143437Y396953D01*
X143405Y396993D01*
X143345Y397032D01*
X143290Y397079D01*
X143242Y397098D01*
X143198Y397126D01*
X143129Y397144D01*
X143062Y397171D01*
X142991Y397179D01*
X142960Y397187D01*
X142936Y397185D01*
X142895Y397189D01*
X67676Y397189D01*
X67674Y397189D01*
X67673Y397189D01*
X67552Y397169D01*
X67433Y397150D01*
X67432Y397149D01*
X67430Y397148D01*
X67322Y397091D01*
X67216Y397034D01*
X67215Y397033D01*
X67213Y397032D01*
X67129Y396943D01*
X67047Y396856D01*
X67046Y396854D01*
X67045Y396853D01*
X66967Y396705D01*
X63471Y387738D01*
X57280Y380175D01*
X49055Y374896D01*
X39602Y372416D01*
X34883Y372688D01*
X34867Y372686D01*
X34839Y372689D01*
X5572Y372689D01*
X5552Y372686D01*
X5533Y372688D01*
X5431Y372666D01*
X5329Y372650D01*
X5312Y372640D01*
X5292Y372636D01*
X5203Y372583D01*
X5112Y372534D01*
X5098Y372520D01*
X5081Y372510D01*
X5014Y372431D01*
X4942Y372356D01*
X4934Y372338D01*
X4921Y372323D01*
X4882Y372227D01*
X4839Y372133D01*
X4837Y372113D01*
X4829Y372095D01*
X4811Y371928D01*
X4811Y10000D01*
X4815Y9974D01*
X4814Y9925D01*
X4899Y9062D01*
X4907Y9034D01*
X4907Y9006D01*
X4954Y8845D01*
X5615Y7249D01*
X5650Y7193D01*
X5675Y7133D01*
X5727Y7068D01*
X5745Y7040D01*
X5760Y7027D01*
X5780Y7002D01*
X7002Y5780D01*
X7055Y5742D01*
X7102Y5696D01*
X7175Y5656D01*
X7201Y5636D01*
X7220Y5631D01*
X7249Y5615D01*
X8845Y4954D01*
X8872Y4947D01*
X8897Y4934D01*
X9061Y4899D01*
X9925Y4814D01*
X9952Y4816D01*
X10000Y4811D01*
X107690Y4811D01*
X107760Y4822D01*
G37*
G36*
X143195Y213548D02*
X143195Y213548D01*
X143214Y213546D01*
X143316Y213568D01*
X143418Y213584D01*
X143435Y213594D01*
X143455Y213598D01*
X143544Y213651D01*
X143635Y213700D01*
X143649Y213714D01*
X143666Y213724D01*
X143733Y213803D01*
X143805Y213878D01*
X143813Y213896D01*
X143826Y213911D01*
X143865Y214007D01*
X143908Y214101D01*
X143910Y214121D01*
X143918Y214139D01*
X143936Y214306D01*
X143936Y233702D01*
X143933Y233722D01*
X143935Y233741D01*
X143913Y233843D01*
X143897Y233945D01*
X143887Y233962D01*
X143883Y233982D01*
X143830Y234071D01*
X143781Y234162D01*
X143767Y234176D01*
X143757Y234193D01*
X143678Y234260D01*
X143603Y234332D01*
X143585Y234340D01*
X143570Y234353D01*
X143474Y234392D01*
X143380Y234435D01*
X143360Y234437D01*
X143342Y234445D01*
X143175Y234463D01*
X125405Y234463D01*
X115888Y243980D01*
X115888Y294817D01*
X115877Y294887D01*
X115875Y294959D01*
X115857Y295008D01*
X115849Y295059D01*
X115815Y295123D01*
X115790Y295190D01*
X115758Y295231D01*
X115733Y295277D01*
X115682Y295326D01*
X115637Y295382D01*
X115593Y295410D01*
X115555Y295446D01*
X115490Y295476D01*
X115430Y295515D01*
X115379Y295528D01*
X115332Y295550D01*
X115261Y295558D01*
X115191Y295575D01*
X115139Y295571D01*
X115088Y295577D01*
X115017Y295562D01*
X114946Y295556D01*
X114898Y295536D01*
X114847Y295525D01*
X114786Y295488D01*
X114720Y295460D01*
X114664Y295415D01*
X114636Y295398D01*
X114621Y295381D01*
X114589Y295355D01*
X104558Y285324D01*
X104516Y285266D01*
X104467Y285214D01*
X104445Y285167D01*
X104415Y285125D01*
X104394Y285056D01*
X104363Y284991D01*
X104358Y284939D01*
X104342Y284889D01*
X104344Y284818D01*
X104336Y284747D01*
X104347Y284696D01*
X104349Y284644D01*
X104373Y284576D01*
X104388Y284506D01*
X104415Y284462D01*
X104433Y284413D01*
X104478Y284357D01*
X104515Y284295D01*
X104554Y284261D01*
X104587Y284221D01*
X104647Y284182D01*
X104702Y284135D01*
X104750Y284116D01*
X104794Y284088D01*
X104863Y284070D01*
X104930Y284043D01*
X105001Y284035D01*
X105032Y284027D01*
X105056Y284029D01*
X105096Y284025D01*
X106632Y284025D01*
X107525Y283132D01*
X107525Y266868D01*
X106632Y265975D01*
X102548Y265975D01*
X102528Y265972D01*
X102509Y265974D01*
X102407Y265952D01*
X102305Y265936D01*
X102288Y265926D01*
X102268Y265922D01*
X102179Y265869D01*
X102088Y265820D01*
X102074Y265806D01*
X102057Y265796D01*
X101990Y265717D01*
X101918Y265642D01*
X101910Y265624D01*
X101897Y265609D01*
X101858Y265513D01*
X101815Y265419D01*
X101813Y265399D01*
X101805Y265381D01*
X101787Y265214D01*
X101787Y249786D01*
X101790Y249766D01*
X101788Y249747D01*
X101810Y249645D01*
X101826Y249543D01*
X101836Y249526D01*
X101840Y249506D01*
X101893Y249417D01*
X101942Y249326D01*
X101956Y249312D01*
X101966Y249295D01*
X102045Y249228D01*
X102120Y249156D01*
X102138Y249148D01*
X102153Y249135D01*
X102249Y249096D01*
X102343Y249053D01*
X102363Y249051D01*
X102381Y249043D01*
X102548Y249025D01*
X106632Y249025D01*
X107525Y248132D01*
X107525Y231868D01*
X106632Y230975D01*
X92368Y230975D01*
X91475Y231868D01*
X91475Y248132D01*
X92368Y249025D01*
X96452Y249025D01*
X96472Y249028D01*
X96491Y249026D01*
X96593Y249048D01*
X96695Y249064D01*
X96712Y249074D01*
X96732Y249078D01*
X96821Y249131D01*
X96912Y249180D01*
X96926Y249194D01*
X96943Y249204D01*
X97010Y249283D01*
X97082Y249358D01*
X97090Y249376D01*
X97103Y249391D01*
X97142Y249487D01*
X97185Y249581D01*
X97187Y249601D01*
X97195Y249619D01*
X97213Y249786D01*
X97213Y265214D01*
X97210Y265234D01*
X97212Y265253D01*
X97190Y265355D01*
X97174Y265457D01*
X97164Y265474D01*
X97160Y265494D01*
X97107Y265583D01*
X97058Y265674D01*
X97044Y265688D01*
X97034Y265705D01*
X96955Y265772D01*
X96880Y265844D01*
X96862Y265852D01*
X96847Y265865D01*
X96751Y265904D01*
X96657Y265947D01*
X96637Y265949D01*
X96619Y265957D01*
X96452Y265975D01*
X92368Y265975D01*
X91475Y266868D01*
X91475Y283132D01*
X92368Y284025D01*
X96411Y284025D01*
X96429Y284028D01*
X96448Y284026D01*
X96550Y284048D01*
X96654Y284064D01*
X96670Y284073D01*
X96688Y284077D01*
X96779Y284131D01*
X96871Y284180D01*
X96884Y284193D01*
X96900Y284202D01*
X97016Y284324D01*
X97265Y284650D01*
X97331Y284678D01*
X97410Y284702D01*
X97444Y284726D01*
X97482Y284742D01*
X97606Y284841D01*
X97611Y284845D01*
X97611Y284846D01*
X97613Y284847D01*
X125053Y312287D01*
X168237Y312287D01*
X168328Y312301D01*
X168418Y312309D01*
X168448Y312321D01*
X168480Y312326D01*
X168561Y312369D01*
X168645Y312405D01*
X168677Y312431D01*
X168698Y312442D01*
X168720Y312465D01*
X168776Y312510D01*
X173342Y317076D01*
X173384Y317134D01*
X173433Y317186D01*
X173455Y317233D01*
X173485Y317275D01*
X173506Y317344D01*
X173537Y317409D01*
X173542Y317461D01*
X173558Y317511D01*
X173556Y317582D01*
X173564Y317653D01*
X173553Y317704D01*
X173551Y317756D01*
X173527Y317824D01*
X173512Y317894D01*
X173485Y317939D01*
X173467Y317987D01*
X173422Y318043D01*
X173385Y318105D01*
X173346Y318139D01*
X173313Y318179D01*
X173253Y318218D01*
X173198Y318265D01*
X173150Y318284D01*
X173106Y318312D01*
X173037Y318330D01*
X172998Y318346D01*
X172075Y319268D01*
X172075Y335532D01*
X172968Y336425D01*
X181232Y336425D01*
X182125Y335532D01*
X182125Y319268D01*
X181232Y318375D01*
X180148Y318375D01*
X180128Y318372D01*
X180109Y318374D01*
X180007Y318352D01*
X179905Y318336D01*
X179888Y318326D01*
X179868Y318322D01*
X179779Y318269D01*
X179688Y318220D01*
X179674Y318206D01*
X179657Y318196D01*
X179590Y318117D01*
X179518Y318042D01*
X179510Y318024D01*
X179497Y318009D01*
X179458Y317913D01*
X179415Y317819D01*
X179413Y317799D01*
X179405Y317781D01*
X179387Y317614D01*
X179387Y316653D01*
X171109Y308375D01*
X171067Y308316D01*
X171017Y308264D01*
X170995Y308217D01*
X170965Y308175D01*
X170944Y308106D01*
X170914Y308041D01*
X170908Y307990D01*
X170893Y307940D01*
X170894Y307868D01*
X170887Y307797D01*
X170898Y307746D01*
X170899Y307694D01*
X170924Y307627D01*
X170939Y307557D01*
X170966Y307512D01*
X170983Y307463D01*
X171028Y307407D01*
X171065Y307345D01*
X171105Y307312D01*
X171137Y307271D01*
X171197Y307232D01*
X171252Y307185D01*
X171300Y307166D01*
X171344Y307138D01*
X171414Y307120D01*
X171480Y307094D01*
X171551Y307086D01*
X171583Y307078D01*
X171606Y307080D01*
X171647Y307075D01*
X189459Y307075D01*
X189549Y307090D01*
X189640Y307097D01*
X189670Y307110D01*
X189702Y307115D01*
X189782Y307158D01*
X189866Y307193D01*
X189898Y307219D01*
X189919Y307230D01*
X189941Y307253D01*
X189997Y307298D01*
X198590Y315891D01*
X198643Y315965D01*
X198703Y316035D01*
X198715Y316065D01*
X198734Y316091D01*
X198761Y316178D01*
X198795Y316263D01*
X198799Y316304D01*
X198806Y316326D01*
X198805Y316358D01*
X198813Y316429D01*
X198813Y317614D01*
X198810Y317634D01*
X198812Y317653D01*
X198790Y317755D01*
X198774Y317857D01*
X198764Y317874D01*
X198760Y317894D01*
X198707Y317983D01*
X198658Y318074D01*
X198644Y318088D01*
X198634Y318105D01*
X198555Y318172D01*
X198480Y318244D01*
X198462Y318252D01*
X198447Y318265D01*
X198351Y318304D01*
X198257Y318347D01*
X198237Y318349D01*
X198219Y318357D01*
X198052Y318375D01*
X196968Y318375D01*
X196075Y319268D01*
X196075Y335532D01*
X196968Y336425D01*
X205232Y336425D01*
X206125Y335532D01*
X206125Y319268D01*
X205232Y318375D01*
X204148Y318375D01*
X204128Y318372D01*
X204109Y318374D01*
X204007Y318352D01*
X203905Y318336D01*
X203888Y318326D01*
X203868Y318322D01*
X203779Y318269D01*
X203688Y318220D01*
X203674Y318206D01*
X203657Y318196D01*
X203590Y318117D01*
X203518Y318042D01*
X203510Y318024D01*
X203497Y318009D01*
X203458Y317913D01*
X203415Y317819D01*
X203413Y317799D01*
X203405Y317781D01*
X203387Y317614D01*
X203387Y314220D01*
X201824Y312657D01*
X192753Y303586D01*
X192711Y303528D01*
X192662Y303476D01*
X192640Y303429D01*
X192610Y303387D01*
X192589Y303318D01*
X192558Y303253D01*
X192553Y303201D01*
X192537Y303151D01*
X192539Y303080D01*
X192531Y303009D01*
X192542Y302958D01*
X192544Y302906D01*
X192568Y302838D01*
X192584Y302768D01*
X192610Y302723D01*
X192628Y302675D01*
X192673Y302619D01*
X192710Y302557D01*
X192749Y302523D01*
X192782Y302483D01*
X192842Y302444D01*
X192897Y302397D01*
X192945Y302378D01*
X192989Y302350D01*
X193058Y302332D01*
X193125Y302305D01*
X193196Y302297D01*
X193227Y302289D01*
X193251Y302291D01*
X193292Y302287D01*
X196737Y302287D01*
X196828Y302301D01*
X196918Y302309D01*
X196948Y302321D01*
X196980Y302326D01*
X197061Y302369D01*
X197145Y302405D01*
X197177Y302431D01*
X197198Y302442D01*
X197220Y302465D01*
X197276Y302510D01*
X210590Y315824D01*
X210643Y315898D01*
X210703Y315968D01*
X210715Y315998D01*
X210734Y316024D01*
X210761Y316111D01*
X210795Y316196D01*
X210799Y316237D01*
X210806Y316259D01*
X210805Y316291D01*
X210813Y316363D01*
X210813Y317614D01*
X210810Y317634D01*
X210812Y317653D01*
X210790Y317755D01*
X210774Y317857D01*
X210764Y317874D01*
X210760Y317894D01*
X210707Y317983D01*
X210658Y318074D01*
X210644Y318088D01*
X210634Y318105D01*
X210555Y318172D01*
X210480Y318244D01*
X210462Y318252D01*
X210447Y318265D01*
X210351Y318304D01*
X210257Y318347D01*
X210237Y318349D01*
X210219Y318357D01*
X210052Y318375D01*
X208968Y318375D01*
X208075Y319268D01*
X208075Y335532D01*
X208968Y336425D01*
X217232Y336425D01*
X218125Y335532D01*
X218125Y319268D01*
X217232Y318375D01*
X216148Y318375D01*
X216128Y318372D01*
X216109Y318374D01*
X216007Y318352D01*
X215905Y318336D01*
X215888Y318326D01*
X215868Y318322D01*
X215779Y318269D01*
X215688Y318220D01*
X215674Y318206D01*
X215657Y318196D01*
X215590Y318117D01*
X215518Y318042D01*
X215510Y318024D01*
X215497Y318009D01*
X215458Y317913D01*
X215415Y317819D01*
X215413Y317799D01*
X215405Y317781D01*
X215387Y317614D01*
X215387Y314153D01*
X198947Y297713D01*
X133763Y297713D01*
X133672Y297699D01*
X133582Y297691D01*
X133552Y297679D01*
X133520Y297674D01*
X133439Y297631D01*
X133355Y297595D01*
X133323Y297569D01*
X133302Y297558D01*
X133280Y297535D01*
X133224Y297490D01*
X125010Y289276D01*
X124965Y289213D01*
X124938Y289185D01*
X124933Y289174D01*
X124897Y289132D01*
X124885Y289102D01*
X124866Y289076D01*
X124839Y288989D01*
X124805Y288904D01*
X124801Y288863D01*
X124794Y288841D01*
X124795Y288809D01*
X124787Y288737D01*
X124787Y248763D01*
X124801Y248672D01*
X124809Y248582D01*
X124821Y248552D01*
X124826Y248520D01*
X124869Y248439D01*
X124905Y248355D01*
X124931Y248323D01*
X124942Y248302D01*
X124965Y248280D01*
X125010Y248224D01*
X128224Y245010D01*
X128298Y244957D01*
X128368Y244897D01*
X128398Y244885D01*
X128424Y244866D01*
X128511Y244839D01*
X128596Y244805D01*
X128637Y244801D01*
X128659Y244794D01*
X128691Y244795D01*
X128763Y244787D01*
X131224Y244787D01*
X131295Y244798D01*
X131367Y244800D01*
X131416Y244818D01*
X131467Y244826D01*
X131530Y244860D01*
X131598Y244885D01*
X131638Y244917D01*
X131684Y244942D01*
X131734Y244994D01*
X131790Y245038D01*
X131818Y245082D01*
X131854Y245120D01*
X131884Y245185D01*
X131923Y245245D01*
X131935Y245296D01*
X131957Y245343D01*
X131965Y245414D01*
X131983Y245484D01*
X131979Y245536D01*
X131984Y245587D01*
X131969Y245658D01*
X131964Y245729D01*
X131943Y245777D01*
X131932Y245828D01*
X131895Y245889D01*
X131867Y245955D01*
X131822Y246011D01*
X131806Y246039D01*
X131788Y246054D01*
X131762Y246086D01*
X129943Y247905D01*
X129943Y252095D01*
X132310Y254462D01*
X132322Y254478D01*
X132338Y254490D01*
X132394Y254578D01*
X132454Y254661D01*
X132460Y254680D01*
X132471Y254697D01*
X132496Y254798D01*
X132526Y254897D01*
X132526Y254916D01*
X132531Y254936D01*
X132523Y255039D01*
X132520Y255142D01*
X132513Y255161D01*
X132512Y255181D01*
X132471Y255276D01*
X132436Y255373D01*
X132423Y255389D01*
X132415Y255407D01*
X132310Y255538D01*
X129943Y257905D01*
X129943Y262095D01*
X132905Y265057D01*
X137259Y265057D01*
X137263Y265055D01*
X137304Y265051D01*
X137326Y265044D01*
X137359Y265045D01*
X137430Y265037D01*
X143175Y265037D01*
X143195Y265040D01*
X143214Y265038D01*
X143316Y265060D01*
X143418Y265076D01*
X143435Y265086D01*
X143455Y265090D01*
X143544Y265143D01*
X143635Y265192D01*
X143649Y265206D01*
X143666Y265216D01*
X143733Y265295D01*
X143805Y265370D01*
X143813Y265388D01*
X143826Y265403D01*
X143865Y265499D01*
X143908Y265593D01*
X143910Y265613D01*
X143918Y265631D01*
X143936Y265798D01*
X143936Y272258D01*
X144829Y273151D01*
X163113Y273151D01*
X164006Y272258D01*
X164006Y252798D01*
X164009Y252778D01*
X164007Y252759D01*
X164029Y252657D01*
X164045Y252555D01*
X164055Y252538D01*
X164059Y252518D01*
X164112Y252429D01*
X164161Y252338D01*
X164175Y252324D01*
X164185Y252307D01*
X164264Y252240D01*
X164339Y252168D01*
X164357Y252160D01*
X164372Y252147D01*
X164468Y252108D01*
X164562Y252065D01*
X164582Y252063D01*
X164600Y252055D01*
X164767Y252037D01*
X165328Y252037D01*
X165418Y252051D01*
X165509Y252059D01*
X165538Y252071D01*
X165570Y252076D01*
X165651Y252119D01*
X165735Y252155D01*
X165767Y252181D01*
X165788Y252192D01*
X165810Y252215D01*
X165866Y252260D01*
X222590Y308984D01*
X222643Y309058D01*
X222703Y309128D01*
X222715Y309158D01*
X222734Y309184D01*
X222761Y309271D01*
X222795Y309356D01*
X222799Y309397D01*
X222806Y309419D01*
X222805Y309451D01*
X222813Y309522D01*
X222813Y317614D01*
X222810Y317634D01*
X222812Y317653D01*
X222790Y317755D01*
X222774Y317857D01*
X222764Y317874D01*
X222760Y317894D01*
X222707Y317983D01*
X222658Y318074D01*
X222644Y318088D01*
X222634Y318105D01*
X222555Y318172D01*
X222480Y318244D01*
X222462Y318252D01*
X222447Y318265D01*
X222351Y318304D01*
X222257Y318347D01*
X222237Y318349D01*
X222219Y318357D01*
X222052Y318375D01*
X220968Y318375D01*
X220075Y319268D01*
X220075Y335532D01*
X220968Y336425D01*
X229232Y336425D01*
X230125Y335532D01*
X230125Y319268D01*
X229232Y318375D01*
X228148Y318375D01*
X228128Y318372D01*
X228109Y318374D01*
X228007Y318352D01*
X227905Y318336D01*
X227888Y318326D01*
X227868Y318322D01*
X227779Y318269D01*
X227688Y318220D01*
X227674Y318206D01*
X227657Y318196D01*
X227590Y318117D01*
X227518Y318042D01*
X227510Y318024D01*
X227497Y318009D01*
X227458Y317913D01*
X227415Y317819D01*
X227413Y317799D01*
X227405Y317781D01*
X227387Y317614D01*
X227387Y307313D01*
X225824Y305750D01*
X198660Y278586D01*
X198618Y278528D01*
X198569Y278476D01*
X198547Y278429D01*
X198517Y278387D01*
X198496Y278318D01*
X198465Y278253D01*
X198460Y278201D01*
X198444Y278151D01*
X198446Y278080D01*
X198438Y278009D01*
X198449Y277958D01*
X198451Y277906D01*
X198475Y277838D01*
X198491Y277768D01*
X198517Y277723D01*
X198535Y277675D01*
X198580Y277619D01*
X198617Y277557D01*
X198656Y277523D01*
X198689Y277483D01*
X198749Y277444D01*
X198804Y277397D01*
X198852Y277378D01*
X198896Y277350D01*
X198965Y277332D01*
X199032Y277305D01*
X199103Y277297D01*
X199134Y277289D01*
X199158Y277291D01*
X199199Y277287D01*
X248447Y277287D01*
X272866Y252868D01*
X272940Y252815D01*
X273010Y252755D01*
X273040Y252743D01*
X273066Y252724D01*
X273153Y252697D01*
X273238Y252663D01*
X273279Y252659D01*
X273301Y252652D01*
X273333Y252653D01*
X273405Y252645D01*
X280788Y252645D01*
X283890Y249543D01*
X283948Y249501D01*
X284000Y249452D01*
X284047Y249430D01*
X284089Y249399D01*
X284158Y249378D01*
X284223Y249348D01*
X284275Y249342D01*
X284325Y249327D01*
X284396Y249329D01*
X284467Y249321D01*
X284518Y249332D01*
X284570Y249333D01*
X284638Y249358D01*
X284708Y249373D01*
X284753Y249400D01*
X284801Y249418D01*
X284857Y249463D01*
X284919Y249499D01*
X284953Y249539D01*
X284993Y249571D01*
X285032Y249632D01*
X285079Y249686D01*
X285098Y249735D01*
X285126Y249778D01*
X285144Y249848D01*
X285171Y249914D01*
X285179Y249986D01*
X285187Y250017D01*
X285185Y250040D01*
X285189Y250081D01*
X285189Y396428D01*
X285186Y396448D01*
X285188Y396467D01*
X285166Y396569D01*
X285150Y396671D01*
X285140Y396688D01*
X285136Y396708D01*
X285083Y396797D01*
X285034Y396888D01*
X285020Y396902D01*
X285010Y396919D01*
X284931Y396986D01*
X284856Y397058D01*
X284838Y397066D01*
X284823Y397079D01*
X284727Y397118D01*
X284633Y397161D01*
X284613Y397163D01*
X284595Y397171D01*
X284428Y397189D01*
X247305Y397189D01*
X247234Y397178D01*
X247162Y397176D01*
X247113Y397158D01*
X247062Y397150D01*
X246999Y397116D01*
X246931Y397091D01*
X246891Y397059D01*
X246845Y397034D01*
X246795Y396982D01*
X246739Y396938D01*
X246711Y396894D01*
X246675Y396856D01*
X246645Y396791D01*
X246606Y396731D01*
X246594Y396680D01*
X246572Y396633D01*
X246564Y396562D01*
X246546Y396492D01*
X246550Y396440D01*
X246545Y396389D01*
X246560Y396318D01*
X246565Y396247D01*
X246586Y396199D01*
X246597Y396148D01*
X246625Y396102D01*
X246625Y387768D01*
X245859Y387002D01*
X245790Y386906D01*
X245719Y386810D01*
X245717Y386806D01*
X245715Y386803D01*
X245680Y386690D01*
X245644Y386576D01*
X245644Y386571D01*
X245643Y386567D01*
X245646Y386449D01*
X245648Y386330D01*
X245649Y386326D01*
X245649Y386322D01*
X245690Y386209D01*
X245730Y386098D01*
X245732Y386095D01*
X245734Y386091D01*
X245808Y385997D01*
X245881Y385904D01*
X245885Y385901D01*
X245887Y385899D01*
X245899Y385891D01*
X246016Y385805D01*
X246660Y385433D01*
X247133Y384960D01*
X247468Y384381D01*
X247641Y383734D01*
X247641Y381423D01*
X238362Y381423D01*
X238342Y381420D01*
X238323Y381422D01*
X238221Y381400D01*
X238119Y381383D01*
X238102Y381374D01*
X238082Y381370D01*
X237993Y381317D01*
X237902Y381268D01*
X237888Y381254D01*
X237871Y381244D01*
X237804Y381165D01*
X237733Y381090D01*
X237724Y381072D01*
X237711Y381057D01*
X237672Y380961D01*
X237629Y380867D01*
X237627Y380847D01*
X237619Y380829D01*
X237601Y380662D01*
X237601Y379138D01*
X237604Y379118D01*
X237602Y379099D01*
X237624Y378997D01*
X237641Y378895D01*
X237650Y378878D01*
X237654Y378858D01*
X237707Y378769D01*
X237756Y378678D01*
X237770Y378664D01*
X237780Y378647D01*
X237859Y378580D01*
X237934Y378509D01*
X237952Y378500D01*
X237967Y378487D01*
X238063Y378448D01*
X238157Y378405D01*
X238177Y378403D01*
X238195Y378395D01*
X238362Y378377D01*
X247641Y378377D01*
X247641Y376065D01*
X247468Y375419D01*
X247133Y374840D01*
X246660Y374367D01*
X246016Y373995D01*
X245924Y373920D01*
X245831Y373846D01*
X245829Y373842D01*
X245826Y373839D01*
X245763Y373739D01*
X245698Y373639D01*
X245697Y373635D01*
X245695Y373631D01*
X245668Y373516D01*
X245638Y373400D01*
X245639Y373396D01*
X245638Y373392D01*
X245648Y373273D01*
X245657Y373155D01*
X245659Y373151D01*
X245659Y373147D01*
X245708Y373037D01*
X245754Y372929D01*
X245757Y372925D01*
X245758Y372922D01*
X245768Y372911D01*
X245859Y372798D01*
X246625Y372032D01*
X246625Y363768D01*
X245732Y362875D01*
X229468Y362875D01*
X228575Y363768D01*
X228575Y370638D01*
X228572Y370658D01*
X228574Y370677D01*
X228552Y370779D01*
X228536Y370881D01*
X228526Y370898D01*
X228522Y370918D01*
X228469Y371007D01*
X228420Y371098D01*
X228406Y371112D01*
X228396Y371129D01*
X228317Y371196D01*
X228242Y371268D01*
X228224Y371276D01*
X228209Y371289D01*
X228113Y371328D01*
X228019Y371371D01*
X227999Y371373D01*
X227981Y371381D01*
X227814Y371399D01*
X210600Y371399D01*
X210599Y371400D01*
X210599Y396428D01*
X210596Y396448D01*
X210598Y396467D01*
X210576Y396569D01*
X210560Y396671D01*
X210550Y396688D01*
X210546Y396708D01*
X210493Y396797D01*
X210444Y396888D01*
X210430Y396902D01*
X210420Y396919D01*
X210341Y396986D01*
X210266Y397058D01*
X210248Y397066D01*
X210233Y397079D01*
X210137Y397118D01*
X210043Y397161D01*
X210023Y397163D01*
X210005Y397171D01*
X209838Y397189D01*
X162305Y397189D01*
X162234Y397178D01*
X162162Y397176D01*
X162113Y397158D01*
X162062Y397150D01*
X161999Y397116D01*
X161931Y397091D01*
X161891Y397059D01*
X161845Y397034D01*
X161795Y396982D01*
X161739Y396938D01*
X161711Y396894D01*
X161675Y396856D01*
X161645Y396791D01*
X161606Y396731D01*
X161594Y396680D01*
X161572Y396633D01*
X161564Y396562D01*
X161546Y396492D01*
X161550Y396440D01*
X161545Y396389D01*
X161560Y396318D01*
X161565Y396247D01*
X161586Y396199D01*
X161597Y396148D01*
X161634Y396087D01*
X161648Y396021D01*
X161664Y395919D01*
X161674Y395902D01*
X161678Y395882D01*
X161731Y395793D01*
X161780Y395702D01*
X161794Y395688D01*
X161804Y395671D01*
X161883Y395604D01*
X161958Y395532D01*
X161976Y395524D01*
X161991Y395511D01*
X162087Y395472D01*
X162181Y395429D01*
X162201Y395427D01*
X162219Y395419D01*
X162386Y395401D01*
X197600Y395401D01*
X197601Y395400D01*
X197601Y340400D01*
X197600Y340399D01*
X162386Y340399D01*
X162366Y340396D01*
X162347Y340398D01*
X162245Y340376D01*
X162143Y340360D01*
X162126Y340350D01*
X162106Y340346D01*
X162017Y340293D01*
X161926Y340244D01*
X161912Y340230D01*
X161895Y340220D01*
X161828Y340141D01*
X161756Y340066D01*
X161748Y340048D01*
X161735Y340033D01*
X161696Y339937D01*
X161653Y339843D01*
X161651Y339823D01*
X161643Y339805D01*
X161641Y339785D01*
X160732Y338875D01*
X144468Y338875D01*
X143575Y339768D01*
X143575Y348032D01*
X144341Y348798D01*
X144410Y348893D01*
X144481Y348990D01*
X144483Y348994D01*
X144485Y348997D01*
X144520Y349110D01*
X144556Y349224D01*
X144556Y349229D01*
X144557Y349233D01*
X144554Y349351D01*
X144552Y349470D01*
X144551Y349474D01*
X144551Y349478D01*
X144510Y349590D01*
X144471Y349702D01*
X144468Y349706D01*
X144467Y349709D01*
X144393Y349802D01*
X144319Y349896D01*
X144315Y349899D01*
X144313Y349901D01*
X144301Y349909D01*
X144184Y349995D01*
X143540Y350367D01*
X143067Y350840D01*
X142732Y351419D01*
X142559Y352066D01*
X142559Y354377D01*
X151838Y354377D01*
X151858Y354380D01*
X151877Y354378D01*
X151979Y354400D01*
X152081Y354417D01*
X152098Y354426D01*
X152118Y354430D01*
X152207Y354483D01*
X152298Y354532D01*
X152312Y354546D01*
X152329Y354556D01*
X152396Y354635D01*
X152467Y354710D01*
X152476Y354728D01*
X152489Y354743D01*
X152528Y354839D01*
X152571Y354933D01*
X152573Y354953D01*
X152581Y354971D01*
X152599Y355138D01*
X152599Y356662D01*
X152596Y356682D01*
X152598Y356701D01*
X152576Y356803D01*
X152559Y356905D01*
X152550Y356922D01*
X152546Y356942D01*
X152493Y357031D01*
X152444Y357122D01*
X152430Y357136D01*
X152420Y357153D01*
X152341Y357220D01*
X152266Y357291D01*
X152248Y357300D01*
X152233Y357313D01*
X152137Y357352D01*
X152043Y357395D01*
X152023Y357397D01*
X152005Y357405D01*
X151838Y357423D01*
X142559Y357423D01*
X142559Y359734D01*
X142732Y360381D01*
X143067Y360960D01*
X143540Y361433D01*
X144184Y361805D01*
X144276Y361880D01*
X144369Y361954D01*
X144371Y361958D01*
X144374Y361961D01*
X144436Y362059D01*
X144502Y362161D01*
X144503Y362165D01*
X144505Y362169D01*
X144533Y362284D01*
X144562Y362400D01*
X144561Y362404D01*
X144562Y362408D01*
X144552Y362527D01*
X144543Y362645D01*
X144541Y362649D01*
X144541Y362653D01*
X144493Y362762D01*
X144446Y362871D01*
X144443Y362875D01*
X144442Y362878D01*
X144433Y362888D01*
X144341Y363002D01*
X143575Y363768D01*
X143575Y365444D01*
X143572Y365464D01*
X143574Y365483D01*
X143552Y365585D01*
X143536Y365687D01*
X143526Y365704D01*
X143522Y365724D01*
X143469Y365813D01*
X143420Y365904D01*
X143406Y365918D01*
X143396Y365935D01*
X143317Y366002D01*
X143242Y366074D01*
X143224Y366082D01*
X143209Y366095D01*
X143113Y366134D01*
X143019Y366177D01*
X142999Y366179D01*
X142981Y366187D01*
X142814Y366205D01*
X113286Y366205D01*
X113266Y366202D01*
X113247Y366204D01*
X113145Y366182D01*
X113043Y366166D01*
X113026Y366156D01*
X113006Y366152D01*
X112917Y366099D01*
X112826Y366050D01*
X112812Y366036D01*
X112795Y366026D01*
X112728Y365947D01*
X112656Y365872D01*
X112648Y365854D01*
X112635Y365839D01*
X112596Y365743D01*
X112553Y365649D01*
X112551Y365629D01*
X112543Y365611D01*
X112525Y365444D01*
X112525Y361868D01*
X111632Y360975D01*
X108056Y360975D01*
X108036Y360972D01*
X108017Y360974D01*
X107915Y360952D01*
X107813Y360936D01*
X107796Y360926D01*
X107776Y360922D01*
X107687Y360869D01*
X107596Y360820D01*
X107582Y360806D01*
X107565Y360796D01*
X107498Y360717D01*
X107426Y360642D01*
X107418Y360624D01*
X107405Y360609D01*
X107366Y360513D01*
X107323Y360419D01*
X107321Y360399D01*
X107313Y360381D01*
X107295Y360214D01*
X107295Y344786D01*
X107298Y344766D01*
X107296Y344747D01*
X107318Y344645D01*
X107334Y344543D01*
X107344Y344526D01*
X107348Y344506D01*
X107401Y344417D01*
X107450Y344326D01*
X107464Y344312D01*
X107474Y344295D01*
X107553Y344228D01*
X107628Y344156D01*
X107646Y344148D01*
X107661Y344135D01*
X107757Y344096D01*
X107851Y344053D01*
X107871Y344051D01*
X107889Y344043D01*
X108056Y344025D01*
X111632Y344025D01*
X112525Y343132D01*
X112525Y326868D01*
X111632Y325975D01*
X108056Y325975D01*
X108036Y325972D01*
X108017Y325974D01*
X107915Y325952D01*
X107813Y325936D01*
X107796Y325926D01*
X107776Y325922D01*
X107687Y325869D01*
X107596Y325820D01*
X107582Y325806D01*
X107565Y325796D01*
X107498Y325717D01*
X107426Y325642D01*
X107418Y325624D01*
X107405Y325609D01*
X107366Y325513D01*
X107323Y325419D01*
X107321Y325399D01*
X107313Y325381D01*
X107295Y325214D01*
X107295Y320342D01*
X104658Y317705D01*
X66543Y317705D01*
X66523Y317702D01*
X66504Y317704D01*
X66402Y317682D01*
X66300Y317666D01*
X66283Y317656D01*
X66263Y317652D01*
X66174Y317599D01*
X66083Y317550D01*
X66069Y317536D01*
X66052Y317526D01*
X65985Y317447D01*
X65913Y317372D01*
X65905Y317354D01*
X65892Y317339D01*
X65853Y317243D01*
X65810Y317149D01*
X65808Y317129D01*
X65800Y317111D01*
X65782Y316944D01*
X65782Y316883D01*
X64889Y315990D01*
X61822Y315990D01*
X61802Y315987D01*
X61783Y315989D01*
X61681Y315967D01*
X61579Y315950D01*
X61562Y315941D01*
X61542Y315936D01*
X61453Y315883D01*
X61362Y315835D01*
X61348Y315821D01*
X61331Y315810D01*
X61264Y315732D01*
X61192Y315657D01*
X61184Y315639D01*
X61171Y315623D01*
X61132Y315527D01*
X61089Y315434D01*
X61087Y315414D01*
X61079Y315395D01*
X61061Y315229D01*
X61061Y308269D01*
X61075Y308179D01*
X61083Y308088D01*
X61095Y308058D01*
X61100Y308026D01*
X61143Y307946D01*
X61179Y307862D01*
X61205Y307830D01*
X61216Y307809D01*
X61239Y307787D01*
X61284Y307731D01*
X62331Y306684D01*
X62331Y243048D01*
X62334Y243028D01*
X62332Y243009D01*
X62354Y242907D01*
X62370Y242805D01*
X62380Y242788D01*
X62384Y242768D01*
X62437Y242679D01*
X62486Y242588D01*
X62500Y242574D01*
X62510Y242557D01*
X62589Y242490D01*
X62664Y242418D01*
X62682Y242410D01*
X62697Y242397D01*
X62793Y242358D01*
X62887Y242315D01*
X62907Y242313D01*
X62925Y242305D01*
X63092Y242287D01*
X71714Y242287D01*
X71734Y242290D01*
X71753Y242288D01*
X71855Y242310D01*
X71957Y242326D01*
X71974Y242336D01*
X71994Y242340D01*
X72083Y242393D01*
X72174Y242442D01*
X72188Y242456D01*
X72205Y242466D01*
X72272Y242545D01*
X72344Y242620D01*
X72352Y242638D01*
X72365Y242653D01*
X72404Y242749D01*
X72447Y242843D01*
X72449Y242863D01*
X72457Y242881D01*
X72475Y243048D01*
X72475Y248132D01*
X73368Y249025D01*
X87632Y249025D01*
X88525Y248132D01*
X88525Y231868D01*
X87632Y230975D01*
X73368Y230975D01*
X72475Y231868D01*
X72475Y236952D01*
X72472Y236972D01*
X72474Y236991D01*
X72452Y237093D01*
X72436Y237195D01*
X72426Y237212D01*
X72422Y237232D01*
X72369Y237321D01*
X72320Y237412D01*
X72306Y237426D01*
X72296Y237443D01*
X72217Y237510D01*
X72142Y237582D01*
X72124Y237590D01*
X72109Y237603D01*
X72013Y237642D01*
X71919Y237685D01*
X71899Y237687D01*
X71881Y237695D01*
X71714Y237713D01*
X63092Y237713D01*
X63072Y237710D01*
X63053Y237712D01*
X62951Y237690D01*
X62849Y237674D01*
X62832Y237664D01*
X62812Y237660D01*
X62723Y237607D01*
X62632Y237558D01*
X62618Y237544D01*
X62601Y237534D01*
X62534Y237455D01*
X62462Y237380D01*
X62454Y237362D01*
X62441Y237347D01*
X62402Y237251D01*
X62359Y237157D01*
X62357Y237137D01*
X62349Y237119D01*
X62331Y236952D01*
X62331Y214306D01*
X62334Y214286D01*
X62332Y214267D01*
X62354Y214165D01*
X62370Y214063D01*
X62380Y214046D01*
X62384Y214026D01*
X62437Y213937D01*
X62486Y213846D01*
X62500Y213832D01*
X62510Y213815D01*
X62589Y213748D01*
X62664Y213676D01*
X62682Y213668D01*
X62697Y213655D01*
X62793Y213616D01*
X62887Y213573D01*
X62907Y213571D01*
X62925Y213563D01*
X63092Y213545D01*
X143175Y213545D01*
X143195Y213548D01*
G37*
G36*
X218191Y89079D02*
X218191Y89079D01*
X218282Y89087D01*
X218312Y89099D01*
X218344Y89104D01*
X218424Y89147D01*
X218508Y89183D01*
X218540Y89209D01*
X218561Y89220D01*
X218583Y89243D01*
X218639Y89288D01*
X233011Y103660D01*
X233053Y103718D01*
X233103Y103770D01*
X233125Y103817D01*
X233155Y103859D01*
X233176Y103928D01*
X233206Y103993D01*
X233212Y104045D01*
X233227Y104095D01*
X233225Y104166D01*
X233233Y104237D01*
X233222Y104288D01*
X233221Y104340D01*
X233196Y104408D01*
X233181Y104478D01*
X233154Y104523D01*
X233136Y104571D01*
X233092Y104627D01*
X233055Y104689D01*
X233015Y104723D01*
X232983Y104763D01*
X232922Y104802D01*
X232868Y104849D01*
X232820Y104868D01*
X232776Y104896D01*
X232706Y104914D01*
X232640Y104941D01*
X232568Y104949D01*
X232537Y104957D01*
X232514Y104955D01*
X232473Y104959D01*
X231023Y104959D01*
X231023Y113477D01*
X238541Y113477D01*
X238541Y111027D01*
X238552Y110956D01*
X238554Y110884D01*
X238572Y110836D01*
X238580Y110784D01*
X238614Y110721D01*
X238639Y110653D01*
X238671Y110613D01*
X238696Y110567D01*
X238748Y110517D01*
X238792Y110461D01*
X238836Y110433D01*
X238874Y110397D01*
X238939Y110367D01*
X238999Y110328D01*
X239050Y110316D01*
X239097Y110294D01*
X239168Y110286D01*
X239238Y110268D01*
X239290Y110272D01*
X239341Y110267D01*
X239412Y110282D01*
X239483Y110288D01*
X239531Y110308D01*
X239582Y110319D01*
X239643Y110356D01*
X239709Y110384D01*
X239765Y110429D01*
X239793Y110445D01*
X239808Y110463D01*
X239840Y110489D01*
X267632Y138281D01*
X267678Y138345D01*
X267695Y138363D01*
X267699Y138370D01*
X267745Y138424D01*
X267757Y138454D01*
X267776Y138480D01*
X267803Y138567D01*
X267837Y138652D01*
X267841Y138693D01*
X267848Y138716D01*
X267847Y138748D01*
X267855Y138819D01*
X267855Y145688D01*
X273212Y151045D01*
X280788Y151045D01*
X283890Y147943D01*
X283948Y147901D01*
X284000Y147852D01*
X284047Y147830D01*
X284089Y147799D01*
X284158Y147778D01*
X284223Y147748D01*
X284275Y147742D01*
X284325Y147727D01*
X284396Y147729D01*
X284467Y147721D01*
X284518Y147732D01*
X284570Y147733D01*
X284638Y147758D01*
X284708Y147773D01*
X284753Y147800D01*
X284801Y147818D01*
X284857Y147863D01*
X284919Y147899D01*
X284953Y147939D01*
X284993Y147971D01*
X285032Y148032D01*
X285079Y148086D01*
X285098Y148135D01*
X285126Y148178D01*
X285144Y148248D01*
X285171Y148314D01*
X285179Y148386D01*
X285187Y148417D01*
X285185Y148440D01*
X285189Y148481D01*
X285189Y159282D01*
X285178Y159353D01*
X285176Y159424D01*
X285158Y159473D01*
X285150Y159525D01*
X285116Y159588D01*
X285091Y159655D01*
X285059Y159696D01*
X285034Y159742D01*
X284982Y159792D01*
X284938Y159848D01*
X284894Y159876D01*
X284856Y159912D01*
X284791Y159942D01*
X284731Y159981D01*
X284680Y159993D01*
X284633Y160015D01*
X284562Y160023D01*
X284492Y160041D01*
X284440Y160037D01*
X284389Y160042D01*
X284318Y160027D01*
X284247Y160021D01*
X284199Y160001D01*
X284148Y159990D01*
X284087Y159953D01*
X284021Y159925D01*
X283965Y159880D01*
X283937Y159864D01*
X283922Y159846D01*
X283890Y159820D01*
X281209Y157139D01*
X278523Y157139D01*
X278523Y166538D01*
X278520Y166558D01*
X278522Y166577D01*
X278500Y166679D01*
X278483Y166781D01*
X278474Y166798D01*
X278470Y166818D01*
X278417Y166907D01*
X278368Y166998D01*
X278354Y167012D01*
X278344Y167029D01*
X278265Y167096D01*
X278190Y167167D01*
X278172Y167176D01*
X278157Y167189D01*
X278061Y167227D01*
X277967Y167271D01*
X277947Y167273D01*
X277929Y167281D01*
X277762Y167299D01*
X276999Y167299D01*
X276999Y167301D01*
X277762Y167301D01*
X277782Y167304D01*
X277801Y167302D01*
X277903Y167324D01*
X278005Y167341D01*
X278022Y167350D01*
X278042Y167354D01*
X278131Y167407D01*
X278222Y167456D01*
X278236Y167470D01*
X278253Y167480D01*
X278320Y167559D01*
X278391Y167634D01*
X278400Y167652D01*
X278413Y167667D01*
X278452Y167763D01*
X278495Y167857D01*
X278497Y167877D01*
X278505Y167895D01*
X278523Y168062D01*
X278523Y177461D01*
X281209Y177461D01*
X283890Y174780D01*
X283948Y174738D01*
X284000Y174688D01*
X284047Y174667D01*
X284089Y174636D01*
X284158Y174615D01*
X284223Y174585D01*
X284275Y174579D01*
X284325Y174564D01*
X284396Y174566D01*
X284467Y174558D01*
X284518Y174569D01*
X284570Y174570D01*
X284638Y174595D01*
X284708Y174610D01*
X284753Y174637D01*
X284801Y174655D01*
X284857Y174699D01*
X284919Y174736D01*
X284953Y174776D01*
X284993Y174808D01*
X285032Y174869D01*
X285079Y174923D01*
X285098Y174971D01*
X285126Y175015D01*
X285144Y175085D01*
X285156Y175116D01*
X285161Y175126D01*
X285161Y175128D01*
X285171Y175151D01*
X285179Y175223D01*
X285187Y175254D01*
X285185Y175277D01*
X285189Y175318D01*
X285189Y186119D01*
X285178Y186190D01*
X285176Y186261D01*
X285158Y186310D01*
X285150Y186362D01*
X285116Y186425D01*
X285091Y186492D01*
X285059Y186533D01*
X285034Y186579D01*
X284982Y186628D01*
X284938Y186684D01*
X284894Y186713D01*
X284856Y186748D01*
X284791Y186779D01*
X284731Y186817D01*
X284680Y186830D01*
X284633Y186852D01*
X284562Y186860D01*
X284492Y186877D01*
X284440Y186873D01*
X284389Y186879D01*
X284318Y186864D01*
X284247Y186858D01*
X284199Y186838D01*
X284148Y186827D01*
X284087Y186790D01*
X284021Y186762D01*
X283965Y186717D01*
X283937Y186701D01*
X283922Y186683D01*
X283890Y186657D01*
X280788Y183555D01*
X273212Y183555D01*
X267855Y188912D01*
X267855Y189652D01*
X267852Y189672D01*
X267854Y189691D01*
X267832Y189793D01*
X267816Y189895D01*
X267806Y189912D01*
X267802Y189932D01*
X267749Y190021D01*
X267700Y190112D01*
X267686Y190126D01*
X267676Y190143D01*
X267597Y190210D01*
X267522Y190282D01*
X267504Y190290D01*
X267489Y190303D01*
X267393Y190342D01*
X267299Y190385D01*
X267279Y190387D01*
X267261Y190395D01*
X267094Y190413D01*
X265427Y190413D01*
X241100Y214740D01*
X241026Y214793D01*
X240957Y214853D01*
X240927Y214865D01*
X240901Y214884D01*
X240814Y214911D01*
X240729Y214945D01*
X240688Y214949D01*
X240666Y214956D01*
X240633Y214955D01*
X240562Y214963D01*
X237669Y214963D01*
X237553Y214944D01*
X237434Y214926D01*
X237430Y214924D01*
X237426Y214924D01*
X237322Y214868D01*
X237216Y214813D01*
X237213Y214810D01*
X237209Y214808D01*
X237127Y214722D01*
X237044Y214637D01*
X237043Y214633D01*
X237040Y214630D01*
X236989Y214522D01*
X236938Y214415D01*
X236938Y214411D01*
X236936Y214407D01*
X236923Y214289D01*
X236909Y214171D01*
X236909Y214166D01*
X236909Y214163D01*
X236912Y214149D01*
X236934Y214005D01*
X237080Y213460D01*
X237080Y211937D01*
X226455Y211937D01*
X226436Y211934D01*
X226416Y211936D01*
X226314Y211914D01*
X226212Y211898D01*
X226195Y211888D01*
X226175Y211884D01*
X226086Y211831D01*
X226034Y211803D01*
X226031Y211806D01*
X226013Y211814D01*
X225998Y211827D01*
X225901Y211866D01*
X225808Y211909D01*
X225788Y211911D01*
X225770Y211919D01*
X225603Y211937D01*
X214978Y211937D01*
X214978Y213460D01*
X215151Y214107D01*
X215486Y214686D01*
X215771Y214971D01*
X215824Y215045D01*
X215884Y215115D01*
X215896Y215145D01*
X215915Y215171D01*
X215942Y215258D01*
X215976Y215343D01*
X215980Y215384D01*
X215987Y215406D01*
X215986Y215438D01*
X215994Y215510D01*
X215994Y231762D01*
X215983Y231833D01*
X215981Y231905D01*
X215963Y231954D01*
X215955Y232005D01*
X215921Y232069D01*
X215896Y232136D01*
X215864Y232177D01*
X215839Y232223D01*
X215787Y232272D01*
X215743Y232328D01*
X215699Y232356D01*
X215661Y232392D01*
X215596Y232422D01*
X215536Y232461D01*
X215485Y232474D01*
X215438Y232496D01*
X215367Y232503D01*
X215297Y232521D01*
X215245Y232517D01*
X215194Y232523D01*
X215123Y232507D01*
X215052Y232502D01*
X215004Y232481D01*
X214953Y232470D01*
X214892Y232434D01*
X214826Y232406D01*
X214770Y232361D01*
X214742Y232344D01*
X214727Y232326D01*
X214695Y232301D01*
X210010Y227616D01*
X209965Y227554D01*
X209937Y227524D01*
X209932Y227512D01*
X209897Y227472D01*
X209885Y227442D01*
X209866Y227416D01*
X209839Y227329D01*
X209805Y227244D01*
X209801Y227203D01*
X209794Y227181D01*
X209795Y227149D01*
X209787Y227077D01*
X209787Y191553D01*
X197510Y179276D01*
X197457Y179202D01*
X197397Y179132D01*
X197385Y179102D01*
X197366Y179076D01*
X197339Y178989D01*
X197305Y178904D01*
X197301Y178863D01*
X197294Y178841D01*
X197295Y178809D01*
X197287Y178737D01*
X197287Y160180D01*
X197301Y160090D01*
X197309Y159999D01*
X197321Y159969D01*
X197326Y159937D01*
X197369Y159856D01*
X197405Y159773D01*
X197431Y159740D01*
X197442Y159720D01*
X197465Y159698D01*
X197510Y159642D01*
X199642Y157510D01*
X199716Y157457D01*
X199785Y157397D01*
X199815Y157385D01*
X199841Y157366D01*
X199928Y157339D01*
X200013Y157305D01*
X200054Y157301D01*
X200076Y157294D01*
X200109Y157295D01*
X200180Y157287D01*
X201714Y157287D01*
X201734Y157290D01*
X201753Y157288D01*
X201855Y157310D01*
X201957Y157326D01*
X201974Y157336D01*
X201994Y157340D01*
X202083Y157393D01*
X202174Y157442D01*
X202188Y157456D01*
X202205Y157466D01*
X202272Y157545D01*
X202344Y157620D01*
X202352Y157638D01*
X202365Y157653D01*
X202404Y157749D01*
X202447Y157843D01*
X202449Y157863D01*
X202457Y157881D01*
X202475Y158048D01*
X202475Y163132D01*
X203368Y164025D01*
X217632Y164025D01*
X218525Y163132D01*
X218525Y146868D01*
X217632Y145975D01*
X203368Y145975D01*
X202475Y146868D01*
X202475Y151952D01*
X202472Y151972D01*
X202474Y151991D01*
X202452Y152093D01*
X202436Y152195D01*
X202426Y152212D01*
X202422Y152232D01*
X202369Y152321D01*
X202320Y152412D01*
X202306Y152426D01*
X202296Y152443D01*
X202217Y152510D01*
X202142Y152582D01*
X202124Y152590D01*
X202109Y152603D01*
X202013Y152642D01*
X201919Y152685D01*
X201899Y152687D01*
X201881Y152695D01*
X201714Y152713D01*
X200180Y152713D01*
X200090Y152699D01*
X199999Y152691D01*
X199969Y152679D01*
X199937Y152674D01*
X199856Y152631D01*
X199773Y152595D01*
X199740Y152569D01*
X199720Y152558D01*
X199698Y152535D01*
X199642Y152490D01*
X197095Y149943D01*
X192905Y149943D01*
X191086Y151762D01*
X191028Y151804D01*
X190976Y151854D01*
X190929Y151876D01*
X190887Y151906D01*
X190818Y151927D01*
X190753Y151957D01*
X190701Y151963D01*
X190651Y151978D01*
X190580Y151976D01*
X190509Y151984D01*
X190458Y151973D01*
X190406Y151972D01*
X190338Y151947D01*
X190268Y151932D01*
X190223Y151905D01*
X190175Y151888D01*
X190119Y151843D01*
X190057Y151806D01*
X190023Y151766D01*
X189983Y151734D01*
X189944Y151674D01*
X189897Y151619D01*
X189878Y151571D01*
X189850Y151527D01*
X189832Y151457D01*
X189805Y151391D01*
X189797Y151320D01*
X189789Y151288D01*
X189791Y151265D01*
X189787Y151224D01*
X189787Y118048D01*
X189790Y118028D01*
X189788Y118009D01*
X189810Y117907D01*
X189826Y117805D01*
X189836Y117788D01*
X189840Y117768D01*
X189893Y117679D01*
X189942Y117588D01*
X189956Y117574D01*
X189966Y117557D01*
X190045Y117490D01*
X190120Y117418D01*
X190138Y117410D01*
X190153Y117397D01*
X190249Y117358D01*
X190343Y117315D01*
X190363Y117313D01*
X190381Y117305D01*
X190548Y117287D01*
X201714Y117287D01*
X201734Y117290D01*
X201753Y117288D01*
X201855Y117310D01*
X201957Y117326D01*
X201974Y117336D01*
X201994Y117340D01*
X202083Y117393D01*
X202174Y117442D01*
X202188Y117456D01*
X202205Y117466D01*
X202272Y117545D01*
X202344Y117620D01*
X202352Y117638D01*
X202365Y117653D01*
X202404Y117749D01*
X202447Y117843D01*
X202449Y117863D01*
X202457Y117881D01*
X202475Y118048D01*
X202475Y123132D01*
X203368Y124025D01*
X217632Y124025D01*
X218525Y123132D01*
X218525Y106868D01*
X217632Y105975D01*
X203318Y105975D01*
X203298Y105972D01*
X203279Y105974D01*
X203177Y105952D01*
X203075Y105936D01*
X203058Y105926D01*
X203038Y105922D01*
X202949Y105869D01*
X202858Y105820D01*
X202844Y105806D01*
X202827Y105796D01*
X202760Y105717D01*
X202688Y105642D01*
X202680Y105624D01*
X202667Y105609D01*
X202628Y105513D01*
X202585Y105419D01*
X202583Y105399D01*
X202575Y105381D01*
X202557Y105214D01*
X202557Y102905D01*
X199595Y99943D01*
X195405Y99943D01*
X192858Y102490D01*
X192784Y102543D01*
X192715Y102603D01*
X192685Y102615D01*
X192659Y102634D01*
X192572Y102661D01*
X192487Y102695D01*
X192446Y102699D01*
X192424Y102706D01*
X192391Y102705D01*
X192320Y102713D01*
X186553Y102713D01*
X185213Y104053D01*
X185213Y180947D01*
X199990Y195724D01*
X200043Y195798D01*
X200103Y195868D01*
X200115Y195898D01*
X200134Y195924D01*
X200161Y196011D01*
X200195Y196096D01*
X200199Y196137D01*
X200206Y196159D01*
X200205Y196191D01*
X200213Y196263D01*
X200213Y230142D01*
X200210Y230161D01*
X200212Y230180D01*
X200201Y230231D01*
X200200Y230284D01*
X200182Y230333D01*
X200174Y230384D01*
X200164Y230402D01*
X200160Y230421D01*
X200134Y230464D01*
X200115Y230515D01*
X200083Y230556D01*
X200058Y230602D01*
X200043Y230616D01*
X200034Y230632D01*
X199996Y230664D01*
X199962Y230707D01*
X199918Y230735D01*
X199880Y230771D01*
X199860Y230780D01*
X199847Y230792D01*
X199802Y230810D01*
X199755Y230840D01*
X199704Y230853D01*
X199657Y230875D01*
X199634Y230877D01*
X199619Y230884D01*
X199553Y230891D01*
X199516Y230900D01*
X199489Y230898D01*
X199452Y230902D01*
X199451Y230902D01*
X199435Y230899D01*
X199413Y230902D01*
X199342Y230887D01*
X199271Y230881D01*
X199239Y230867D01*
X199208Y230862D01*
X199193Y230854D01*
X199172Y230850D01*
X199111Y230813D01*
X199045Y230785D01*
X199011Y230758D01*
X198991Y230747D01*
X198978Y230733D01*
X198961Y230723D01*
X198946Y230706D01*
X198914Y230680D01*
X190280Y222046D01*
X190227Y221972D01*
X190167Y221902D01*
X190155Y221872D01*
X190136Y221846D01*
X190109Y221759D01*
X190075Y221674D01*
X190071Y221633D01*
X190064Y221611D01*
X190065Y221579D01*
X190057Y221507D01*
X190057Y217905D01*
X187095Y214943D01*
X182905Y214943D01*
X179943Y217905D01*
X179943Y222095D01*
X182905Y225057D01*
X186507Y225057D01*
X186598Y225071D01*
X186688Y225079D01*
X186718Y225091D01*
X186750Y225096D01*
X186831Y225139D01*
X186915Y225175D01*
X186947Y225201D01*
X186968Y225212D01*
X186990Y225235D01*
X187046Y225280D01*
X202490Y240724D01*
X202543Y240798D01*
X202603Y240868D01*
X202615Y240898D01*
X202634Y240924D01*
X202661Y241011D01*
X202695Y241096D01*
X202699Y241137D01*
X202706Y241159D01*
X202705Y241191D01*
X202713Y241263D01*
X202713Y245947D01*
X204276Y247510D01*
X205410Y248644D01*
X205452Y248702D01*
X205501Y248754D01*
X205523Y248801D01*
X205553Y248843D01*
X205574Y248912D01*
X205605Y248977D01*
X205610Y249029D01*
X205626Y249079D01*
X205624Y249150D01*
X205632Y249221D01*
X205621Y249272D01*
X205619Y249324D01*
X205595Y249392D01*
X205580Y249462D01*
X205553Y249507D01*
X205535Y249555D01*
X205490Y249611D01*
X205453Y249673D01*
X205414Y249707D01*
X205381Y249747D01*
X205321Y249786D01*
X205266Y249833D01*
X205218Y249852D01*
X205174Y249880D01*
X205105Y249898D01*
X205038Y249925D01*
X204967Y249933D01*
X204936Y249941D01*
X204912Y249939D01*
X204872Y249943D01*
X202905Y249943D01*
X199943Y252905D01*
X199943Y255954D01*
X199932Y256025D01*
X199930Y256097D01*
X199912Y256146D01*
X199904Y256197D01*
X199870Y256260D01*
X199845Y256328D01*
X199813Y256368D01*
X199788Y256414D01*
X199736Y256464D01*
X199692Y256520D01*
X199648Y256548D01*
X199610Y256584D01*
X199545Y256614D01*
X199485Y256653D01*
X199434Y256665D01*
X199387Y256687D01*
X199316Y256695D01*
X199246Y256713D01*
X199194Y256709D01*
X199143Y256714D01*
X199072Y256699D01*
X199001Y256694D01*
X198953Y256673D01*
X198902Y256662D01*
X198841Y256625D01*
X198775Y256597D01*
X198719Y256552D01*
X198691Y256536D01*
X198676Y256518D01*
X198644Y256492D01*
X197095Y254943D01*
X192905Y254943D01*
X189943Y257905D01*
X189943Y262372D01*
X189932Y262442D01*
X189930Y262514D01*
X189912Y262563D01*
X189904Y262614D01*
X189870Y262678D01*
X189845Y262745D01*
X189813Y262786D01*
X189788Y262832D01*
X189736Y262881D01*
X189692Y262937D01*
X189648Y262965D01*
X189610Y263001D01*
X189545Y263031D01*
X189485Y263070D01*
X189434Y263083D01*
X189387Y263105D01*
X189316Y263113D01*
X189246Y263130D01*
X189194Y263126D01*
X189143Y263132D01*
X189072Y263117D01*
X189001Y263111D01*
X188953Y263091D01*
X188902Y263080D01*
X188841Y263043D01*
X188775Y263015D01*
X188719Y262970D01*
X188691Y262953D01*
X188676Y262936D01*
X188644Y262910D01*
X182510Y256776D01*
X182457Y256702D01*
X182397Y256632D01*
X182385Y256602D01*
X182366Y256576D01*
X182339Y256489D01*
X182305Y256404D01*
X182301Y256363D01*
X182294Y256341D01*
X182295Y256309D01*
X182287Y256237D01*
X182287Y231553D01*
X180724Y229990D01*
X173760Y223026D01*
X172197Y221463D01*
X164767Y221463D01*
X164747Y221460D01*
X164728Y221462D01*
X164626Y221440D01*
X164524Y221424D01*
X164507Y221414D01*
X164487Y221410D01*
X164398Y221357D01*
X164307Y221308D01*
X164293Y221294D01*
X164276Y221284D01*
X164209Y221205D01*
X164137Y221130D01*
X164129Y221112D01*
X164116Y221097D01*
X164077Y221001D01*
X164034Y220907D01*
X164032Y220887D01*
X164024Y220869D01*
X164006Y220702D01*
X164006Y220298D01*
X164009Y220278D01*
X164007Y220259D01*
X164029Y220157D01*
X164045Y220055D01*
X164055Y220038D01*
X164059Y220018D01*
X164112Y219929D01*
X164161Y219838D01*
X164175Y219824D01*
X164185Y219807D01*
X164264Y219740D01*
X164339Y219668D01*
X164357Y219660D01*
X164372Y219647D01*
X164468Y219608D01*
X164562Y219565D01*
X164582Y219563D01*
X164600Y219555D01*
X164767Y219537D01*
X167537Y219537D01*
X172054Y215020D01*
X172054Y173980D01*
X160894Y162820D01*
X83155Y162820D01*
X83135Y162817D01*
X83115Y162819D01*
X83014Y162797D01*
X82912Y162780D01*
X82895Y162771D01*
X82875Y162767D01*
X82786Y162714D01*
X82695Y162665D01*
X82681Y162651D01*
X82664Y162641D01*
X82597Y162562D01*
X82525Y162487D01*
X82517Y162469D01*
X82504Y162454D01*
X82465Y162358D01*
X82422Y162264D01*
X82420Y162244D01*
X82412Y162226D01*
X82394Y162059D01*
X82394Y154786D01*
X82397Y154766D01*
X82395Y154747D01*
X82417Y154645D01*
X82433Y154543D01*
X82443Y154526D01*
X82447Y154506D01*
X82500Y154417D01*
X82548Y154326D01*
X82563Y154312D01*
X82573Y154295D01*
X82652Y154228D01*
X82727Y154156D01*
X82745Y154148D01*
X82760Y154135D01*
X82856Y154096D01*
X82950Y154053D01*
X82970Y154051D01*
X82988Y154043D01*
X83155Y154025D01*
X87632Y154025D01*
X88525Y153132D01*
X88525Y136868D01*
X87632Y135975D01*
X73368Y135975D01*
X72475Y136868D01*
X72475Y153132D01*
X73368Y154025D01*
X77059Y154025D01*
X77079Y154028D01*
X77098Y154026D01*
X77200Y154048D01*
X77302Y154064D01*
X77319Y154074D01*
X77339Y154078D01*
X77428Y154131D01*
X77519Y154180D01*
X77533Y154194D01*
X77550Y154204D01*
X77617Y154283D01*
X77688Y154358D01*
X77697Y154376D01*
X77710Y154391D01*
X77749Y154487D01*
X77792Y154581D01*
X77794Y154601D01*
X77802Y154619D01*
X77820Y154786D01*
X77820Y162059D01*
X77817Y162079D01*
X77819Y162098D01*
X77797Y162200D01*
X77780Y162302D01*
X77771Y162319D01*
X77767Y162339D01*
X77714Y162428D01*
X77665Y162519D01*
X77651Y162533D01*
X77641Y162550D01*
X77562Y162617D01*
X77487Y162688D01*
X77469Y162697D01*
X77454Y162710D01*
X77358Y162749D01*
X77264Y162792D01*
X77244Y162794D01*
X77226Y162802D01*
X77059Y162820D01*
X72787Y162820D01*
X72697Y162805D01*
X72606Y162798D01*
X72576Y162786D01*
X72544Y162780D01*
X72463Y162738D01*
X72380Y162702D01*
X72347Y162676D01*
X72327Y162665D01*
X72305Y162642D01*
X72249Y162597D01*
X69595Y159943D01*
X65405Y159943D01*
X62864Y162484D01*
X62806Y162526D01*
X62754Y162576D01*
X62707Y162598D01*
X62665Y162628D01*
X62596Y162649D01*
X62531Y162679D01*
X62479Y162685D01*
X62429Y162700D01*
X62358Y162698D01*
X62287Y162706D01*
X62236Y162695D01*
X62184Y162694D01*
X62116Y162669D01*
X62046Y162654D01*
X62001Y162627D01*
X61953Y162610D01*
X61897Y162565D01*
X61835Y162528D01*
X61801Y162488D01*
X61761Y162456D01*
X61722Y162396D01*
X61675Y162341D01*
X61656Y162293D01*
X61628Y162249D01*
X61610Y162179D01*
X61583Y162113D01*
X61575Y162042D01*
X61567Y162010D01*
X61569Y161987D01*
X61565Y161946D01*
X61565Y136999D01*
X61579Y136909D01*
X61587Y136818D01*
X61599Y136788D01*
X61604Y136756D01*
X61647Y136676D01*
X61683Y136592D01*
X61709Y136560D01*
X61720Y136539D01*
X61743Y136517D01*
X61788Y136461D01*
X68961Y129288D01*
X69035Y129235D01*
X69104Y129175D01*
X69134Y129163D01*
X69160Y129144D01*
X69247Y129117D01*
X69332Y129083D01*
X69373Y129079D01*
X69396Y129072D01*
X69428Y129073D01*
X69499Y129065D01*
X124184Y129065D01*
X139065Y114184D01*
X139065Y89826D01*
X139068Y89806D01*
X139066Y89787D01*
X139088Y89685D01*
X139104Y89583D01*
X139114Y89566D01*
X139118Y89546D01*
X139171Y89457D01*
X139220Y89366D01*
X139234Y89352D01*
X139244Y89335D01*
X139323Y89268D01*
X139398Y89196D01*
X139416Y89188D01*
X139431Y89175D01*
X139527Y89136D01*
X139621Y89093D01*
X139641Y89091D01*
X139659Y89083D01*
X139826Y89065D01*
X218101Y89065D01*
X218191Y89079D01*
G37*
G36*
X221948Y4814D02*
X221948Y4814D01*
X221967Y4812D01*
X222069Y4834D01*
X222171Y4850D01*
X222188Y4860D01*
X222208Y4864D01*
X222297Y4917D01*
X222388Y4966D01*
X222402Y4980D01*
X222419Y4990D01*
X222486Y5069D01*
X222558Y5144D01*
X222566Y5162D01*
X222579Y5177D01*
X222618Y5273D01*
X222661Y5367D01*
X222663Y5387D01*
X222671Y5405D01*
X222689Y5572D01*
X222689Y38013D01*
X226097Y48501D01*
X232578Y57422D01*
X241499Y63903D01*
X251987Y67311D01*
X284428Y67311D01*
X284448Y67314D01*
X284467Y67312D01*
X284569Y67334D01*
X284671Y67350D01*
X284688Y67360D01*
X284708Y67364D01*
X284797Y67417D01*
X284888Y67466D01*
X284902Y67480D01*
X284919Y67490D01*
X284986Y67569D01*
X285058Y67644D01*
X285066Y67662D01*
X285079Y67677D01*
X285118Y67773D01*
X285161Y67867D01*
X285163Y67887D01*
X285171Y67905D01*
X285189Y68072D01*
X285189Y109919D01*
X285178Y109990D01*
X285176Y110061D01*
X285158Y110110D01*
X285150Y110162D01*
X285116Y110225D01*
X285091Y110292D01*
X285059Y110333D01*
X285034Y110379D01*
X284982Y110428D01*
X284938Y110484D01*
X284894Y110513D01*
X284856Y110548D01*
X284791Y110579D01*
X284731Y110617D01*
X284680Y110630D01*
X284633Y110652D01*
X284562Y110660D01*
X284492Y110677D01*
X284440Y110673D01*
X284389Y110679D01*
X284318Y110664D01*
X284247Y110658D01*
X284199Y110638D01*
X284148Y110627D01*
X284087Y110590D01*
X284021Y110562D01*
X283965Y110517D01*
X283937Y110501D01*
X283922Y110483D01*
X283890Y110457D01*
X280788Y107355D01*
X273212Y107355D01*
X267855Y112712D01*
X267855Y120288D01*
X273212Y125645D01*
X280788Y125645D01*
X283890Y122543D01*
X283948Y122501D01*
X284000Y122452D01*
X284047Y122430D01*
X284089Y122399D01*
X284158Y122378D01*
X284223Y122348D01*
X284275Y122342D01*
X284325Y122327D01*
X284396Y122329D01*
X284467Y122321D01*
X284518Y122332D01*
X284570Y122333D01*
X284638Y122358D01*
X284708Y122373D01*
X284753Y122400D01*
X284801Y122418D01*
X284857Y122463D01*
X284919Y122499D01*
X284953Y122539D01*
X284993Y122571D01*
X285032Y122632D01*
X285079Y122686D01*
X285098Y122735D01*
X285126Y122778D01*
X285144Y122848D01*
X285171Y122914D01*
X285179Y122986D01*
X285187Y123017D01*
X285185Y123040D01*
X285189Y123081D01*
X285189Y135319D01*
X285178Y135390D01*
X285176Y135461D01*
X285158Y135510D01*
X285150Y135562D01*
X285116Y135625D01*
X285091Y135692D01*
X285059Y135733D01*
X285034Y135779D01*
X284982Y135828D01*
X284938Y135884D01*
X284894Y135913D01*
X284856Y135948D01*
X284791Y135979D01*
X284731Y136017D01*
X284680Y136030D01*
X284633Y136052D01*
X284562Y136060D01*
X284492Y136077D01*
X284440Y136073D01*
X284389Y136079D01*
X284318Y136064D01*
X284247Y136058D01*
X284199Y136038D01*
X284148Y136027D01*
X284087Y135990D01*
X284021Y135962D01*
X283965Y135917D01*
X283937Y135901D01*
X283922Y135883D01*
X283890Y135857D01*
X280788Y132755D01*
X273919Y132755D01*
X273829Y132741D01*
X273738Y132733D01*
X273708Y132721D01*
X273676Y132716D01*
X273596Y132673D01*
X273512Y132637D01*
X273480Y132611D01*
X273459Y132600D01*
X273437Y132577D01*
X273381Y132532D01*
X221771Y80923D01*
X221735Y80922D01*
X221686Y80904D01*
X221635Y80896D01*
X221571Y80862D01*
X221504Y80837D01*
X221463Y80805D01*
X221417Y80780D01*
X221368Y80728D01*
X221312Y80684D01*
X221284Y80640D01*
X221248Y80602D01*
X221218Y80537D01*
X221179Y80477D01*
X221166Y80426D01*
X221144Y80379D01*
X221136Y80308D01*
X221119Y80238D01*
X221123Y80186D01*
X221117Y80135D01*
X221132Y80064D01*
X221138Y79993D01*
X221158Y79945D01*
X221169Y79894D01*
X221206Y79833D01*
X221234Y79767D01*
X221279Y79711D01*
X221296Y79683D01*
X221313Y79668D01*
X221339Y79636D01*
X224417Y76558D01*
X224417Y72162D01*
X221308Y69053D01*
X218048Y69053D01*
X218028Y69050D01*
X218009Y69052D01*
X217907Y69030D01*
X217805Y69014D01*
X217788Y69004D01*
X217768Y69000D01*
X217679Y68947D01*
X217588Y68898D01*
X217574Y68884D01*
X217557Y68874D01*
X217490Y68795D01*
X217418Y68720D01*
X217410Y68702D01*
X217397Y68687D01*
X217358Y68591D01*
X217315Y68497D01*
X217313Y68477D01*
X217305Y68459D01*
X217287Y68292D01*
X217287Y34053D01*
X210932Y27698D01*
X210895Y27690D01*
X210793Y27674D01*
X210776Y27664D01*
X210756Y27660D01*
X210667Y27607D01*
X210576Y27558D01*
X210562Y27544D01*
X210545Y27534D01*
X210478Y27455D01*
X210406Y27380D01*
X210398Y27362D01*
X210385Y27347D01*
X210346Y27251D01*
X210303Y27157D01*
X210302Y27145D01*
X209356Y26200D01*
X209270Y26186D01*
X209249Y26174D01*
X209225Y26169D01*
X209141Y26117D01*
X209053Y26070D01*
X209036Y26053D01*
X209016Y26040D01*
X208952Y25964D01*
X208883Y25892D01*
X208873Y25870D01*
X208858Y25852D01*
X208822Y25759D01*
X208780Y25669D01*
X208777Y25645D01*
X208768Y25623D01*
X208764Y25523D01*
X208753Y25425D01*
X208758Y25401D01*
X208757Y25377D01*
X208784Y25281D01*
X208805Y25184D01*
X208817Y25164D01*
X208824Y25140D01*
X208880Y25058D01*
X208931Y24973D01*
X208949Y24957D01*
X208963Y24938D01*
X209042Y24878D01*
X209118Y24813D01*
X209140Y24804D01*
X209160Y24790D01*
X209316Y24729D01*
X209731Y24618D01*
X210310Y24283D01*
X210783Y23810D01*
X211118Y23231D01*
X211291Y22584D01*
X211291Y21124D01*
X204863Y21124D01*
X204844Y21121D01*
X204824Y21123D01*
X204722Y21101D01*
X204620Y21085D01*
X204603Y21075D01*
X204583Y21071D01*
X204505Y21024D01*
X204435Y21053D01*
X204342Y21096D01*
X204322Y21098D01*
X204304Y21106D01*
X204137Y21124D01*
X197607Y21124D01*
X197603Y21131D01*
X197554Y21222D01*
X197540Y21236D01*
X197530Y21253D01*
X197451Y21320D01*
X197376Y21391D01*
X197358Y21400D01*
X197343Y21413D01*
X197247Y21452D01*
X197153Y21495D01*
X197133Y21497D01*
X197115Y21505D01*
X196948Y21523D01*
X191523Y21523D01*
X191523Y35041D01*
X198334Y35041D01*
X198981Y34868D01*
X199560Y34533D01*
X200095Y33998D01*
X200169Y33945D01*
X200239Y33885D01*
X200269Y33873D01*
X200295Y33854D01*
X200382Y33827D01*
X200467Y33793D01*
X200508Y33789D01*
X200530Y33782D01*
X200562Y33783D01*
X200634Y33775D01*
X209382Y33775D01*
X209423Y33733D01*
X209439Y33722D01*
X209452Y33706D01*
X209539Y33650D01*
X209623Y33590D01*
X209642Y33584D01*
X209658Y33573D01*
X209759Y33548D01*
X209858Y33517D01*
X209878Y33518D01*
X209897Y33513D01*
X210000Y33521D01*
X210104Y33524D01*
X210122Y33531D01*
X210142Y33532D01*
X210237Y33573D01*
X210335Y33608D01*
X210350Y33621D01*
X210369Y33629D01*
X210499Y33733D01*
X212490Y35724D01*
X212543Y35798D01*
X212603Y35868D01*
X212615Y35898D01*
X212634Y35924D01*
X212661Y36011D01*
X212695Y36096D01*
X212699Y36137D01*
X212706Y36159D01*
X212705Y36191D01*
X212713Y36263D01*
X212713Y44337D01*
X212694Y44453D01*
X212676Y44572D01*
X212674Y44575D01*
X212674Y44579D01*
X212619Y44682D01*
X212563Y44790D01*
X212560Y44793D01*
X212558Y44797D01*
X212474Y44877D01*
X212387Y44961D01*
X212383Y44963D01*
X212380Y44966D01*
X212273Y45016D01*
X212165Y45068D01*
X212161Y45068D01*
X212157Y45070D01*
X212039Y45083D01*
X211921Y45097D01*
X211916Y45096D01*
X211913Y45097D01*
X211899Y45094D01*
X211755Y45072D01*
X211334Y44959D01*
X206023Y44959D01*
X206023Y54238D01*
X206020Y54258D01*
X206022Y54277D01*
X206000Y54379D01*
X205983Y54481D01*
X205974Y54498D01*
X205970Y54518D01*
X205917Y54607D01*
X205868Y54698D01*
X205854Y54712D01*
X205844Y54729D01*
X205765Y54796D01*
X205690Y54867D01*
X205672Y54876D01*
X205657Y54889D01*
X205561Y54928D01*
X205467Y54971D01*
X205447Y54973D01*
X205429Y54981D01*
X205262Y54999D01*
X204499Y54999D01*
X204499Y55001D01*
X205262Y55001D01*
X205282Y55004D01*
X205301Y55002D01*
X205403Y55024D01*
X205505Y55041D01*
X205522Y55050D01*
X205542Y55054D01*
X205631Y55107D01*
X205722Y55156D01*
X205736Y55170D01*
X205753Y55180D01*
X205820Y55259D01*
X205891Y55334D01*
X205900Y55352D01*
X205913Y55367D01*
X205952Y55463D01*
X205995Y55557D01*
X205997Y55577D01*
X206005Y55595D01*
X206023Y55762D01*
X206023Y65041D01*
X211334Y65041D01*
X211755Y64928D01*
X211874Y64916D01*
X211991Y64903D01*
X211996Y64904D01*
X212000Y64904D01*
X212115Y64930D01*
X212232Y64955D01*
X212235Y64958D01*
X212239Y64958D01*
X212341Y65020D01*
X212443Y65082D01*
X212446Y65085D01*
X212449Y65087D01*
X212525Y65178D01*
X212603Y65268D01*
X212604Y65272D01*
X212607Y65276D01*
X212650Y65385D01*
X212695Y65497D01*
X212695Y65502D01*
X212697Y65505D01*
X212697Y65518D01*
X212713Y65663D01*
X212713Y71197D01*
X213580Y72064D01*
X213628Y72131D01*
X213631Y72134D01*
X213632Y72136D01*
X213633Y72138D01*
X213693Y72208D01*
X213705Y72238D01*
X213724Y72264D01*
X213751Y72351D01*
X213785Y72436D01*
X213789Y72477D01*
X213796Y72499D01*
X213795Y72531D01*
X213803Y72603D01*
X213803Y76558D01*
X216881Y79636D01*
X216923Y79694D01*
X216972Y79746D01*
X216994Y79793D01*
X217024Y79835D01*
X217046Y79904D01*
X217076Y79969D01*
X217081Y80021D01*
X217097Y80071D01*
X217095Y80142D01*
X217103Y80213D01*
X217092Y80264D01*
X217090Y80316D01*
X217066Y80384D01*
X217051Y80454D01*
X217024Y80499D01*
X217006Y80547D01*
X216961Y80603D01*
X216924Y80665D01*
X216885Y80699D01*
X216852Y80739D01*
X216792Y80778D01*
X216737Y80825D01*
X216689Y80844D01*
X216645Y80872D01*
X216576Y80890D01*
X216509Y80917D01*
X216438Y80925D01*
X216407Y80933D01*
X216384Y80931D01*
X216343Y80935D01*
X188810Y80935D01*
X188790Y80932D01*
X188771Y80934D01*
X188669Y80912D01*
X188567Y80896D01*
X188550Y80886D01*
X188530Y80882D01*
X188441Y80829D01*
X188350Y80780D01*
X188336Y80766D01*
X188319Y80756D01*
X188252Y80677D01*
X188180Y80602D01*
X188172Y80584D01*
X188159Y80569D01*
X188120Y80473D01*
X188077Y80379D01*
X188075Y80359D01*
X188067Y80341D01*
X188049Y80174D01*
X188049Y64786D01*
X188052Y64766D01*
X188050Y64747D01*
X188072Y64645D01*
X188088Y64543D01*
X188098Y64526D01*
X188102Y64506D01*
X188155Y64417D01*
X188204Y64326D01*
X188218Y64312D01*
X188228Y64295D01*
X188307Y64228D01*
X188382Y64156D01*
X188400Y64148D01*
X188415Y64135D01*
X188511Y64096D01*
X188605Y64053D01*
X188625Y64051D01*
X188643Y64043D01*
X188810Y64025D01*
X192632Y64025D01*
X193525Y63132D01*
X193525Y46868D01*
X192632Y45975D01*
X180727Y45975D01*
X180657Y45964D01*
X180585Y45962D01*
X180536Y45944D01*
X180485Y45936D01*
X180421Y45902D01*
X180354Y45877D01*
X180313Y45845D01*
X180267Y45820D01*
X180218Y45769D01*
X180162Y45724D01*
X180134Y45680D01*
X180098Y45642D01*
X180068Y45577D01*
X180029Y45517D01*
X180016Y45466D01*
X179994Y45419D01*
X179986Y45348D01*
X179969Y45278D01*
X179973Y45226D01*
X179967Y45175D01*
X179982Y45104D01*
X179988Y45033D01*
X180008Y44985D01*
X180019Y44934D01*
X180056Y44873D01*
X180084Y44807D01*
X180129Y44751D01*
X180145Y44723D01*
X180163Y44708D01*
X180189Y44676D01*
X180307Y44558D01*
X180307Y40162D01*
X177510Y37365D01*
X177457Y37291D01*
X177397Y37221D01*
X177385Y37191D01*
X177366Y37165D01*
X177339Y37078D01*
X177305Y36993D01*
X177301Y36952D01*
X177294Y36930D01*
X177295Y36898D01*
X177287Y36826D01*
X177287Y34536D01*
X177290Y34516D01*
X177288Y34497D01*
X177310Y34395D01*
X177326Y34293D01*
X177336Y34276D01*
X177340Y34256D01*
X177393Y34167D01*
X177442Y34076D01*
X177456Y34062D01*
X177466Y34045D01*
X177545Y33978D01*
X177620Y33906D01*
X177638Y33898D01*
X177653Y33885D01*
X177749Y33846D01*
X177843Y33803D01*
X177863Y33801D01*
X177881Y33793D01*
X178048Y33775D01*
X179366Y33775D01*
X179456Y33789D01*
X179547Y33797D01*
X179577Y33809D01*
X179609Y33814D01*
X179690Y33857D01*
X179774Y33893D01*
X179806Y33919D01*
X179826Y33930D01*
X179849Y33953D01*
X179905Y33998D01*
X180440Y34533D01*
X181019Y34868D01*
X181666Y35041D01*
X188477Y35041D01*
X188477Y20762D01*
X188480Y20742D01*
X188478Y20723D01*
X188500Y20621D01*
X188517Y20519D01*
X188526Y20502D01*
X188530Y20482D01*
X188583Y20393D01*
X188632Y20302D01*
X188646Y20288D01*
X188656Y20271D01*
X188735Y20204D01*
X188810Y20133D01*
X188828Y20124D01*
X188843Y20111D01*
X188939Y20072D01*
X189033Y20029D01*
X189053Y20027D01*
X189071Y20019D01*
X189238Y20001D01*
X190001Y20001D01*
X190001Y19238D01*
X190004Y19218D01*
X190002Y19199D01*
X190024Y19097D01*
X190041Y18995D01*
X190050Y18978D01*
X190054Y18958D01*
X190107Y18869D01*
X190156Y18778D01*
X190170Y18764D01*
X190180Y18747D01*
X190259Y18680D01*
X190334Y18609D01*
X190352Y18600D01*
X190367Y18587D01*
X190463Y18548D01*
X190557Y18505D01*
X190577Y18503D01*
X190595Y18495D01*
X190762Y18477D01*
X196948Y18477D01*
X196968Y18480D01*
X196987Y18478D01*
X197089Y18500D01*
X197191Y18517D01*
X197208Y18526D01*
X197228Y18530D01*
X197317Y18583D01*
X197408Y18632D01*
X197422Y18646D01*
X197439Y18656D01*
X197506Y18735D01*
X197578Y18810D01*
X197586Y18828D01*
X197599Y18843D01*
X197612Y18876D01*
X204137Y18876D01*
X204156Y18879D01*
X204176Y18877D01*
X204278Y18899D01*
X204380Y18915D01*
X204397Y18925D01*
X204417Y18929D01*
X204495Y18976D01*
X204565Y18947D01*
X204658Y18904D01*
X204678Y18902D01*
X204696Y18894D01*
X204863Y18876D01*
X211291Y18876D01*
X211291Y17416D01*
X211118Y16769D01*
X210783Y16190D01*
X210310Y15717D01*
X209731Y15382D01*
X209316Y15271D01*
X209294Y15261D01*
X209270Y15257D01*
X209183Y15211D01*
X209092Y15170D01*
X209074Y15154D01*
X209053Y15142D01*
X208985Y15071D01*
X208912Y15003D01*
X208900Y14982D01*
X208883Y14964D01*
X208842Y14874D01*
X208794Y14787D01*
X208790Y14763D01*
X208780Y14741D01*
X208769Y14642D01*
X208752Y14544D01*
X208755Y14520D01*
X208753Y14497D01*
X208774Y14400D01*
X208789Y14301D01*
X208800Y14280D01*
X208805Y14256D01*
X208856Y14171D01*
X208902Y14082D01*
X208919Y14066D01*
X208931Y14045D01*
X209007Y13980D01*
X209078Y13911D01*
X209100Y13901D01*
X209118Y13885D01*
X209211Y13848D01*
X209300Y13805D01*
X209324Y13802D01*
X209346Y13793D01*
X209365Y13791D01*
X210275Y12882D01*
X210275Y7118D01*
X209267Y6110D01*
X209225Y6052D01*
X209175Y6000D01*
X209153Y5953D01*
X209123Y5911D01*
X209102Y5842D01*
X209072Y5777D01*
X209066Y5725D01*
X209051Y5675D01*
X209053Y5604D01*
X209045Y5533D01*
X209056Y5482D01*
X209057Y5430D01*
X209082Y5362D01*
X209097Y5292D01*
X209124Y5247D01*
X209141Y5199D01*
X209186Y5143D01*
X209223Y5081D01*
X209263Y5047D01*
X209295Y5007D01*
X209355Y4968D01*
X209410Y4921D01*
X209458Y4902D01*
X209502Y4874D01*
X209572Y4856D01*
X209638Y4829D01*
X209709Y4821D01*
X209741Y4813D01*
X209764Y4815D01*
X209805Y4811D01*
X221928Y4811D01*
X221948Y4814D01*
G37*
G36*
X62436Y167309D02*
X62436Y167309D01*
X62507Y167314D01*
X62555Y167335D01*
X62606Y167346D01*
X62667Y167383D01*
X62733Y167411D01*
X62789Y167456D01*
X62817Y167472D01*
X62832Y167490D01*
X62864Y167516D01*
X65405Y170057D01*
X69595Y170057D01*
X72035Y167617D01*
X72109Y167564D01*
X72178Y167504D01*
X72208Y167492D01*
X72234Y167473D01*
X72321Y167446D01*
X72406Y167412D01*
X72447Y167408D01*
X72469Y167401D01*
X72502Y167402D01*
X72573Y167394D01*
X77059Y167394D01*
X77079Y167397D01*
X77098Y167395D01*
X77200Y167417D01*
X77302Y167433D01*
X77319Y167443D01*
X77339Y167447D01*
X77428Y167500D01*
X77519Y167548D01*
X77533Y167563D01*
X77550Y167573D01*
X77617Y167652D01*
X77688Y167727D01*
X77697Y167745D01*
X77710Y167760D01*
X77749Y167856D01*
X77792Y167950D01*
X77794Y167970D01*
X77802Y167988D01*
X77820Y168155D01*
X77820Y170214D01*
X77817Y170234D01*
X77819Y170253D01*
X77797Y170355D01*
X77780Y170457D01*
X77771Y170474D01*
X77767Y170494D01*
X77714Y170583D01*
X77665Y170674D01*
X77651Y170688D01*
X77641Y170705D01*
X77562Y170772D01*
X77487Y170844D01*
X77469Y170852D01*
X77454Y170865D01*
X77358Y170904D01*
X77264Y170947D01*
X77244Y170949D01*
X77226Y170957D01*
X77059Y170975D01*
X73368Y170975D01*
X72475Y171868D01*
X72475Y188132D01*
X73368Y189025D01*
X87632Y189025D01*
X88525Y188132D01*
X88525Y171868D01*
X87632Y170975D01*
X83155Y170975D01*
X83135Y170972D01*
X83115Y170974D01*
X83014Y170952D01*
X82912Y170936D01*
X82895Y170926D01*
X82875Y170922D01*
X82786Y170869D01*
X82695Y170820D01*
X82681Y170806D01*
X82664Y170796D01*
X82597Y170717D01*
X82525Y170642D01*
X82517Y170624D01*
X82504Y170609D01*
X82465Y170513D01*
X82422Y170419D01*
X82420Y170399D01*
X82412Y170381D01*
X82394Y170214D01*
X82394Y168155D01*
X82397Y168135D01*
X82395Y168115D01*
X82417Y168014D01*
X82433Y167912D01*
X82443Y167895D01*
X82447Y167875D01*
X82500Y167786D01*
X82548Y167695D01*
X82563Y167681D01*
X82573Y167664D01*
X82652Y167597D01*
X82727Y167525D01*
X82745Y167517D01*
X82760Y167504D01*
X82856Y167465D01*
X82950Y167422D01*
X82970Y167420D01*
X82988Y167412D01*
X83155Y167394D01*
X158685Y167394D01*
X158775Y167408D01*
X158866Y167416D01*
X158895Y167428D01*
X158927Y167433D01*
X159008Y167476D01*
X159092Y167512D01*
X159124Y167538D01*
X159145Y167548D01*
X159167Y167572D01*
X159223Y167617D01*
X167257Y175651D01*
X167311Y175725D01*
X167370Y175795D01*
X167382Y175825D01*
X167401Y175851D01*
X167428Y175938D01*
X167462Y176023D01*
X167466Y176064D01*
X167473Y176086D01*
X167472Y176118D01*
X167480Y176190D01*
X167480Y212810D01*
X167466Y212901D01*
X167459Y212991D01*
X167446Y213021D01*
X167441Y213053D01*
X167398Y213134D01*
X167362Y213218D01*
X167337Y213250D01*
X167326Y213271D01*
X167302Y213293D01*
X167257Y213349D01*
X165866Y214740D01*
X165792Y214793D01*
X165722Y214853D01*
X165692Y214865D01*
X165666Y214884D01*
X165579Y214911D01*
X165494Y214945D01*
X165453Y214949D01*
X165431Y214956D01*
X165399Y214955D01*
X165328Y214963D01*
X164767Y214963D01*
X164747Y214960D01*
X164728Y214962D01*
X164626Y214940D01*
X164524Y214924D01*
X164507Y214914D01*
X164487Y214910D01*
X164398Y214857D01*
X164307Y214808D01*
X164293Y214794D01*
X164276Y214784D01*
X164209Y214705D01*
X164137Y214630D01*
X164129Y214612D01*
X164116Y214597D01*
X164077Y214501D01*
X164034Y214407D01*
X164032Y214387D01*
X164024Y214369D01*
X164006Y214202D01*
X164006Y207742D01*
X163113Y206849D01*
X158056Y206849D01*
X158036Y206846D01*
X158017Y206848D01*
X157915Y206826D01*
X157813Y206810D01*
X157796Y206800D01*
X157776Y206796D01*
X157687Y206743D01*
X157596Y206694D01*
X157582Y206680D01*
X157565Y206670D01*
X157498Y206591D01*
X157426Y206516D01*
X157418Y206498D01*
X157405Y206483D01*
X157366Y206387D01*
X157323Y206293D01*
X157321Y206273D01*
X157313Y206255D01*
X157295Y206088D01*
X157295Y194786D01*
X157298Y194766D01*
X157296Y194747D01*
X157318Y194645D01*
X157334Y194543D01*
X157344Y194526D01*
X157348Y194506D01*
X157401Y194417D01*
X157450Y194326D01*
X157464Y194312D01*
X157474Y194295D01*
X157553Y194228D01*
X157628Y194156D01*
X157646Y194148D01*
X157661Y194135D01*
X157757Y194096D01*
X157851Y194053D01*
X157871Y194051D01*
X157889Y194043D01*
X158056Y194025D01*
X161632Y194025D01*
X162525Y193132D01*
X162525Y176868D01*
X161632Y175975D01*
X147368Y175975D01*
X146475Y176868D01*
X146475Y193132D01*
X147368Y194025D01*
X150944Y194025D01*
X150964Y194028D01*
X150983Y194026D01*
X151085Y194048D01*
X151187Y194064D01*
X151204Y194074D01*
X151224Y194078D01*
X151313Y194131D01*
X151404Y194180D01*
X151418Y194194D01*
X151435Y194204D01*
X151502Y194283D01*
X151574Y194358D01*
X151582Y194376D01*
X151595Y194391D01*
X151634Y194487D01*
X151677Y194581D01*
X151679Y194601D01*
X151687Y194619D01*
X151705Y194786D01*
X151705Y206088D01*
X151702Y206108D01*
X151704Y206127D01*
X151682Y206229D01*
X151666Y206331D01*
X151656Y206348D01*
X151652Y206368D01*
X151599Y206457D01*
X151550Y206548D01*
X151536Y206562D01*
X151526Y206579D01*
X151447Y206646D01*
X151372Y206718D01*
X151354Y206726D01*
X151339Y206739D01*
X151243Y206778D01*
X151149Y206821D01*
X151129Y206823D01*
X151111Y206831D01*
X150944Y206849D01*
X144829Y206849D01*
X143946Y207732D01*
X143872Y207785D01*
X143803Y207845D01*
X143773Y207857D01*
X143747Y207876D01*
X143660Y207903D01*
X143575Y207937D01*
X143534Y207941D01*
X143512Y207948D01*
X143479Y207947D01*
X143408Y207955D01*
X62922Y207955D01*
X62832Y207941D01*
X62741Y207933D01*
X62711Y207921D01*
X62679Y207916D01*
X62598Y207873D01*
X62515Y207837D01*
X62482Y207811D01*
X62462Y207800D01*
X62440Y207777D01*
X62384Y207732D01*
X61788Y207136D01*
X61735Y207062D01*
X61675Y206993D01*
X61663Y206963D01*
X61644Y206937D01*
X61617Y206850D01*
X61583Y206765D01*
X61579Y206724D01*
X61572Y206702D01*
X61573Y206669D01*
X61565Y206598D01*
X61565Y168054D01*
X61576Y167983D01*
X61578Y167911D01*
X61596Y167862D01*
X61604Y167811D01*
X61638Y167748D01*
X61663Y167680D01*
X61695Y167640D01*
X61720Y167594D01*
X61772Y167544D01*
X61816Y167488D01*
X61860Y167460D01*
X61898Y167424D01*
X61963Y167394D01*
X62023Y167355D01*
X62074Y167343D01*
X62121Y167321D01*
X62192Y167313D01*
X62262Y167295D01*
X62314Y167299D01*
X62365Y167294D01*
X62436Y167309D01*
G37*
G36*
X112742Y8481D02*
X112742Y8481D01*
X112794Y8483D01*
X112862Y8507D01*
X112932Y8522D01*
X112977Y8549D01*
X113025Y8567D01*
X113081Y8612D01*
X113143Y8649D01*
X113177Y8688D01*
X113217Y8721D01*
X113256Y8781D01*
X113303Y8836D01*
X113322Y8884D01*
X113350Y8928D01*
X113368Y8997D01*
X113395Y9064D01*
X113403Y9135D01*
X113411Y9166D01*
X113409Y9190D01*
X113413Y9230D01*
X113413Y10037D01*
X122902Y10037D01*
X122922Y10040D01*
X122941Y10038D01*
X123043Y10060D01*
X123145Y10077D01*
X123162Y10086D01*
X123182Y10090D01*
X123271Y10143D01*
X123362Y10192D01*
X123376Y10206D01*
X123393Y10216D01*
X123460Y10295D01*
X123531Y10370D01*
X123540Y10388D01*
X123553Y10403D01*
X123592Y10499D01*
X123635Y10593D01*
X123637Y10613D01*
X123645Y10631D01*
X123663Y10798D01*
X123663Y12322D01*
X123660Y12342D01*
X123662Y12361D01*
X123640Y12463D01*
X123623Y12565D01*
X123614Y12582D01*
X123610Y12602D01*
X123557Y12691D01*
X123508Y12782D01*
X123494Y12796D01*
X123484Y12813D01*
X123405Y12880D01*
X123330Y12951D01*
X123312Y12960D01*
X123297Y12973D01*
X123201Y13012D01*
X123107Y13055D01*
X123087Y13057D01*
X123069Y13065D01*
X122902Y13083D01*
X113413Y13083D01*
X113413Y15188D01*
X113586Y15834D01*
X113921Y16414D01*
X114206Y16699D01*
X114259Y16773D01*
X114319Y16842D01*
X114331Y16873D01*
X114350Y16899D01*
X114377Y16986D01*
X114411Y17071D01*
X114415Y17111D01*
X114422Y17134D01*
X114421Y17166D01*
X114429Y17237D01*
X114429Y23563D01*
X114415Y23653D01*
X114407Y23744D01*
X114395Y23774D01*
X114390Y23806D01*
X114347Y23886D01*
X114311Y23970D01*
X114285Y24002D01*
X114274Y24023D01*
X114251Y24045D01*
X114206Y24101D01*
X113921Y24386D01*
X113586Y24966D01*
X113413Y25612D01*
X113413Y27717D01*
X122902Y27717D01*
X122922Y27720D01*
X122941Y27718D01*
X123043Y27740D01*
X123145Y27757D01*
X123162Y27766D01*
X123182Y27770D01*
X123271Y27823D01*
X123362Y27872D01*
X123376Y27886D01*
X123393Y27896D01*
X123460Y27975D01*
X123531Y28050D01*
X123540Y28068D01*
X123553Y28083D01*
X123592Y28179D01*
X123635Y28273D01*
X123637Y28293D01*
X123645Y28311D01*
X123663Y28478D01*
X123663Y29241D01*
X124426Y29241D01*
X124446Y29244D01*
X124465Y29242D01*
X124567Y29264D01*
X124669Y29281D01*
X124686Y29290D01*
X124706Y29294D01*
X124795Y29347D01*
X124886Y29396D01*
X124900Y29410D01*
X124917Y29420D01*
X124984Y29499D01*
X125055Y29574D01*
X125064Y29592D01*
X125077Y29607D01*
X125116Y29703D01*
X125159Y29797D01*
X125161Y29817D01*
X125169Y29835D01*
X125187Y30002D01*
X125187Y35074D01*
X131708Y35074D01*
X131993Y34998D01*
X132112Y34986D01*
X132229Y34973D01*
X132234Y34974D01*
X132238Y34974D01*
X132354Y35000D01*
X132470Y35025D01*
X132473Y35027D01*
X132477Y35028D01*
X132579Y35091D01*
X132681Y35152D01*
X132684Y35155D01*
X132687Y35157D01*
X132763Y35248D01*
X132841Y35338D01*
X132842Y35342D01*
X132845Y35345D01*
X132888Y35456D01*
X132933Y35567D01*
X132933Y35572D01*
X132935Y35575D01*
X132935Y35588D01*
X132951Y35733D01*
X132951Y40422D01*
X132937Y40512D01*
X132929Y40603D01*
X132917Y40633D01*
X132912Y40665D01*
X132869Y40745D01*
X132833Y40829D01*
X132807Y40861D01*
X132796Y40882D01*
X132773Y40904D01*
X132728Y40960D01*
X131201Y42487D01*
X131201Y45214D01*
X131198Y45234D01*
X131200Y45253D01*
X131178Y45355D01*
X131162Y45457D01*
X131152Y45474D01*
X131148Y45494D01*
X131095Y45583D01*
X131046Y45674D01*
X131032Y45688D01*
X131022Y45705D01*
X130943Y45772D01*
X130868Y45844D01*
X130850Y45852D01*
X130835Y45865D01*
X130739Y45904D01*
X130645Y45947D01*
X130625Y45949D01*
X130607Y45957D01*
X130440Y45975D01*
X128368Y45975D01*
X127475Y46868D01*
X127475Y63132D01*
X128368Y64025D01*
X131190Y64025D01*
X131210Y64028D01*
X131229Y64026D01*
X131331Y64048D01*
X131433Y64064D01*
X131450Y64074D01*
X131470Y64078D01*
X131559Y64131D01*
X131650Y64180D01*
X131664Y64194D01*
X131681Y64204D01*
X131748Y64283D01*
X131820Y64358D01*
X131828Y64376D01*
X131841Y64391D01*
X131880Y64487D01*
X131923Y64581D01*
X131925Y64601D01*
X131933Y64619D01*
X131951Y64786D01*
X131951Y64985D01*
X131937Y65075D01*
X131929Y65166D01*
X131917Y65196D01*
X131912Y65228D01*
X131869Y65308D01*
X131833Y65392D01*
X131807Y65424D01*
X131796Y65445D01*
X131773Y65467D01*
X131728Y65523D01*
X130935Y66316D01*
X130935Y110501D01*
X130921Y110591D01*
X130913Y110682D01*
X130901Y110712D01*
X130896Y110744D01*
X130853Y110824D01*
X130817Y110908D01*
X130791Y110940D01*
X130780Y110961D01*
X130757Y110983D01*
X130712Y111039D01*
X121039Y120712D01*
X120965Y120765D01*
X120896Y120825D01*
X120866Y120837D01*
X120840Y120856D01*
X120753Y120883D01*
X120668Y120917D01*
X120627Y120921D01*
X120604Y120928D01*
X120572Y120927D01*
X120501Y120935D01*
X115554Y120935D01*
X115483Y120924D01*
X115411Y120922D01*
X115362Y120904D01*
X115311Y120896D01*
X115248Y120862D01*
X115180Y120837D01*
X115140Y120805D01*
X115094Y120780D01*
X115044Y120728D01*
X114988Y120684D01*
X114960Y120640D01*
X114924Y120602D01*
X114894Y120537D01*
X114855Y120477D01*
X114843Y120426D01*
X114821Y120379D01*
X114813Y120308D01*
X114795Y120238D01*
X114799Y120186D01*
X114794Y120135D01*
X114809Y120064D01*
X114814Y119993D01*
X114835Y119945D01*
X114846Y119894D01*
X114883Y119833D01*
X114911Y119767D01*
X114956Y119711D01*
X114972Y119683D01*
X114990Y119668D01*
X115016Y119636D01*
X117557Y117095D01*
X117557Y112905D01*
X114595Y109943D01*
X110993Y109943D01*
X110902Y109929D01*
X110812Y109921D01*
X110782Y109909D01*
X110750Y109904D01*
X110669Y109861D01*
X110585Y109825D01*
X110553Y109799D01*
X110532Y109788D01*
X110510Y109765D01*
X110454Y109720D01*
X107510Y106776D01*
X107457Y106702D01*
X107397Y106632D01*
X107385Y106602D01*
X107366Y106576D01*
X107339Y106489D01*
X107305Y106404D01*
X107301Y106363D01*
X107294Y106341D01*
X107295Y106309D01*
X107287Y106237D01*
X107287Y105276D01*
X107289Y105264D01*
X107288Y105256D01*
X107297Y105216D01*
X107298Y105205D01*
X107300Y105133D01*
X107318Y105084D01*
X107326Y105033D01*
X107360Y104970D01*
X107385Y104902D01*
X107417Y104862D01*
X107442Y104816D01*
X107494Y104766D01*
X107538Y104710D01*
X107582Y104682D01*
X107620Y104646D01*
X107685Y104616D01*
X107745Y104577D01*
X107796Y104565D01*
X107843Y104543D01*
X107914Y104535D01*
X107984Y104517D01*
X108036Y104521D01*
X108087Y104516D01*
X108158Y104531D01*
X108229Y104536D01*
X108277Y104557D01*
X108328Y104568D01*
X108389Y104605D01*
X108455Y104633D01*
X108511Y104678D01*
X108539Y104694D01*
X108554Y104712D01*
X108586Y104738D01*
X110905Y107057D01*
X115095Y107057D01*
X118057Y104095D01*
X118057Y99905D01*
X115510Y97358D01*
X115457Y97284D01*
X115397Y97215D01*
X115385Y97185D01*
X115366Y97159D01*
X115339Y97072D01*
X115305Y96987D01*
X115301Y96946D01*
X115294Y96924D01*
X115295Y96891D01*
X115287Y96820D01*
X115287Y50533D01*
X115301Y50443D01*
X115309Y50352D01*
X115321Y50323D01*
X115326Y50291D01*
X115369Y50210D01*
X115405Y50126D01*
X115431Y50094D01*
X115442Y50073D01*
X115465Y50051D01*
X115510Y49995D01*
X118307Y47198D01*
X118307Y42802D01*
X115198Y39693D01*
X110802Y39693D01*
X108586Y41909D01*
X108528Y41951D01*
X108476Y42000D01*
X108429Y42022D01*
X108387Y42052D01*
X108318Y42074D01*
X108253Y42104D01*
X108201Y42109D01*
X108151Y42125D01*
X108080Y42123D01*
X108009Y42131D01*
X107958Y42120D01*
X107906Y42118D01*
X107838Y42094D01*
X107768Y42079D01*
X107723Y42052D01*
X107675Y42034D01*
X107619Y41989D01*
X107557Y41952D01*
X107523Y41913D01*
X107483Y41880D01*
X107444Y41820D01*
X107397Y41765D01*
X107378Y41717D01*
X107350Y41673D01*
X107332Y41604D01*
X107305Y41537D01*
X107297Y41466D01*
X107289Y41435D01*
X107291Y41412D01*
X107287Y41371D01*
X107287Y13835D01*
X107301Y13744D01*
X107309Y13654D01*
X107321Y13624D01*
X107326Y13592D01*
X107369Y13511D01*
X107405Y13427D01*
X107431Y13395D01*
X107442Y13374D01*
X107465Y13352D01*
X107510Y13296D01*
X112114Y8692D01*
X112172Y8650D01*
X112224Y8601D01*
X112271Y8579D01*
X112313Y8549D01*
X112382Y8528D01*
X112447Y8497D01*
X112499Y8492D01*
X112549Y8476D01*
X112620Y8478D01*
X112691Y8470D01*
X112742Y8481D01*
G37*
%LPC*%
G36*
X252258Y302261D02*
X252258Y302261D01*
X245928Y307960D01*
X242464Y315741D01*
X242464Y324259D01*
X245928Y332040D01*
X252258Y337739D01*
X260359Y340372D01*
X268830Y339481D01*
X276206Y335222D01*
X281213Y328332D01*
X282984Y320000D01*
X281213Y311669D01*
X276206Y304778D01*
X268830Y300519D01*
X260359Y299628D01*
X252258Y302261D01*
G37*
%LPD*%
G36*
X139920Y33605D02*
X139920Y33605D01*
X139991Y33611D01*
X140039Y33631D01*
X140090Y33642D01*
X140151Y33679D01*
X140217Y33707D01*
X140273Y33752D01*
X140301Y33769D01*
X140316Y33786D01*
X140348Y33812D01*
X140594Y34058D01*
X146599Y34058D01*
X146670Y34070D01*
X146742Y34072D01*
X146791Y34090D01*
X146842Y34098D01*
X146905Y34132D01*
X146973Y34156D01*
X147013Y34189D01*
X147059Y34213D01*
X147109Y34265D01*
X147165Y34310D01*
X147193Y34354D01*
X147229Y34391D01*
X147259Y34456D01*
X147298Y34517D01*
X147310Y34567D01*
X147332Y34614D01*
X147340Y34686D01*
X147358Y34755D01*
X147354Y34807D01*
X147359Y34859D01*
X147344Y34929D01*
X147339Y35000D01*
X147318Y35048D01*
X147307Y35099D01*
X147270Y35161D01*
X147242Y35227D01*
X147197Y35283D01*
X147181Y35310D01*
X147163Y35326D01*
X147137Y35358D01*
X144693Y37802D01*
X144693Y42198D01*
X146703Y44208D01*
X146771Y44303D01*
X146843Y44401D01*
X146845Y44405D01*
X146847Y44408D01*
X146881Y44520D01*
X146918Y44635D01*
X146918Y44639D01*
X146919Y44643D01*
X146916Y44762D01*
X146914Y44881D01*
X146913Y44885D01*
X146913Y44889D01*
X146873Y44999D01*
X146832Y45113D01*
X146830Y45116D01*
X146829Y45120D01*
X146754Y45213D01*
X146681Y45307D01*
X146677Y45309D01*
X146675Y45312D01*
X146663Y45320D01*
X146546Y45406D01*
X146440Y45467D01*
X145967Y45940D01*
X145632Y46519D01*
X145459Y47166D01*
X145459Y53477D01*
X152977Y53477D01*
X152977Y44843D01*
X152992Y44753D01*
X152999Y44662D01*
X153011Y44633D01*
X153017Y44601D01*
X153059Y44520D01*
X153095Y44436D01*
X153121Y44404D01*
X153132Y44383D01*
X153155Y44361D01*
X153200Y44305D01*
X155307Y42198D01*
X155307Y42048D01*
X155310Y42028D01*
X155308Y42009D01*
X155330Y41907D01*
X155346Y41805D01*
X155356Y41788D01*
X155360Y41768D01*
X155413Y41679D01*
X155462Y41588D01*
X155476Y41574D01*
X155486Y41557D01*
X155565Y41490D01*
X155640Y41418D01*
X155658Y41410D01*
X155673Y41397D01*
X155769Y41358D01*
X155863Y41315D01*
X155883Y41313D01*
X155901Y41305D01*
X156068Y41287D01*
X163190Y41287D01*
X163210Y41290D01*
X163229Y41288D01*
X163331Y41310D01*
X163433Y41326D01*
X163450Y41336D01*
X163470Y41340D01*
X163559Y41393D01*
X163650Y41442D01*
X163664Y41456D01*
X163681Y41466D01*
X163748Y41545D01*
X163820Y41620D01*
X163828Y41638D01*
X163841Y41653D01*
X163880Y41749D01*
X163923Y41843D01*
X163925Y41863D01*
X163933Y41881D01*
X163951Y42048D01*
X163951Y45020D01*
X163940Y45091D01*
X163938Y45163D01*
X163920Y45212D01*
X163912Y45263D01*
X163878Y45326D01*
X163853Y45394D01*
X163821Y45434D01*
X163796Y45480D01*
X163744Y45530D01*
X163700Y45586D01*
X163656Y45614D01*
X163618Y45650D01*
X163553Y45680D01*
X163493Y45719D01*
X163442Y45732D01*
X163395Y45753D01*
X163324Y45761D01*
X163254Y45779D01*
X163202Y45775D01*
X163151Y45781D01*
X163080Y45765D01*
X163009Y45760D01*
X162961Y45739D01*
X162910Y45728D01*
X162849Y45691D01*
X162783Y45663D01*
X162727Y45619D01*
X162699Y45602D01*
X162684Y45584D01*
X162652Y45559D01*
X162560Y45467D01*
X161981Y45132D01*
X161334Y44959D01*
X156023Y44959D01*
X156023Y53477D01*
X163541Y53477D01*
X163541Y51690D01*
X163552Y51619D01*
X163554Y51548D01*
X163572Y51499D01*
X163580Y51447D01*
X163614Y51384D01*
X163639Y51317D01*
X163671Y51276D01*
X163696Y51230D01*
X163748Y51181D01*
X163792Y51125D01*
X163836Y51096D01*
X163874Y51061D01*
X163939Y51030D01*
X163999Y50992D01*
X164050Y50979D01*
X164097Y50957D01*
X164168Y50949D01*
X164238Y50932D01*
X164290Y50936D01*
X164341Y50930D01*
X164412Y50945D01*
X164483Y50951D01*
X164531Y50971D01*
X164582Y50982D01*
X164643Y51019D01*
X164709Y51047D01*
X164765Y51092D01*
X164793Y51108D01*
X164808Y51126D01*
X164840Y51152D01*
X169728Y56040D01*
X171737Y58049D01*
X176714Y58049D01*
X176734Y58052D01*
X176753Y58050D01*
X176855Y58072D01*
X176957Y58088D01*
X176974Y58098D01*
X176994Y58102D01*
X177083Y58155D01*
X177174Y58204D01*
X177188Y58218D01*
X177205Y58228D01*
X177272Y58307D01*
X177344Y58382D01*
X177352Y58400D01*
X177365Y58415D01*
X177404Y58511D01*
X177447Y58605D01*
X177449Y58625D01*
X177457Y58643D01*
X177475Y58810D01*
X177475Y63132D01*
X178368Y64025D01*
X181190Y64025D01*
X181210Y64028D01*
X181229Y64026D01*
X181331Y64048D01*
X181433Y64064D01*
X181450Y64074D01*
X181470Y64078D01*
X181559Y64131D01*
X181650Y64180D01*
X181664Y64194D01*
X181681Y64204D01*
X181748Y64283D01*
X181820Y64358D01*
X181828Y64376D01*
X181841Y64391D01*
X181880Y64487D01*
X181923Y64581D01*
X181925Y64601D01*
X181933Y64619D01*
X181951Y64786D01*
X181951Y80174D01*
X181948Y80194D01*
X181950Y80213D01*
X181928Y80315D01*
X181912Y80417D01*
X181902Y80434D01*
X181898Y80454D01*
X181845Y80543D01*
X181796Y80634D01*
X181782Y80648D01*
X181772Y80665D01*
X181693Y80732D01*
X181618Y80804D01*
X181600Y80812D01*
X181585Y80825D01*
X181489Y80864D01*
X181395Y80907D01*
X181375Y80909D01*
X181357Y80917D01*
X181190Y80935D01*
X139826Y80935D01*
X139806Y80932D01*
X139787Y80934D01*
X139685Y80912D01*
X139583Y80896D01*
X139566Y80886D01*
X139546Y80882D01*
X139457Y80829D01*
X139366Y80780D01*
X139352Y80766D01*
X139335Y80756D01*
X139268Y80677D01*
X139196Y80602D01*
X139188Y80584D01*
X139175Y80569D01*
X139136Y80473D01*
X139093Y80379D01*
X139091Y80359D01*
X139083Y80341D01*
X139065Y80174D01*
X139065Y66316D01*
X138272Y65523D01*
X138219Y65449D01*
X138159Y65380D01*
X138147Y65350D01*
X138128Y65324D01*
X138101Y65237D01*
X138067Y65152D01*
X138063Y65111D01*
X138056Y65088D01*
X138057Y65056D01*
X138049Y64985D01*
X138049Y64786D01*
X138052Y64766D01*
X138050Y64747D01*
X138072Y64645D01*
X138088Y64543D01*
X138098Y64526D01*
X138102Y64506D01*
X138155Y64417D01*
X138204Y64326D01*
X138218Y64312D01*
X138228Y64295D01*
X138307Y64228D01*
X138382Y64156D01*
X138400Y64148D01*
X138415Y64135D01*
X138511Y64096D01*
X138605Y64053D01*
X138625Y64051D01*
X138643Y64043D01*
X138810Y64025D01*
X142632Y64025D01*
X143525Y63132D01*
X143525Y46868D01*
X142632Y45975D01*
X138174Y45975D01*
X138103Y45964D01*
X138032Y45962D01*
X137983Y45944D01*
X137931Y45936D01*
X137868Y45902D01*
X137801Y45877D01*
X137760Y45845D01*
X137714Y45820D01*
X137665Y45768D01*
X137609Y45724D01*
X137580Y45680D01*
X137545Y45642D01*
X137514Y45577D01*
X137476Y45517D01*
X137463Y45466D01*
X137441Y45419D01*
X137433Y45348D01*
X137416Y45278D01*
X137420Y45226D01*
X137414Y45175D01*
X137429Y45104D01*
X137435Y45033D01*
X137455Y44985D01*
X137466Y44934D01*
X137503Y44873D01*
X137531Y44807D01*
X137576Y44751D01*
X137592Y44723D01*
X137610Y44708D01*
X137636Y44676D01*
X139049Y43263D01*
X139049Y34350D01*
X139060Y34280D01*
X139062Y34208D01*
X139080Y34159D01*
X139088Y34108D01*
X139122Y34044D01*
X139147Y33977D01*
X139179Y33936D01*
X139204Y33890D01*
X139256Y33841D01*
X139300Y33785D01*
X139344Y33757D01*
X139382Y33721D01*
X139447Y33691D01*
X139507Y33652D01*
X139558Y33639D01*
X139605Y33617D01*
X139676Y33609D01*
X139746Y33592D01*
X139798Y33596D01*
X139849Y33590D01*
X139920Y33605D01*
G37*
G36*
X255078Y232551D02*
X255078Y232551D01*
X255168Y232559D01*
X255198Y232571D01*
X255230Y232576D01*
X255311Y232619D01*
X255395Y232655D01*
X255427Y232681D01*
X255448Y232692D01*
X255470Y232715D01*
X255526Y232760D01*
X257490Y234724D01*
X257543Y234798D01*
X257603Y234868D01*
X257615Y234898D01*
X257634Y234924D01*
X257661Y235011D01*
X257695Y235096D01*
X257699Y235137D01*
X257706Y235159D01*
X257705Y235191D01*
X257713Y235263D01*
X257713Y244820D01*
X257699Y244910D01*
X257691Y245001D01*
X257679Y245031D01*
X257674Y245063D01*
X257631Y245144D01*
X257595Y245227D01*
X257569Y245260D01*
X257558Y245280D01*
X257535Y245302D01*
X257490Y245358D01*
X254943Y247905D01*
X254943Y252095D01*
X257905Y255057D01*
X262372Y255057D01*
X262442Y255068D01*
X262514Y255070D01*
X262563Y255088D01*
X262614Y255096D01*
X262678Y255130D01*
X262745Y255155D01*
X262786Y255187D01*
X262832Y255212D01*
X262881Y255264D01*
X262937Y255308D01*
X262965Y255352D01*
X263001Y255390D01*
X263031Y255455D01*
X263070Y255515D01*
X263083Y255566D01*
X263105Y255613D01*
X263113Y255684D01*
X263130Y255754D01*
X263126Y255806D01*
X263132Y255857D01*
X263117Y255928D01*
X263111Y255999D01*
X263091Y256047D01*
X263080Y256098D01*
X263043Y256159D01*
X263015Y256225D01*
X262970Y256281D01*
X262953Y256309D01*
X262936Y256324D01*
X262910Y256356D01*
X246776Y272490D01*
X246702Y272543D01*
X246632Y272603D01*
X246602Y272615D01*
X246576Y272634D01*
X246489Y272661D01*
X246404Y272695D01*
X246363Y272699D01*
X246341Y272706D01*
X246309Y272705D01*
X246237Y272713D01*
X236825Y272713D01*
X236805Y272710D01*
X236786Y272712D01*
X236684Y272690D01*
X236582Y272674D01*
X236565Y272664D01*
X236545Y272660D01*
X236456Y272607D01*
X236365Y272558D01*
X236351Y272544D01*
X236334Y272534D01*
X236267Y272455D01*
X236195Y272380D01*
X236187Y272362D01*
X236174Y272347D01*
X236135Y272251D01*
X236092Y272157D01*
X236090Y272137D01*
X236082Y272119D01*
X236064Y271952D01*
X236064Y233298D01*
X236067Y233278D01*
X236065Y233259D01*
X236087Y233157D01*
X236103Y233055D01*
X236113Y233038D01*
X236117Y233018D01*
X236170Y232929D01*
X236219Y232838D01*
X236233Y232824D01*
X236243Y232807D01*
X236322Y232740D01*
X236397Y232668D01*
X236415Y232660D01*
X236430Y232647D01*
X236526Y232608D01*
X236620Y232565D01*
X236640Y232563D01*
X236658Y232555D01*
X236825Y232537D01*
X254987Y232537D01*
X255078Y232551D01*
G37*
%LPC*%
G36*
X30111Y325490D02*
X30111Y325490D01*
X29218Y326383D01*
X29218Y333617D01*
X30111Y334510D01*
X33678Y334510D01*
X33698Y334513D01*
X33717Y334511D01*
X33819Y334533D01*
X33921Y334550D01*
X33938Y334559D01*
X33958Y334564D01*
X34047Y334617D01*
X34138Y334665D01*
X34152Y334679D01*
X34169Y334690D01*
X34236Y334768D01*
X34308Y334843D01*
X34316Y334861D01*
X34329Y334877D01*
X34368Y334973D01*
X34411Y335066D01*
X34413Y335086D01*
X34421Y335105D01*
X34439Y335271D01*
X34439Y348392D01*
X39720Y353673D01*
X39773Y353747D01*
X39833Y353816D01*
X39845Y353846D01*
X39864Y353872D01*
X39891Y353959D01*
X39913Y354014D01*
X39915Y354019D01*
X39915Y354021D01*
X39925Y354044D01*
X39929Y354085D01*
X39936Y354107D01*
X39935Y354140D01*
X39943Y354211D01*
X39943Y357095D01*
X42905Y360057D01*
X47095Y360057D01*
X50057Y357095D01*
X50057Y352905D01*
X47095Y349943D01*
X44211Y349943D01*
X44121Y349929D01*
X44030Y349921D01*
X44000Y349909D01*
X43968Y349904D01*
X43888Y349861D01*
X43804Y349825D01*
X43772Y349799D01*
X43751Y349788D01*
X43729Y349765D01*
X43673Y349720D01*
X40252Y346299D01*
X40199Y346225D01*
X40139Y346156D01*
X40127Y346126D01*
X40108Y346100D01*
X40081Y346013D01*
X40047Y345928D01*
X40043Y345887D01*
X40036Y345865D01*
X40037Y345832D01*
X40029Y345761D01*
X40029Y335271D01*
X40032Y335252D01*
X40030Y335232D01*
X40052Y335131D01*
X40068Y335029D01*
X40078Y335011D01*
X40082Y334992D01*
X40135Y334903D01*
X40184Y334811D01*
X40198Y334798D01*
X40208Y334781D01*
X40287Y334713D01*
X40362Y334642D01*
X40380Y334634D01*
X40395Y334621D01*
X40491Y334582D01*
X40585Y334538D01*
X40605Y334536D01*
X40623Y334529D01*
X40790Y334510D01*
X44357Y334510D01*
X45250Y333617D01*
X45250Y326383D01*
X44357Y325490D01*
X30111Y325490D01*
G37*
%LPD*%
%LPC*%
G36*
X81612Y18155D02*
X81612Y18155D01*
X76255Y23512D01*
X76255Y31088D01*
X81612Y36445D01*
X89188Y36445D01*
X94545Y31088D01*
X94545Y23512D01*
X89188Y18155D01*
X81612Y18155D01*
G37*
%LPD*%
%LPC*%
G36*
X56212Y18155D02*
X56212Y18155D01*
X50855Y23512D01*
X50855Y31088D01*
X56212Y36445D01*
X63788Y36445D01*
X69145Y31088D01*
X69145Y23512D01*
X63788Y18155D01*
X56212Y18155D01*
G37*
%LPD*%
%LPC*%
G36*
X56212Y43555D02*
X56212Y43555D01*
X50855Y48912D01*
X50855Y56488D01*
X56212Y61845D01*
X63788Y61845D01*
X69145Y56488D01*
X69145Y48912D01*
X63788Y43555D01*
X56212Y43555D01*
G37*
%LPD*%
%LPC*%
G36*
X81612Y43555D02*
X81612Y43555D01*
X76255Y48912D01*
X76255Y56488D01*
X81612Y61845D01*
X89188Y61845D01*
X94545Y56488D01*
X94545Y48912D01*
X89188Y43555D01*
X81612Y43555D01*
G37*
%LPD*%
G36*
X170266Y4822D02*
X170266Y4822D01*
X170338Y4824D01*
X170387Y4842D01*
X170438Y4850D01*
X170501Y4884D01*
X170569Y4909D01*
X170609Y4941D01*
X170655Y4966D01*
X170705Y5018D01*
X170761Y5062D01*
X170789Y5106D01*
X170825Y5144D01*
X170855Y5209D01*
X170894Y5269D01*
X170906Y5320D01*
X170928Y5367D01*
X170936Y5438D01*
X170954Y5508D01*
X170950Y5560D01*
X170955Y5611D01*
X170940Y5682D01*
X170935Y5753D01*
X170914Y5801D01*
X170903Y5852D01*
X170866Y5913D01*
X170838Y5979D01*
X170793Y6035D01*
X170777Y6063D01*
X170759Y6078D01*
X170733Y6110D01*
X169725Y7118D01*
X169725Y12882D01*
X170618Y13775D01*
X178698Y13775D01*
X178718Y13778D01*
X178737Y13776D01*
X178839Y13798D01*
X178941Y13814D01*
X178958Y13824D01*
X178978Y13828D01*
X179067Y13881D01*
X179158Y13930D01*
X179172Y13944D01*
X179189Y13954D01*
X179256Y14033D01*
X179328Y14108D01*
X179336Y14126D01*
X179349Y14141D01*
X179388Y14237D01*
X179431Y14331D01*
X179433Y14351D01*
X179441Y14369D01*
X179459Y14536D01*
X179459Y15464D01*
X179456Y15484D01*
X179458Y15503D01*
X179436Y15605D01*
X179420Y15707D01*
X179410Y15724D01*
X179406Y15744D01*
X179353Y15833D01*
X179304Y15924D01*
X179290Y15938D01*
X179280Y15955D01*
X179201Y16022D01*
X179126Y16094D01*
X179108Y16102D01*
X179093Y16115D01*
X178997Y16154D01*
X178903Y16197D01*
X178883Y16199D01*
X178865Y16207D01*
X178698Y16225D01*
X170618Y16225D01*
X169861Y16982D01*
X169787Y17035D01*
X169718Y17095D01*
X169688Y17107D01*
X169662Y17126D01*
X169575Y17153D01*
X169490Y17187D01*
X169449Y17191D01*
X169427Y17198D01*
X169394Y17197D01*
X169323Y17205D01*
X168842Y17205D01*
X166319Y19728D01*
X166245Y19781D01*
X166176Y19841D01*
X166146Y19853D01*
X166120Y19872D01*
X166033Y19899D01*
X165948Y19933D01*
X165907Y19937D01*
X165885Y19944D01*
X165852Y19943D01*
X165781Y19951D01*
X165737Y19951D01*
X164499Y21189D01*
X164483Y21201D01*
X164471Y21216D01*
X164384Y21272D01*
X164300Y21333D01*
X164281Y21338D01*
X164264Y21349D01*
X164164Y21374D01*
X164065Y21405D01*
X164045Y21404D01*
X164025Y21409D01*
X163922Y21401D01*
X163819Y21399D01*
X163800Y21392D01*
X163780Y21390D01*
X163685Y21350D01*
X163588Y21314D01*
X163572Y21302D01*
X163554Y21294D01*
X163423Y21189D01*
X162724Y20490D01*
X160910Y18676D01*
X159347Y17113D01*
X158932Y17113D01*
X158912Y17110D01*
X158893Y17112D01*
X158791Y17090D01*
X158689Y17074D01*
X158672Y17064D01*
X158652Y17060D01*
X158563Y17007D01*
X158472Y16958D01*
X158458Y16944D01*
X158441Y16934D01*
X158374Y16855D01*
X158302Y16780D01*
X158294Y16762D01*
X158281Y16747D01*
X158242Y16651D01*
X158199Y16557D01*
X158197Y16537D01*
X158189Y16519D01*
X158186Y16488D01*
X158131Y16403D01*
X158071Y16319D01*
X158065Y16300D01*
X158054Y16283D01*
X158029Y16182D01*
X157998Y16084D01*
X157999Y16064D01*
X157994Y16044D01*
X158002Y15941D01*
X158005Y15838D01*
X158011Y15819D01*
X158013Y15799D01*
X158053Y15704D01*
X158089Y15607D01*
X158101Y15591D01*
X158109Y15573D01*
X158171Y15496D01*
X158171Y7635D01*
X157278Y6742D01*
X147667Y6742D01*
X147577Y6727D01*
X147486Y6720D01*
X147456Y6707D01*
X147424Y6702D01*
X147344Y6659D01*
X147260Y6624D01*
X147228Y6598D01*
X147207Y6587D01*
X147185Y6564D01*
X147129Y6519D01*
X146720Y6110D01*
X146678Y6052D01*
X146629Y6000D01*
X146607Y5953D01*
X146577Y5911D01*
X146556Y5842D01*
X146525Y5777D01*
X146520Y5725D01*
X146504Y5675D01*
X146506Y5604D01*
X146498Y5533D01*
X146509Y5482D01*
X146511Y5430D01*
X146535Y5362D01*
X146550Y5292D01*
X146577Y5248D01*
X146595Y5199D01*
X146640Y5143D01*
X146677Y5081D01*
X146716Y5047D01*
X146749Y5007D01*
X146809Y4968D01*
X146864Y4921D01*
X146912Y4902D01*
X146956Y4874D01*
X147025Y4856D01*
X147092Y4829D01*
X147163Y4821D01*
X147194Y4813D01*
X147218Y4815D01*
X147258Y4811D01*
X170195Y4811D01*
X170266Y4822D01*
G37*
%LPC*%
G36*
X160968Y318375D02*
X160968Y318375D01*
X160075Y319268D01*
X160075Y335532D01*
X160968Y336425D01*
X169232Y336425D01*
X170125Y335532D01*
X170125Y319268D01*
X169232Y318375D01*
X160968Y318375D01*
G37*
%LPD*%
%LPC*%
G36*
X229468Y350875D02*
X229468Y350875D01*
X228575Y351768D01*
X228575Y360032D01*
X229468Y360925D01*
X245732Y360925D01*
X246625Y360032D01*
X246625Y351768D01*
X245732Y350875D01*
X229468Y350875D01*
G37*
%LPD*%
%LPC*%
G36*
X229468Y338875D02*
X229468Y338875D01*
X228575Y339768D01*
X228575Y348032D01*
X229468Y348925D01*
X245732Y348925D01*
X246625Y348032D01*
X246625Y339768D01*
X245732Y338875D01*
X229468Y338875D01*
G37*
%LPD*%
%LPC*%
G36*
X184968Y318375D02*
X184968Y318375D01*
X184075Y319268D01*
X184075Y335532D01*
X184968Y336425D01*
X193232Y336425D01*
X194125Y335532D01*
X194125Y319268D01*
X193232Y318375D01*
X184968Y318375D01*
G37*
%LPD*%
G36*
X138960Y7862D02*
X138960Y7862D01*
X138979Y7860D01*
X139081Y7882D01*
X139183Y7898D01*
X139200Y7908D01*
X139220Y7912D01*
X139309Y7965D01*
X139400Y8014D01*
X139414Y8028D01*
X139431Y8038D01*
X139498Y8117D01*
X139570Y8192D01*
X139578Y8210D01*
X139591Y8225D01*
X139630Y8321D01*
X139673Y8415D01*
X139675Y8435D01*
X139683Y8453D01*
X139701Y8620D01*
X139701Y15496D01*
X139741Y15558D01*
X139801Y15641D01*
X139807Y15660D01*
X139818Y15677D01*
X139843Y15778D01*
X139874Y15877D01*
X139873Y15897D01*
X139878Y15916D01*
X139870Y16019D01*
X139867Y16122D01*
X139861Y16141D01*
X139859Y16161D01*
X139819Y16256D01*
X139783Y16353D01*
X139770Y16369D01*
X139763Y16387D01*
X139701Y16464D01*
X139701Y21552D01*
X139690Y21623D01*
X139688Y21694D01*
X139670Y21743D01*
X139662Y21795D01*
X139628Y21858D01*
X139603Y21925D01*
X139571Y21966D01*
X139546Y22012D01*
X139494Y22061D01*
X139450Y22117D01*
X139406Y22146D01*
X139368Y22181D01*
X139303Y22212D01*
X139243Y22250D01*
X139192Y22263D01*
X139145Y22285D01*
X139074Y22293D01*
X139004Y22310D01*
X138952Y22306D01*
X138901Y22312D01*
X138830Y22297D01*
X138759Y22291D01*
X138711Y22271D01*
X138660Y22260D01*
X138599Y22223D01*
X138533Y22195D01*
X138477Y22150D01*
X138449Y22134D01*
X138434Y22116D01*
X138402Y22090D01*
X135672Y19360D01*
X133571Y17259D01*
X133545Y17223D01*
X133512Y17194D01*
X133474Y17124D01*
X133427Y17059D01*
X133414Y17017D01*
X133393Y16979D01*
X133378Y16900D01*
X133355Y16824D01*
X133356Y16780D01*
X133348Y16737D01*
X133359Y16658D01*
X133361Y16578D01*
X133376Y16537D01*
X133382Y16494D01*
X133441Y16361D01*
X133445Y16347D01*
X133448Y16345D01*
X133450Y16340D01*
X133742Y15834D01*
X133915Y15188D01*
X133915Y13083D01*
X124426Y13083D01*
X124406Y13080D01*
X124387Y13082D01*
X124285Y13060D01*
X124183Y13043D01*
X124166Y13034D01*
X124146Y13030D01*
X124057Y12977D01*
X123966Y12928D01*
X123952Y12914D01*
X123935Y12904D01*
X123868Y12825D01*
X123797Y12750D01*
X123788Y12732D01*
X123775Y12717D01*
X123736Y12621D01*
X123693Y12527D01*
X123691Y12507D01*
X123683Y12489D01*
X123665Y12322D01*
X123665Y10798D01*
X123668Y10778D01*
X123666Y10759D01*
X123688Y10657D01*
X123705Y10555D01*
X123714Y10538D01*
X123718Y10518D01*
X123771Y10429D01*
X123820Y10338D01*
X123834Y10324D01*
X123844Y10307D01*
X123923Y10240D01*
X123998Y10169D01*
X124016Y10160D01*
X124031Y10147D01*
X124127Y10108D01*
X124221Y10065D01*
X124241Y10063D01*
X124259Y10055D01*
X124426Y10037D01*
X133915Y10037D01*
X133915Y8620D01*
X133918Y8600D01*
X133916Y8581D01*
X133938Y8479D01*
X133954Y8377D01*
X133964Y8360D01*
X133968Y8340D01*
X134021Y8251D01*
X134070Y8160D01*
X134084Y8146D01*
X134094Y8129D01*
X134173Y8062D01*
X134248Y7990D01*
X134266Y7982D01*
X134281Y7969D01*
X134377Y7930D01*
X134471Y7887D01*
X134491Y7885D01*
X134509Y7877D01*
X134676Y7859D01*
X138940Y7859D01*
X138960Y7862D01*
G37*
%LPC*%
G36*
X87023Y371523D02*
X87023Y371523D01*
X87023Y380041D01*
X92334Y380041D01*
X92981Y379868D01*
X93560Y379533D01*
X94033Y379060D01*
X94368Y378481D01*
X94541Y377834D01*
X94541Y371523D01*
X87023Y371523D01*
G37*
%LPD*%
%LPC*%
G36*
X82023Y276523D02*
X82023Y276523D01*
X82023Y285041D01*
X87334Y285041D01*
X87981Y284868D01*
X88560Y284533D01*
X89033Y284060D01*
X89368Y283481D01*
X89541Y282834D01*
X89541Y276523D01*
X82023Y276523D01*
G37*
%LPD*%
%LPC*%
G36*
X231023Y156523D02*
X231023Y156523D01*
X231023Y165041D01*
X236334Y165041D01*
X236981Y164868D01*
X237560Y164533D01*
X238033Y164060D01*
X238368Y163481D01*
X238541Y162834D01*
X238541Y156523D01*
X231023Y156523D01*
G37*
%LPD*%
%LPC*%
G36*
X137023Y186523D02*
X137023Y186523D01*
X137023Y195041D01*
X142334Y195041D01*
X142981Y194868D01*
X143560Y194533D01*
X144033Y194060D01*
X144368Y193481D01*
X144541Y192834D01*
X144541Y186523D01*
X137023Y186523D01*
G37*
%LPD*%
%LPC*%
G36*
X101023Y181523D02*
X101023Y181523D01*
X101023Y190041D01*
X106334Y190041D01*
X106981Y189868D01*
X107560Y189533D01*
X108033Y189060D01*
X108368Y188481D01*
X108541Y187834D01*
X108541Y181523D01*
X101023Y181523D01*
G37*
%LPD*%
%LPC*%
G36*
X101023Y146523D02*
X101023Y146523D01*
X101023Y155041D01*
X106334Y155041D01*
X106981Y154868D01*
X107560Y154533D01*
X108033Y154060D01*
X108368Y153481D01*
X108541Y152834D01*
X108541Y146523D01*
X101023Y146523D01*
G37*
%LPD*%
%LPC*%
G36*
X156023Y56523D02*
X156023Y56523D01*
X156023Y65041D01*
X161334Y65041D01*
X161981Y64868D01*
X162560Y64533D01*
X163033Y64060D01*
X163368Y63481D01*
X163541Y62834D01*
X163541Y56523D01*
X156023Y56523D01*
G37*
%LPD*%
%LPC*%
G36*
X87023Y336523D02*
X87023Y336523D01*
X87023Y345041D01*
X92334Y345041D01*
X92981Y344868D01*
X93560Y344533D01*
X94033Y344060D01*
X94368Y343481D01*
X94541Y342834D01*
X94541Y336523D01*
X87023Y336523D01*
G37*
%LPD*%
%LPC*%
G36*
X231023Y116523D02*
X231023Y116523D01*
X231023Y125041D01*
X236334Y125041D01*
X236981Y124868D01*
X237560Y124533D01*
X238033Y124060D01*
X238368Y123481D01*
X238541Y122834D01*
X238541Y116523D01*
X231023Y116523D01*
G37*
%LPD*%
%LPC*%
G36*
X137023Y174959D02*
X137023Y174959D01*
X137023Y183477D01*
X144541Y183477D01*
X144541Y177166D01*
X144368Y176519D01*
X144033Y175940D01*
X143560Y175467D01*
X142981Y175132D01*
X142334Y174959D01*
X137023Y174959D01*
G37*
%LPD*%
%LPC*%
G36*
X82023Y264959D02*
X82023Y264959D01*
X82023Y273477D01*
X89541Y273477D01*
X89541Y267166D01*
X89368Y266519D01*
X89033Y265940D01*
X88560Y265467D01*
X87981Y265132D01*
X87334Y264959D01*
X82023Y264959D01*
G37*
%LPD*%
%LPC*%
G36*
X101023Y169959D02*
X101023Y169959D01*
X101023Y178477D01*
X108541Y178477D01*
X108541Y172166D01*
X108368Y171519D01*
X108033Y170940D01*
X107560Y170467D01*
X106981Y170132D01*
X106334Y169959D01*
X101023Y169959D01*
G37*
%LPD*%
%LPC*%
G36*
X87023Y324959D02*
X87023Y324959D01*
X87023Y333477D01*
X94541Y333477D01*
X94541Y327166D01*
X94368Y326519D01*
X94033Y325940D01*
X93560Y325467D01*
X92981Y325132D01*
X92334Y324959D01*
X87023Y324959D01*
G37*
%LPD*%
%LPC*%
G36*
X231023Y144959D02*
X231023Y144959D01*
X231023Y153477D01*
X238541Y153477D01*
X238541Y147166D01*
X238368Y146519D01*
X238033Y145940D01*
X237560Y145467D01*
X236981Y145132D01*
X236334Y144959D01*
X231023Y144959D01*
G37*
%LPD*%
%LPC*%
G36*
X101023Y134959D02*
X101023Y134959D01*
X101023Y143477D01*
X108541Y143477D01*
X108541Y137166D01*
X108368Y136519D01*
X108033Y135940D01*
X107560Y135467D01*
X106981Y135132D01*
X106334Y134959D01*
X101023Y134959D01*
G37*
%LPD*%
%LPC*%
G36*
X87023Y359959D02*
X87023Y359959D01*
X87023Y368477D01*
X94541Y368477D01*
X94541Y362166D01*
X94368Y361519D01*
X94033Y360940D01*
X93560Y360467D01*
X92981Y360132D01*
X92334Y359959D01*
X87023Y359959D01*
G37*
%LPD*%
%LPC*%
G36*
X76459Y371523D02*
X76459Y371523D01*
X76459Y377834D01*
X76632Y378481D01*
X76967Y379060D01*
X77440Y379533D01*
X78019Y379868D01*
X78666Y380041D01*
X83977Y380041D01*
X83977Y371523D01*
X76459Y371523D01*
G37*
%LPD*%
%LPC*%
G36*
X220459Y116523D02*
X220459Y116523D01*
X220459Y122834D01*
X220632Y123481D01*
X220967Y124060D01*
X221440Y124533D01*
X222019Y124868D01*
X222666Y125041D01*
X227977Y125041D01*
X227977Y116523D01*
X220459Y116523D01*
G37*
%LPD*%
%LPC*%
G36*
X90459Y181523D02*
X90459Y181523D01*
X90459Y187834D01*
X90632Y188481D01*
X90967Y189060D01*
X91440Y189533D01*
X92019Y189868D01*
X92666Y190041D01*
X97977Y190041D01*
X97977Y181523D01*
X90459Y181523D01*
G37*
%LPD*%
%LPC*%
G36*
X90459Y146523D02*
X90459Y146523D01*
X90459Y152834D01*
X90632Y153481D01*
X90967Y154060D01*
X91440Y154533D01*
X92019Y154868D01*
X92666Y155041D01*
X97977Y155041D01*
X97977Y146523D01*
X90459Y146523D01*
G37*
%LPD*%
%LPC*%
G36*
X71459Y276523D02*
X71459Y276523D01*
X71459Y282834D01*
X71632Y283481D01*
X71967Y284060D01*
X72440Y284533D01*
X73019Y284868D01*
X73666Y285041D01*
X78977Y285041D01*
X78977Y276523D01*
X71459Y276523D01*
G37*
%LPD*%
%LPC*%
G36*
X220459Y156523D02*
X220459Y156523D01*
X220459Y162834D01*
X220632Y163481D01*
X220967Y164060D01*
X221440Y164533D01*
X222019Y164868D01*
X222666Y165041D01*
X227977Y165041D01*
X227977Y156523D01*
X220459Y156523D01*
G37*
%LPD*%
%LPC*%
G36*
X126459Y186523D02*
X126459Y186523D01*
X126459Y192834D01*
X126632Y193481D01*
X126967Y194060D01*
X127440Y194533D01*
X128019Y194868D01*
X128666Y195041D01*
X133977Y195041D01*
X133977Y186523D01*
X126459Y186523D01*
G37*
%LPD*%
%LPC*%
G36*
X145459Y56523D02*
X145459Y56523D01*
X145459Y62834D01*
X145632Y63481D01*
X145967Y64060D01*
X146440Y64533D01*
X147019Y64868D01*
X147666Y65041D01*
X152977Y65041D01*
X152977Y56523D01*
X145459Y56523D01*
G37*
%LPD*%
%LPC*%
G36*
X76459Y336523D02*
X76459Y336523D01*
X76459Y342834D01*
X76632Y343481D01*
X76967Y344060D01*
X77440Y344533D01*
X78019Y344868D01*
X78666Y345041D01*
X83977Y345041D01*
X83977Y336523D01*
X76459Y336523D01*
G37*
%LPD*%
%LPC*%
G36*
X195459Y56523D02*
X195459Y56523D01*
X195459Y62834D01*
X195632Y63481D01*
X195967Y64060D01*
X196440Y64533D01*
X197019Y64868D01*
X197666Y65041D01*
X202977Y65041D01*
X202977Y56523D01*
X195459Y56523D01*
G37*
%LPD*%
%LPC*%
G36*
X128666Y174959D02*
X128666Y174959D01*
X128019Y175132D01*
X127440Y175467D01*
X126967Y175940D01*
X126632Y176519D01*
X126459Y177166D01*
X126459Y183477D01*
X133977Y183477D01*
X133977Y174959D01*
X128666Y174959D01*
G37*
%LPD*%
%LPC*%
G36*
X222666Y104959D02*
X222666Y104959D01*
X222019Y105132D01*
X221440Y105467D01*
X220967Y105940D01*
X220632Y106519D01*
X220459Y107166D01*
X220459Y113477D01*
X227977Y113477D01*
X227977Y104959D01*
X222666Y104959D01*
G37*
%LPD*%
%LPC*%
G36*
X92666Y169959D02*
X92666Y169959D01*
X92019Y170132D01*
X91440Y170467D01*
X90967Y170940D01*
X90632Y171519D01*
X90459Y172166D01*
X90459Y178477D01*
X97977Y178477D01*
X97977Y169959D01*
X92666Y169959D01*
G37*
%LPD*%
%LPC*%
G36*
X222666Y144959D02*
X222666Y144959D01*
X222019Y145132D01*
X221440Y145467D01*
X220967Y145940D01*
X220632Y146519D01*
X220459Y147166D01*
X220459Y153477D01*
X227977Y153477D01*
X227977Y144959D01*
X222666Y144959D01*
G37*
%LPD*%
%LPC*%
G36*
X92666Y134959D02*
X92666Y134959D01*
X92019Y135132D01*
X91440Y135467D01*
X90967Y135940D01*
X90632Y136519D01*
X90459Y137166D01*
X90459Y143477D01*
X97977Y143477D01*
X97977Y134959D01*
X92666Y134959D01*
G37*
%LPD*%
%LPC*%
G36*
X197666Y44959D02*
X197666Y44959D01*
X197019Y45132D01*
X196440Y45467D01*
X195967Y45940D01*
X195632Y46519D01*
X195459Y47166D01*
X195459Y53477D01*
X202977Y53477D01*
X202977Y44959D01*
X197666Y44959D01*
G37*
%LPD*%
%LPC*%
G36*
X78666Y359959D02*
X78666Y359959D01*
X78019Y360132D01*
X77440Y360467D01*
X76967Y360940D01*
X76632Y361519D01*
X76459Y362166D01*
X76459Y368477D01*
X83977Y368477D01*
X83977Y359959D01*
X78666Y359959D01*
G37*
%LPD*%
%LPC*%
G36*
X78666Y324959D02*
X78666Y324959D01*
X78019Y325132D01*
X77440Y325467D01*
X76967Y325940D01*
X76632Y326519D01*
X76459Y327166D01*
X76459Y333477D01*
X83977Y333477D01*
X83977Y324959D01*
X78666Y324959D01*
G37*
%LPD*%
%LPC*%
G36*
X73666Y264959D02*
X73666Y264959D01*
X73019Y265132D01*
X72440Y265467D01*
X71967Y265940D01*
X71632Y266519D01*
X71459Y267166D01*
X71459Y273477D01*
X78977Y273477D01*
X78977Y264959D01*
X73666Y264959D01*
G37*
%LPD*%
%LPC*%
G36*
X36123Y54223D02*
X36123Y54223D01*
X36123Y62861D01*
X38809Y62861D01*
X44761Y56909D01*
X44761Y54223D01*
X36123Y54223D01*
G37*
%LPD*%
%LPC*%
G36*
X24439Y54223D02*
X24439Y54223D01*
X24439Y56909D01*
X30391Y62861D01*
X33077Y62861D01*
X33077Y54223D01*
X24439Y54223D01*
G37*
%LPD*%
%LPC*%
G36*
X36123Y42539D02*
X36123Y42539D01*
X36123Y51177D01*
X44761Y51177D01*
X44761Y48491D01*
X38809Y42539D01*
X36123Y42539D01*
G37*
%LPD*%
%LPC*%
G36*
X266839Y168823D02*
X266839Y168823D01*
X266839Y171509D01*
X272791Y177461D01*
X275477Y177461D01*
X275477Y168823D01*
X266839Y168823D01*
G37*
%LPD*%
%LPC*%
G36*
X272791Y157139D02*
X272791Y157139D01*
X266839Y163091D01*
X266839Y165777D01*
X275477Y165777D01*
X275477Y157139D01*
X272791Y157139D01*
G37*
%LPD*%
%LPC*%
G36*
X30391Y42539D02*
X30391Y42539D01*
X24439Y48491D01*
X24439Y51177D01*
X33077Y51177D01*
X33077Y42539D01*
X30391Y42539D01*
G37*
%LPD*%
%LPC*%
G36*
X113413Y30763D02*
X113413Y30763D01*
X113413Y32868D01*
X113586Y33514D01*
X113921Y34094D01*
X114394Y34567D01*
X114973Y34901D01*
X115620Y35074D01*
X122141Y35074D01*
X122141Y30763D01*
X113413Y30763D01*
G37*
%LPD*%
%LPC*%
G36*
X217185Y205833D02*
X217185Y205833D01*
X216538Y206006D01*
X215959Y206341D01*
X215486Y206814D01*
X215151Y207393D01*
X214978Y208040D01*
X214978Y209563D01*
X224842Y209563D01*
X224842Y205833D01*
X217185Y205833D01*
G37*
%LPD*%
%LPC*%
G36*
X227216Y205833D02*
X227216Y205833D01*
X227216Y209563D01*
X237080Y209563D01*
X237080Y208040D01*
X236907Y207393D01*
X236572Y206814D01*
X236099Y206341D01*
X235520Y206006D01*
X234873Y205833D01*
X227216Y205833D01*
G37*
%LPD*%
%LPC*%
G36*
X59258Y340992D02*
X59258Y340992D01*
X59258Y345026D01*
X64591Y345026D01*
X65238Y344853D01*
X65817Y344519D01*
X66290Y344046D01*
X66625Y343466D01*
X66798Y342820D01*
X66798Y340992D01*
X59258Y340992D01*
G37*
%LPD*%
%LPC*%
G36*
X48734Y340992D02*
X48734Y340992D01*
X48734Y342820D01*
X48907Y343466D01*
X49242Y344046D01*
X49715Y344519D01*
X50294Y344853D01*
X50941Y345026D01*
X56274Y345026D01*
X56274Y340992D01*
X48734Y340992D01*
G37*
%LPD*%
%LPC*%
G36*
X59258Y333974D02*
X59258Y333974D01*
X59258Y338008D01*
X66798Y338008D01*
X66798Y336180D01*
X66625Y335534D01*
X66290Y334954D01*
X65817Y334481D01*
X65238Y334147D01*
X64591Y333974D01*
X59258Y333974D01*
G37*
%LPD*%
%LPC*%
G36*
X50941Y333974D02*
X50941Y333974D01*
X50294Y334147D01*
X49715Y334481D01*
X49242Y334954D01*
X48907Y335534D01*
X48734Y336180D01*
X48734Y338008D01*
X56274Y338008D01*
X56274Y333974D01*
X50941Y333974D01*
G37*
%LPD*%
%LPC*%
G36*
X34599Y52699D02*
X34599Y52699D01*
X34599Y52701D01*
X34601Y52701D01*
X34601Y52699D01*
X34599Y52699D01*
G37*
%LPD*%
%LPC*%
G36*
X85499Y369999D02*
X85499Y369999D01*
X85499Y370001D01*
X85501Y370001D01*
X85501Y369999D01*
X85499Y369999D01*
G37*
%LPD*%
%LPC*%
G36*
X229499Y114999D02*
X229499Y114999D01*
X229499Y115001D01*
X229501Y115001D01*
X229501Y114999D01*
X229499Y114999D01*
G37*
%LPD*%
%LPC*%
G36*
X80499Y274999D02*
X80499Y274999D01*
X80499Y275001D01*
X80501Y275001D01*
X80501Y274999D01*
X80499Y274999D01*
G37*
%LPD*%
%LPC*%
G36*
X85499Y334999D02*
X85499Y334999D01*
X85499Y335001D01*
X85501Y335001D01*
X85501Y334999D01*
X85499Y334999D01*
G37*
%LPD*%
%LPC*%
G36*
X229499Y154999D02*
X229499Y154999D01*
X229499Y155001D01*
X229501Y155001D01*
X229501Y154999D01*
X229499Y154999D01*
G37*
%LPD*%
%LPC*%
G36*
X135499Y184999D02*
X135499Y184999D01*
X135499Y185001D01*
X135501Y185001D01*
X135501Y184999D01*
X135499Y184999D01*
G37*
%LPD*%
%LPC*%
G36*
X99499Y179999D02*
X99499Y179999D01*
X99499Y180001D01*
X99501Y180001D01*
X99501Y179999D01*
X99499Y179999D01*
G37*
%LPD*%
%LPC*%
G36*
X99499Y144999D02*
X99499Y144999D01*
X99499Y145001D01*
X99501Y145001D01*
X99501Y144999D01*
X99499Y144999D01*
G37*
%LPD*%
%LPC*%
G36*
X154499Y54999D02*
X154499Y54999D01*
X154499Y55001D01*
X154501Y55001D01*
X154501Y54999D01*
X154499Y54999D01*
G37*
%LPD*%
D10*
X104500Y335000D03*
X85500Y335000D03*
X104500Y370000D03*
X85500Y370000D03*
X154500Y185000D03*
X135500Y185000D03*
X80500Y145000D03*
X99500Y145000D03*
X99500Y180000D03*
X80500Y180000D03*
D11*
X204500Y30000D03*
X204500Y20000D03*
X204500Y10000D03*
X175500Y10000D03*
X175500Y20000D03*
X175500Y30000D03*
D12*
X190000Y20000D03*
D10*
X185500Y55000D03*
X204500Y55000D03*
X229500Y115000D03*
X210500Y115000D03*
X229500Y155000D03*
X210500Y155000D03*
D13*
X153971Y210750D03*
X153971Y217250D03*
X153971Y223750D03*
X153971Y230250D03*
X153971Y236750D03*
X153971Y243250D03*
X153971Y249750D03*
X153971Y256250D03*
X153971Y262750D03*
X153971Y269250D03*
X226029Y269250D03*
X226029Y262750D03*
X226029Y256250D03*
X226029Y249750D03*
X226029Y243250D03*
X226029Y236750D03*
X226029Y230250D03*
X226029Y223750D03*
X226029Y217250D03*
X226029Y210750D03*
D14*
X57766Y339500D03*
X57766Y320500D03*
X37234Y330000D03*
D15*
X148936Y29240D03*
X148936Y20400D03*
X148936Y11560D03*
X123664Y11560D03*
X123664Y20400D03*
X123664Y29240D03*
D10*
X99500Y240000D03*
X80500Y240000D03*
X99500Y275000D03*
X80500Y275000D03*
X135500Y55000D03*
X154500Y55000D03*
D16*
X277000Y116500D03*
X277000Y141900D03*
X277000Y167300D03*
X277000Y192700D03*
X277000Y218100D03*
X277000Y243500D03*
D17*
X34600Y27300D03*
X34600Y52700D03*
X60000Y27300D03*
X60000Y52700D03*
X85400Y27300D03*
X85400Y52700D03*
D18*
X237600Y343900D03*
X237600Y355900D03*
X237600Y367900D03*
X237600Y379900D03*
X237600Y391900D03*
D19*
X225100Y327400D03*
X213100Y327400D03*
X201100Y327400D03*
X189100Y327400D03*
X177100Y327400D03*
X165100Y327400D03*
D18*
X152600Y343900D03*
X152600Y355900D03*
X152600Y367900D03*
X152600Y379900D03*
X152600Y391900D03*
D20*
X57500Y210000D03*
D21*
X58266Y320000D02*
X57766Y320500D01*
X58266Y320000D02*
X58266Y305000D01*
X58266Y240000D01*
D22*
X58266Y210766D02*
X58266Y305000D01*
D21*
X58266Y210766D02*
X57500Y210000D01*
X152500Y210750D02*
X153971Y210750D01*
X152500Y210750D02*
X58250Y210750D01*
X57500Y210000D01*
D23*
X185000Y85000D02*
X185000Y52000D01*
D22*
X135000Y85000D02*
X135000Y112500D01*
X122500Y125000D01*
X67500Y125000D01*
X57500Y135000D01*
X57500Y210000D01*
D24*
X58266Y240000D02*
X80500Y240000D01*
D21*
X154500Y208750D02*
X154500Y185250D01*
D24*
X154500Y208750D02*
X152500Y210750D01*
D22*
X277000Y141900D02*
X220100Y85000D01*
X185000Y85000D01*
X135000Y85000D01*
D21*
X135625Y55000D02*
X135625Y54250D01*
X135500Y54875D02*
X134250Y54875D01*
D22*
X34600Y27300D02*
X17000Y44900D01*
X17000Y75000D01*
X67000Y125000D01*
X67500Y125000D01*
D21*
X104500Y321500D02*
X104500Y370000D01*
X103500Y320500D02*
X57766Y320500D01*
X103500Y320500D02*
X104500Y321500D01*
X186500Y61000D02*
X185500Y55000D01*
X185000Y52000D01*
D23*
X135000Y54500D02*
X135000Y68000D01*
D22*
X135000Y85000D01*
D21*
X170000Y20000D02*
X175500Y20000D01*
X170000Y20000D02*
X167000Y23000D01*
D23*
X167000Y49000D01*
X173000Y55000D01*
X185500Y55000D01*
D21*
X152390Y369000D02*
X104500Y369000D01*
D24*
X152390Y369000D02*
X152600Y367900D01*
D23*
X134250Y43750D02*
X136000Y42000D01*
X134250Y43750D02*
X134250Y54875D01*
X136000Y42000D02*
X136000Y30000D01*
D21*
X136760Y29240D01*
D23*
X148936Y29240D01*
X136000Y30000D02*
X136000Y24000D01*
X132400Y20400D01*
X123664Y20400D01*
D24*
X153971Y230250D02*
X167750Y230250D01*
X172500Y235000D01*
D20*
X172500Y235000D03*
D24*
X277000Y172279D02*
X277000Y167300D01*
X277000Y172279D02*
X238529Y210750D01*
X226029Y210750D01*
D20*
X135000Y392500D03*
X120000Y392500D03*
X120000Y377000D03*
X135000Y377000D03*
X135000Y360000D03*
X120000Y360000D03*
X120000Y345000D03*
X135000Y345000D03*
X135000Y330000D03*
X120000Y330000D03*
X120000Y315000D03*
X150000Y320000D03*
X185000Y312500D03*
X235000Y315000D03*
X255000Y350000D03*
X275000Y350000D03*
X275000Y365000D03*
X255000Y365000D03*
X255000Y380000D03*
X255000Y392500D03*
X275000Y392500D03*
X275000Y380000D03*
X100000Y390000D03*
X75000Y390000D03*
X235000Y290000D03*
X195000Y290000D03*
X150000Y290000D03*
X100000Y300000D03*
X75000Y300000D03*
X90000Y350000D03*
X20000Y360000D03*
X20000Y330000D03*
X20000Y300000D03*
X20000Y270000D03*
X20000Y240000D03*
X45000Y300000D03*
X45000Y270000D03*
X45000Y240000D03*
X45000Y210000D03*
X275000Y290000D03*
X275000Y265000D03*
X245000Y265000D03*
X245000Y240000D03*
X245000Y195000D03*
X245000Y165000D03*
X245000Y135000D03*
X275000Y100000D03*
X210000Y100000D03*
X160000Y150000D03*
X130000Y150000D03*
X45000Y185000D03*
X45000Y150000D03*
X220000Y365000D03*
X220000Y350000D03*
X205000Y350000D03*
X205000Y365000D03*
X205000Y380000D03*
X205000Y392500D03*
X90000Y105000D03*
X60000Y105000D03*
X15000Y95000D03*
X35000Y75000D03*
X15000Y35000D03*
X15000Y10000D03*
X130000Y225000D03*
X95000Y195000D03*
X130000Y200000D03*
X215000Y195000D03*
X210000Y170000D03*
X210000Y135000D03*
X245000Y75000D03*
X275000Y75000D03*
X75000Y40000D03*
X60000Y75000D03*
X15000Y190000D03*
X15000Y210000D03*
X70000Y195000D03*
X60000Y10000D03*
X99000Y10000D03*
X165000Y10000D03*
X160000Y70000D03*
X120000Y70000D03*
X160000Y100000D03*
X225000Y60000D03*
D24*
X277000Y218100D02*
X271350Y223750D01*
X226029Y223750D01*
X171250Y223750D02*
X153971Y223750D01*
X180000Y232500D02*
X180000Y257500D01*
X197500Y275000D01*
X247500Y275000D01*
X277000Y245500D01*
X277000Y243500D01*
X180000Y232500D02*
X171250Y223750D01*
X226029Y217250D02*
X241825Y217250D01*
X266375Y192700D01*
X277000Y192700D01*
X153971Y236750D02*
X126352Y236750D01*
X118175Y244927D01*
X118175Y295073D01*
X127890Y304788D01*
X190721Y304788D01*
X201100Y315167D01*
X201100Y327400D01*
X213100Y327400D02*
X213100Y315100D01*
X198000Y300000D01*
X132500Y300000D01*
X122500Y290000D01*
X122500Y247500D01*
X127500Y242500D01*
X153221Y242500D01*
X153971Y243250D01*
D20*
X67500Y165000D03*
D24*
X153971Y217250D02*
X166590Y217250D01*
X169767Y214073D01*
X169767Y174927D01*
X159947Y165107D01*
X67607Y165107D01*
X67500Y165000D01*
X80107Y178500D02*
X80107Y148500D01*
X166590Y249750D02*
X225100Y308260D01*
X166590Y249750D02*
X153971Y249750D01*
X225100Y308260D02*
X225100Y327400D01*
X99500Y275000D02*
X99500Y238680D01*
X98500Y282500D02*
X126000Y310000D01*
X98500Y282500D02*
X99500Y275000D01*
X126000Y310000D02*
X169500Y310000D01*
X177100Y317600D01*
X177100Y327400D01*
D20*
X197500Y105000D03*
D24*
X187500Y115000D02*
X210500Y115000D01*
X197500Y105000D02*
X187500Y105000D01*
X226029Y243250D02*
X225367Y243912D01*
X216262Y243912D01*
X202500Y230150D01*
X202500Y195000D01*
X187500Y180000D01*
X187500Y115000D01*
X187500Y105000D01*
D25*
X219110Y74360D03*
D24*
X215000Y70250D01*
X215000Y35000D01*
X210000Y30000D01*
X204500Y30000D01*
D20*
X195000Y155000D03*
D24*
X210500Y155000D01*
X226029Y236750D02*
X225367Y237412D01*
X216572Y237412D01*
X207500Y228340D01*
X207500Y192500D02*
X195000Y180000D01*
X195000Y155000D01*
X207500Y192500D02*
X207500Y228340D01*
D25*
X175000Y42360D03*
D24*
X175000Y30500D02*
X175500Y30000D01*
X175000Y30500D02*
X175000Y42360D01*
X153971Y256250D02*
X141250Y256250D01*
X135000Y250000D01*
D20*
X135000Y250000D03*
X113000Y102000D03*
D25*
X113000Y45000D03*
X150000Y40000D03*
D24*
X113000Y45000D02*
X113000Y102000D01*
X148936Y20400D02*
X149936Y19400D01*
X158400Y19400D01*
X162000Y23000D01*
X162000Y39000D02*
X151000Y39000D01*
X150000Y40000D01*
X162000Y39000D02*
X162000Y23000D01*
X153971Y262750D02*
X137750Y262750D01*
X135000Y260000D01*
D20*
X135000Y260000D03*
X112500Y115000D03*
D24*
X148936Y11560D02*
X142948Y5572D01*
X112000Y5572D01*
X105000Y107500D02*
X112500Y115000D01*
X105000Y12572D02*
X112000Y5572D01*
X105000Y12572D02*
X105000Y107500D01*
D20*
X45000Y355000D03*
D21*
X37234Y347234D01*
X37234Y330000D01*
D24*
X212750Y262750D02*
X226029Y262750D01*
X212750Y262750D02*
X205000Y255000D01*
D20*
X205000Y255000D03*
D24*
X204250Y269250D02*
X226029Y269250D01*
X204250Y269250D02*
X195000Y260000D01*
D20*
X195000Y260000D03*
D24*
X216250Y256250D02*
X226029Y256250D01*
X216250Y256250D02*
X205000Y245000D01*
D20*
X185000Y220000D03*
D24*
X205000Y240000D02*
X205000Y245000D01*
X205000Y240000D02*
X185000Y220000D01*
X151700Y391000D02*
X152600Y391900D01*
X151700Y391000D02*
X143000Y391000D01*
X138000Y386000D02*
X128000Y386000D01*
X138000Y386000D02*
X143000Y391000D01*
D20*
X128000Y386000D03*
X260000Y250000D03*
D24*
X260000Y234000D01*
X256250Y230250D01*
X226029Y230250D01*
M02*
