G04 EAGLE Gerber RS-274X export*
G75*
%MOMM*%
%FSLAX34Y34*%
%LPD*%
%INBottom Paste*%
%IPPOS*%
%AMOC8*
5,1,8,0,0,1.08239X$1,22.5*%
G01*
%ADD10R,1.300000X1.500000*%
%ADD11R,0.850000X0.450000*%
%ADD12R,1.600000X2.500000*%
%ADD13R,1.702000X0.475200*%
%ADD14R,1.298200X0.597100*%
%ADD15R,1.542000X0.658700*%
%ADD16R,1.500000X0.700000*%
%ADD17R,0.700000X1.500000*%


D10*
X104500Y335000D03*
X85500Y335000D03*
X104500Y370000D03*
X85500Y370000D03*
X154500Y185000D03*
X135500Y185000D03*
X80500Y145000D03*
X99500Y145000D03*
X99500Y180000D03*
X80500Y180000D03*
D11*
X204500Y30000D03*
X204500Y20000D03*
X204500Y10000D03*
X175500Y10000D03*
X175500Y20000D03*
X175500Y30000D03*
D12*
X190000Y20000D03*
D10*
X185500Y55000D03*
X204500Y55000D03*
X229500Y115000D03*
X210500Y115000D03*
X229500Y155000D03*
X210500Y155000D03*
D13*
X153971Y210750D03*
X153971Y217250D03*
X153971Y223750D03*
X153971Y230250D03*
X153971Y236750D03*
X153971Y243250D03*
X153971Y249750D03*
X153971Y256250D03*
X153971Y262750D03*
X153971Y269250D03*
X226029Y269250D03*
X226029Y262750D03*
X226029Y256250D03*
X226029Y249750D03*
X226029Y243250D03*
X226029Y236750D03*
X226029Y230250D03*
X226029Y223750D03*
X226029Y217250D03*
X226029Y210750D03*
D14*
X57766Y339500D03*
X57766Y320500D03*
X37234Y330000D03*
D15*
X148936Y29240D03*
X148936Y20400D03*
X148936Y11560D03*
X123664Y11560D03*
X123664Y20400D03*
X123664Y29240D03*
D10*
X99500Y240000D03*
X80500Y240000D03*
X99500Y275000D03*
X80500Y275000D03*
X135500Y55000D03*
X154500Y55000D03*
D16*
X237600Y343900D03*
X237600Y355900D03*
X237600Y367900D03*
X237600Y379900D03*
X237600Y391900D03*
D17*
X225100Y327400D03*
X213100Y327400D03*
X201100Y327400D03*
X189100Y327400D03*
X177100Y327400D03*
X165100Y327400D03*
D16*
X152600Y343900D03*
X152600Y355900D03*
X152600Y367900D03*
X152600Y379900D03*
X152600Y391900D03*
M02*
